999
FreeCAD v0.19 24291 (Git)
  0
SECTION
  2
HEADER
  9
$ACADVER
  1
AC1014
  9
$ACADMAINTVER
 70
     9
  9
$DWGCODEPAGE
  3
ANSI_1252
  9
$TEXTSTYLE
  7
STANDARD
  9
$DIMSTYLE
  2
STANDARD
  9
$DIMTXSTY
  7
STANDARD
  9
$CMLSTYLE
  2
STANDARD
  9
$PEXTMAX
 10
50
 20
50
 30
50
  9
$PEXTMIN
 10
0
 20
0
 30
0
  9
$HANDSEED
  5
FFFF
  0
ENDSEC
  0
SECTION
  2
CLASSES
  0
CLASS
  1
ACDBDICTIONARYWDFLT
  2
AcDbDictionaryWithDefault
  3
ObjectDBX Classes
 90
        0
280
     0
281
     0
  0
CLASS
  1
XRECORD
  2
AcDbXrecord
  3
ObjectDBX Classes
 90
        0
280
     0
281
     0
  0
CLASS
  1
LWPOLYLINE
  2
AcDbPolyline
  3
ObjectDBX Classes
 90
        0
280
     0
281
     1
  0
ENDSEC
  0
SECTION
  2
TABLES
  0
TABLE
  2
VPORT
  5
20
330
0
100
AcDbSymbolTable
 70
     1
  0
VPORT
  5
21
330
20
100
AcDbSymbolTableRecord
100
AcDbViewportTableRecord
  2
*ACTIVE
 70
     0
  0
ENDTAB
  0
TABLE
  2
LTYPE
  5
22
330
0
100
AcDbSymbolTable
 70
     1
  0
LTYPE
  5
23
330
21
100
AcDbSymbolTableRecord
100
AcDbLinetypeTableRecord
  2
BYBLOCK
 70
     0
  3

 72
    65
 73
     0
 40
0.0
  0
LTYPE
  5
24
330
21
100
AcDbSymbolTableRecord
100
AcDbLinetypeTableRecord
  2
BYLAYER
 70
     0
  3

 72
    65
 73
     0
 40
0.0
  0
LTYPE
  5
25
330
21
100
AcDbSymbolTableRecord
100
AcDbLinetypeTableRecord
  2
CONTINUOUS
 70
     0
  3
Solid line
 72
    65
 73
     0
 40
0.0
  0
ENDTAB
  0
TABLE
  2
LAYER
  5
DF5
330
0
100
AcDbSymbolTable
 70
3
  0
LAYER
  5
DF6
330
DF5
100
AcDbSymbolTableRecord
100
AcDbLayerTableRecord
  2
0
 70
   0
 62
   7
  6
CONTINUOUS
  0
LAYER
  5
DF7
330
DF5
100
AcDbSymbolTableRecord
100
AcDbLayerTableRecord
  2
none
 70
    0
 62
    7
  6
CONTINUOUS
  0
LAYER
  5
DF8
330
DF5
100
AcDbSymbolTableRecord
100
AcDbLayerTableRecord
  2
Shape
 70
    0
 62
    7
  6
CONTINUOUS
  0
ENDTAB
  0
TABLE
  2
STYLE
  5
70
330
0
100
AcDbSymbolTable
 70
     2
  0
STYLE
  5
71
330
70
100
AcDbSymbolTableRecord
100
AcDbTextStyleTableRecord
  2
STANDARD
 70
     0
 40
0.0
 41
1.0
 50
0.0
 71
     0
 42
2.5
  3
arial.ttf
  4

  0
STYLE
  5
72
330
70
100
AcDbSymbolTableRecord
100
AcDbTextStyleTableRecord
  2
ANNOTATIVE
 70
     0
 40
0.0
 41
1.0
 50
0.0
 71
     0
 42
2.5
  3
arial.ttf
  4

  0
ENDTAB
  0
TABLE
  2
VIEW
  5
73
330
0
100
AcDbSymbolTable
 70
     0
  0
ENDTAB
  0
TABLE
  2
UCS
  5
74
330
0
100
AcDbSymbolTable
 70
     0
  0
ENDTAB
  0
TABLE
  2
APPID
  5
75
330
0
100
AcDbSymbolTable
 70
     2
  0
APPID
  5
76
330
75
100
AcDbSymbolTableRecord
100
AcDbRegAppTableRecord
  2
ACAD
 70
     0
  0
APPID
  5
77
330
75
100
AcDbSymbolTableRecord
100
AcDbRegAppTableRecord
  2
ACADANNOTATIVE
 70
     0
  0
ENDTAB
  0
TABLE
  2
DIMSTYLE
  5
78
330
0
100
AcDbSymbolTable
 70
     2
  0
DIMSTYLE
105
79
330
78
100
AcDbSymbolTableRecord
100
AcDbDimStyleTableRecord
  2
STANDARD
 70
     0
  3

  4

  5

  6

  7

 40
0.0
 41
2.5
 42
0.625
 43
3.75
 44
1.25
 45
0.0
 46
0.0
 47
0.0
 48
0.0
140
2.5
141
2.5
142
0.0
143
0.03937007874016
144
1.0
145
0.0
146
1.0
147
0.625
 71
     0
 72
     0
 73
     0
 74
     0
 75
     0
 76
     0
 77
     1
 78
     8
170
     0
171
     3
172
     1
173
     0
174
     0
175
     0
176
     0
177
     0
178
     0
270
     2
271
     2
272
     2
273
     2
274
     3
340
71
275
     0
280
     0
281
     0
282
     0
283
     0
284
     8
285
     0
286
     0
287
     3
288
     0
  0
ENDTAB
  0
TABLE
  2
BLOCK_RECORD
  5
A01
330
0
100
AcDbSymbolTable
  70
5
  0
BLOCK_RECORD
  5
A02
330
A01
100
AcDbSymbolTableRecord
100
AcDbBlockTableRecord
  2
*MODEL_SPACE
  0
BLOCK_RECORD
  5
A03
330
A01
100
AcDbSymbolTableRecord
100
AcDbBlockTableRecord
  2
*PAPER_SPACE
  0
ENDTAB
  0
ENDSEC
  0
SECTION
  2
BLOCKS
  0
BLOCK
  5
A04
330
A02
100
AcDbEntity
  8
0
100
AcDbBlockBegin
  2
*MODEL_SPACE
 70
   0
 10
0
 20
0
 30
0
  3
*MODEL_SPACE
  1
 
  0
ENDBLK
  5
A05
330
A02
100
AcDbEntity
  8
0
100
AcDbBlockEnd
  0
BLOCK
  5
A06
330
A03
100
AcDbEntity
 67
1
  8
0
100
AcDbBlockBegin
  2
*PAPER_SPACE
 70
   0
 10
0
 20
0
 30
0
  3
*PAPER_SPACE
  1
 
  0
ENDBLK
  5
A07
330
A03
100
AcDbEntity
 67
    1
  8
0
100
AcDbBlockEnd
  0
ENDSEC
  0
SECTION
  2
ENTITIES
  0
LINE
  5
A08
330
A02
100
AcDbEntity
  8
Shape
100
AcDbLine
 10
0
 20
0
 30
0
 11
0.4
 21
0.354164
 31
0
  0
LINE
  5
A09
330
A02
100
AcDbEntity
  8
Shape
100
AcDbLine
 10
0.4
 20
0.354164
 30
0
 11
0.8
 21
0.595451
 31
0
  0
LINE
  5
A0A
330
A02
100
AcDbEntity
  8
Shape
100
AcDbLine
 10
0.8
 20
0.595451
 30
0
 11
1.2
 21
0.806834
 31
0
  0
LINE
  5
A0B
330
A02
100
AcDbEntity
  8
Shape
100
AcDbLine
 10
1.2
 20
0.806834
 30
0
 11
1.6
 21
1.00082
 31
0
  0
LINE
  5
A0C
330
A02
100
AcDbEntity
  8
Shape
100
AcDbLine
 10
1.6
 20
1.00082
 30
0
 11
2
 21
1.18279
 31
0
  0
LINE
  5
A0D
330
A02
100
AcDbEntity
  8
Shape
100
AcDbLine
 10
2
 20
1.18279
 30
0
 11
2.4
 21
1.3557
 31
0
  0
LINE
  5
A0E
330
A02
100
AcDbEntity
  8
Shape
100
AcDbLine
 10
2.4
 20
1.3557
 30
0
 11
2.8
 21
1.5214
 31
0
  0
LINE
  5
A0F
330
A02
100
AcDbEntity
  8
Shape
100
AcDbLine
 10
2.8
 20
1.5214
 30
0
 11
3.2
 21
1.68114
 31
0
  0
LINE
  5
A10
330
A02
100
AcDbEntity
  8
Shape
100
AcDbLine
 10
3.2
 20
1.68114
 30
0
 11
3.6
 21
1.83585
 31
0
  0
LINE
  5
A11
330
A02
100
AcDbEntity
  8
Shape
100
AcDbLine
 10
3.6
 20
1.83585
 30
0
 11
4
 21
1.9862
 31
0
  0
LINE
  5
A12
330
A02
100
AcDbEntity
  8
Shape
100
AcDbLine
 10
4
 20
1.9862
 30
0
 11
4.4
 21
2.13273
 31
0
  0
LINE
  5
A13
330
A02
100
AcDbEntity
  8
Shape
100
AcDbLine
 10
4.4
 20
2.13273
 30
0
 11
4.8
 21
2.27586
 31
0
  0
LINE
  5
A14
330
A02
100
AcDbEntity
  8
Shape
100
AcDbLine
 10
4.8
 20
2.27586
 30
0
 11
5.2
 21
2.41593
 31
0
  0
LINE
  5
A15
330
A02
100
AcDbEntity
  8
Shape
100
AcDbLine
 10
5.2
 20
2.41593
 30
0
 11
5.6
 21
2.55323
 31
0
  0
LINE
  5
A16
330
A02
100
AcDbEntity
  8
Shape
100
AcDbLine
 10
5.6
 20
2.55323
 30
0
 11
6
 21
2.688
 31
0
  0
LINE
  5
A17
330
A02
100
AcDbEntity
  8
Shape
100
AcDbLine
 10
6
 20
2.688
 30
0
 11
6.4
 21
2.82045
 31
0
  0
LINE
  5
A18
330
A02
100
AcDbEntity
  8
Shape
100
AcDbLine
 10
6.4
 20
2.82045
 30
0
 11
6.8
 21
2.95074
 31
0
  0
LINE
  5
A19
330
A02
100
AcDbEntity
  8
Shape
100
AcDbLine
 10
6.8
 20
2.95074
 30
0
 11
7.2
 21
3.07904
 31
0
  0
LINE
  5
A1A
330
A02
100
AcDbEntity
  8
Shape
100
AcDbLine
 10
7.2
 20
3.07904
 30
0
 11
7.6
 21
3.20548
 31
0
  0
LINE
  5
A1B
330
A02
100
AcDbEntity
  8
Shape
100
AcDbLine
 10
7.6
 20
3.20548
 30
0
 11
8
 21
3.33017
 31
0
  0
LINE
  5
A1C
330
A02
100
AcDbEntity
  8
Shape
100
AcDbLine
 10
8
 20
3.33017
 30
0
 11
8.4
 21
3.45322
 31
0
  0
LINE
  5
A1D
330
A02
100
AcDbEntity
  8
Shape
100
AcDbLine
 10
8.4
 20
3.45322
 30
0
 11
8.8
 21
3.57473
 31
0
  0
LINE
  5
A1E
330
A02
100
AcDbEntity
  8
Shape
100
AcDbLine
 10
8.8
 20
3.57473
 30
0
 11
9.2
 21
3.69477
 31
0
  0
LINE
  5
A1F
330
A02
100
AcDbEntity
  8
Shape
100
AcDbLine
 10
9.2
 20
3.69477
 30
0
 11
9.6
 21
3.81343
 31
0
  0
LINE
  5
A20
330
A02
100
AcDbEntity
  8
Shape
100
AcDbLine
 10
9.6
 20
3.81343
 30
0
 11
10
 21
3.93077
 31
0
  0
LINE
  5
A21
330
A02
100
AcDbEntity
  8
Shape
100
AcDbLine
 10
10
 20
3.93077
 30
0
 11
10.4
 21
4.04686
 31
0
  0
LINE
  5
A22
330
A02
100
AcDbEntity
  8
Shape
100
AcDbLine
 10
10.4
 20
4.04686
 30
0
 11
10.8
 21
4.16175
 31
0
  0
LINE
  5
A23
330
A02
100
AcDbEntity
  8
Shape
100
AcDbLine
 10
10.8
 20
4.16175
 30
0
 11
11.2
 21
4.27549
 31
0
  0
LINE
  5
A24
330
A02
100
AcDbEntity
  8
Shape
100
AcDbLine
 10
11.2
 20
4.27549
 30
0
 11
11.6
 21
4.38814
 31
0
  0
LINE
  5
A25
330
A02
100
AcDbEntity
  8
Shape
100
AcDbLine
 10
11.6
 20
4.38814
 30
0
 11
12
 21
4.49974
 31
0
  0
LINE
  5
A26
330
A02
100
AcDbEntity
  8
Shape
100
AcDbLine
 10
12
 20
4.49974
 30
0
 11
12.4
 21
4.61033
 31
0
  0
LINE
  5
A27
330
A02
100
AcDbEntity
  8
Shape
100
AcDbLine
 10
12.4
 20
4.61033
 30
0
 11
12.8
 21
4.71995
 31
0
  0
LINE
  5
A28
330
A02
100
AcDbEntity
  8
Shape
100
AcDbLine
 10
12.8
 20
4.71995
 30
0
 11
13.2
 21
4.82864
 31
0
  0
LINE
  5
A29
330
A02
100
AcDbEntity
  8
Shape
100
AcDbLine
 10
13.2
 20
4.82864
 30
0
 11
13.6
 21
4.93642
 31
0
  0
LINE
  5
A2A
330
A02
100
AcDbEntity
  8
Shape
100
AcDbLine
 10
13.6
 20
4.93642
 30
0
 11
14
 21
5.04333
 31
0
  0
LINE
  5
A2B
330
A02
100
AcDbEntity
  8
Shape
100
AcDbLine
 10
14
 20
5.04333
 30
0
 11
14.4
 21
5.1494
 31
0
  0
LINE
  5
A2C
330
A02
100
AcDbEntity
  8
Shape
100
AcDbLine
 10
14.4
 20
5.1494
 30
0
 11
14.8
 21
5.25465
 31
0
  0
LINE
  5
A2D
330
A02
100
AcDbEntity
  8
Shape
100
AcDbLine
 10
14.8
 20
5.25465
 30
0
 11
15.2
 21
5.35912
 31
0
  0
LINE
  5
A2E
330
A02
100
AcDbEntity
  8
Shape
100
AcDbLine
 10
15.2
 20
5.35912
 30
0
 11
15.6
 21
5.46282
 31
0
  0
LINE
  5
A2F
330
A02
100
AcDbEntity
  8
Shape
100
AcDbLine
 10
15.6
 20
5.46282
 30
0
 11
16
 21
5.56578
 31
0
  0
LINE
  5
A30
330
A02
100
AcDbEntity
  8
Shape
100
AcDbLine
 10
16
 20
5.56578
 30
0
 11
16.4
 21
5.66802
 31
0
  0
LINE
  5
A31
330
A02
100
AcDbEntity
  8
Shape
100
AcDbLine
 10
16.4
 20
5.66802
 30
0
 11
16.8
 21
5.76956
 31
0
  0
LINE
  5
A32
330
A02
100
AcDbEntity
  8
Shape
100
AcDbLine
 10
16.8
 20
5.76956
 30
0
 11
17.2
 21
5.87041
 31
0
  0
LINE
  5
A33
330
A02
100
AcDbEntity
  8
Shape
100
AcDbLine
 10
17.2
 20
5.87041
 30
0
 11
17.6
 21
5.97061
 31
0
  0
LINE
  5
A34
330
A02
100
AcDbEntity
  8
Shape
100
AcDbLine
 10
17.6
 20
5.97061
 30
0
 11
18
 21
6.07016
 31
0
  0
LINE
  5
A35
330
A02
100
AcDbEntity
  8
Shape
100
AcDbLine
 10
18
 20
6.07016
 30
0
 11
18.4
 21
6.16908
 31
0
  0
LINE
  5
A36
330
A02
100
AcDbEntity
  8
Shape
100
AcDbLine
 10
18.4
 20
6.16908
 30
0
 11
18.8
 21
6.26739
 31
0
  0
LINE
  5
A37
330
A02
100
AcDbEntity
  8
Shape
100
AcDbLine
 10
18.8
 20
6.26739
 30
0
 11
19.2
 21
6.3651
 31
0
  0
LINE
  5
A38
330
A02
100
AcDbEntity
  8
Shape
100
AcDbLine
 10
19.2
 20
6.3651
 30
0
 11
19.6
 21
6.46223
 31
0
  0
LINE
  5
A39
330
A02
100
AcDbEntity
  8
Shape
100
AcDbLine
 10
19.6
 20
6.46223
 30
0
 11
20
 21
6.55878
 31
0
  0
LINE
  5
A3A
330
A02
100
AcDbEntity
  8
Shape
100
AcDbLine
 10
20
 20
6.55878
 30
0
 11
20.4
 21
6.65478
 31
0
  0
LINE
  5
A3B
330
A02
100
AcDbEntity
  8
Shape
100
AcDbLine
 10
20.4
 20
6.65478
 30
0
 11
20.8
 21
6.75023
 31
0
  0
LINE
  5
A3C
330
A02
100
AcDbEntity
  8
Shape
100
AcDbLine
 10
20.8
 20
6.75023
 30
0
 11
21.2
 21
6.84515
 31
0
  0
LINE
  5
A3D
330
A02
100
AcDbEntity
  8
Shape
100
AcDbLine
 10
21.2
 20
6.84515
 30
0
 11
21.6
 21
6.93955
 31
0
  0
LINE
  5
A3E
330
A02
100
AcDbEntity
  8
Shape
100
AcDbLine
 10
21.6
 20
6.93955
 30
0
 11
22
 21
7.03344
 31
0
  0
LINE
  5
A3F
330
A02
100
AcDbEntity
  8
Shape
100
AcDbLine
 10
22
 20
7.03344
 30
0
 11
22.4
 21
7.12683
 31
0
  0
LINE
  5
A40
330
A02
100
AcDbEntity
  8
Shape
100
AcDbLine
 10
22.4
 20
7.12683
 30
0
 11
22.8
 21
7.21972
 31
0
  0
LINE
  5
A41
330
A02
100
AcDbEntity
  8
Shape
100
AcDbLine
 10
22.8
 20
7.21972
 30
0
 11
23.2
 21
7.31214
 31
0
  0
LINE
  5
A42
330
A02
100
AcDbEntity
  8
Shape
100
AcDbLine
 10
23.2
 20
7.31214
 30
0
 11
23.6
 21
7.40408
 31
0
  0
LINE
  5
A43
330
A02
100
AcDbEntity
  8
Shape
100
AcDbLine
 10
23.6
 20
7.40408
 30
0
 11
24
 21
7.49556
 31
0
  0
LINE
  5
A44
330
A02
100
AcDbEntity
  8
Shape
100
AcDbLine
 10
24
 20
7.49556
 30
0
 11
24.4
 21
7.58659
 31
0
  0
LINE
  5
A45
330
A02
100
AcDbEntity
  8
Shape
100
AcDbLine
 10
24.4
 20
7.58659
 30
0
 11
24.8
 21
7.67717
 31
0
  0
LINE
  5
A46
330
A02
100
AcDbEntity
  8
Shape
100
AcDbLine
 10
24.8
 20
7.67717
 30
0
 11
25.2
 21
7.76731
 31
0
  0
LINE
  5
A47
330
A02
100
AcDbEntity
  8
Shape
100
AcDbLine
 10
25.2
 20
7.76731
 30
0
 11
25.6
 21
7.85702
 31
0
  0
LINE
  5
A48
330
A02
100
AcDbEntity
  8
Shape
100
AcDbLine
 10
25.6
 20
7.85702
 30
0
 11
26
 21
7.94631
 31
0
  0
LINE
  5
A49
330
A02
100
AcDbEntity
  8
Shape
100
AcDbLine
 10
26
 20
7.94631
 30
0
 11
26.4
 21
8.03519
 31
0
  0
LINE
  5
A4A
330
A02
100
AcDbEntity
  8
Shape
100
AcDbLine
 10
26.4
 20
8.03519
 30
0
 11
26.8
 21
8.12365
 31
0
  0
LINE
  5
A4B
330
A02
100
AcDbEntity
  8
Shape
100
AcDbLine
 10
26.8
 20
8.12365
 30
0
 11
27.2
 21
8.21171
 31
0
  0
LINE
  5
A4C
330
A02
100
AcDbEntity
  8
Shape
100
AcDbLine
 10
27.2
 20
8.21171
 30
0
 11
27.6
 21
8.29938
 31
0
  0
LINE
  5
A4D
330
A02
100
AcDbEntity
  8
Shape
100
AcDbLine
 10
27.6
 20
8.29938
 30
0
 11
28
 21
8.38666
 31
0
  0
LINE
  5
A4E
330
A02
100
AcDbEntity
  8
Shape
100
AcDbLine
 10
28
 20
8.38666
 30
0
 11
28.4
 21
8.47355
 31
0
  0
LINE
  5
A4F
330
A02
100
AcDbEntity
  8
Shape
100
AcDbLine
 10
28.4
 20
8.47355
 30
0
 11
28.8
 21
8.56007
 31
0
  0
LINE
  5
A50
330
A02
100
AcDbEntity
  8
Shape
100
AcDbLine
 10
28.8
 20
8.56007
 30
0
 11
29.2
 21
8.64621
 31
0
  0
LINE
  5
A51
330
A02
100
AcDbEntity
  8
Shape
100
AcDbLine
 10
29.2
 20
8.64621
 30
0
 11
29.6
 21
8.73199
 31
0
  0
LINE
  5
A52
330
A02
100
AcDbEntity
  8
Shape
100
AcDbLine
 10
29.6
 20
8.73199
 30
0
 11
30
 21
8.81741
 31
0
  0
LINE
  5
A53
330
A02
100
AcDbEntity
  8
Shape
100
AcDbLine
 10
30
 20
8.81741
 30
0
 11
30.4
 21
8.90247
 31
0
  0
LINE
  5
A54
330
A02
100
AcDbEntity
  8
Shape
100
AcDbLine
 10
30.4
 20
8.90247
 30
0
 11
30.8
 21
8.98717
 31
0
  0
LINE
  5
A55
330
A02
100
AcDbEntity
  8
Shape
100
AcDbLine
 10
30.8
 20
8.98717
 30
0
 11
31.2
 21
9.07154
 31
0
  0
LINE
  5
A56
330
A02
100
AcDbEntity
  8
Shape
100
AcDbLine
 10
31.2
 20
9.07154
 30
0
 11
31.6
 21
9.15556
 31
0
  0
LINE
  5
A57
330
A02
100
AcDbEntity
  8
Shape
100
AcDbLine
 10
31.6
 20
9.15556
 30
0
 11
32
 21
9.23924
 31
0
  0
LINE
  5
A58
330
A02
100
AcDbEntity
  8
Shape
100
AcDbLine
 10
32
 20
9.23924
 30
0
 11
32.4
 21
9.3226
 31
0
  0
LINE
  5
A59
330
A02
100
AcDbEntity
  8
Shape
100
AcDbLine
 10
32.4
 20
9.3226
 30
0
 11
32.8
 21
9.40562
 31
0
  0
LINE
  5
A5A
330
A02
100
AcDbEntity
  8
Shape
100
AcDbLine
 10
32.8
 20
9.40562
 30
0
 11
33.2
 21
9.48832
 31
0
  0
LINE
  5
A5B
330
A02
100
AcDbEntity
  8
Shape
100
AcDbLine
 10
33.2
 20
9.48832
 30
0
 11
33.6
 21
9.5707
 31
0
  0
LINE
  5
A5C
330
A02
100
AcDbEntity
  8
Shape
100
AcDbLine
 10
33.6
 20
9.5707
 30
0
 11
34
 21
9.65277
 31
0
  0
LINE
  5
A5D
330
A02
100
AcDbEntity
  8
Shape
100
AcDbLine
 10
34
 20
9.65277
 30
0
 11
34.4
 21
9.73452
 31
0
  0
LINE
  5
A5E
330
A02
100
AcDbEntity
  8
Shape
100
AcDbLine
 10
34.4
 20
9.73452
 30
0
 11
34.8
 21
9.81596
 31
0
  0
LINE
  5
A5F
330
A02
100
AcDbEntity
  8
Shape
100
AcDbLine
 10
34.8
 20
9.81596
 30
0
 11
35.2
 21
9.8971
 31
0
  0
LINE
  5
A60
330
A02
100
AcDbEntity
  8
Shape
100
AcDbLine
 10
35.2
 20
9.8971
 30
0
 11
35.6
 21
9.97794
 31
0
  0
LINE
  5
A61
330
A02
100
AcDbEntity
  8
Shape
100
AcDbLine
 10
35.6
 20
9.97794
 30
0
 11
36
 21
10.0585
 31
0
  0
LINE
  5
A62
330
A02
100
AcDbEntity
  8
Shape
100
AcDbLine
 10
36
 20
10.0585
 30
0
 11
36.4
 21
10.1387
 31
0
  0
LINE
  5
A63
330
A02
100
AcDbEntity
  8
Shape
100
AcDbLine
 10
36.4
 20
10.1387
 30
0
 11
36.8
 21
10.2187
 31
0
  0
LINE
  5
A64
330
A02
100
AcDbEntity
  8
Shape
100
AcDbLine
 10
36.8
 20
10.2187
 30
0
 11
37.2
 21
10.2984
 31
0
  0
LINE
  5
A65
330
A02
100
AcDbEntity
  8
Shape
100
AcDbLine
 10
37.2
 20
10.2984
 30
0
 11
37.6
 21
10.3777
 31
0
  0
LINE
  5
A66
330
A02
100
AcDbEntity
  8
Shape
100
AcDbLine
 10
37.6
 20
10.3777
 30
0
 11
38
 21
10.4569
 31
0
  0
LINE
  5
A67
330
A02
100
AcDbEntity
  8
Shape
100
AcDbLine
 10
38
 20
10.4569
 30
0
 11
38.4
 21
10.5357
 31
0
  0
LINE
  5
A68
330
A02
100
AcDbEntity
  8
Shape
100
AcDbLine
 10
38.4
 20
10.5357
 30
0
 11
38.8
 21
10.6142
 31
0
  0
LINE
  5
A69
330
A02
100
AcDbEntity
  8
Shape
100
AcDbLine
 10
38.8
 20
10.6142
 30
0
 11
39.2
 21
10.6925
 31
0
  0
LINE
  5
A6A
330
A02
100
AcDbEntity
  8
Shape
100
AcDbLine
 10
39.2
 20
10.6925
 30
0
 11
39.6
 21
10.7705
 31
0
  0
LINE
  5
A6B
330
A02
100
AcDbEntity
  8
Shape
100
AcDbLine
 10
39.6
 20
10.7705
 30
0
 11
40
 21
10.8483
 31
0
  0
LINE
  5
A6C
330
A02
100
AcDbEntity
  8
Shape
100
AcDbLine
 10
40
 20
10.8483
 30
0
 11
40.4
 21
10.9257
 31
0
  0
LINE
  5
A6D
330
A02
100
AcDbEntity
  8
Shape
100
AcDbLine
 10
40.4
 20
10.9257
 30
0
 11
40.8
 21
11.003
 31
0
  0
LINE
  5
A6E
330
A02
100
AcDbEntity
  8
Shape
100
AcDbLine
 10
40.8
 20
11.003
 30
0
 11
41.2
 21
11.0799
 31
0
  0
LINE
  5
A6F
330
A02
100
AcDbEntity
  8
Shape
100
AcDbLine
 10
41.2
 20
11.0799
 30
0
 11
41.6
 21
11.1566
 31
0
  0
LINE
  5
A70
330
A02
100
AcDbEntity
  8
Shape
100
AcDbLine
 10
41.6
 20
11.1566
 30
0
 11
42
 21
11.2331
 31
0
  0
LINE
  5
A71
330
A02
100
AcDbEntity
  8
Shape
100
AcDbLine
 10
42
 20
11.2331
 30
0
 11
42.4
 21
11.3093
 31
0
  0
LINE
  5
A72
330
A02
100
AcDbEntity
  8
Shape
100
AcDbLine
 10
42.4
 20
11.3093
 30
0
 11
42.8
 21
11.3852
 31
0
  0
LINE
  5
A73
330
A02
100
AcDbEntity
  8
Shape
100
AcDbLine
 10
42.8
 20
11.3852
 30
0
 11
43.2
 21
11.4609
 31
0
  0
LINE
  5
A74
330
A02
100
AcDbEntity
  8
Shape
100
AcDbLine
 10
43.2
 20
11.4609
 30
0
 11
43.6
 21
11.5364
 31
0
  0
LINE
  5
A75
330
A02
100
AcDbEntity
  8
Shape
100
AcDbLine
 10
43.6
 20
11.5364
 30
0
 11
44
 21
11.6116
 31
0
  0
LINE
  5
A76
330
A02
100
AcDbEntity
  8
Shape
100
AcDbLine
 10
44
 20
11.6116
 30
0
 11
44.4
 21
11.6865
 31
0
  0
LINE
  5
A77
330
A02
100
AcDbEntity
  8
Shape
100
AcDbLine
 10
44.4
 20
11.6865
 30
0
 11
44.8
 21
11.7613
 31
0
  0
LINE
  5
A78
330
A02
100
AcDbEntity
  8
Shape
100
AcDbLine
 10
44.8
 20
11.7613
 30
0
 11
45.2
 21
11.8358
 31
0
  0
LINE
  5
A79
330
A02
100
AcDbEntity
  8
Shape
100
AcDbLine
 10
45.2
 20
11.8358
 30
0
 11
45.6
 21
11.91
 31
0
  0
LINE
  5
A7A
330
A02
100
AcDbEntity
  8
Shape
100
AcDbLine
 10
45.6
 20
11.91
 30
0
 11
46
 21
11.984
 31
0
  0
LINE
  5
A7B
330
A02
100
AcDbEntity
  8
Shape
100
AcDbLine
 10
46
 20
11.984
 30
0
 11
46.4
 21
12.0578
 31
0
  0
LINE
  5
A7C
330
A02
100
AcDbEntity
  8
Shape
100
AcDbLine
 10
46.4
 20
12.0578
 30
0
 11
46.8
 21
12.1314
 31
0
  0
LINE
  5
A7D
330
A02
100
AcDbEntity
  8
Shape
100
AcDbLine
 10
46.8
 20
12.1314
 30
0
 11
47.2
 21
12.2048
 31
0
  0
LINE
  5
A7E
330
A02
100
AcDbEntity
  8
Shape
100
AcDbLine
 10
47.2
 20
12.2048
 30
0
 11
47.6
 21
12.2779
 31
0
  0
LINE
  5
A7F
330
A02
100
AcDbEntity
  8
Shape
100
AcDbLine
 10
47.6
 20
12.2779
 30
0
 11
48
 21
12.3508
 31
0
  0
LINE
  5
A80
330
A02
100
AcDbEntity
  8
Shape
100
AcDbLine
 10
48
 20
12.3508
 30
0
 11
48.4
 21
12.4234
 31
0
  0
LINE
  5
A81
330
A02
100
AcDbEntity
  8
Shape
100
AcDbLine
 10
48.4
 20
12.4234
 30
0
 11
48.8
 21
12.4959
 31
0
  0
LINE
  5
A82
330
A02
100
AcDbEntity
  8
Shape
100
AcDbLine
 10
48.8
 20
12.4959
 30
0
 11
49.2
 21
12.5681
 31
0
  0
LINE
  5
A83
330
A02
100
AcDbEntity
  8
Shape
100
AcDbLine
 10
49.2
 20
12.5681
 30
0
 11
49.6
 21
12.6402
 31
0
  0
LINE
  5
A84
330
A02
100
AcDbEntity
  8
Shape
100
AcDbLine
 10
49.6
 20
12.6402
 30
0
 11
50
 21
12.712
 31
0
  0
LINE
  5
A85
330
A02
100
AcDbEntity
  8
Shape
100
AcDbLine
 10
50
 20
12.712
 30
0
 11
50.4
 21
12.7835
 31
0
  0
LINE
  5
A86
330
A02
100
AcDbEntity
  8
Shape
100
AcDbLine
 10
50.4
 20
12.7835
 30
0
 11
50.8
 21
12.8549
 31
0
  0
LINE
  5
A87
330
A02
100
AcDbEntity
  8
Shape
100
AcDbLine
 10
50.8
 20
12.8549
 30
0
 11
51.2
 21
12.9261
 31
0
  0
LINE
  5
A88
330
A02
100
AcDbEntity
  8
Shape
100
AcDbLine
 10
51.2
 20
12.9261
 30
0
 11
51.6
 21
12.9971
 31
0
  0
LINE
  5
A89
330
A02
100
AcDbEntity
  8
Shape
100
AcDbLine
 10
51.6
 20
12.9971
 30
0
 11
52
 21
13.0678
 31
0
  0
LINE
  5
A8A
330
A02
100
AcDbEntity
  8
Shape
100
AcDbLine
 10
52
 20
13.0678
 30
0
 11
52.4
 21
13.1384
 31
0
  0
LINE
  5
A8B
330
A02
100
AcDbEntity
  8
Shape
100
AcDbLine
 10
52.4
 20
13.1384
 30
0
 11
52.8
 21
13.2087
 31
0
  0
LINE
  5
A8C
330
A02
100
AcDbEntity
  8
Shape
100
AcDbLine
 10
52.8
 20
13.2087
 30
0
 11
53.2
 21
13.2788
 31
0
  0
LINE
  5
A8D
330
A02
100
AcDbEntity
  8
Shape
100
AcDbLine
 10
53.2
 20
13.2788
 30
0
 11
53.6
 21
13.3488
 31
0
  0
LINE
  5
A8E
330
A02
100
AcDbEntity
  8
Shape
100
AcDbLine
 10
53.6
 20
13.3488
 30
0
 11
54
 21
13.4185
 31
0
  0
LINE
  5
A8F
330
A02
100
AcDbEntity
  8
Shape
100
AcDbLine
 10
54
 20
13.4185
 30
0
 11
54.4
 21
13.4881
 31
0
  0
LINE
  5
A90
330
A02
100
AcDbEntity
  8
Shape
100
AcDbLine
 10
54.4
 20
13.4881
 30
0
 11
54.8
 21
13.5574
 31
0
  0
LINE
  5
A91
330
A02
100
AcDbEntity
  8
Shape
100
AcDbLine
 10
54.8
 20
13.5574
 30
0
 11
55.2
 21
13.6266
 31
0
  0
LINE
  5
A92
330
A02
100
AcDbEntity
  8
Shape
100
AcDbLine
 10
55.2
 20
13.6266
 30
0
 11
55.6
 21
13.6955
 31
0
  0
LINE
  5
A93
330
A02
100
AcDbEntity
  8
Shape
100
AcDbLine
 10
55.6
 20
13.6955
 30
0
 11
56
 21
13.7643
 31
0
  0
LINE
  5
A94
330
A02
100
AcDbEntity
  8
Shape
100
AcDbLine
 10
56
 20
13.7643
 30
0
 11
56.4
 21
13.8328
 31
0
  0
LINE
  5
A95
330
A02
100
AcDbEntity
  8
Shape
100
AcDbLine
 10
56.4
 20
13.8328
 30
0
 11
56.8
 21
13.9012
 31
0
  0
LINE
  5
A96
330
A02
100
AcDbEntity
  8
Shape
100
AcDbLine
 10
56.8
 20
13.9012
 30
0
 11
57.2
 21
13.9694
 31
0
  0
LINE
  5
A97
330
A02
100
AcDbEntity
  8
Shape
100
AcDbLine
 10
57.2
 20
13.9694
 30
0
 11
57.6
 21
14.0374
 31
0
  0
LINE
  5
A98
330
A02
100
AcDbEntity
  8
Shape
100
AcDbLine
 10
57.6
 20
14.0374
 30
0
 11
58
 21
14.1052
 31
0
  0
LINE
  5
A99
330
A02
100
AcDbEntity
  8
Shape
100
AcDbLine
 10
58
 20
14.1052
 30
0
 11
58.4
 21
14.1728
 31
0
  0
LINE
  5
A9A
330
A02
100
AcDbEntity
  8
Shape
100
AcDbLine
 10
58.4
 20
14.1728
 30
0
 11
58.8
 21
14.2402
 31
0
  0
LINE
  5
A9B
330
A02
100
AcDbEntity
  8
Shape
100
AcDbLine
 10
58.8
 20
14.2402
 30
0
 11
59.2
 21
14.3075
 31
0
  0
LINE
  5
A9C
330
A02
100
AcDbEntity
  8
Shape
100
AcDbLine
 10
59.2
 20
14.3075
 30
0
 11
59.6
 21
14.3745
 31
0
  0
LINE
  5
A9D
330
A02
100
AcDbEntity
  8
Shape
100
AcDbLine
 10
59.6
 20
14.3745
 30
0
 11
60
 21
14.4414
 31
0
  0
LINE
  5
A9E
330
A02
100
AcDbEntity
  8
Shape
100
AcDbLine
 10
60
 20
14.4414
 30
0
 11
60.4
 21
14.5081
 31
0
  0
LINE
  5
A9F
330
A02
100
AcDbEntity
  8
Shape
100
AcDbLine
 10
60.4
 20
14.5081
 30
0
 11
60.8
 21
14.5746
 31
0
  0
LINE
  5
AA0
330
A02
100
AcDbEntity
  8
Shape
100
AcDbLine
 10
60.8
 20
14.5746
 30
0
 11
61.2
 21
14.641
 31
0
  0
LINE
  5
AA1
330
A02
100
AcDbEntity
  8
Shape
100
AcDbLine
 10
61.2
 20
14.641
 30
0
 11
61.6
 21
14.7071
 31
0
  0
LINE
  5
AA2
330
A02
100
AcDbEntity
  8
Shape
100
AcDbLine
 10
61.6
 20
14.7071
 30
0
 11
62
 21
14.7731
 31
0
  0
LINE
  5
AA3
330
A02
100
AcDbEntity
  8
Shape
100
AcDbLine
 10
62
 20
14.7731
 30
0
 11
62.4
 21
14.8389
 31
0
  0
LINE
  5
AA4
330
A02
100
AcDbEntity
  8
Shape
100
AcDbLine
 10
62.4
 20
14.8389
 30
0
 11
62.8
 21
14.9046
 31
0
  0
LINE
  5
AA5
330
A02
100
AcDbEntity
  8
Shape
100
AcDbLine
 10
62.8
 20
14.9046
 30
0
 11
63.2
 21
14.97
 31
0
  0
LINE
  5
AA6
330
A02
100
AcDbEntity
  8
Shape
100
AcDbLine
 10
63.2
 20
14.97
 30
0
 11
63.6
 21
15.0353
 31
0
  0
LINE
  5
AA7
330
A02
100
AcDbEntity
  8
Shape
100
AcDbLine
 10
63.6
 20
15.0353
 30
0
 11
64
 21
15.1004
 31
0
  0
LINE
  5
AA8
330
A02
100
AcDbEntity
  8
Shape
100
AcDbLine
 10
64
 20
15.1004
 30
0
 11
64.4
 21
15.1653
 31
0
  0
LINE
  5
AA9
330
A02
100
AcDbEntity
  8
Shape
100
AcDbLine
 10
64.4
 20
15.1653
 30
0
 11
64.8
 21
15.2301
 31
0
  0
LINE
  5
AAA
330
A02
100
AcDbEntity
  8
Shape
100
AcDbLine
 10
64.8
 20
15.2301
 30
0
 11
65.2
 21
15.2947
 31
0
  0
LINE
  5
AAB
330
A02
100
AcDbEntity
  8
Shape
100
AcDbLine
 10
65.2
 20
15.2947
 30
0
 11
65.6
 21
15.3591
 31
0
  0
LINE
  5
AAC
330
A02
100
AcDbEntity
  8
Shape
100
AcDbLine
 10
65.6
 20
15.3591
 30
0
 11
66
 21
15.4234
 31
0
  0
LINE
  5
AAD
330
A02
100
AcDbEntity
  8
Shape
100
AcDbLine
 10
66
 20
15.4234
 30
0
 11
66.4
 21
15.4875
 31
0
  0
LINE
  5
AAE
330
A02
100
AcDbEntity
  8
Shape
100
AcDbLine
 10
66.4
 20
15.4875
 30
0
 11
66.8
 21
15.5514
 31
0
  0
LINE
  5
AAF
330
A02
100
AcDbEntity
  8
Shape
100
AcDbLine
 10
66.8
 20
15.5514
 30
0
 11
67.2
 21
15.6151
 31
0
  0
LINE
  5
AB0
330
A02
100
AcDbEntity
  8
Shape
100
AcDbLine
 10
67.2
 20
15.6151
 30
0
 11
67.6
 21
15.6787
 31
0
  0
LINE
  5
AB1
330
A02
100
AcDbEntity
  8
Shape
100
AcDbLine
 10
67.6
 20
15.6787
 30
0
 11
68
 21
15.7421
 31
0
  0
LINE
  5
AB2
330
A02
100
AcDbEntity
  8
Shape
100
AcDbLine
 10
68
 20
15.7421
 30
0
 11
68.4
 21
15.8054
 31
0
  0
LINE
  5
AB3
330
A02
100
AcDbEntity
  8
Shape
100
AcDbLine
 10
68.4
 20
15.8054
 30
0
 11
68.8
 21
15.8685
 31
0
  0
LINE
  5
AB4
330
A02
100
AcDbEntity
  8
Shape
100
AcDbLine
 10
68.8
 20
15.8685
 30
0
 11
69.2
 21
15.9314
 31
0
  0
LINE
  5
AB5
330
A02
100
AcDbEntity
  8
Shape
100
AcDbLine
 10
69.2
 20
15.9314
 30
0
 11
69.6
 21
15.9942
 31
0
  0
LINE
  5
AB6
330
A02
100
AcDbEntity
  8
Shape
100
AcDbLine
 10
69.6
 20
15.9942
 30
0
 11
70
 21
16.0568
 31
0
  0
LINE
  5
AB7
330
A02
100
AcDbEntity
  8
Shape
100
AcDbLine
 10
70
 20
16.0568
 30
0
 11
70.4
 21
16.1192
 31
0
  0
LINE
  5
AB8
330
A02
100
AcDbEntity
  8
Shape
100
AcDbLine
 10
70.4
 20
16.1192
 30
0
 11
70.8
 21
16.1815
 31
0
  0
LINE
  5
AB9
330
A02
100
AcDbEntity
  8
Shape
100
AcDbLine
 10
70.8
 20
16.1815
 30
0
 11
71.2
 21
16.2436
 31
0
  0
LINE
  5
ABA
330
A02
100
AcDbEntity
  8
Shape
100
AcDbLine
 10
71.2
 20
16.2436
 30
0
 11
71.6
 21
16.3056
 31
0
  0
LINE
  5
ABB
330
A02
100
AcDbEntity
  8
Shape
100
AcDbLine
 10
71.6
 20
16.3056
 30
0
 11
72
 21
16.3674
 31
0
  0
LINE
  5
ABC
330
A02
100
AcDbEntity
  8
Shape
100
AcDbLine
 10
72
 20
16.3674
 30
0
 11
72.4
 21
16.4291
 31
0
  0
LINE
  5
ABD
330
A02
100
AcDbEntity
  8
Shape
100
AcDbLine
 10
72.4
 20
16.4291
 30
0
 11
72.8
 21
16.4905
 31
0
  0
LINE
  5
ABE
330
A02
100
AcDbEntity
  8
Shape
100
AcDbLine
 10
72.8
 20
16.4905
 30
0
 11
73.2
 21
16.5519
 31
0
  0
LINE
  5
ABF
330
A02
100
AcDbEntity
  8
Shape
100
AcDbLine
 10
73.2
 20
16.5519
 30
0
 11
73.6
 21
16.6131
 31
0
  0
LINE
  5
AC0
330
A02
100
AcDbEntity
  8
Shape
100
AcDbLine
 10
73.6
 20
16.6131
 30
0
 11
74
 21
16.6741
 31
0
  0
LINE
  5
AC1
330
A02
100
AcDbEntity
  8
Shape
100
AcDbLine
 10
74
 20
16.6741
 30
0
 11
74.4
 21
16.735
 31
0
  0
LINE
  5
AC2
330
A02
100
AcDbEntity
  8
Shape
100
AcDbLine
 10
74.4
 20
16.735
 30
0
 11
74.8
 21
16.7957
 31
0
  0
LINE
  5
AC3
330
A02
100
AcDbEntity
  8
Shape
100
AcDbLine
 10
74.8
 20
16.7957
 30
0
 11
75.2
 21
16.8562
 31
0
  0
LINE
  5
AC4
330
A02
100
AcDbEntity
  8
Shape
100
AcDbLine
 10
75.2
 20
16.8562
 30
0
 11
75.6
 21
16.9166
 31
0
  0
LINE
  5
AC5
330
A02
100
AcDbEntity
  8
Shape
100
AcDbLine
 10
75.6
 20
16.9166
 30
0
 11
76
 21
16.9769
 31
0
  0
LINE
  5
AC6
330
A02
100
AcDbEntity
  8
Shape
100
AcDbLine
 10
76
 20
16.9769
 30
0
 11
76.4
 21
17.037
 31
0
  0
LINE
  5
AC7
330
A02
100
AcDbEntity
  8
Shape
100
AcDbLine
 10
76.4
 20
17.037
 30
0
 11
76.8
 21
17.0969
 31
0
  0
LINE
  5
AC8
330
A02
100
AcDbEntity
  8
Shape
100
AcDbLine
 10
76.8
 20
17.0969
 30
0
 11
77.2
 21
17.1567
 31
0
  0
LINE
  5
AC9
330
A02
100
AcDbEntity
  8
Shape
100
AcDbLine
 10
77.2
 20
17.1567
 30
0
 11
77.6
 21
17.2164
 31
0
  0
LINE
  5
ACA
330
A02
100
AcDbEntity
  8
Shape
100
AcDbLine
 10
77.6
 20
17.2164
 30
0
 11
78
 21
17.2759
 31
0
  0
LINE
  5
ACB
330
A02
100
AcDbEntity
  8
Shape
100
AcDbLine
 10
78
 20
17.2759
 30
0
 11
78.4
 21
17.3352
 31
0
  0
LINE
  5
ACC
330
A02
100
AcDbEntity
  8
Shape
100
AcDbLine
 10
78.4
 20
17.3352
 30
0
 11
78.8
 21
17.3945
 31
0
  0
LINE
  5
ACD
330
A02
100
AcDbEntity
  8
Shape
100
AcDbLine
 10
78.8
 20
17.3945
 30
0
 11
79.2
 21
17.4535
 31
0
  0
LINE
  5
ACE
330
A02
100
AcDbEntity
  8
Shape
100
AcDbLine
 10
79.2
 20
17.4535
 30
0
 11
79.6
 21
17.5124
 31
0
  0
LINE
  5
ACF
330
A02
100
AcDbEntity
  8
Shape
100
AcDbLine
 10
79.6
 20
17.5124
 30
0
 11
80
 21
17.5712
 31
0
  0
LINE
  5
AD0
330
A02
100
AcDbEntity
  8
Shape
100
AcDbLine
 10
80
 20
17.5712
 30
0
 11
80.4
 21
17.6298
 31
0
  0
LINE
  5
AD1
330
A02
100
AcDbEntity
  8
Shape
100
AcDbLine
 10
80.4
 20
17.6298
 30
0
 11
80.8
 21
17.6882
 31
0
  0
LINE
  5
AD2
330
A02
100
AcDbEntity
  8
Shape
100
AcDbLine
 10
80.8
 20
17.6882
 30
0
 11
81.2
 21
17.7466
 31
0
  0
LINE
  5
AD3
330
A02
100
AcDbEntity
  8
Shape
100
AcDbLine
 10
81.2
 20
17.7466
 30
0
 11
81.6
 21
17.8047
 31
0
  0
LINE
  5
AD4
330
A02
100
AcDbEntity
  8
Shape
100
AcDbLine
 10
81.6
 20
17.8047
 30
0
 11
82
 21
17.8628
 31
0
  0
LINE
  5
AD5
330
A02
100
AcDbEntity
  8
Shape
100
AcDbLine
 10
82
 20
17.8628
 30
0
 11
82.4
 21
17.9206
 31
0
  0
LINE
  5
AD6
330
A02
100
AcDbEntity
  8
Shape
100
AcDbLine
 10
82.4
 20
17.9206
 30
0
 11
82.8
 21
17.9784
 31
0
  0
LINE
  5
AD7
330
A02
100
AcDbEntity
  8
Shape
100
AcDbLine
 10
82.8
 20
17.9784
 30
0
 11
83.2
 21
18.036
 31
0
  0
LINE
  5
AD8
330
A02
100
AcDbEntity
  8
Shape
100
AcDbLine
 10
83.2
 20
18.036
 30
0
 11
83.6
 21
18.0934
 31
0
  0
LINE
  5
AD9
330
A02
100
AcDbEntity
  8
Shape
100
AcDbLine
 10
83.6
 20
18.0934
 30
0
 11
84
 21
18.1507
 31
0
  0
LINE
  5
ADA
330
A02
100
AcDbEntity
  8
Shape
100
AcDbLine
 10
84
 20
18.1507
 30
0
 11
84.4
 21
18.2079
 31
0
  0
LINE
  5
ADB
330
A02
100
AcDbEntity
  8
Shape
100
AcDbLine
 10
84.4
 20
18.2079
 30
0
 11
84.8
 21
18.2649
 31
0
  0
LINE
  5
ADC
330
A02
100
AcDbEntity
  8
Shape
100
AcDbLine
 10
84.8
 20
18.2649
 30
0
 11
85.2
 21
18.3218
 31
0
  0
LINE
  5
ADD
330
A02
100
AcDbEntity
  8
Shape
100
AcDbLine
 10
85.2
 20
18.3218
 30
0
 11
85.6
 21
18.3785
 31
0
  0
LINE
  5
ADE
330
A02
100
AcDbEntity
  8
Shape
100
AcDbLine
 10
85.6
 20
18.3785
 30
0
 11
86
 21
18.4351
 31
0
  0
LINE
  5
ADF
330
A02
100
AcDbEntity
  8
Shape
100
AcDbLine
 10
86
 20
18.4351
 30
0
 11
86.4
 21
18.4916
 31
0
  0
LINE
  5
AE0
330
A02
100
AcDbEntity
  8
Shape
100
AcDbLine
 10
86.4
 20
18.4916
 30
0
 11
86.8
 21
18.5479
 31
0
  0
LINE
  5
AE1
330
A02
100
AcDbEntity
  8
Shape
100
AcDbLine
 10
86.8
 20
18.5479
 30
0
 11
87.2
 21
18.6041
 31
0
  0
LINE
  5
AE2
330
A02
100
AcDbEntity
  8
Shape
100
AcDbLine
 10
87.2
 20
18.6041
 30
0
 11
87.6
 21
18.6601
 31
0
  0
LINE
  5
AE3
330
A02
100
AcDbEntity
  8
Shape
100
AcDbLine
 10
87.6
 20
18.6601
 30
0
 11
88
 21
18.716
 31
0
  0
LINE
  5
AE4
330
A02
100
AcDbEntity
  8
Shape
100
AcDbLine
 10
88
 20
18.716
 30
0
 11
88.4
 21
18.7717
 31
0
  0
LINE
  5
AE5
330
A02
100
AcDbEntity
  8
Shape
100
AcDbLine
 10
88.4
 20
18.7717
 30
0
 11
88.8
 21
18.8274
 31
0
  0
LINE
  5
AE6
330
A02
100
AcDbEntity
  8
Shape
100
AcDbLine
 10
88.8
 20
18.8274
 30
0
 11
89.2
 21
18.8828
 31
0
  0
LINE
  5
AE7
330
A02
100
AcDbEntity
  8
Shape
100
AcDbLine
 10
89.2
 20
18.8828
 30
0
 11
89.6
 21
18.9382
 31
0
  0
LINE
  5
AE8
330
A02
100
AcDbEntity
  8
Shape
100
AcDbLine
 10
89.6
 20
18.9382
 30
0
 11
90
 21
18.9934
 31
0
  0
LINE
  5
AE9
330
A02
100
AcDbEntity
  8
Shape
100
AcDbLine
 10
90
 20
18.9934
 30
0
 11
90.4
 21
19.0484
 31
0
  0
LINE
  5
AEA
330
A02
100
AcDbEntity
  8
Shape
100
AcDbLine
 10
90.4
 20
19.0484
 30
0
 11
90.8
 21
19.1034
 31
0
  0
LINE
  5
AEB
330
A02
100
AcDbEntity
  8
Shape
100
AcDbLine
 10
90.8
 20
19.1034
 30
0
 11
91.2
 21
19.1582
 31
0
  0
LINE
  5
AEC
330
A02
100
AcDbEntity
  8
Shape
100
AcDbLine
 10
91.2
 20
19.1582
 30
0
 11
91.6
 21
19.2128
 31
0
  0
LINE
  5
AED
330
A02
100
AcDbEntity
  8
Shape
100
AcDbLine
 10
91.6
 20
19.2128
 30
0
 11
92
 21
19.2673
 31
0
  0
LINE
  5
AEE
330
A02
100
AcDbEntity
  8
Shape
100
AcDbLine
 10
92
 20
19.2673
 30
0
 11
92.4
 21
19.3217
 31
0
  0
LINE
  5
AEF
330
A02
100
AcDbEntity
  8
Shape
100
AcDbLine
 10
92.4
 20
19.3217
 30
0
 11
92.8
 21
19.3759
 31
0
  0
LINE
  5
AF0
330
A02
100
AcDbEntity
  8
Shape
100
AcDbLine
 10
92.8
 20
19.3759
 30
0
 11
93.2
 21
19.43
 31
0
  0
LINE
  5
AF1
330
A02
100
AcDbEntity
  8
Shape
100
AcDbLine
 10
93.2
 20
19.43
 30
0
 11
93.6
 21
19.484
 31
0
  0
LINE
  5
AF2
330
A02
100
AcDbEntity
  8
Shape
100
AcDbLine
 10
93.6
 20
19.484
 30
0
 11
94
 21
19.5379
 31
0
  0
LINE
  5
AF3
330
A02
100
AcDbEntity
  8
Shape
100
AcDbLine
 10
94
 20
19.5379
 30
0
 11
94.4
 21
19.5916
 31
0
  0
LINE
  5
AF4
330
A02
100
AcDbEntity
  8
Shape
100
AcDbLine
 10
94.4
 20
19.5916
 30
0
 11
94.8
 21
19.6451
 31
0
  0
LINE
  5
AF5
330
A02
100
AcDbEntity
  8
Shape
100
AcDbLine
 10
94.8
 20
19.6451
 30
0
 11
95.2
 21
19.6986
 31
0
  0
LINE
  5
AF6
330
A02
100
AcDbEntity
  8
Shape
100
AcDbLine
 10
95.2
 20
19.6986
 30
0
 11
95.6
 21
19.7519
 31
0
  0
LINE
  5
AF7
330
A02
100
AcDbEntity
  8
Shape
100
AcDbLine
 10
95.6
 20
19.7519
 30
0
 11
96
 21
19.805
 31
0
  0
LINE
  5
AF8
330
A02
100
AcDbEntity
  8
Shape
100
AcDbLine
 10
96
 20
19.805
 30
0
 11
96.4
 21
19.858
 31
0
  0
LINE
  5
AF9
330
A02
100
AcDbEntity
  8
Shape
100
AcDbLine
 10
96.4
 20
19.858
 30
0
 11
96.8
 21
19.9109
 31
0
  0
LINE
  5
AFA
330
A02
100
AcDbEntity
  8
Shape
100
AcDbLine
 10
96.8
 20
19.9109
 30
0
 11
97.2
 21
19.9637
 31
0
  0
LINE
  5
AFB
330
A02
100
AcDbEntity
  8
Shape
100
AcDbLine
 10
97.2
 20
19.9637
 30
0
 11
97.6
 21
20.0163
 31
0
  0
LINE
  5
AFC
330
A02
100
AcDbEntity
  8
Shape
100
AcDbLine
 10
97.6
 20
20.0163
 30
0
 11
98
 21
20.0688
 31
0
  0
LINE
  5
AFD
330
A02
100
AcDbEntity
  8
Shape
100
AcDbLine
 10
98
 20
20.0688
 30
0
 11
98.4
 21
20.1212
 31
0
  0
LINE
  5
AFE
330
A02
100
AcDbEntity
  8
Shape
100
AcDbLine
 10
98.4
 20
20.1212
 30
0
 11
98.8
 21
20.1734
 31
0
  0
LINE
  5
AFF
330
A02
100
AcDbEntity
  8
Shape
100
AcDbLine
 10
98.8
 20
20.1734
 30
0
 11
99.2
 21
20.2255
 31
0
  0
LINE
  5
B00
330
A02
100
AcDbEntity
  8
Shape
100
AcDbLine
 10
99.2
 20
20.2255
 30
0
 11
99.6
 21
20.2775
 31
0
  0
LINE
  5
B01
330
A02
100
AcDbEntity
  8
Shape
100
AcDbLine
 10
99.6
 20
20.2775
 30
0
 11
100
 21
20.3293
 31
0
  0
LINE
  5
B02
330
A02
100
AcDbEntity
  8
Shape
100
AcDbLine
 10
100
 20
20.3293
 30
0
 11
100.4
 21
20.381
 31
0
  0
LINE
  5
B03
330
A02
100
AcDbEntity
  8
Shape
100
AcDbLine
 10
100.4
 20
20.381
 30
0
 11
100.8
 21
20.4326
 31
0
  0
LINE
  5
B04
330
A02
100
AcDbEntity
  8
Shape
100
AcDbLine
 10
100.8
 20
20.4326
 30
0
 11
101.2
 21
20.484
 31
0
  0
LINE
  5
B05
330
A02
100
AcDbEntity
  8
Shape
100
AcDbLine
 10
101.2
 20
20.484
 30
0
 11
101.6
 21
20.5353
 31
0
  0
LINE
  5
B06
330
A02
100
AcDbEntity
  8
Shape
100
AcDbLine
 10
101.6
 20
20.5353
 30
0
 11
102
 21
20.5865
 31
0
  0
LINE
  5
B07
330
A02
100
AcDbEntity
  8
Shape
100
AcDbLine
 10
102
 20
20.5865
 30
0
 11
102.4
 21
20.6376
 31
0
  0
LINE
  5
B08
330
A02
100
AcDbEntity
  8
Shape
100
AcDbLine
 10
102.4
 20
20.6376
 30
0
 11
102.8
 21
20.6885
 31
0
  0
LINE
  5
B09
330
A02
100
AcDbEntity
  8
Shape
100
AcDbLine
 10
102.8
 20
20.6885
 30
0
 11
103.2
 21
20.7393
 31
0
  0
LINE
  5
B0A
330
A02
100
AcDbEntity
  8
Shape
100
AcDbLine
 10
103.2
 20
20.7393
 30
0
 11
103.6
 21
20.7899
 31
0
  0
LINE
  5
B0B
330
A02
100
AcDbEntity
  8
Shape
100
AcDbLine
 10
103.6
 20
20.7899
 30
0
 11
104
 21
20.8404
 31
0
  0
LINE
  5
B0C
330
A02
100
AcDbEntity
  8
Shape
100
AcDbLine
 10
104
 20
20.8404
 30
0
 11
104.4
 21
20.8908
 31
0
  0
LINE
  5
B0D
330
A02
100
AcDbEntity
  8
Shape
100
AcDbLine
 10
104.4
 20
20.8908
 30
0
 11
104.8
 21
20.9411
 31
0
  0
LINE
  5
B0E
330
A02
100
AcDbEntity
  8
Shape
100
AcDbLine
 10
104.8
 20
20.9411
 30
0
 11
105.2
 21
20.9912
 31
0
  0
LINE
  5
B0F
330
A02
100
AcDbEntity
  8
Shape
100
AcDbLine
 10
105.2
 20
20.9912
 30
0
 11
105.6
 21
21.0412
 31
0
  0
LINE
  5
B10
330
A02
100
AcDbEntity
  8
Shape
100
AcDbLine
 10
105.6
 20
21.0412
 30
0
 11
106
 21
21.0911
 31
0
  0
LINE
  5
B11
330
A02
100
AcDbEntity
  8
Shape
100
AcDbLine
 10
106
 20
21.0911
 30
0
 11
106.4
 21
21.1408
 31
0
  0
LINE
  5
B12
330
A02
100
AcDbEntity
  8
Shape
100
AcDbLine
 10
106.4
 20
21.1408
 30
0
 11
106.8
 21
21.1905
 31
0
  0
LINE
  5
B13
330
A02
100
AcDbEntity
  8
Shape
100
AcDbLine
 10
106.8
 20
21.1905
 30
0
 11
107.2
 21
21.2399
 31
0
  0
LINE
  5
B14
330
A02
100
AcDbEntity
  8
Shape
100
AcDbLine
 10
107.2
 20
21.2399
 30
0
 11
107.6
 21
21.2893
 31
0
  0
LINE
  5
B15
330
A02
100
AcDbEntity
  8
Shape
100
AcDbLine
 10
107.6
 20
21.2893
 30
0
 11
108
 21
21.3385
 31
0
  0
LINE
  5
B16
330
A02
100
AcDbEntity
  8
Shape
100
AcDbLine
 10
108
 20
21.3385
 30
0
 11
108.4
 21
21.3876
 31
0
  0
LINE
  5
B17
330
A02
100
AcDbEntity
  8
Shape
100
AcDbLine
 10
108.4
 20
21.3876
 30
0
 11
108.8
 21
21.4366
 31
0
  0
LINE
  5
B18
330
A02
100
AcDbEntity
  8
Shape
100
AcDbLine
 10
108.8
 20
21.4366
 30
0
 11
109.2
 21
21.4854
 31
0
  0
LINE
  5
B19
330
A02
100
AcDbEntity
  8
Shape
100
AcDbLine
 10
109.2
 20
21.4854
 30
0
 11
109.6
 21
21.5341
 31
0
  0
LINE
  5
B1A
330
A02
100
AcDbEntity
  8
Shape
100
AcDbLine
 10
109.6
 20
21.5341
 30
0
 11
110
 21
21.5827
 31
0
  0
LINE
  5
B1B
330
A02
100
AcDbEntity
  8
Shape
100
AcDbLine
 10
110
 20
21.5827
 30
0
 11
110.4
 21
21.6312
 31
0
  0
LINE
  5
B1C
330
A02
100
AcDbEntity
  8
Shape
100
AcDbLine
 10
110.4
 20
21.6312
 30
0
 11
110.8
 21
21.6795
 31
0
  0
LINE
  5
B1D
330
A02
100
AcDbEntity
  8
Shape
100
AcDbLine
 10
110.8
 20
21.6795
 30
0
 11
111.2
 21
21.7277
 31
0
  0
LINE
  5
B1E
330
A02
100
AcDbEntity
  8
Shape
100
AcDbLine
 10
111.2
 20
21.7277
 30
0
 11
111.6
 21
21.7758
 31
0
  0
LINE
  5
B1F
330
A02
100
AcDbEntity
  8
Shape
100
AcDbLine
 10
111.6
 20
21.7758
 30
0
 11
112
 21
21.8237
 31
0
  0
LINE
  5
B20
330
A02
100
AcDbEntity
  8
Shape
100
AcDbLine
 10
112
 20
21.8237
 30
0
 11
112.4
 21
21.8715
 31
0
  0
LINE
  5
B21
330
A02
100
AcDbEntity
  8
Shape
100
AcDbLine
 10
112.4
 20
21.8715
 30
0
 11
112.8
 21
21.9192
 31
0
  0
LINE
  5
B22
330
A02
100
AcDbEntity
  8
Shape
100
AcDbLine
 10
112.8
 20
21.9192
 30
0
 11
113.2
 21
21.9668
 31
0
  0
LINE
  5
B23
330
A02
100
AcDbEntity
  8
Shape
100
AcDbLine
 10
113.2
 20
21.9668
 30
0
 11
113.6
 21
22.0142
 31
0
  0
LINE
  5
B24
330
A02
100
AcDbEntity
  8
Shape
100
AcDbLine
 10
113.6
 20
22.0142
 30
0
 11
114
 21
22.0615
 31
0
  0
LINE
  5
B25
330
A02
100
AcDbEntity
  8
Shape
100
AcDbLine
 10
114
 20
22.0615
 30
0
 11
114.4
 21
22.1086
 31
0
  0
LINE
  5
B26
330
A02
100
AcDbEntity
  8
Shape
100
AcDbLine
 10
114.4
 20
22.1086
 30
0
 11
114.8
 21
22.1557
 31
0
  0
LINE
  5
B27
330
A02
100
AcDbEntity
  8
Shape
100
AcDbLine
 10
114.8
 20
22.1557
 30
0
 11
115.2
 21
22.2026
 31
0
  0
LINE
  5
B28
330
A02
100
AcDbEntity
  8
Shape
100
AcDbLine
 10
115.2
 20
22.2026
 30
0
 11
115.6
 21
22.2494
 31
0
  0
LINE
  5
B29
330
A02
100
AcDbEntity
  8
Shape
100
AcDbLine
 10
115.6
 20
22.2494
 30
0
 11
116
 21
22.296
 31
0
  0
LINE
  5
B2A
330
A02
100
AcDbEntity
  8
Shape
100
AcDbLine
 10
116
 20
22.296
 30
0
 11
116.4
 21
22.3426
 31
0
  0
LINE
  5
B2B
330
A02
100
AcDbEntity
  8
Shape
100
AcDbLine
 10
116.4
 20
22.3426
 30
0
 11
116.8
 21
22.389
 31
0
  0
LINE
  5
B2C
330
A02
100
AcDbEntity
  8
Shape
100
AcDbLine
 10
116.8
 20
22.389
 30
0
 11
117.2
 21
22.4352
 31
0
  0
LINE
  5
B2D
330
A02
100
AcDbEntity
  8
Shape
100
AcDbLine
 10
117.2
 20
22.4352
 30
0
 11
117.6
 21
22.4814
 31
0
  0
LINE
  5
B2E
330
A02
100
AcDbEntity
  8
Shape
100
AcDbLine
 10
117.6
 20
22.4814
 30
0
 11
118
 21
22.5274
 31
0
  0
LINE
  5
B2F
330
A02
100
AcDbEntity
  8
Shape
100
AcDbLine
 10
118
 20
22.5274
 30
0
 11
118.4
 21
22.5733
 31
0
  0
LINE
  5
B30
330
A02
100
AcDbEntity
  8
Shape
100
AcDbLine
 10
118.4
 20
22.5733
 30
0
 11
118.8
 21
22.6191
 31
0
  0
LINE
  5
B31
330
A02
100
AcDbEntity
  8
Shape
100
AcDbLine
 10
118.8
 20
22.6191
 30
0
 11
119.2
 21
22.6647
 31
0
  0
LINE
  5
B32
330
A02
100
AcDbEntity
  8
Shape
100
AcDbLine
 10
119.2
 20
22.6647
 30
0
 11
119.6
 21
22.7102
 31
0
  0
LINE
  5
B33
330
A02
100
AcDbEntity
  8
Shape
100
AcDbLine
 10
119.6
 20
22.7102
 30
0
 11
120
 21
22.7556
 31
0
  0
LINE
  5
B34
330
A02
100
AcDbEntity
  8
Shape
100
AcDbLine
 10
120
 20
22.7556
 30
0
 11
120.4
 21
22.8008
 31
0
  0
LINE
  5
B35
330
A02
100
AcDbEntity
  8
Shape
100
AcDbLine
 10
120.4
 20
22.8008
 30
0
 11
120.8
 21
22.846
 31
0
  0
LINE
  5
B36
330
A02
100
AcDbEntity
  8
Shape
100
AcDbLine
 10
120.8
 20
22.846
 30
0
 11
121.2
 21
22.8909
 31
0
  0
LINE
  5
B37
330
A02
100
AcDbEntity
  8
Shape
100
AcDbLine
 10
121.2
 20
22.8909
 30
0
 11
121.6
 21
22.9358
 31
0
  0
LINE
  5
B38
330
A02
100
AcDbEntity
  8
Shape
100
AcDbLine
 10
121.6
 20
22.9358
 30
0
 11
122
 21
22.9806
 31
0
  0
LINE
  5
B39
330
A02
100
AcDbEntity
  8
Shape
100
AcDbLine
 10
122
 20
22.9806
 30
0
 11
122.4
 21
23.0252
 31
0
  0
LINE
  5
B3A
330
A02
100
AcDbEntity
  8
Shape
100
AcDbLine
 10
122.4
 20
23.0252
 30
0
 11
122.8
 21
23.0696
 31
0
  0
LINE
  5
B3B
330
A02
100
AcDbEntity
  8
Shape
100
AcDbLine
 10
122.8
 20
23.0696
 30
0
 11
123.2
 21
23.114
 31
0
  0
LINE
  5
B3C
330
A02
100
AcDbEntity
  8
Shape
100
AcDbLine
 10
123.2
 20
23.114
 30
0
 11
123.6
 21
23.1582
 31
0
  0
LINE
  5
B3D
330
A02
100
AcDbEntity
  8
Shape
100
AcDbLine
 10
123.6
 20
23.1582
 30
0
 11
124
 21
23.2023
 31
0
  0
LINE
  5
B3E
330
A02
100
AcDbEntity
  8
Shape
100
AcDbLine
 10
124
 20
23.2023
 30
0
 11
124.4
 21
23.2463
 31
0
  0
LINE
  5
B3F
330
A02
100
AcDbEntity
  8
Shape
100
AcDbLine
 10
124.4
 20
23.2463
 30
0
 11
124.8
 21
23.2901
 31
0
  0
LINE
  5
B40
330
A02
100
AcDbEntity
  8
Shape
100
AcDbLine
 10
124.8
 20
23.2901
 30
0
 11
125.2
 21
23.3338
 31
0
  0
LINE
  5
B41
330
A02
100
AcDbEntity
  8
Shape
100
AcDbLine
 10
125.2
 20
23.3338
 30
0
 11
125.6
 21
23.3774
 31
0
  0
LINE
  5
B42
330
A02
100
AcDbEntity
  8
Shape
100
AcDbLine
 10
125.6
 20
23.3774
 30
0
 11
126
 21
23.4209
 31
0
  0
LINE
  5
B43
330
A02
100
AcDbEntity
  8
Shape
100
AcDbLine
 10
126
 20
23.4209
 30
0
 11
126.4
 21
23.4642
 31
0
  0
LINE
  5
B44
330
A02
100
AcDbEntity
  8
Shape
100
AcDbLine
 10
126.4
 20
23.4642
 30
0
 11
126.8
 21
23.5074
 31
0
  0
LINE
  5
B45
330
A02
100
AcDbEntity
  8
Shape
100
AcDbLine
 10
126.8
 20
23.5074
 30
0
 11
127.2
 21
23.5505
 31
0
  0
LINE
  5
B46
330
A02
100
AcDbEntity
  8
Shape
100
AcDbLine
 10
127.2
 20
23.5505
 30
0
 11
127.6
 21
23.5934
 31
0
  0
LINE
  5
B47
330
A02
100
AcDbEntity
  8
Shape
100
AcDbLine
 10
127.6
 20
23.5934
 30
0
 11
128
 21
23.6362
 31
0
  0
LINE
  5
B48
330
A02
100
AcDbEntity
  8
Shape
100
AcDbLine
 10
128
 20
23.6362
 30
0
 11
128.4
 21
23.6789
 31
0
  0
LINE
  5
B49
330
A02
100
AcDbEntity
  8
Shape
100
AcDbLine
 10
128.4
 20
23.6789
 30
0
 11
128.8
 21
23.7214
 31
0
  0
LINE
  5
B4A
330
A02
100
AcDbEntity
  8
Shape
100
AcDbLine
 10
128.8
 20
23.7214
 30
0
 11
129.2
 21
23.7639
 31
0
  0
LINE
  5
B4B
330
A02
100
AcDbEntity
  8
Shape
100
AcDbLine
 10
129.2
 20
23.7639
 30
0
 11
129.6
 21
23.8062
 31
0
  0
LINE
  5
B4C
330
A02
100
AcDbEntity
  8
Shape
100
AcDbLine
 10
129.6
 20
23.8062
 30
0
 11
130
 21
23.8483
 31
0
  0
LINE
  5
B4D
330
A02
100
AcDbEntity
  8
Shape
100
AcDbLine
 10
130
 20
23.8483
 30
0
 11
130.4
 21
23.8903
 31
0
  0
LINE
  5
B4E
330
A02
100
AcDbEntity
  8
Shape
100
AcDbLine
 10
130.4
 20
23.8903
 30
0
 11
130.8
 21
23.9322
 31
0
  0
LINE
  5
B4F
330
A02
100
AcDbEntity
  8
Shape
100
AcDbLine
 10
130.8
 20
23.9322
 30
0
 11
131.2
 21
23.974
 31
0
  0
LINE
  5
B50
330
A02
100
AcDbEntity
  8
Shape
100
AcDbLine
 10
131.2
 20
23.974
 30
0
 11
131.6
 21
24.0157
 31
0
  0
LINE
  5
B51
330
A02
100
AcDbEntity
  8
Shape
100
AcDbLine
 10
131.6
 20
24.0157
 30
0
 11
132
 21
24.0572
 31
0
  0
LINE
  5
B52
330
A02
100
AcDbEntity
  8
Shape
100
AcDbLine
 10
132
 20
24.0572
 30
0
 11
132.4
 21
24.0986
 31
0
  0
LINE
  5
B53
330
A02
100
AcDbEntity
  8
Shape
100
AcDbLine
 10
132.4
 20
24.0986
 30
0
 11
132.8
 21
24.1398
 31
0
  0
LINE
  5
B54
330
A02
100
AcDbEntity
  8
Shape
100
AcDbLine
 10
132.8
 20
24.1398
 30
0
 11
133.2
 21
24.1809
 31
0
  0
LINE
  5
B55
330
A02
100
AcDbEntity
  8
Shape
100
AcDbLine
 10
133.2
 20
24.1809
 30
0
 11
133.6
 21
24.2219
 31
0
  0
LINE
  5
B56
330
A02
100
AcDbEntity
  8
Shape
100
AcDbLine
 10
133.6
 20
24.2219
 30
0
 11
134
 21
24.2628
 31
0
  0
LINE
  5
B57
330
A02
100
AcDbEntity
  8
Shape
100
AcDbLine
 10
134
 20
24.2628
 30
0
 11
134.4
 21
24.3035
 31
0
  0
LINE
  5
B58
330
A02
100
AcDbEntity
  8
Shape
100
AcDbLine
 10
134.4
 20
24.3035
 30
0
 11
134.8
 21
24.3441
 31
0
  0
LINE
  5
B59
330
A02
100
AcDbEntity
  8
Shape
100
AcDbLine
 10
134.8
 20
24.3441
 30
0
 11
135.2
 21
24.3846
 31
0
  0
LINE
  5
B5A
330
A02
100
AcDbEntity
  8
Shape
100
AcDbLine
 10
135.2
 20
24.3846
 30
0
 11
135.6
 21
24.4249
 31
0
  0
LINE
  5
B5B
330
A02
100
AcDbEntity
  8
Shape
100
AcDbLine
 10
135.6
 20
24.4249
 30
0
 11
136
 21
24.4651
 31
0
  0
LINE
  5
B5C
330
A02
100
AcDbEntity
  8
Shape
100
AcDbLine
 10
136
 20
24.4651
 30
0
 11
136.4
 21
24.5051
 31
0
  0
LINE
  5
B5D
330
A02
100
AcDbEntity
  8
Shape
100
AcDbLine
 10
136.4
 20
24.5051
 30
0
 11
136.8
 21
24.5451
 31
0
  0
LINE
  5
B5E
330
A02
100
AcDbEntity
  8
Shape
100
AcDbLine
 10
136.8
 20
24.5451
 30
0
 11
137.2
 21
24.5849
 31
0
  0
LINE
  5
B5F
330
A02
100
AcDbEntity
  8
Shape
100
AcDbLine
 10
137.2
 20
24.5849
 30
0
 11
137.6
 21
24.6246
 31
0
  0
LINE
  5
B60
330
A02
100
AcDbEntity
  8
Shape
100
AcDbLine
 10
137.6
 20
24.6246
 30
0
 11
138
 21
24.6641
 31
0
  0
LINE
  5
B61
330
A02
100
AcDbEntity
  8
Shape
100
AcDbLine
 10
138
 20
24.6641
 30
0
 11
138.4
 21
24.7035
 31
0
  0
LINE
  5
B62
330
A02
100
AcDbEntity
  8
Shape
100
AcDbLine
 10
138.4
 20
24.7035
 30
0
 11
138.8
 21
24.7428
 31
0
  0
LINE
  5
B63
330
A02
100
AcDbEntity
  8
Shape
100
AcDbLine
 10
138.8
 20
24.7428
 30
0
 11
139.2
 21
24.7819
 31
0
  0
LINE
  5
B64
330
A02
100
AcDbEntity
  8
Shape
100
AcDbLine
 10
139.2
 20
24.7819
 30
0
 11
139.6
 21
24.8209
 31
0
  0
LINE
  5
B65
330
A02
100
AcDbEntity
  8
Shape
100
AcDbLine
 10
139.6
 20
24.8209
 30
0
 11
140
 21
24.8598
 31
0
  0
LINE
  5
B66
330
A02
100
AcDbEntity
  8
Shape
100
AcDbLine
 10
140
 20
24.8598
 30
0
 11
140.4
 21
24.8985
 31
0
  0
LINE
  5
B67
330
A02
100
AcDbEntity
  8
Shape
100
AcDbLine
 10
140.4
 20
24.8985
 30
0
 11
140.8
 21
24.9371
 31
0
  0
LINE
  5
B68
330
A02
100
AcDbEntity
  8
Shape
100
AcDbLine
 10
140.8
 20
24.9371
 30
0
 11
141.2
 21
24.9756
 31
0
  0
LINE
  5
B69
330
A02
100
AcDbEntity
  8
Shape
100
AcDbLine
 10
141.2
 20
24.9756
 30
0
 11
141.6
 21
25.0139
 31
0
  0
LINE
  5
B6A
330
A02
100
AcDbEntity
  8
Shape
100
AcDbLine
 10
141.6
 20
25.0139
 30
0
 11
142
 21
25.0521
 31
0
  0
LINE
  5
B6B
330
A02
100
AcDbEntity
  8
Shape
100
AcDbLine
 10
142
 20
25.0521
 30
0
 11
142.4
 21
25.0901
 31
0
  0
LINE
  5
B6C
330
A02
100
AcDbEntity
  8
Shape
100
AcDbLine
 10
142.4
 20
25.0901
 30
0
 11
142.8
 21
25.1281
 31
0
  0
LINE
  5
B6D
330
A02
100
AcDbEntity
  8
Shape
100
AcDbLine
 10
142.8
 20
25.1281
 30
0
 11
143.2
 21
25.1658
 31
0
  0
LINE
  5
B6E
330
A02
100
AcDbEntity
  8
Shape
100
AcDbLine
 10
143.2
 20
25.1658
 30
0
 11
143.6
 21
25.2035
 31
0
  0
LINE
  5
B6F
330
A02
100
AcDbEntity
  8
Shape
100
AcDbLine
 10
143.6
 20
25.2035
 30
0
 11
144
 21
25.241
 31
0
  0
LINE
  5
B70
330
A02
100
AcDbEntity
  8
Shape
100
AcDbLine
 10
144
 20
25.241
 30
0
 11
144.4
 21
25.2784
 31
0
  0
LINE
  5
B71
330
A02
100
AcDbEntity
  8
Shape
100
AcDbLine
 10
144.4
 20
25.2784
 30
0
 11
144.8
 21
25.3156
 31
0
  0
LINE
  5
B72
330
A02
100
AcDbEntity
  8
Shape
100
AcDbLine
 10
144.8
 20
25.3156
 30
0
 11
145.2
 21
25.3527
 31
0
  0
LINE
  5
B73
330
A02
100
AcDbEntity
  8
Shape
100
AcDbLine
 10
145.2
 20
25.3527
 30
0
 11
145.6
 21
25.3897
 31
0
  0
LINE
  5
B74
330
A02
100
AcDbEntity
  8
Shape
100
AcDbLine
 10
145.6
 20
25.3897
 30
0
 11
146
 21
25.4265
 31
0
  0
LINE
  5
B75
330
A02
100
AcDbEntity
  8
Shape
100
AcDbLine
 10
146
 20
25.4265
 30
0
 11
146.4
 21
25.4632
 31
0
  0
LINE
  5
B76
330
A02
100
AcDbEntity
  8
Shape
100
AcDbLine
 10
146.4
 20
25.4632
 30
0
 11
146.8
 21
25.4997
 31
0
  0
LINE
  5
B77
330
A02
100
AcDbEntity
  8
Shape
100
AcDbLine
 10
146.8
 20
25.4997
 30
0
 11
147.2
 21
25.5361
 31
0
  0
LINE
  5
B78
330
A02
100
AcDbEntity
  8
Shape
100
AcDbLine
 10
147.2
 20
25.5361
 30
0
 11
147.6
 21
25.5724
 31
0
  0
LINE
  5
B79
330
A02
100
AcDbEntity
  8
Shape
100
AcDbLine
 10
147.6
 20
25.5724
 30
0
 11
148
 21
25.6085
 31
0
  0
LINE
  5
B7A
330
A02
100
AcDbEntity
  8
Shape
100
AcDbLine
 10
148
 20
25.6085
 30
0
 11
148.4
 21
25.6445
 31
0
  0
LINE
  5
B7B
330
A02
100
AcDbEntity
  8
Shape
100
AcDbLine
 10
148.4
 20
25.6445
 30
0
 11
148.8
 21
25.6803
 31
0
  0
LINE
  5
B7C
330
A02
100
AcDbEntity
  8
Shape
100
AcDbLine
 10
148.8
 20
25.6803
 30
0
 11
149.2
 21
25.716
 31
0
  0
LINE
  5
B7D
330
A02
100
AcDbEntity
  8
Shape
100
AcDbLine
 10
149.2
 20
25.716
 30
0
 11
149.6
 21
25.7516
 31
0
  0
LINE
  5
B7E
330
A02
100
AcDbEntity
  8
Shape
100
AcDbLine
 10
149.6
 20
25.7516
 30
0
 11
150
 21
25.787
 31
0
  0
LINE
  5
B7F
330
A02
100
AcDbEntity
  8
Shape
100
AcDbLine
 10
150
 20
25.787
 30
0
 11
150.4
 21
25.8223
 31
0
  0
LINE
  5
B80
330
A02
100
AcDbEntity
  8
Shape
100
AcDbLine
 10
150.4
 20
25.8223
 30
0
 11
150.8
 21
25.8574
 31
0
  0
LINE
  5
B81
330
A02
100
AcDbEntity
  8
Shape
100
AcDbLine
 10
150.8
 20
25.8574
 30
0
 11
151.2
 21
25.8924
 31
0
  0
LINE
  5
B82
330
A02
100
AcDbEntity
  8
Shape
100
AcDbLine
 10
151.2
 20
25.8924
 30
0
 11
151.6
 21
25.9272
 31
0
  0
LINE
  5
B83
330
A02
100
AcDbEntity
  8
Shape
100
AcDbLine
 10
151.6
 20
25.9272
 30
0
 11
152
 21
25.9619
 31
0
  0
LINE
  5
B84
330
A02
100
AcDbEntity
  8
Shape
100
AcDbLine
 10
152
 20
25.9619
 30
0
 11
152.4
 21
25.9965
 31
0
  0
LINE
  5
B85
330
A02
100
AcDbEntity
  8
Shape
100
AcDbLine
 10
152.4
 20
25.9965
 30
0
 11
152.8
 21
26.0309
 31
0
  0
LINE
  5
B86
330
A02
100
AcDbEntity
  8
Shape
100
AcDbLine
 10
152.8
 20
26.0309
 30
0
 11
153.2
 21
26.0651
 31
0
  0
LINE
  5
B87
330
A02
100
AcDbEntity
  8
Shape
100
AcDbLine
 10
153.2
 20
26.0651
 30
0
 11
153.6
 21
26.0992
 31
0
  0
LINE
  5
B88
330
A02
100
AcDbEntity
  8
Shape
100
AcDbLine
 10
153.6
 20
26.0992
 30
0
 11
154
 21
26.1332
 31
0
  0
LINE
  5
B89
330
A02
100
AcDbEntity
  8
Shape
100
AcDbLine
 10
154
 20
26.1332
 30
0
 11
154.4
 21
26.167
 31
0
  0
LINE
  5
B8A
330
A02
100
AcDbEntity
  8
Shape
100
AcDbLine
 10
154.4
 20
26.167
 30
0
 11
154.8
 21
26.2007
 31
0
  0
LINE
  5
B8B
330
A02
100
AcDbEntity
  8
Shape
100
AcDbLine
 10
154.8
 20
26.2007
 30
0
 11
155.2
 21
26.2342
 31
0
  0
LINE
  5
B8C
330
A02
100
AcDbEntity
  8
Shape
100
AcDbLine
 10
155.2
 20
26.2342
 30
0
 11
155.6
 21
26.2676
 31
0
  0
LINE
  5
B8D
330
A02
100
AcDbEntity
  8
Shape
100
AcDbLine
 10
155.6
 20
26.2676
 30
0
 11
156
 21
26.3008
 31
0
  0
LINE
  5
B8E
330
A02
100
AcDbEntity
  8
Shape
100
AcDbLine
 10
156
 20
26.3008
 30
0
 11
156.4
 21
26.3339
 31
0
  0
LINE
  5
B8F
330
A02
100
AcDbEntity
  8
Shape
100
AcDbLine
 10
156.4
 20
26.3339
 30
0
 11
156.8
 21
26.3668
 31
0
  0
LINE
  5
B90
330
A02
100
AcDbEntity
  8
Shape
100
AcDbLine
 10
156.8
 20
26.3668
 30
0
 11
157.2
 21
26.3996
 31
0
  0
LINE
  5
B91
330
A02
100
AcDbEntity
  8
Shape
100
AcDbLine
 10
157.2
 20
26.3996
 30
0
 11
157.6
 21
26.4322
 31
0
  0
LINE
  5
B92
330
A02
100
AcDbEntity
  8
Shape
100
AcDbLine
 10
157.6
 20
26.4322
 30
0
 11
158
 21
26.4647
 31
0
  0
LINE
  5
B93
330
A02
100
AcDbEntity
  8
Shape
100
AcDbLine
 10
158
 20
26.4647
 30
0
 11
158.4
 21
26.497
 31
0
  0
LINE
  5
B94
330
A02
100
AcDbEntity
  8
Shape
100
AcDbLine
 10
158.4
 20
26.497
 30
0
 11
158.8
 21
26.5292
 31
0
  0
LINE
  5
B95
330
A02
100
AcDbEntity
  8
Shape
100
AcDbLine
 10
158.8
 20
26.5292
 30
0
 11
159.2
 21
26.5612
 31
0
  0
LINE
  5
B96
330
A02
100
AcDbEntity
  8
Shape
100
AcDbLine
 10
159.2
 20
26.5612
 30
0
 11
159.6
 21
26.5931
 31
0
  0
LINE
  5
B97
330
A02
100
AcDbEntity
  8
Shape
100
AcDbLine
 10
159.6
 20
26.5931
 30
0
 11
160
 21
26.6248
 31
0
  0
LINE
  5
B98
330
A02
100
AcDbEntity
  8
Shape
100
AcDbLine
 10
160
 20
26.6248
 30
0
 11
160.4
 21
26.6563
 31
0
  0
LINE
  5
B99
330
A02
100
AcDbEntity
  8
Shape
100
AcDbLine
 10
160.4
 20
26.6563
 30
0
 11
160.8
 21
26.6877
 31
0
  0
LINE
  5
B9A
330
A02
100
AcDbEntity
  8
Shape
100
AcDbLine
 10
160.8
 20
26.6877
 30
0
 11
161.2
 21
26.7189
 31
0
  0
LINE
  5
B9B
330
A02
100
AcDbEntity
  8
Shape
100
AcDbLine
 10
161.2
 20
26.7189
 30
0
 11
161.6
 21
26.75
 31
0
  0
LINE
  5
B9C
330
A02
100
AcDbEntity
  8
Shape
100
AcDbLine
 10
161.6
 20
26.75
 30
0
 11
162
 21
26.7809
 31
0
  0
LINE
  5
B9D
330
A02
100
AcDbEntity
  8
Shape
100
AcDbLine
 10
162
 20
26.7809
 30
0
 11
162.4
 21
26.8117
 31
0
  0
LINE
  5
B9E
330
A02
100
AcDbEntity
  8
Shape
100
AcDbLine
 10
162.4
 20
26.8117
 30
0
 11
162.8
 21
26.8422
 31
0
  0
LINE
  5
B9F
330
A02
100
AcDbEntity
  8
Shape
100
AcDbLine
 10
162.8
 20
26.8422
 30
0
 11
163.2
 21
26.8727
 31
0
  0
LINE
  5
BA0
330
A02
100
AcDbEntity
  8
Shape
100
AcDbLine
 10
163.2
 20
26.8727
 30
0
 11
163.6
 21
26.9029
 31
0
  0
LINE
  5
BA1
330
A02
100
AcDbEntity
  8
Shape
100
AcDbLine
 10
163.6
 20
26.9029
 30
0
 11
164
 21
26.9331
 31
0
  0
LINE
  5
BA2
330
A02
100
AcDbEntity
  8
Shape
100
AcDbLine
 10
164
 20
26.9331
 30
0
 11
164.4
 21
26.963
 31
0
  0
LINE
  5
BA3
330
A02
100
AcDbEntity
  8
Shape
100
AcDbLine
 10
164.4
 20
26.963
 30
0
 11
164.8
 21
26.9928
 31
0
  0
LINE
  5
BA4
330
A02
100
AcDbEntity
  8
Shape
100
AcDbLine
 10
164.8
 20
26.9928
 30
0
 11
165.2
 21
27.0224
 31
0
  0
LINE
  5
BA5
330
A02
100
AcDbEntity
  8
Shape
100
AcDbLine
 10
165.2
 20
27.0224
 30
0
 11
165.6
 21
27.0518
 31
0
  0
LINE
  5
BA6
330
A02
100
AcDbEntity
  8
Shape
100
AcDbLine
 10
165.6
 20
27.0518
 30
0
 11
166
 21
27.0811
 31
0
  0
LINE
  5
BA7
330
A02
100
AcDbEntity
  8
Shape
100
AcDbLine
 10
166
 20
27.0811
 30
0
 11
166.4
 21
27.1102
 31
0
  0
LINE
  5
BA8
330
A02
100
AcDbEntity
  8
Shape
100
AcDbLine
 10
166.4
 20
27.1102
 30
0
 11
166.8
 21
27.1392
 31
0
  0
LINE
  5
BA9
330
A02
100
AcDbEntity
  8
Shape
100
AcDbLine
 10
166.8
 20
27.1392
 30
0
 11
167.2
 21
27.1679
 31
0
  0
LINE
  5
BAA
330
A02
100
AcDbEntity
  8
Shape
100
AcDbLine
 10
167.2
 20
27.1679
 30
0
 11
167.6
 21
27.1965
 31
0
  0
LINE
  5
BAB
330
A02
100
AcDbEntity
  8
Shape
100
AcDbLine
 10
167.6
 20
27.1965
 30
0
 11
168
 21
27.225
 31
0
  0
LINE
  5
BAC
330
A02
100
AcDbEntity
  8
Shape
100
AcDbLine
 10
168
 20
27.225
 30
0
 11
168.4
 21
27.2532
 31
0
  0
LINE
  5
BAD
330
A02
100
AcDbEntity
  8
Shape
100
AcDbLine
 10
168.4
 20
27.2532
 30
0
 11
168.8
 21
27.2813
 31
0
  0
LINE
  5
BAE
330
A02
100
AcDbEntity
  8
Shape
100
AcDbLine
 10
168.8
 20
27.2813
 30
0
 11
169.2
 21
27.3092
 31
0
  0
LINE
  5
BAF
330
A02
100
AcDbEntity
  8
Shape
100
AcDbLine
 10
169.2
 20
27.3092
 30
0
 11
169.6
 21
27.3369
 31
0
  0
LINE
  5
BB0
330
A02
100
AcDbEntity
  8
Shape
100
AcDbLine
 10
169.6
 20
27.3369
 30
0
 11
170
 21
27.3645
 31
0
  0
LINE
  5
BB1
330
A02
100
AcDbEntity
  8
Shape
100
AcDbLine
 10
170
 20
27.3645
 30
0
 11
170.4
 21
27.3919
 31
0
  0
LINE
  5
BB2
330
A02
100
AcDbEntity
  8
Shape
100
AcDbLine
 10
170.4
 20
27.3919
 30
0
 11
170.8
 21
27.4191
 31
0
  0
LINE
  5
BB3
330
A02
100
AcDbEntity
  8
Shape
100
AcDbLine
 10
170.8
 20
27.4191
 30
0
 11
171.2
 21
27.4461
 31
0
  0
LINE
  5
BB4
330
A02
100
AcDbEntity
  8
Shape
100
AcDbLine
 10
171.2
 20
27.4461
 30
0
 11
171.6
 21
27.4729
 31
0
  0
LINE
  5
BB5
330
A02
100
AcDbEntity
  8
Shape
100
AcDbLine
 10
171.6
 20
27.4729
 30
0
 11
172
 21
27.4996
 31
0
  0
LINE
  5
BB6
330
A02
100
AcDbEntity
  8
Shape
100
AcDbLine
 10
172
 20
27.4996
 30
0
 11
172.4
 21
27.526
 31
0
  0
LINE
  5
BB7
330
A02
100
AcDbEntity
  8
Shape
100
AcDbLine
 10
172.4
 20
27.526
 30
0
 11
172.8
 21
27.5523
 31
0
  0
LINE
  5
BB8
330
A02
100
AcDbEntity
  8
Shape
100
AcDbLine
 10
172.8
 20
27.5523
 30
0
 11
173.2
 21
27.5784
 31
0
  0
LINE
  5
BB9
330
A02
100
AcDbEntity
  8
Shape
100
AcDbLine
 10
173.2
 20
27.5784
 30
0
 11
173.6
 21
27.6043
 31
0
  0
LINE
  5
BBA
330
A02
100
AcDbEntity
  8
Shape
100
AcDbLine
 10
173.6
 20
27.6043
 30
0
 11
174
 21
27.63
 31
0
  0
LINE
  5
BBB
330
A02
100
AcDbEntity
  8
Shape
100
AcDbLine
 10
174
 20
27.63
 30
0
 11
174.4
 21
27.6556
 31
0
  0
LINE
  5
BBC
330
A02
100
AcDbEntity
  8
Shape
100
AcDbLine
 10
174.4
 20
27.6556
 30
0
 11
174.8
 21
27.6809
 31
0
  0
LINE
  5
BBD
330
A02
100
AcDbEntity
  8
Shape
100
AcDbLine
 10
174.8
 20
27.6809
 30
0
 11
175.2
 21
27.706
 31
0
  0
LINE
  5
BBE
330
A02
100
AcDbEntity
  8
Shape
100
AcDbLine
 10
175.2
 20
27.706
 30
0
 11
175.6
 21
27.731
 31
0
  0
LINE
  5
BBF
330
A02
100
AcDbEntity
  8
Shape
100
AcDbLine
 10
175.6
 20
27.731
 30
0
 11
176
 21
27.7557
 31
0
  0
LINE
  5
BC0
330
A02
100
AcDbEntity
  8
Shape
100
AcDbLine
 10
176
 20
27.7557
 30
0
 11
176.4
 21
27.7802
 31
0
  0
LINE
  5
BC1
330
A02
100
AcDbEntity
  8
Shape
100
AcDbLine
 10
176.4
 20
27.7802
 30
0
 11
176.8
 21
27.8046
 31
0
  0
LINE
  5
BC2
330
A02
100
AcDbEntity
  8
Shape
100
AcDbLine
 10
176.8
 20
27.8046
 30
0
 11
177.2
 21
27.8287
 31
0
  0
LINE
  5
BC3
330
A02
100
AcDbEntity
  8
Shape
100
AcDbLine
 10
177.2
 20
27.8287
 30
0
 11
177.6
 21
27.8527
 31
0
  0
LINE
  5
BC4
330
A02
100
AcDbEntity
  8
Shape
100
AcDbLine
 10
177.6
 20
27.8527
 30
0
 11
178
 21
27.8764
 31
0
  0
LINE
  5
BC5
330
A02
100
AcDbEntity
  8
Shape
100
AcDbLine
 10
178
 20
27.8764
 30
0
 11
178.4
 21
27.8999
 31
0
  0
LINE
  5
BC6
330
A02
100
AcDbEntity
  8
Shape
100
AcDbLine
 10
178.4
 20
27.8999
 30
0
 11
178.8
 21
27.9232
 31
0
  0
LINE
  5
BC7
330
A02
100
AcDbEntity
  8
Shape
100
AcDbLine
 10
178.8
 20
27.9232
 30
0
 11
179.2
 21
27.9463
 31
0
  0
LINE
  5
BC8
330
A02
100
AcDbEntity
  8
Shape
100
AcDbLine
 10
179.2
 20
27.9463
 30
0
 11
179.6
 21
27.9692
 31
0
  0
LINE
  5
BC9
330
A02
100
AcDbEntity
  8
Shape
100
AcDbLine
 10
179.6
 20
27.9692
 30
0
 11
180
 21
27.9919
 31
0
  0
LINE
  5
BCA
330
A02
100
AcDbEntity
  8
Shape
100
AcDbLine
 10
180
 20
27.9919
 30
0
 11
180.4
 21
28.0143
 31
0
  0
LINE
  5
BCB
330
A02
100
AcDbEntity
  8
Shape
100
AcDbLine
 10
180.4
 20
28.0143
 30
0
 11
180.8
 21
28.0365
 31
0
  0
LINE
  5
BCC
330
A02
100
AcDbEntity
  8
Shape
100
AcDbLine
 10
180.8
 20
28.0365
 30
0
 11
181.2
 21
28.0586
 31
0
  0
LINE
  5
BCD
330
A02
100
AcDbEntity
  8
Shape
100
AcDbLine
 10
181.2
 20
28.0586
 30
0
 11
181.6
 21
28.0803
 31
0
  0
LINE
  5
BCE
330
A02
100
AcDbEntity
  8
Shape
100
AcDbLine
 10
181.6
 20
28.0803
 30
0
 11
182
 21
28.1019
 31
0
  0
LINE
  5
BCF
330
A02
100
AcDbEntity
  8
Shape
100
AcDbLine
 10
182
 20
28.1019
 30
0
 11
182.4
 21
28.1232
 31
0
  0
LINE
  5
BD0
330
A02
100
AcDbEntity
  8
Shape
100
AcDbLine
 10
182.4
 20
28.1232
 30
0
 11
182.8
 21
28.1443
 31
0
  0
LINE
  5
BD1
330
A02
100
AcDbEntity
  8
Shape
100
AcDbLine
 10
182.8
 20
28.1443
 30
0
 11
183.2
 21
28.1651
 31
0
  0
LINE
  5
BD2
330
A02
100
AcDbEntity
  8
Shape
100
AcDbLine
 10
183.2
 20
28.1651
 30
0
 11
183.6
 21
28.1857
 31
0
  0
LINE
  5
BD3
330
A02
100
AcDbEntity
  8
Shape
100
AcDbLine
 10
183.6
 20
28.1857
 30
0
 11
184
 21
28.2061
 31
0
  0
LINE
  5
BD4
330
A02
100
AcDbEntity
  8
Shape
100
AcDbLine
 10
184
 20
28.2061
 30
0
 11
184.4
 21
28.2262
 31
0
  0
LINE
  5
BD5
330
A02
100
AcDbEntity
  8
Shape
100
AcDbLine
 10
184.4
 20
28.2262
 30
0
 11
184.8
 21
28.2461
 31
0
  0
LINE
  5
BD6
330
A02
100
AcDbEntity
  8
Shape
100
AcDbLine
 10
184.8
 20
28.2461
 30
0
 11
185.2
 21
28.2657
 31
0
  0
LINE
  5
BD7
330
A02
100
AcDbEntity
  8
Shape
100
AcDbLine
 10
185.2
 20
28.2657
 30
0
 11
185.6
 21
28.2851
 31
0
  0
LINE
  5
BD8
330
A02
100
AcDbEntity
  8
Shape
100
AcDbLine
 10
185.6
 20
28.2851
 30
0
 11
186
 21
28.3042
 31
0
  0
LINE
  5
BD9
330
A02
100
AcDbEntity
  8
Shape
100
AcDbLine
 10
186
 20
28.3042
 30
0
 11
186.4
 21
28.323
 31
0
  0
LINE
  5
BDA
330
A02
100
AcDbEntity
  8
Shape
100
AcDbLine
 10
186.4
 20
28.323
 30
0
 11
186.8
 21
28.3416
 31
0
  0
LINE
  5
BDB
330
A02
100
AcDbEntity
  8
Shape
100
AcDbLine
 10
186.8
 20
28.3416
 30
0
 11
187.2
 21
28.3599
 31
0
  0
LINE
  5
BDC
330
A02
100
AcDbEntity
  8
Shape
100
AcDbLine
 10
187.2
 20
28.3599
 30
0
 11
187.6
 21
28.3779
 31
0
  0
LINE
  5
BDD
330
A02
100
AcDbEntity
  8
Shape
100
AcDbLine
 10
187.6
 20
28.3779
 30
0
 11
188
 21
28.3957
 31
0
  0
LINE
  5
BDE
330
A02
100
AcDbEntity
  8
Shape
100
AcDbLine
 10
188
 20
28.3957
 30
0
 11
188.4
 21
28.4131
 31
0
  0
LINE
  5
BDF
330
A02
100
AcDbEntity
  8
Shape
100
AcDbLine
 10
188.4
 20
28.4131
 30
0
 11
188.8
 21
28.4303
 31
0
  0
LINE
  5
BE0
330
A02
100
AcDbEntity
  8
Shape
100
AcDbLine
 10
188.8
 20
28.4303
 30
0
 11
189.2
 21
28.4472
 31
0
  0
LINE
  5
BE1
330
A02
100
AcDbEntity
  8
Shape
100
AcDbLine
 10
189.2
 20
28.4472
 30
0
 11
189.6
 21
28.4638
 31
0
  0
LINE
  5
BE2
330
A02
100
AcDbEntity
  8
Shape
100
AcDbLine
 10
189.6
 20
28.4638
 30
0
 11
190
 21
28.48
 31
0
  0
LINE
  5
BE3
330
A02
100
AcDbEntity
  8
Shape
100
AcDbLine
 10
190
 20
28.48
 30
0
 11
190.4
 21
28.496
 31
0
  0
LINE
  5
BE4
330
A02
100
AcDbEntity
  8
Shape
100
AcDbLine
 10
190.4
 20
28.496
 30
0
 11
190.8
 21
28.5116
 31
0
  0
LINE
  5
BE5
330
A02
100
AcDbEntity
  8
Shape
100
AcDbLine
 10
190.8
 20
28.5116
 30
0
 11
191.2
 21
28.5269
 31
0
  0
LINE
  5
BE6
330
A02
100
AcDbEntity
  8
Shape
100
AcDbLine
 10
191.2
 20
28.5269
 30
0
 11
191.6
 21
28.5419
 31
0
  0
LINE
  5
BE7
330
A02
100
AcDbEntity
  8
Shape
100
AcDbLine
 10
191.6
 20
28.5419
 30
0
 11
192
 21
28.5565
 31
0
  0
LINE
  5
BE8
330
A02
100
AcDbEntity
  8
Shape
100
AcDbLine
 10
192
 20
28.5565
 30
0
 11
192.4
 21
28.5707
 31
0
  0
LINE
  5
BE9
330
A02
100
AcDbEntity
  8
Shape
100
AcDbLine
 10
192.4
 20
28.5707
 30
0
 11
192.8
 21
28.5846
 31
0
  0
LINE
  5
BEA
330
A02
100
AcDbEntity
  8
Shape
100
AcDbLine
 10
192.8
 20
28.5846
 30
0
 11
193.2
 21
28.5982
 31
0
  0
LINE
  5
BEB
330
A02
100
AcDbEntity
  8
Shape
100
AcDbLine
 10
193.2
 20
28.5982
 30
0
 11
193.6
 21
28.6113
 31
0
  0
LINE
  5
BEC
330
A02
100
AcDbEntity
  8
Shape
100
AcDbLine
 10
193.6
 20
28.6113
 30
0
 11
194
 21
28.6241
 31
0
  0
LINE
  5
BED
330
A02
100
AcDbEntity
  8
Shape
100
AcDbLine
 10
194
 20
28.6241
 30
0
 11
194.4
 21
28.6364
 31
0
  0
LINE
  5
BEE
330
A02
100
AcDbEntity
  8
Shape
100
AcDbLine
 10
194.4
 20
28.6364
 30
0
 11
194.8
 21
28.6483
 31
0
  0
LINE
  5
BEF
330
A02
100
AcDbEntity
  8
Shape
100
AcDbLine
 10
194.8
 20
28.6483
 30
0
 11
195.2
 21
28.6598
 31
0
  0
LINE
  5
BF0
330
A02
100
AcDbEntity
  8
Shape
100
AcDbLine
 10
195.2
 20
28.6598
 30
0
 11
195.6
 21
28.6708
 31
0
  0
LINE
  5
BF1
330
A02
100
AcDbEntity
  8
Shape
100
AcDbLine
 10
195.6
 20
28.6708
 30
0
 11
196
 21
28.6813
 31
0
  0
LINE
  5
BF2
330
A02
100
AcDbEntity
  8
Shape
100
AcDbLine
 10
196
 20
28.6813
 30
0
 11
196.4
 21
28.6913
 31
0
  0
LINE
  5
BF3
330
A02
100
AcDbEntity
  8
Shape
100
AcDbLine
 10
196.4
 20
28.6913
 30
0
 11
196.8
 21
28.7008
 31
0
  0
LINE
  5
BF4
330
A02
100
AcDbEntity
  8
Shape
100
AcDbLine
 10
196.8
 20
28.7008
 30
0
 11
197.2
 21
28.7097
 31
0
  0
LINE
  5
BF5
330
A02
100
AcDbEntity
  8
Shape
100
AcDbLine
 10
197.2
 20
28.7097
 30
0
 11
197.6
 21
28.718
 31
0
  0
LINE
  5
BF6
330
A02
100
AcDbEntity
  8
Shape
100
AcDbLine
 10
197.6
 20
28.718
 30
0
 11
198
 21
28.7257
 31
0
  0
LINE
  5
BF7
330
A02
100
AcDbEntity
  8
Shape
100
AcDbLine
 10
198
 20
28.7257
 30
0
 11
198.4
 21
28.7326
 31
0
  0
LINE
  5
BF8
330
A02
100
AcDbEntity
  8
Shape
100
AcDbLine
 10
198.4
 20
28.7326
 30
0
 11
198.8
 21
28.7387
 31
0
  0
LINE
  5
BF9
330
A02
100
AcDbEntity
  8
Shape
100
AcDbLine
 10
198.8
 20
28.7387
 30
0
 11
199.2
 21
28.7438
 31
0
  0
LINE
  5
BFA
330
A02
100
AcDbEntity
  8
Shape
100
AcDbLine
 10
199.2
 20
28.7438
 30
0
 11
199.6
 21
28.7478
 31
0
  0
LINE
  5
BFB
330
A02
100
AcDbEntity
  8
Shape
100
AcDbLine
 10
199.6
 20
28.7478
 30
0
 11
200
 21
28.75
 31
0
  0
LINE
  5
BFC
330
A02
100
AcDbEntity
  8
Shape
100
AcDbLine
 10
200
 20
28.75
 30
0
 11
200
 21
27.75
 31
0
  0
LINE
  5
BFD
330
A02
100
AcDbEntity
  8
Shape
100
AcDbLine
 10
200
 20
27.75
 30
0
 11
270
 21
27.75
 31
0
  0
LINE
  5
BFE
330
A02
100
AcDbEntity
  8
Shape
100
AcDbLine
 10
270
 20
27.75
 30
0
 11
270
 21
25.75
 31
0
  0
LINE
  5
BFF
330
A02
100
AcDbEntity
  8
Shape
100
AcDbLine
 10
270
 20
25.75
 30
0
 11
200
 21
25.75
 31
0
  0
LINE
  5
C00
330
A02
100
AcDbEntity
  8
Shape
100
AcDbLine
 10
200
 20
25.75
 30
0
 11
199.616
 21
25.75
 31
0
  0
LINE
  5
C01
330
A02
100
AcDbEntity
  8
Shape
100
AcDbLine
 10
199.616
 20
25.75
 30
0
 11
199.232
 21
25.75
 31
0
  0
LINE
  5
C02
330
A02
100
AcDbEntity
  8
Shape
100
AcDbLine
 10
199.232
 20
25.75
 30
0
 11
198.848
 21
25.75
 31
0
  0
LINE
  5
C03
330
A02
100
AcDbEntity
  8
Shape
100
AcDbLine
 10
198.848
 20
25.75
 30
0
 11
198.464
 21
25.75
 31
0
  0
LINE
  5
C04
330
A02
100
AcDbEntity
  8
Shape
100
AcDbLine
 10
198.464
 20
25.75
 30
0
 11
198.08
 21
25.75
 31
0
  0
LINE
  5
C05
330
A02
100
AcDbEntity
  8
Shape
100
AcDbLine
 10
198.08
 20
25.75
 30
0
 11
197.696
 21
25.75
 31
0
  0
LINE
  5
C06
330
A02
100
AcDbEntity
  8
Shape
100
AcDbLine
 10
197.696
 20
25.75
 30
0
 11
197.312
 21
25.75
 31
0
  0
LINE
  5
C07
330
A02
100
AcDbEntity
  8
Shape
100
AcDbLine
 10
197.312
 20
25.75
 30
0
 11
196.928
 21
25.75
 31
0
  0
LINE
  5
C08
330
A02
100
AcDbEntity
  8
Shape
100
AcDbLine
 10
196.928
 20
25.75
 30
0
 11
196.544
 21
25.75
 31
0
  0
LINE
  5
C09
330
A02
100
AcDbEntity
  8
Shape
100
AcDbLine
 10
196.544
 20
25.75
 30
0
 11
196.16
 21
25.75
 31
0
  0
LINE
  5
C0A
330
A02
100
AcDbEntity
  8
Shape
100
AcDbLine
 10
196.16
 20
25.75
 30
0
 11
195.776
 21
25.75
 31
0
  0
LINE
  5
C0B
330
A02
100
AcDbEntity
  8
Shape
100
AcDbLine
 10
195.776
 20
25.75
 30
0
 11
195.392
 21
25.75
 31
0
  0
LINE
  5
C0C
330
A02
100
AcDbEntity
  8
Shape
100
AcDbLine
 10
195.392
 20
25.75
 30
0
 11
195.008
 21
25.75
 31
0
  0
LINE
  5
C0D
330
A02
100
AcDbEntity
  8
Shape
100
AcDbLine
 10
195.008
 20
25.75
 30
0
 11
194.624
 21
25.75
 31
0
  0
LINE
  5
C0E
330
A02
100
AcDbEntity
  8
Shape
100
AcDbLine
 10
194.624
 20
25.75
 30
0
 11
194.24
 21
25.75
 31
0
  0
LINE
  5
C0F
330
A02
100
AcDbEntity
  8
Shape
100
AcDbLine
 10
194.24
 20
25.75
 30
0
 11
193.856
 21
25.75
 31
0
  0
LINE
  5
C10
330
A02
100
AcDbEntity
  8
Shape
100
AcDbLine
 10
193.856
 20
25.75
 30
0
 11
193.472
 21
25.75
 31
0
  0
LINE
  5
C11
330
A02
100
AcDbEntity
  8
Shape
100
AcDbLine
 10
193.472
 20
25.75
 30
0
 11
193.088
 21
25.75
 31
0
  0
LINE
  5
C12
330
A02
100
AcDbEntity
  8
Shape
100
AcDbLine
 10
193.088
 20
25.75
 30
0
 11
192.704
 21
25.75
 31
0
  0
LINE
  5
C13
330
A02
100
AcDbEntity
  8
Shape
100
AcDbLine
 10
192.704
 20
25.75
 30
0
 11
192.32
 21
25.75
 31
0
  0
LINE
  5
C14
330
A02
100
AcDbEntity
  8
Shape
100
AcDbLine
 10
192.32
 20
25.75
 30
0
 11
191.936
 21
25.75
 31
0
  0
LINE
  5
C15
330
A02
100
AcDbEntity
  8
Shape
100
AcDbLine
 10
191.936
 20
25.75
 30
0
 11
191.552
 21
25.75
 31
0
  0
LINE
  5
C16
330
A02
100
AcDbEntity
  8
Shape
100
AcDbLine
 10
191.552
 20
25.75
 30
0
 11
191.168
 21
25.75
 31
0
  0
LINE
  5
C17
330
A02
100
AcDbEntity
  8
Shape
100
AcDbLine
 10
191.168
 20
25.75
 30
0
 11
190.784
 21
25.75
 31
0
  0
LINE
  5
C18
330
A02
100
AcDbEntity
  8
Shape
100
AcDbLine
 10
190.784
 20
25.75
 30
0
 11
190.4
 21
25.75
 31
0
  0
LINE
  5
C19
330
A02
100
AcDbEntity
  8
Shape
100
AcDbLine
 10
190.4
 20
25.75
 30
0
 11
190.016
 21
25.75
 31
0
  0
LINE
  5
C1A
330
A02
100
AcDbEntity
  8
Shape
100
AcDbLine
 10
190.016
 20
25.75
 30
0
 11
189.632
 21
25.75
 31
0
  0
LINE
  5
C1B
330
A02
100
AcDbEntity
  8
Shape
100
AcDbLine
 10
189.632
 20
25.75
 30
0
 11
189.248
 21
25.75
 31
0
  0
LINE
  5
C1C
330
A02
100
AcDbEntity
  8
Shape
100
AcDbLine
 10
189.248
 20
25.75
 30
0
 11
188.864
 21
25.75
 31
0
  0
LINE
  5
C1D
330
A02
100
AcDbEntity
  8
Shape
100
AcDbLine
 10
188.864
 20
25.75
 30
0
 11
188.48
 21
25.75
 31
0
  0
LINE
  5
C1E
330
A02
100
AcDbEntity
  8
Shape
100
AcDbLine
 10
188.48
 20
25.75
 30
0
 11
188.096
 21
25.75
 31
0
  0
LINE
  5
C1F
330
A02
100
AcDbEntity
  8
Shape
100
AcDbLine
 10
188.096
 20
25.75
 30
0
 11
187.712
 21
25.75
 31
0
  0
LINE
  5
C20
330
A02
100
AcDbEntity
  8
Shape
100
AcDbLine
 10
187.712
 20
25.75
 30
0
 11
187.328
 21
25.75
 31
0
  0
LINE
  5
C21
330
A02
100
AcDbEntity
  8
Shape
100
AcDbLine
 10
187.328
 20
25.75
 30
0
 11
186.944
 21
25.75
 31
0
  0
LINE
  5
C22
330
A02
100
AcDbEntity
  8
Shape
100
AcDbLine
 10
186.944
 20
25.75
 30
0
 11
186.56
 21
25.75
 31
0
  0
LINE
  5
C23
330
A02
100
AcDbEntity
  8
Shape
100
AcDbLine
 10
186.56
 20
25.75
 30
0
 11
186.176
 21
25.75
 31
0
  0
LINE
  5
C24
330
A02
100
AcDbEntity
  8
Shape
100
AcDbLine
 10
186.176
 20
25.75
 30
0
 11
185.792
 21
25.75
 31
0
  0
LINE
  5
C25
330
A02
100
AcDbEntity
  8
Shape
100
AcDbLine
 10
185.792
 20
25.75
 30
0
 11
185.408
 21
25.75
 31
0
  0
LINE
  5
C26
330
A02
100
AcDbEntity
  8
Shape
100
AcDbLine
 10
185.408
 20
25.75
 30
0
 11
185.024
 21
25.75
 31
0
  0
LINE
  5
C27
330
A02
100
AcDbEntity
  8
Shape
100
AcDbLine
 10
185.024
 20
25.75
 30
0
 11
184.64
 21
25.75
 31
0
  0
LINE
  5
C28
330
A02
100
AcDbEntity
  8
Shape
100
AcDbLine
 10
184.64
 20
25.75
 30
0
 11
184.256
 21
25.75
 31
0
  0
LINE
  5
C29
330
A02
100
AcDbEntity
  8
Shape
100
AcDbLine
 10
184.256
 20
25.75
 30
0
 11
183.872
 21
25.75
 31
0
  0
LINE
  5
C2A
330
A02
100
AcDbEntity
  8
Shape
100
AcDbLine
 10
183.872
 20
25.75
 30
0
 11
183.488
 21
25.75
 31
0
  0
LINE
  5
C2B
330
A02
100
AcDbEntity
  8
Shape
100
AcDbLine
 10
183.488
 20
25.75
 30
0
 11
183.104
 21
25.75
 31
0
  0
LINE
  5
C2C
330
A02
100
AcDbEntity
  8
Shape
100
AcDbLine
 10
183.104
 20
25.75
 30
0
 11
182.72
 21
25.75
 31
0
  0
LINE
  5
C2D
330
A02
100
AcDbEntity
  8
Shape
100
AcDbLine
 10
182.72
 20
25.75
 30
0
 11
182.336
 21
25.75
 31
0
  0
LINE
  5
C2E
330
A02
100
AcDbEntity
  8
Shape
100
AcDbLine
 10
182.336
 20
25.75
 30
0
 11
181.952
 21
25.75
 31
0
  0
LINE
  5
C2F
330
A02
100
AcDbEntity
  8
Shape
100
AcDbLine
 10
181.952
 20
25.75
 30
0
 11
181.568
 21
25.75
 31
0
  0
LINE
  5
C30
330
A02
100
AcDbEntity
  8
Shape
100
AcDbLine
 10
181.568
 20
25.75
 30
0
 11
181.184
 21
25.75
 31
0
  0
LINE
  5
C31
330
A02
100
AcDbEntity
  8
Shape
100
AcDbLine
 10
181.184
 20
25.75
 30
0
 11
180.8
 21
25.75
 31
0
  0
LINE
  5
C32
330
A02
100
AcDbEntity
  8
Shape
100
AcDbLine
 10
180.8
 20
25.75
 30
0
 11
180.416
 21
25.75
 31
0
  0
LINE
  5
C33
330
A02
100
AcDbEntity
  8
Shape
100
AcDbLine
 10
180.416
 20
25.75
 30
0
 11
180.032
 21
25.75
 31
0
  0
LINE
  5
C34
330
A02
100
AcDbEntity
  8
Shape
100
AcDbLine
 10
180.032
 20
25.75
 30
0
 11
179.648
 21
25.75
 31
0
  0
LINE
  5
C35
330
A02
100
AcDbEntity
  8
Shape
100
AcDbLine
 10
179.648
 20
25.75
 30
0
 11
179.264
 21
25.75
 31
0
  0
LINE
  5
C36
330
A02
100
AcDbEntity
  8
Shape
100
AcDbLine
 10
179.264
 20
25.75
 30
0
 11
178.88
 21
25.75
 31
0
  0
LINE
  5
C37
330
A02
100
AcDbEntity
  8
Shape
100
AcDbLine
 10
178.88
 20
25.75
 30
0
 11
178.496
 21
25.75
 31
0
  0
LINE
  5
C38
330
A02
100
AcDbEntity
  8
Shape
100
AcDbLine
 10
178.496
 20
25.75
 30
0
 11
178.112
 21
25.75
 31
0
  0
LINE
  5
C39
330
A02
100
AcDbEntity
  8
Shape
100
AcDbLine
 10
178.112
 20
25.75
 30
0
 11
177.728
 21
25.75
 31
0
  0
LINE
  5
C3A
330
A02
100
AcDbEntity
  8
Shape
100
AcDbLine
 10
177.728
 20
25.75
 30
0
 11
177.344
 21
25.75
 31
0
  0
LINE
  5
C3B
330
A02
100
AcDbEntity
  8
Shape
100
AcDbLine
 10
177.344
 20
25.75
 30
0
 11
176.96
 21
25.75
 31
0
  0
LINE
  5
C3C
330
A02
100
AcDbEntity
  8
Shape
100
AcDbLine
 10
176.96
 20
25.75
 30
0
 11
176.576
 21
25.75
 31
0
  0
LINE
  5
C3D
330
A02
100
AcDbEntity
  8
Shape
100
AcDbLine
 10
176.576
 20
25.75
 30
0
 11
176.192
 21
25.75
 31
0
  0
LINE
  5
C3E
330
A02
100
AcDbEntity
  8
Shape
100
AcDbLine
 10
176.192
 20
25.75
 30
0
 11
175.808
 21
25.75
 31
0
  0
LINE
  5
C3F
330
A02
100
AcDbEntity
  8
Shape
100
AcDbLine
 10
175.808
 20
25.75
 30
0
 11
175.424
 21
25.7317
 31
0
  0
LINE
  5
C40
330
A02
100
AcDbEntity
  8
Shape
100
AcDbLine
 10
175.424
 20
25.7317
 30
0
 11
175.04
 21
25.7079
 31
0
  0
LINE
  5
C41
330
A02
100
AcDbEntity
  8
Shape
100
AcDbLine
 10
175.04
 20
25.7079
 30
0
 11
174.656
 21
25.684
 31
0
  0
LINE
  5
C42
330
A02
100
AcDbEntity
  8
Shape
100
AcDbLine
 10
174.656
 20
25.684
 30
0
 11
174.272
 21
25.6599
 31
0
  0
LINE
  5
C43
330
A02
100
AcDbEntity
  8
Shape
100
AcDbLine
 10
174.272
 20
25.6599
 30
0
 11
173.888
 21
25.6356
 31
0
  0
LINE
  5
C44
330
A02
100
AcDbEntity
  8
Shape
100
AcDbLine
 10
173.888
 20
25.6356
 30
0
 11
173.504
 21
25.6112
 31
0
  0
LINE
  5
C45
330
A02
100
AcDbEntity
  8
Shape
100
AcDbLine
 10
173.504
 20
25.6112
 30
0
 11
173.12
 21
25.5866
 31
0
  0
LINE
  5
C46
330
A02
100
AcDbEntity
  8
Shape
100
AcDbLine
 10
173.12
 20
25.5866
 30
0
 11
172.736
 21
25.5618
 31
0
  0
LINE
  5
C47
330
A02
100
AcDbEntity
  8
Shape
100
AcDbLine
 10
172.736
 20
25.5618
 30
0
 11
172.352
 21
25.5368
 31
0
  0
LINE
  5
C48
330
A02
100
AcDbEntity
  8
Shape
100
AcDbLine
 10
172.352
 20
25.5368
 30
0
 11
171.968
 21
25.5117
 31
0
  0
LINE
  5
C49
330
A02
100
AcDbEntity
  8
Shape
100
AcDbLine
 10
171.968
 20
25.5117
 30
0
 11
171.584
 21
25.4864
 31
0
  0
LINE
  5
C4A
330
A02
100
AcDbEntity
  8
Shape
100
AcDbLine
 10
171.584
 20
25.4864
 30
0
 11
171.2
 21
25.4609
 31
0
  0
LINE
  5
C4B
330
A02
100
AcDbEntity
  8
Shape
100
AcDbLine
 10
171.2
 20
25.4609
 30
0
 11
170.816
 21
25.4352
 31
0
  0
LINE
  5
C4C
330
A02
100
AcDbEntity
  8
Shape
100
AcDbLine
 10
170.816
 20
25.4352
 30
0
 11
170.432
 21
25.4094
 31
0
  0
LINE
  5
C4D
330
A02
100
AcDbEntity
  8
Shape
100
AcDbLine
 10
170.432
 20
25.4094
 30
0
 11
170.048
 21
25.3835
 31
0
  0
LINE
  5
C4E
330
A02
100
AcDbEntity
  8
Shape
100
AcDbLine
 10
170.048
 20
25.3835
 30
0
 11
169.664
 21
25.3573
 31
0
  0
LINE
  5
C4F
330
A02
100
AcDbEntity
  8
Shape
100
AcDbLine
 10
169.664
 20
25.3573
 30
0
 11
169.28
 21
25.3311
 31
0
  0
LINE
  5
C50
330
A02
100
AcDbEntity
  8
Shape
100
AcDbLine
 10
169.28
 20
25.3311
 30
0
 11
168.896
 21
25.3046
 31
0
  0
LINE
  5
C51
330
A02
100
AcDbEntity
  8
Shape
100
AcDbLine
 10
168.896
 20
25.3046
 30
0
 11
168.512
 21
25.278
 31
0
  0
LINE
  5
C52
330
A02
100
AcDbEntity
  8
Shape
100
AcDbLine
 10
168.512
 20
25.278
 30
0
 11
168.128
 21
25.2512
 31
0
  0
LINE
  5
C53
330
A02
100
AcDbEntity
  8
Shape
100
AcDbLine
 10
168.128
 20
25.2512
 30
0
 11
167.744
 21
25.2243
 31
0
  0
LINE
  5
C54
330
A02
100
AcDbEntity
  8
Shape
100
AcDbLine
 10
167.744
 20
25.2243
 30
0
 11
167.36
 21
25.1972
 31
0
  0
LINE
  5
C55
330
A02
100
AcDbEntity
  8
Shape
100
AcDbLine
 10
167.36
 20
25.1972
 30
0
 11
166.976
 21
25.17
 31
0
  0
LINE
  5
C56
330
A02
100
AcDbEntity
  8
Shape
100
AcDbLine
 10
166.976
 20
25.17
 30
0
 11
166.592
 21
25.1426
 31
0
  0
LINE
  5
C57
330
A02
100
AcDbEntity
  8
Shape
100
AcDbLine
 10
166.592
 20
25.1426
 30
0
 11
166.208
 21
25.115
 31
0
  0
LINE
  5
C58
330
A02
100
AcDbEntity
  8
Shape
100
AcDbLine
 10
166.208
 20
25.115
 30
0
 11
165.824
 21
25.0873
 31
0
  0
LINE
  5
C59
330
A02
100
AcDbEntity
  8
Shape
100
AcDbLine
 10
165.824
 20
25.0873
 30
0
 11
165.44
 21
25.0594
 31
0
  0
LINE
  5
C5A
330
A02
100
AcDbEntity
  8
Shape
100
AcDbLine
 10
165.44
 20
25.0594
 30
0
 11
165.056
 21
25.0314
 31
0
  0
LINE
  5
C5B
330
A02
100
AcDbEntity
  8
Shape
100
AcDbLine
 10
165.056
 20
25.0314
 30
0
 11
164.672
 21
25.0033
 31
0
  0
LINE
  5
C5C
330
A02
100
AcDbEntity
  8
Shape
100
AcDbLine
 10
164.672
 20
25.0033
 30
0
 11
164.288
 21
24.975
 31
0
  0
LINE
  5
C5D
330
A02
100
AcDbEntity
  8
Shape
100
AcDbLine
 10
164.288
 20
24.975
 30
0
 11
163.904
 21
24.9465
 31
0
  0
LINE
  5
C5E
330
A02
100
AcDbEntity
  8
Shape
100
AcDbLine
 10
163.904
 20
24.9465
 30
0
 11
163.52
 21
24.9179
 31
0
  0
LINE
  5
C5F
330
A02
100
AcDbEntity
  8
Shape
100
AcDbLine
 10
163.52
 20
24.9179
 30
0
 11
163.136
 21
24.8891
 31
0
  0
LINE
  5
C60
330
A02
100
AcDbEntity
  8
Shape
100
AcDbLine
 10
163.136
 20
24.8891
 30
0
 11
162.752
 21
24.8602
 31
0
  0
LINE
  5
C61
330
A02
100
AcDbEntity
  8
Shape
100
AcDbLine
 10
162.752
 20
24.8602
 30
0
 11
162.368
 21
24.8312
 31
0
  0
LINE
  5
C62
330
A02
100
AcDbEntity
  8
Shape
100
AcDbLine
 10
162.368
 20
24.8312
 30
0
 11
161.984
 21
24.802
 31
0
  0
LINE
  5
C63
330
A02
100
AcDbEntity
  8
Shape
100
AcDbLine
 10
161.984
 20
24.802
 30
0
 11
161.6
 21
24.7726
 31
0
  0
LINE
  5
C64
330
A02
100
AcDbEntity
  8
Shape
100
AcDbLine
 10
161.6
 20
24.7726
 30
0
 11
161.216
 21
24.7431
 31
0
  0
LINE
  5
C65
330
A02
100
AcDbEntity
  8
Shape
100
AcDbLine
 10
161.216
 20
24.7431
 30
0
 11
160.832
 21
24.7135
 31
0
  0
LINE
  5
C66
330
A02
100
AcDbEntity
  8
Shape
100
AcDbLine
 10
160.832
 20
24.7135
 30
0
 11
160.448
 21
24.6837
 31
0
  0
LINE
  5
C67
330
A02
100
AcDbEntity
  8
Shape
100
AcDbLine
 10
160.448
 20
24.6837
 30
0
 11
160.064
 21
24.6538
 31
0
  0
LINE
  5
C68
330
A02
100
AcDbEntity
  8
Shape
100
AcDbLine
 10
160.064
 20
24.6538
 30
0
 11
159.68
 21
24.6237
 31
0
  0
LINE
  5
C69
330
A02
100
AcDbEntity
  8
Shape
100
AcDbLine
 10
159.68
 20
24.6237
 30
0
 11
159.296
 21
24.5935
 31
0
  0
LINE
  5
C6A
330
A02
100
AcDbEntity
  8
Shape
100
AcDbLine
 10
159.296
 20
24.5935
 30
0
 11
158.912
 21
24.5631
 31
0
  0
LINE
  5
C6B
330
A02
100
AcDbEntity
  8
Shape
100
AcDbLine
 10
158.912
 20
24.5631
 30
0
 11
158.528
 21
24.5326
 31
0
  0
LINE
  5
C6C
330
A02
100
AcDbEntity
  8
Shape
100
AcDbLine
 10
158.528
 20
24.5326
 30
0
 11
158.144
 21
24.502
 31
0
  0
LINE
  5
C6D
330
A02
100
AcDbEntity
  8
Shape
100
AcDbLine
 10
158.144
 20
24.502
 30
0
 11
157.76
 21
24.4712
 31
0
  0
LINE
  5
C6E
330
A02
100
AcDbEntity
  8
Shape
100
AcDbLine
 10
157.76
 20
24.4712
 30
0
 11
157.376
 21
24.4403
 31
0
  0
LINE
  5
C6F
330
A02
100
AcDbEntity
  8
Shape
100
AcDbLine
 10
157.376
 20
24.4403
 30
0
 11
156.992
 21
24.4092
 31
0
  0
LINE
  5
C70
330
A02
100
AcDbEntity
  8
Shape
100
AcDbLine
 10
156.992
 20
24.4092
 30
0
 11
156.608
 21
24.3781
 31
0
  0
LINE
  5
C71
330
A02
100
AcDbEntity
  8
Shape
100
AcDbLine
 10
156.608
 20
24.3781
 30
0
 11
156.224
 21
24.3467
 31
0
  0
LINE
  5
C72
330
A02
100
AcDbEntity
  8
Shape
100
AcDbLine
 10
156.224
 20
24.3467
 30
0
 11
155.84
 21
24.3153
 31
0
  0
LINE
  5
C73
330
A02
100
AcDbEntity
  8
Shape
100
AcDbLine
 10
155.84
 20
24.3153
 30
0
 11
155.456
 21
24.2836
 31
0
  0
LINE
  5
C74
330
A02
100
AcDbEntity
  8
Shape
100
AcDbLine
 10
155.456
 20
24.2836
 30
0
 11
155.072
 21
24.2519
 31
0
  0
LINE
  5
C75
330
A02
100
AcDbEntity
  8
Shape
100
AcDbLine
 10
155.072
 20
24.2519
 30
0
 11
154.688
 21
24.22
 31
0
  0
LINE
  5
C76
330
A02
100
AcDbEntity
  8
Shape
100
AcDbLine
 10
154.688
 20
24.22
 30
0
 11
154.304
 21
24.188
 31
0
  0
LINE
  5
C77
330
A02
100
AcDbEntity
  8
Shape
100
AcDbLine
 10
154.304
 20
24.188
 30
0
 11
153.92
 21
24.1559
 31
0
  0
LINE
  5
C78
330
A02
100
AcDbEntity
  8
Shape
100
AcDbLine
 10
153.92
 20
24.1559
 30
0
 11
153.536
 21
24.1236
 31
0
  0
LINE
  5
C79
330
A02
100
AcDbEntity
  8
Shape
100
AcDbLine
 10
153.536
 20
24.1236
 30
0
 11
153.152
 21
24.0912
 31
0
  0
LINE
  5
C7A
330
A02
100
AcDbEntity
  8
Shape
100
AcDbLine
 10
153.152
 20
24.0912
 30
0
 11
152.768
 21
24.0586
 31
0
  0
LINE
  5
C7B
330
A02
100
AcDbEntity
  8
Shape
100
AcDbLine
 10
152.768
 20
24.0586
 30
0
 11
152.384
 21
24.0259
 31
0
  0
LINE
  5
C7C
330
A02
100
AcDbEntity
  8
Shape
100
AcDbLine
 10
152.384
 20
24.0259
 30
0
 11
152
 21
23.9931
 31
0
  0
LINE
  5
C7D
330
A02
100
AcDbEntity
  8
Shape
100
AcDbLine
 10
152
 20
23.9931
 30
0
 11
151.616
 21
23.9602
 31
0
  0
LINE
  5
C7E
330
A02
100
AcDbEntity
  8
Shape
100
AcDbLine
 10
151.616
 20
23.9602
 30
0
 11
151.232
 21
23.9271
 31
0
  0
LINE
  5
C7F
330
A02
100
AcDbEntity
  8
Shape
100
AcDbLine
 10
151.232
 20
23.9271
 30
0
 11
150.848
 21
23.8939
 31
0
  0
LINE
  5
C80
330
A02
100
AcDbEntity
  8
Shape
100
AcDbLine
 10
150.848
 20
23.8939
 30
0
 11
150.464
 21
23.8605
 31
0
  0
LINE
  5
C81
330
A02
100
AcDbEntity
  8
Shape
100
AcDbLine
 10
150.464
 20
23.8605
 30
0
 11
150.08
 21
23.827
 31
0
  0
LINE
  5
C82
330
A02
100
AcDbEntity
  8
Shape
100
AcDbLine
 10
150.08
 20
23.827
 30
0
 11
149.696
 21
23.7934
 31
0
  0
LINE
  5
C83
330
A02
100
AcDbEntity
  8
Shape
100
AcDbLine
 10
149.696
 20
23.7934
 30
0
 11
149.312
 21
23.7597
 31
0
  0
LINE
  5
C84
330
A02
100
AcDbEntity
  8
Shape
100
AcDbLine
 10
149.312
 20
23.7597
 30
0
 11
148.928
 21
23.7258
 31
0
  0
LINE
  5
C85
330
A02
100
AcDbEntity
  8
Shape
100
AcDbLine
 10
148.928
 20
23.7258
 30
0
 11
148.544
 21
23.6918
 31
0
  0
LINE
  5
C86
330
A02
100
AcDbEntity
  8
Shape
100
AcDbLine
 10
148.544
 20
23.6918
 30
0
 11
148.16
 21
23.6577
 31
0
  0
LINE
  5
C87
330
A02
100
AcDbEntity
  8
Shape
100
AcDbLine
 10
148.16
 20
23.6577
 30
0
 11
147.776
 21
23.6234
 31
0
  0
LINE
  5
C88
330
A02
100
AcDbEntity
  8
Shape
100
AcDbLine
 10
147.776
 20
23.6234
 30
0
 11
147.392
 21
23.589
 31
0
  0
LINE
  5
C89
330
A02
100
AcDbEntity
  8
Shape
100
AcDbLine
 10
147.392
 20
23.589
 30
0
 11
147.008
 21
23.5545
 31
0
  0
LINE
  5
C8A
330
A02
100
AcDbEntity
  8
Shape
100
AcDbLine
 10
147.008
 20
23.5545
 30
0
 11
146.624
 21
23.5199
 31
0
  0
LINE
  5
C8B
330
A02
100
AcDbEntity
  8
Shape
100
AcDbLine
 10
146.624
 20
23.5199
 30
0
 11
146.24
 21
23.4851
 31
0
  0
LINE
  5
C8C
330
A02
100
AcDbEntity
  8
Shape
100
AcDbLine
 10
146.24
 20
23.4851
 30
0
 11
145.856
 21
23.4502
 31
0
  0
LINE
  5
C8D
330
A02
100
AcDbEntity
  8
Shape
100
AcDbLine
 10
145.856
 20
23.4502
 30
0
 11
145.472
 21
23.4152
 31
0
  0
LINE
  5
C8E
330
A02
100
AcDbEntity
  8
Shape
100
AcDbLine
 10
145.472
 20
23.4152
 30
0
 11
145.088
 21
23.38
 31
0
  0
LINE
  5
C8F
330
A02
100
AcDbEntity
  8
Shape
100
AcDbLine
 10
145.088
 20
23.38
 30
0
 11
144.704
 21
23.3447
 31
0
  0
LINE
  5
C90
330
A02
100
AcDbEntity
  8
Shape
100
AcDbLine
 10
144.704
 20
23.3447
 30
0
 11
144.32
 21
23.3093
 31
0
  0
LINE
  5
C91
330
A02
100
AcDbEntity
  8
Shape
100
AcDbLine
 10
144.32
 20
23.3093
 30
0
 11
143.936
 21
23.2738
 31
0
  0
LINE
  5
C92
330
A02
100
AcDbEntity
  8
Shape
100
AcDbLine
 10
143.936
 20
23.2738
 30
0
 11
143.552
 21
23.2381
 31
0
  0
LINE
  5
C93
330
A02
100
AcDbEntity
  8
Shape
100
AcDbLine
 10
143.552
 20
23.2381
 30
0
 11
143.168
 21
23.2023
 31
0
  0
LINE
  5
C94
330
A02
100
AcDbEntity
  8
Shape
100
AcDbLine
 10
143.168
 20
23.2023
 30
0
 11
142.784
 21
23.1664
 31
0
  0
LINE
  5
C95
330
A02
100
AcDbEntity
  8
Shape
100
AcDbLine
 10
142.784
 20
23.1664
 30
0
 11
142.4
 21
23.1304
 31
0
  0
LINE
  5
C96
330
A02
100
AcDbEntity
  8
Shape
100
AcDbLine
 10
142.4
 20
23.1304
 30
0
 11
142.016
 21
23.0942
 31
0
  0
LINE
  5
C97
330
A02
100
AcDbEntity
  8
Shape
100
AcDbLine
 10
142.016
 20
23.0942
 30
0
 11
141.632
 21
23.0579
 31
0
  0
LINE
  5
C98
330
A02
100
AcDbEntity
  8
Shape
100
AcDbLine
 10
141.632
 20
23.0579
 30
0
 11
141.248
 21
23.0215
 31
0
  0
LINE
  5
C99
330
A02
100
AcDbEntity
  8
Shape
100
AcDbLine
 10
141.248
 20
23.0215
 30
0
 11
140.864
 21
22.985
 31
0
  0
LINE
  5
C9A
330
A02
100
AcDbEntity
  8
Shape
100
AcDbLine
 10
140.864
 20
22.985
 30
0
 11
140.48
 21
22.9483
 31
0
  0
LINE
  5
C9B
330
A02
100
AcDbEntity
  8
Shape
100
AcDbLine
 10
140.48
 20
22.9483
 30
0
 11
140.096
 21
22.9115
 31
0
  0
LINE
  5
C9C
330
A02
100
AcDbEntity
  8
Shape
100
AcDbLine
 10
140.096
 20
22.9115
 30
0
 11
139.712
 21
22.8746
 31
0
  0
LINE
  5
C9D
330
A02
100
AcDbEntity
  8
Shape
100
AcDbLine
 10
139.712
 20
22.8746
 30
0
 11
139.328
 21
22.8376
 31
0
  0
LINE
  5
C9E
330
A02
100
AcDbEntity
  8
Shape
100
AcDbLine
 10
139.328
 20
22.8376
 30
0
 11
138.944
 21
22.8004
 31
0
  0
LINE
  5
C9F
330
A02
100
AcDbEntity
  8
Shape
100
AcDbLine
 10
138.944
 20
22.8004
 30
0
 11
138.56
 21
22.7632
 31
0
  0
LINE
  5
CA0
330
A02
100
AcDbEntity
  8
Shape
100
AcDbLine
 10
138.56
 20
22.7632
 30
0
 11
138.176
 21
22.7258
 31
0
  0
LINE
  5
CA1
330
A02
100
AcDbEntity
  8
Shape
100
AcDbLine
 10
138.176
 20
22.7258
 30
0
 11
137.792
 21
22.6882
 31
0
  0
LINE
  5
CA2
330
A02
100
AcDbEntity
  8
Shape
100
AcDbLine
 10
137.792
 20
22.6882
 30
0
 11
137.408
 21
22.6506
 31
0
  0
LINE
  5
CA3
330
A02
100
AcDbEntity
  8
Shape
100
AcDbLine
 10
137.408
 20
22.6506
 30
0
 11
137.024
 21
22.6128
 31
0
  0
LINE
  5
CA4
330
A02
100
AcDbEntity
  8
Shape
100
AcDbLine
 10
137.024
 20
22.6128
 30
0
 11
136.64
 21
22.5749
 31
0
  0
LINE
  5
CA5
330
A02
100
AcDbEntity
  8
Shape
100
AcDbLine
 10
136.64
 20
22.5749
 30
0
 11
136.256
 21
22.5369
 31
0
  0
LINE
  5
CA6
330
A02
100
AcDbEntity
  8
Shape
100
AcDbLine
 10
136.256
 20
22.5369
 30
0
 11
135.872
 21
22.4988
 31
0
  0
LINE
  5
CA7
330
A02
100
AcDbEntity
  8
Shape
100
AcDbLine
 10
135.872
 20
22.4988
 30
0
 11
135.488
 21
22.4605
 31
0
  0
LINE
  5
CA8
330
A02
100
AcDbEntity
  8
Shape
100
AcDbLine
 10
135.488
 20
22.4605
 30
0
 11
135.104
 21
22.4221
 31
0
  0
LINE
  5
CA9
330
A02
100
AcDbEntity
  8
Shape
100
AcDbLine
 10
135.104
 20
22.4221
 30
0
 11
134.72
 21
22.3836
 31
0
  0
LINE
  5
CAA
330
A02
100
AcDbEntity
  8
Shape
100
AcDbLine
 10
134.72
 20
22.3836
 30
0
 11
134.336
 21
22.345
 31
0
  0
LINE
  5
CAB
330
A02
100
AcDbEntity
  8
Shape
100
AcDbLine
 10
134.336
 20
22.345
 30
0
 11
133.952
 21
22.3063
 31
0
  0
LINE
  5
CAC
330
A02
100
AcDbEntity
  8
Shape
100
AcDbLine
 10
133.952
 20
22.3063
 30
0
 11
133.568
 21
22.2674
 31
0
  0
LINE
  5
CAD
330
A02
100
AcDbEntity
  8
Shape
100
AcDbLine
 10
133.568
 20
22.2674
 30
0
 11
133.184
 21
22.2284
 31
0
  0
LINE
  5
CAE
330
A02
100
AcDbEntity
  8
Shape
100
AcDbLine
 10
133.184
 20
22.2284
 30
0
 11
132.8
 21
22.1893
 31
0
  0
LINE
  5
CAF
330
A02
100
AcDbEntity
  8
Shape
100
AcDbLine
 10
132.8
 20
22.1893
 30
0
 11
132.416
 21
22.1501
 31
0
  0
LINE
  5
CB0
330
A02
100
AcDbEntity
  8
Shape
100
AcDbLine
 10
132.416
 20
22.1501
 30
0
 11
132.032
 21
22.1107
 31
0
  0
LINE
  5
CB1
330
A02
100
AcDbEntity
  8
Shape
100
AcDbLine
 10
132.032
 20
22.1107
 30
0
 11
131.648
 21
22.0713
 31
0
  0
LINE
  5
CB2
330
A02
100
AcDbEntity
  8
Shape
100
AcDbLine
 10
131.648
 20
22.0713
 30
0
 11
131.264
 21
22.0317
 31
0
  0
LINE
  5
CB3
330
A02
100
AcDbEntity
  8
Shape
100
AcDbLine
 10
131.264
 20
22.0317
 30
0
 11
130.88
 21
21.992
 31
0
  0
LINE
  5
CB4
330
A02
100
AcDbEntity
  8
Shape
100
AcDbLine
 10
130.88
 20
21.992
 30
0
 11
130.496
 21
21.9521
 31
0
  0
LINE
  5
CB5
330
A02
100
AcDbEntity
  8
Shape
100
AcDbLine
 10
130.496
 20
21.9521
 30
0
 11
130.112
 21
21.9122
 31
0
  0
LINE
  5
CB6
330
A02
100
AcDbEntity
  8
Shape
100
AcDbLine
 10
130.112
 20
21.9122
 30
0
 11
129.728
 21
21.8721
 31
0
  0
LINE
  5
CB7
330
A02
100
AcDbEntity
  8
Shape
100
AcDbLine
 10
129.728
 20
21.8721
 30
0
 11
129.344
 21
21.8319
 31
0
  0
LINE
  5
CB8
330
A02
100
AcDbEntity
  8
Shape
100
AcDbLine
 10
129.344
 20
21.8319
 30
0
 11
128.96
 21
21.7916
 31
0
  0
LINE
  5
CB9
330
A02
100
AcDbEntity
  8
Shape
100
AcDbLine
 10
128.96
 20
21.7916
 30
0
 11
128.576
 21
21.7512
 31
0
  0
LINE
  5
CBA
330
A02
100
AcDbEntity
  8
Shape
100
AcDbLine
 10
128.576
 20
21.7512
 30
0
 11
128.192
 21
21.7106
 31
0
  0
LINE
  5
CBB
330
A02
100
AcDbEntity
  8
Shape
100
AcDbLine
 10
128.192
 20
21.7106
 30
0
 11
127.808
 21
21.6699
 31
0
  0
LINE
  5
CBC
330
A02
100
AcDbEntity
  8
Shape
100
AcDbLine
 10
127.808
 20
21.6699
 30
0
 11
127.424
 21
21.6292
 31
0
  0
LINE
  5
CBD
330
A02
100
AcDbEntity
  8
Shape
100
AcDbLine
 10
127.424
 20
21.6292
 30
0
 11
127.04
 21
21.5882
 31
0
  0
LINE
  5
CBE
330
A02
100
AcDbEntity
  8
Shape
100
AcDbLine
 10
127.04
 20
21.5882
 30
0
 11
126.656
 21
21.5472
 31
0
  0
LINE
  5
CBF
330
A02
100
AcDbEntity
  8
Shape
100
AcDbLine
 10
126.656
 20
21.5472
 30
0
 11
126.272
 21
21.5061
 31
0
  0
LINE
  5
CC0
330
A02
100
AcDbEntity
  8
Shape
100
AcDbLine
 10
126.272
 20
21.5061
 30
0
 11
125.888
 21
21.4648
 31
0
  0
LINE
  5
CC1
330
A02
100
AcDbEntity
  8
Shape
100
AcDbLine
 10
125.888
 20
21.4648
 30
0
 11
125.504
 21
21.4234
 31
0
  0
LINE
  5
CC2
330
A02
100
AcDbEntity
  8
Shape
100
AcDbLine
 10
125.504
 20
21.4234
 30
0
 11
125.12
 21
21.3819
 31
0
  0
LINE
  5
CC3
330
A02
100
AcDbEntity
  8
Shape
100
AcDbLine
 10
125.12
 20
21.3819
 30
0
 11
124.736
 21
21.3403
 31
0
  0
LINE
  5
CC4
330
A02
100
AcDbEntity
  8
Shape
100
AcDbLine
 10
124.736
 20
21.3403
 30
0
 11
124.352
 21
21.2985
 31
0
  0
LINE
  5
CC5
330
A02
100
AcDbEntity
  8
Shape
100
AcDbLine
 10
124.352
 20
21.2985
 30
0
 11
123.968
 21
21.2567
 31
0
  0
LINE
  5
CC6
330
A02
100
AcDbEntity
  8
Shape
100
AcDbLine
 10
123.968
 20
21.2567
 30
0
 11
123.584
 21
21.2147
 31
0
  0
LINE
  5
CC7
330
A02
100
AcDbEntity
  8
Shape
100
AcDbLine
 10
123.584
 20
21.2147
 30
0
 11
123.2
 21
21.1726
 31
0
  0
LINE
  5
CC8
330
A02
100
AcDbEntity
  8
Shape
100
AcDbLine
 10
123.2
 20
21.1726
 30
0
 11
122.816
 21
21.1304
 31
0
  0
LINE
  5
CC9
330
A02
100
AcDbEntity
  8
Shape
100
AcDbLine
 10
122.816
 20
21.1304
 30
0
 11
122.432
 21
21.088
 31
0
  0
LINE
  5
CCA
330
A02
100
AcDbEntity
  8
Shape
100
AcDbLine
 10
122.432
 20
21.088
 30
0
 11
122.048
 21
21.0456
 31
0
  0
LINE
  5
CCB
330
A02
100
AcDbEntity
  8
Shape
100
AcDbLine
 10
122.048
 20
21.0456
 30
0
 11
121.664
 21
21.003
 31
0
  0
LINE
  5
CCC
330
A02
100
AcDbEntity
  8
Shape
100
AcDbLine
 10
121.664
 20
21.003
 30
0
 11
121.28
 21
20.9603
 31
0
  0
LINE
  5
CCD
330
A02
100
AcDbEntity
  8
Shape
100
AcDbLine
 10
121.28
 20
20.9603
 30
0
 11
120.896
 21
20.9175
 31
0
  0
LINE
  5
CCE
330
A02
100
AcDbEntity
  8
Shape
100
AcDbLine
 10
120.896
 20
20.9175
 30
0
 11
120.512
 21
20.8745
 31
0
  0
LINE
  5
CCF
330
A02
100
AcDbEntity
  8
Shape
100
AcDbLine
 10
120.512
 20
20.8745
 30
0
 11
120.128
 21
20.8315
 31
0
  0
LINE
  5
CD0
330
A02
100
AcDbEntity
  8
Shape
100
AcDbLine
 10
120.128
 20
20.8315
 30
0
 11
119.744
 21
20.7883
 31
0
  0
LINE
  5
CD1
330
A02
100
AcDbEntity
  8
Shape
100
AcDbLine
 10
119.744
 20
20.7883
 30
0
 11
119.36
 21
20.745
 31
0
  0
LINE
  5
CD2
330
A02
100
AcDbEntity
  8
Shape
100
AcDbLine
 10
119.36
 20
20.745
 30
0
 11
118.976
 21
20.7016
 31
0
  0
LINE
  5
CD3
330
A02
100
AcDbEntity
  8
Shape
100
AcDbLine
 10
118.976
 20
20.7016
 30
0
 11
118.592
 21
20.6581
 31
0
  0
LINE
  5
CD4
330
A02
100
AcDbEntity
  8
Shape
100
AcDbLine
 10
118.592
 20
20.6581
 30
0
 11
118.208
 21
20.6144
 31
0
  0
LINE
  5
CD5
330
A02
100
AcDbEntity
  8
Shape
100
AcDbLine
 10
118.208
 20
20.6144
 30
0
 11
117.824
 21
20.5707
 31
0
  0
LINE
  5
CD6
330
A02
100
AcDbEntity
  8
Shape
100
AcDbLine
 10
117.824
 20
20.5707
 30
0
 11
117.44
 21
20.5268
 31
0
  0
LINE
  5
CD7
330
A02
100
AcDbEntity
  8
Shape
100
AcDbLine
 10
117.44
 20
20.5268
 30
0
 11
117.056
 21
20.4828
 31
0
  0
LINE
  5
CD8
330
A02
100
AcDbEntity
  8
Shape
100
AcDbLine
 10
117.056
 20
20.4828
 30
0
 11
116.672
 21
20.4386
 31
0
  0
LINE
  5
CD9
330
A02
100
AcDbEntity
  8
Shape
100
AcDbLine
 10
116.672
 20
20.4386
 30
0
 11
116.288
 21
20.3944
 31
0
  0
LINE
  5
CDA
330
A02
100
AcDbEntity
  8
Shape
100
AcDbLine
 10
116.288
 20
20.3944
 30
0
 11
115.904
 21
20.35
 31
0
  0
LINE
  5
CDB
330
A02
100
AcDbEntity
  8
Shape
100
AcDbLine
 10
115.904
 20
20.35
 30
0
 11
115.52
 21
20.3055
 31
0
  0
LINE
  5
CDC
330
A02
100
AcDbEntity
  8
Shape
100
AcDbLine
 10
115.52
 20
20.3055
 30
0
 11
115.136
 21
20.2609
 31
0
  0
LINE
  5
CDD
330
A02
100
AcDbEntity
  8
Shape
100
AcDbLine
 10
115.136
 20
20.2609
 30
0
 11
114.752
 21
20.2162
 31
0
  0
LINE
  5
CDE
330
A02
100
AcDbEntity
  8
Shape
100
AcDbLine
 10
114.752
 20
20.2162
 30
0
 11
114.368
 21
20.1714
 31
0
  0
LINE
  5
CDF
330
A02
100
AcDbEntity
  8
Shape
100
AcDbLine
 10
114.368
 20
20.1714
 30
0
 11
113.984
 21
20.1264
 31
0
  0
LINE
  5
CE0
330
A02
100
AcDbEntity
  8
Shape
100
AcDbLine
 10
113.984
 20
20.1264
 30
0
 11
113.6
 21
20.0813
 31
0
  0
LINE
  5
CE1
330
A02
100
AcDbEntity
  8
Shape
100
AcDbLine
 10
113.6
 20
20.0813
 30
0
 11
113.216
 21
20.0361
 31
0
  0
LINE
  5
CE2
330
A02
100
AcDbEntity
  8
Shape
100
AcDbLine
 10
113.216
 20
20.0361
 30
0
 11
112.832
 21
19.9908
 31
0
  0
LINE
  5
CE3
330
A02
100
AcDbEntity
  8
Shape
100
AcDbLine
 10
112.832
 20
19.9908
 30
0
 11
112.448
 21
19.9454
 31
0
  0
LINE
  5
CE4
330
A02
100
AcDbEntity
  8
Shape
100
AcDbLine
 10
112.448
 20
19.9454
 30
0
 11
112.064
 21
19.8998
 31
0
  0
LINE
  5
CE5
330
A02
100
AcDbEntity
  8
Shape
100
AcDbLine
 10
112.064
 20
19.8998
 30
0
 11
111.68
 21
19.8541
 31
0
  0
LINE
  5
CE6
330
A02
100
AcDbEntity
  8
Shape
100
AcDbLine
 10
111.68
 20
19.8541
 30
0
 11
111.296
 21
19.8083
 31
0
  0
LINE
  5
CE7
330
A02
100
AcDbEntity
  8
Shape
100
AcDbLine
 10
111.296
 20
19.8083
 30
0
 11
110.912
 21
19.7624
 31
0
  0
LINE
  5
CE8
330
A02
100
AcDbEntity
  8
Shape
100
AcDbLine
 10
110.912
 20
19.7624
 30
0
 11
110.528
 21
19.7163
 31
0
  0
LINE
  5
CE9
330
A02
100
AcDbEntity
  8
Shape
100
AcDbLine
 10
110.528
 20
19.7163
 30
0
 11
110.144
 21
19.6702
 31
0
  0
LINE
  5
CEA
330
A02
100
AcDbEntity
  8
Shape
100
AcDbLine
 10
110.144
 20
19.6702
 30
0
 11
109.76
 21
19.6239
 31
0
  0
LINE
  5
CEB
330
A02
100
AcDbEntity
  8
Shape
100
AcDbLine
 10
109.76
 20
19.6239
 30
0
 11
109.376
 21
19.5775
 31
0
  0
LINE
  5
CEC
330
A02
100
AcDbEntity
  8
Shape
100
AcDbLine
 10
109.376
 20
19.5775
 30
0
 11
108.992
 21
19.531
 31
0
  0
LINE
  5
CED
330
A02
100
AcDbEntity
  8
Shape
100
AcDbLine
 10
108.992
 20
19.531
 30
0
 11
108.608
 21
19.4843
 31
0
  0
LINE
  5
CEE
330
A02
100
AcDbEntity
  8
Shape
100
AcDbLine
 10
108.608
 20
19.4843
 30
0
 11
108.224
 21
19.4376
 31
0
  0
LINE
  5
CEF
330
A02
100
AcDbEntity
  8
Shape
100
AcDbLine
 10
108.224
 20
19.4376
 30
0
 11
107.84
 21
19.3907
 31
0
  0
LINE
  5
CF0
330
A02
100
AcDbEntity
  8
Shape
100
AcDbLine
 10
107.84
 20
19.3907
 30
0
 11
107.456
 21
19.3437
 31
0
  0
LINE
  5
CF1
330
A02
100
AcDbEntity
  8
Shape
100
AcDbLine
 10
107.456
 20
19.3437
 30
0
 11
107.072
 21
19.2965
 31
0
  0
LINE
  5
CF2
330
A02
100
AcDbEntity
  8
Shape
100
AcDbLine
 10
107.072
 20
19.2965
 30
0
 11
106.688
 21
19.2493
 31
0
  0
LINE
  5
CF3
330
A02
100
AcDbEntity
  8
Shape
100
AcDbLine
 10
106.688
 20
19.2493
 30
0
 11
106.304
 21
19.2019
 31
0
  0
LINE
  5
CF4
330
A02
100
AcDbEntity
  8
Shape
100
AcDbLine
 10
106.304
 20
19.2019
 30
0
 11
105.92
 21
19.1544
 31
0
  0
LINE
  5
CF5
330
A02
100
AcDbEntity
  8
Shape
100
AcDbLine
 10
105.92
 20
19.1544
 30
0
 11
105.536
 21
19.1068
 31
0
  0
LINE
  5
CF6
330
A02
100
AcDbEntity
  8
Shape
100
AcDbLine
 10
105.536
 20
19.1068
 30
0
 11
105.152
 21
19.0591
 31
0
  0
LINE
  5
CF7
330
A02
100
AcDbEntity
  8
Shape
100
AcDbLine
 10
105.152
 20
19.0591
 30
0
 11
104.768
 21
19.0112
 31
0
  0
LINE
  5
CF8
330
A02
100
AcDbEntity
  8
Shape
100
AcDbLine
 10
104.768
 20
19.0112
 30
0
 11
104.384
 21
18.9632
 31
0
  0
LINE
  5
CF9
330
A02
100
AcDbEntity
  8
Shape
100
AcDbLine
 10
104.384
 20
18.9632
 30
0
 11
104
 21
18.9151
 31
0
  0
LINE
  5
CFA
330
A02
100
AcDbEntity
  8
Shape
100
AcDbLine
 10
104
 20
18.9151
 30
0
 11
103.616
 21
18.8669
 31
0
  0
LINE
  5
CFB
330
A02
100
AcDbEntity
  8
Shape
100
AcDbLine
 10
103.616
 20
18.8669
 30
0
 11
103.232
 21
18.8185
 31
0
  0
LINE
  5
CFC
330
A02
100
AcDbEntity
  8
Shape
100
AcDbLine
 10
103.232
 20
18.8185
 30
0
 11
102.848
 21
18.7701
 31
0
  0
LINE
  5
CFD
330
A02
100
AcDbEntity
  8
Shape
100
AcDbLine
 10
102.848
 20
18.7701
 30
0
 11
102.464
 21
18.7215
 31
0
  0
LINE
  5
CFE
330
A02
100
AcDbEntity
  8
Shape
100
AcDbLine
 10
102.464
 20
18.7215
 30
0
 11
102.08
 21
18.6727
 31
0
  0
LINE
  5
CFF
330
A02
100
AcDbEntity
  8
Shape
100
AcDbLine
 10
102.08
 20
18.6727
 30
0
 11
101.696
 21
18.6239
 31
0
  0
LINE
  5
D00
330
A02
100
AcDbEntity
  8
Shape
100
AcDbLine
 10
101.696
 20
18.6239
 30
0
 11
101.312
 21
18.5749
 31
0
  0
LINE
  5
D01
330
A02
100
AcDbEntity
  8
Shape
100
AcDbLine
 10
101.312
 20
18.5749
 30
0
 11
100.928
 21
18.5258
 31
0
  0
LINE
  5
D02
330
A02
100
AcDbEntity
  8
Shape
100
AcDbLine
 10
100.928
 20
18.5258
 30
0
 11
100.544
 21
18.4766
 31
0
  0
LINE
  5
D03
330
A02
100
AcDbEntity
  8
Shape
100
AcDbLine
 10
100.544
 20
18.4766
 30
0
 11
100.16
 21
18.4273
 31
0
  0
LINE
  5
D04
330
A02
100
AcDbEntity
  8
Shape
100
AcDbLine
 10
100.16
 20
18.4273
 30
0
 11
99.776
 21
18.3778
 31
0
  0
LINE
  5
D05
330
A02
100
AcDbEntity
  8
Shape
100
AcDbLine
 10
99.776
 20
18.3778
 30
0
 11
99.392
 21
18.3282
 31
0
  0
LINE
  5
D06
330
A02
100
AcDbEntity
  8
Shape
100
AcDbLine
 10
99.392
 20
18.3282
 30
0
 11
99.008
 21
18.2785
 31
0
  0
LINE
  5
D07
330
A02
100
AcDbEntity
  8
Shape
100
AcDbLine
 10
99.008
 20
18.2785
 30
0
 11
98.624
 21
18.2287
 31
0
  0
LINE
  5
D08
330
A02
100
AcDbEntity
  8
Shape
100
AcDbLine
 10
98.624
 20
18.2287
 30
0
 11
98.24
 21
18.1787
 31
0
  0
LINE
  5
D09
330
A02
100
AcDbEntity
  8
Shape
100
AcDbLine
 10
98.24
 20
18.1787
 30
0
 11
97.856
 21
18.1286
 31
0
  0
LINE
  5
D0A
330
A02
100
AcDbEntity
  8
Shape
100
AcDbLine
 10
97.856
 20
18.1286
 30
0
 11
97.472
 21
18.0784
 31
0
  0
LINE
  5
D0B
330
A02
100
AcDbEntity
  8
Shape
100
AcDbLine
 10
97.472
 20
18.0784
 30
0
 11
97.088
 21
18.0281
 31
0
  0
LINE
  5
D0C
330
A02
100
AcDbEntity
  8
Shape
100
AcDbLine
 10
97.088
 20
18.0281
 30
0
 11
96.704
 21
17.9776
 31
0
  0
LINE
  5
D0D
330
A02
100
AcDbEntity
  8
Shape
100
AcDbLine
 10
96.704
 20
17.9776
 30
0
 11
96.32
 21
17.927
 31
0
  0
LINE
  5
D0E
330
A02
100
AcDbEntity
  8
Shape
100
AcDbLine
 10
96.32
 20
17.927
 30
0
 11
95.936
 21
17.8763
 31
0
  0
LINE
  5
D0F
330
A02
100
AcDbEntity
  8
Shape
100
AcDbLine
 10
95.936
 20
17.8763
 30
0
 11
95.552
 21
17.8254
 31
0
  0
LINE
  5
D10
330
A02
100
AcDbEntity
  8
Shape
100
AcDbLine
 10
95.552
 20
17.8254
 30
0
 11
95.168
 21
17.7744
 31
0
  0
LINE
  5
D11
330
A02
100
AcDbEntity
  8
Shape
100
AcDbLine
 10
95.168
 20
17.7744
 30
0
 11
94.784
 21
17.7233
 31
0
  0
LINE
  5
D12
330
A02
100
AcDbEntity
  8
Shape
100
AcDbLine
 10
94.784
 20
17.7233
 30
0
 11
94.4
 21
17.6721
 31
0
  0
LINE
  5
D13
330
A02
100
AcDbEntity
  8
Shape
100
AcDbLine
 10
94.4
 20
17.6721
 30
0
 11
94.016
 21
17.6207
 31
0
  0
LINE
  5
D14
330
A02
100
AcDbEntity
  8
Shape
100
AcDbLine
 10
94.016
 20
17.6207
 30
0
 11
93.632
 21
17.5693
 31
0
  0
LINE
  5
D15
330
A02
100
AcDbEntity
  8
Shape
100
AcDbLine
 10
93.632
 20
17.5693
 30
0
 11
93.248
 21
17.5176
 31
0
  0
LINE
  5
D16
330
A02
100
AcDbEntity
  8
Shape
100
AcDbLine
 10
93.248
 20
17.5176
 30
0
 11
92.864
 21
17.4659
 31
0
  0
LINE
  5
D17
330
A02
100
AcDbEntity
  8
Shape
100
AcDbLine
 10
92.864
 20
17.4659
 30
0
 11
92.48
 21
17.414
 31
0
  0
LINE
  5
D18
330
A02
100
AcDbEntity
  8
Shape
100
AcDbLine
 10
92.48
 20
17.414
 30
0
 11
92.096
 21
17.362
 31
0
  0
LINE
  5
D19
330
A02
100
AcDbEntity
  8
Shape
100
AcDbLine
 10
92.096
 20
17.362
 30
0
 11
91.712
 21
17.3099
 31
0
  0
LINE
  5
D1A
330
A02
100
AcDbEntity
  8
Shape
100
AcDbLine
 10
91.712
 20
17.3099
 30
0
 11
91.328
 21
17.2576
 31
0
  0
LINE
  5
D1B
330
A02
100
AcDbEntity
  8
Shape
100
AcDbLine
 10
91.328
 20
17.2576
 30
0
 11
90.944
 21
17.2052
 31
0
  0
LINE
  5
D1C
330
A02
100
AcDbEntity
  8
Shape
100
AcDbLine
 10
90.944
 20
17.2052
 30
0
 11
90.56
 21
17.1527
 31
0
  0
LINE
  5
D1D
330
A02
100
AcDbEntity
  8
Shape
100
AcDbLine
 10
90.56
 20
17.1527
 30
0
 11
90.176
 21
17.1
 31
0
  0
LINE
  5
D1E
330
A02
100
AcDbEntity
  8
Shape
100
AcDbLine
 10
90.176
 20
17.1
 30
0
 11
89.792
 21
17.0472
 31
0
  0
LINE
  5
D1F
330
A02
100
AcDbEntity
  8
Shape
100
AcDbLine
 10
89.792
 20
17.0472
 30
0
 11
89.408
 21
16.9943
 31
0
  0
LINE
  5
D20
330
A02
100
AcDbEntity
  8
Shape
100
AcDbLine
 10
89.408
 20
16.9943
 30
0
 11
89.024
 21
16.9413
 31
0
  0
LINE
  5
D21
330
A02
100
AcDbEntity
  8
Shape
100
AcDbLine
 10
89.024
 20
16.9413
 30
0
 11
88.64
 21
16.8881
 31
0
  0
LINE
  5
D22
330
A02
100
AcDbEntity
  8
Shape
100
AcDbLine
 10
88.64
 20
16.8881
 30
0
 11
88.256
 21
16.8347
 31
0
  0
LINE
  5
D23
330
A02
100
AcDbEntity
  8
Shape
100
AcDbLine
 10
88.256
 20
16.8347
 30
0
 11
87.872
 21
16.7813
 31
0
  0
LINE
  5
D24
330
A02
100
AcDbEntity
  8
Shape
100
AcDbLine
 10
87.872
 20
16.7813
 30
0
 11
87.488
 21
16.7277
 31
0
  0
LINE
  5
D25
330
A02
100
AcDbEntity
  8
Shape
100
AcDbLine
 10
87.488
 20
16.7277
 30
0
 11
87.104
 21
16.674
 31
0
  0
LINE
  5
D26
330
A02
100
AcDbEntity
  8
Shape
100
AcDbLine
 10
87.104
 20
16.674
 30
0
 11
86.72
 21
16.6201
 31
0
  0
LINE
  5
D27
330
A02
100
AcDbEntity
  8
Shape
100
AcDbLine
 10
86.72
 20
16.6201
 30
0
 11
86.336
 21
16.5661
 31
0
  0
LINE
  5
D28
330
A02
100
AcDbEntity
  8
Shape
100
AcDbLine
 10
86.336
 20
16.5661
 30
0
 11
85.952
 21
16.512
 31
0
  0
LINE
  5
D29
330
A02
100
AcDbEntity
  8
Shape
100
AcDbLine
 10
85.952
 20
16.512
 30
0
 11
85.568
 21
16.4578
 31
0
  0
LINE
  5
D2A
330
A02
100
AcDbEntity
  8
Shape
100
AcDbLine
 10
85.568
 20
16.4578
 30
0
 11
85.184
 21
16.4034
 31
0
  0
LINE
  5
D2B
330
A02
100
AcDbEntity
  8
Shape
100
AcDbLine
 10
85.184
 20
16.4034
 30
0
 11
84.8
 21
16.3488
 31
0
  0
LINE
  5
D2C
330
A02
100
AcDbEntity
  8
Shape
100
AcDbLine
 10
84.8
 20
16.3488
 30
0
 11
84.416
 21
16.2942
 31
0
  0
LINE
  5
D2D
330
A02
100
AcDbEntity
  8
Shape
100
AcDbLine
 10
84.416
 20
16.2942
 30
0
 11
84.032
 21
16.2393
 31
0
  0
LINE
  5
D2E
330
A02
100
AcDbEntity
  8
Shape
100
AcDbLine
 10
84.032
 20
16.2393
 30
0
 11
83.648
 21
16.1844
 31
0
  0
LINE
  5
D2F
330
A02
100
AcDbEntity
  8
Shape
100
AcDbLine
 10
83.648
 20
16.1844
 30
0
 11
83.264
 21
16.1293
 31
0
  0
LINE
  5
D30
330
A02
100
AcDbEntity
  8
Shape
100
AcDbLine
 10
83.264
 20
16.1293
 30
0
 11
82.88
 21
16.0741
 31
0
  0
LINE
  5
D31
330
A02
100
AcDbEntity
  8
Shape
100
AcDbLine
 10
82.88
 20
16.0741
 30
0
 11
82.496
 21
16.0187
 31
0
  0
LINE
  5
D32
330
A02
100
AcDbEntity
  8
Shape
100
AcDbLine
 10
82.496
 20
16.0187
 30
0
 11
82.112
 21
15.9632
 31
0
  0
LINE
  5
D33
330
A02
100
AcDbEntity
  8
Shape
100
AcDbLine
 10
82.112
 20
15.9632
 30
0
 11
81.728
 21
15.9076
 31
0
  0
LINE
  5
D34
330
A02
100
AcDbEntity
  8
Shape
100
AcDbLine
 10
81.728
 20
15.9076
 30
0
 11
81.344
 21
15.8518
 31
0
  0
LINE
  5
D35
330
A02
100
AcDbEntity
  8
Shape
100
AcDbLine
 10
81.344
 20
15.8518
 30
0
 11
80.96
 21
15.7959
 31
0
  0
LINE
  5
D36
330
A02
100
AcDbEntity
  8
Shape
100
AcDbLine
 10
80.96
 20
15.7959
 30
0
 11
80.576
 21
15.7398
 31
0
  0
LINE
  5
D37
330
A02
100
AcDbEntity
  8
Shape
100
AcDbLine
 10
80.576
 20
15.7398
 30
0
 11
80.192
 21
15.6836
 31
0
  0
LINE
  5
D38
330
A02
100
AcDbEntity
  8
Shape
100
AcDbLine
 10
80.192
 20
15.6836
 30
0
 11
79.808
 21
15.6273
 31
0
  0
LINE
  5
D39
330
A02
100
AcDbEntity
  8
Shape
100
AcDbLine
 10
79.808
 20
15.6273
 30
0
 11
79.424
 21
15.5708
 31
0
  0
LINE
  5
D3A
330
A02
100
AcDbEntity
  8
Shape
100
AcDbLine
 10
79.424
 20
15.5708
 30
0
 11
79.04
 21
15.5141
 31
0
  0
LINE
  5
D3B
330
A02
100
AcDbEntity
  8
Shape
100
AcDbLine
 10
79.04
 20
15.5141
 30
0
 11
78.656
 21
15.4574
 31
0
  0
LINE
  5
D3C
330
A02
100
AcDbEntity
  8
Shape
100
AcDbLine
 10
78.656
 20
15.4574
 30
0
 11
78.272
 21
15.4004
 31
0
  0
LINE
  5
D3D
330
A02
100
AcDbEntity
  8
Shape
100
AcDbLine
 10
78.272
 20
15.4004
 30
0
 11
77.888
 21
15.3434
 31
0
  0
LINE
  5
D3E
330
A02
100
AcDbEntity
  8
Shape
100
AcDbLine
 10
77.888
 20
15.3434
 30
0
 11
77.504
 21
15.2862
 31
0
  0
LINE
  5
D3F
330
A02
100
AcDbEntity
  8
Shape
100
AcDbLine
 10
77.504
 20
15.2862
 30
0
 11
77.12
 21
15.2288
 31
0
  0
LINE
  5
D40
330
A02
100
AcDbEntity
  8
Shape
100
AcDbLine
 10
77.12
 20
15.2288
 30
0
 11
76.736
 21
15.1713
 31
0
  0
LINE
  5
D41
330
A02
100
AcDbEntity
  8
Shape
100
AcDbLine
 10
76.736
 20
15.1713
 30
0
 11
76.352
 21
15.1136
 31
0
  0
LINE
  5
D42
330
A02
100
AcDbEntity
  8
Shape
100
AcDbLine
 10
76.352
 20
15.1136
 30
0
 11
75.968
 21
15.0558
 31
0
  0
LINE
  5
D43
330
A02
100
AcDbEntity
  8
Shape
100
AcDbLine
 10
75.968
 20
15.0558
 30
0
 11
75.584
 21
14.9979
 31
0
  0
LINE
  5
D44
330
A02
100
AcDbEntity
  8
Shape
100
AcDbLine
 10
75.584
 20
14.9979
 30
0
 11
75.2
 21
14.9398
 31
0
  0
LINE
  5
D45
330
A02
100
AcDbEntity
  8
Shape
100
AcDbLine
 10
75.2
 20
14.9398
 30
0
 11
74.816
 21
14.8815
 31
0
  0
LINE
  5
D46
330
A02
100
AcDbEntity
  8
Shape
100
AcDbLine
 10
74.816
 20
14.8815
 30
0
 11
74.432
 21
14.8231
 31
0
  0
LINE
  5
D47
330
A02
100
AcDbEntity
  8
Shape
100
AcDbLine
 10
74.432
 20
14.8231
 30
0
 11
74.048
 21
14.7646
 31
0
  0
LINE
  5
D48
330
A02
100
AcDbEntity
  8
Shape
100
AcDbLine
 10
74.048
 20
14.7646
 30
0
 11
73.664
 21
14.7059
 31
0
  0
LINE
  5
D49
330
A02
100
AcDbEntity
  8
Shape
100
AcDbLine
 10
73.664
 20
14.7059
 30
0
 11
73.28
 21
14.647
 31
0
  0
LINE
  5
D4A
330
A02
100
AcDbEntity
  8
Shape
100
AcDbLine
 10
73.28
 20
14.647
 30
0
 11
72.896
 21
14.588
 31
0
  0
LINE
  5
D4B
330
A02
100
AcDbEntity
  8
Shape
100
AcDbLine
 10
72.896
 20
14.588
 30
0
 11
72.512
 21
14.5289
 31
0
  0
LINE
  5
D4C
330
A02
100
AcDbEntity
  8
Shape
100
AcDbLine
 10
72.512
 20
14.5289
 30
0
 11
72.128
 21
14.4695
 31
0
  0
LINE
  5
D4D
330
A02
100
AcDbEntity
  8
Shape
100
AcDbLine
 10
72.128
 20
14.4695
 30
0
 11
71.744
 21
14.4101
 31
0
  0
LINE
  5
D4E
330
A02
100
AcDbEntity
  8
Shape
100
AcDbLine
 10
71.744
 20
14.4101
 30
0
 11
71.36
 21
14.3504
 31
0
  0
LINE
  5
D4F
330
A02
100
AcDbEntity
  8
Shape
100
AcDbLine
 10
71.36
 20
14.3504
 30
0
 11
70.976
 21
14.2907
 31
0
  0
LINE
  5
D50
330
A02
100
AcDbEntity
  8
Shape
100
AcDbLine
 10
70.976
 20
14.2907
 30
0
 11
70.592
 21
14.2307
 31
0
  0
LINE
  5
D51
330
A02
100
AcDbEntity
  8
Shape
100
AcDbLine
 10
70.592
 20
14.2307
 30
0
 11
70.208
 21
14.1706
 31
0
  0
LINE
  5
D52
330
A02
100
AcDbEntity
  8
Shape
100
AcDbLine
 10
70.208
 20
14.1706
 30
0
 11
69.824
 21
14.1104
 31
0
  0
LINE
  5
D53
330
A02
100
AcDbEntity
  8
Shape
100
AcDbLine
 10
69.824
 20
14.1104
 30
0
 11
69.44
 21
14.0499
 31
0
  0
LINE
  5
D54
330
A02
100
AcDbEntity
  8
Shape
100
AcDbLine
 10
69.44
 20
14.0499
 30
0
 11
69.056
 21
13.9894
 31
0
  0
LINE
  5
D55
330
A02
100
AcDbEntity
  8
Shape
100
AcDbLine
 10
69.056
 20
13.9894
 30
0
 11
68.672
 21
13.9286
 31
0
  0
LINE
  5
D56
330
A02
100
AcDbEntity
  8
Shape
100
AcDbLine
 10
68.672
 20
13.9286
 30
0
 11
68.288
 21
13.8677
 31
0
  0
LINE
  5
D57
330
A02
100
AcDbEntity
  8
Shape
100
AcDbLine
 10
68.288
 20
13.8677
 30
0
 11
67.904
 21
13.8067
 31
0
  0
LINE
  5
D58
330
A02
100
AcDbEntity
  8
Shape
100
AcDbLine
 10
67.904
 20
13.8067
 30
0
 11
67.52
 21
13.7454
 31
0
  0
LINE
  5
D59
330
A02
100
AcDbEntity
  8
Shape
100
AcDbLine
 10
67.52
 20
13.7454
 30
0
 11
67.136
 21
13.684
 31
0
  0
LINE
  5
D5A
330
A02
100
AcDbEntity
  8
Shape
100
AcDbLine
 10
67.136
 20
13.684
 30
0
 11
66.752
 21
13.6225
 31
0
  0
LINE
  5
D5B
330
A02
100
AcDbEntity
  8
Shape
100
AcDbLine
 10
66.752
 20
13.6225
 30
0
 11
66.368
 21
13.5608
 31
0
  0
LINE
  5
D5C
330
A02
100
AcDbEntity
  8
Shape
100
AcDbLine
 10
66.368
 20
13.5608
 30
0
 11
65.984
 21
13.4989
 31
0
  0
LINE
  5
D5D
330
A02
100
AcDbEntity
  8
Shape
100
AcDbLine
 10
65.984
 20
13.4989
 30
0
 11
65.6
 21
13.4368
 31
0
  0
LINE
  5
D5E
330
A02
100
AcDbEntity
  8
Shape
100
AcDbLine
 10
65.6
 20
13.4368
 30
0
 11
65.216
 21
13.3746
 31
0
  0
LINE
  5
D5F
330
A02
100
AcDbEntity
  8
Shape
100
AcDbLine
 10
65.216
 20
13.3746
 30
0
 11
64.832
 21
13.3122
 31
0
  0
LINE
  5
D60
330
A02
100
AcDbEntity
  8
Shape
100
AcDbLine
 10
64.832
 20
13.3122
 30
0
 11
64.448
 21
13.2496
 31
0
  0
LINE
  5
D61
330
A02
100
AcDbEntity
  8
Shape
100
AcDbLine
 10
64.448
 20
13.2496
 30
0
 11
64.064
 21
13.1869
 31
0
  0
LINE
  5
D62
330
A02
100
AcDbEntity
  8
Shape
100
AcDbLine
 10
64.064
 20
13.1869
 30
0
 11
63.68
 21
13.124
 31
0
  0
LINE
  5
D63
330
A02
100
AcDbEntity
  8
Shape
100
AcDbLine
 10
63.68
 20
13.124
 30
0
 11
63.296
 21
13.0609
 31
0
  0
LINE
  5
D64
330
A02
100
AcDbEntity
  8
Shape
100
AcDbLine
 10
63.296
 20
13.0609
 30
0
 11
62.912
 21
12.9976
 31
0
  0
LINE
  5
D65
330
A02
100
AcDbEntity
  8
Shape
100
AcDbLine
 10
62.912
 20
12.9976
 30
0
 11
62.528
 21
12.9342
 31
0
  0
LINE
  5
D66
330
A02
100
AcDbEntity
  8
Shape
100
AcDbLine
 10
62.528
 20
12.9342
 30
0
 11
62.144
 21
12.8705
 31
0
  0
LINE
  5
D67
330
A02
100
AcDbEntity
  8
Shape
100
AcDbLine
 10
62.144
 20
12.8705
 30
0
 11
61.76
 21
12.8067
 31
0
  0
LINE
  5
D68
330
A02
100
AcDbEntity
  8
Shape
100
AcDbLine
 10
61.76
 20
12.8067
 30
0
 11
61.376
 21
12.7428
 31
0
  0
LINE
  5
D69
330
A02
100
AcDbEntity
  8
Shape
100
AcDbLine
 10
61.376
 20
12.7428
 30
0
 11
60.992
 21
12.6786
 31
0
  0
LINE
  5
D6A
330
A02
100
AcDbEntity
  8
Shape
100
AcDbLine
 10
60.992
 20
12.6786
 30
0
 11
60.608
 21
12.6143
 31
0
  0
LINE
  5
D6B
330
A02
100
AcDbEntity
  8
Shape
100
AcDbLine
 10
60.608
 20
12.6143
 30
0
 11
60.224
 21
12.5498
 31
0
  0
LINE
  5
D6C
330
A02
100
AcDbEntity
  8
Shape
100
AcDbLine
 10
60.224
 20
12.5498
 30
0
 11
59.84
 21
12.4851
 31
0
  0
LINE
  5
D6D
330
A02
100
AcDbEntity
  8
Shape
100
AcDbLine
 10
59.84
 20
12.4851
 30
0
 11
59.456
 21
12.4202
 31
0
  0
LINE
  5
D6E
330
A02
100
AcDbEntity
  8
Shape
100
AcDbLine
 10
59.456
 20
12.4202
 30
0
 11
59.072
 21
12.3551
 31
0
  0
LINE
  5
D6F
330
A02
100
AcDbEntity
  8
Shape
100
AcDbLine
 10
59.072
 20
12.3551
 30
0
 11
58.688
 21
12.2898
 31
0
  0
LINE
  5
D70
330
A02
100
AcDbEntity
  8
Shape
100
AcDbLine
 10
58.688
 20
12.2898
 30
0
 11
58.304
 21
12.2244
 31
0
  0
LINE
  5
D71
330
A02
100
AcDbEntity
  8
Shape
100
AcDbLine
 10
58.304
 20
12.2244
 30
0
 11
57.92
 21
12.1587
 31
0
  0
LINE
  5
D72
330
A02
100
AcDbEntity
  8
Shape
100
AcDbLine
 10
57.92
 20
12.1587
 30
0
 11
57.536
 21
12.0929
 31
0
  0
LINE
  5
D73
330
A02
100
AcDbEntity
  8
Shape
100
AcDbLine
 10
57.536
 20
12.0929
 30
0
 11
57.152
 21
12.0269
 31
0
  0
LINE
  5
D74
330
A02
100
AcDbEntity
  8
Shape
100
AcDbLine
 10
57.152
 20
12.0269
 30
0
 11
56.768
 21
11.9607
 31
0
  0
LINE
  5
D75
330
A02
100
AcDbEntity
  8
Shape
100
AcDbLine
 10
56.768
 20
11.9607
 30
0
 11
56.384
 21
11.8943
 31
0
  0
LINE
  5
D76
330
A02
100
AcDbEntity
  8
Shape
100
AcDbLine
 10
56.384
 20
11.8943
 30
0
 11
56
 21
11.8276
 31
0
  0
LINE
  5
D77
330
A02
100
AcDbEntity
  8
Shape
100
AcDbLine
 10
56
 20
11.8276
 30
0
 11
55.616
 21
11.7608
 31
0
  0
LINE
  5
D78
330
A02
100
AcDbEntity
  8
Shape
100
AcDbLine
 10
55.616
 20
11.7608
 30
0
 11
55.232
 21
11.6938
 31
0
  0
LINE
  5
D79
330
A02
100
AcDbEntity
  8
Shape
100
AcDbLine
 10
55.232
 20
11.6938
 30
0
 11
54.848
 21
11.6266
 31
0
  0
LINE
  5
D7A
330
A02
100
AcDbEntity
  8
Shape
100
AcDbLine
 10
54.848
 20
11.6266
 30
0
 11
54.464
 21
11.5592
 31
0
  0
LINE
  5
D7B
330
A02
100
AcDbEntity
  8
Shape
100
AcDbLine
 10
54.464
 20
11.5592
 30
0
 11
54.08
 21
11.4916
 31
0
  0
LINE
  5
D7C
330
A02
100
AcDbEntity
  8
Shape
100
AcDbLine
 10
54.08
 20
11.4916
 30
0
 11
53.696
 21
11.4238
 31
0
  0
LINE
  5
D7D
330
A02
100
AcDbEntity
  8
Shape
100
AcDbLine
 10
53.696
 20
11.4238
 30
0
 11
53.312
 21
11.3557
 31
0
  0
LINE
  5
D7E
330
A02
100
AcDbEntity
  8
Shape
100
AcDbLine
 10
53.312
 20
11.3557
 30
0
 11
52.928
 21
11.2875
 31
0
  0
LINE
  5
D7F
330
A02
100
AcDbEntity
  8
Shape
100
AcDbLine
 10
52.928
 20
11.2875
 30
0
 11
52.544
 21
11.219
 31
0
  0
LINE
  5
D80
330
A02
100
AcDbEntity
  8
Shape
100
AcDbLine
 10
52.544
 20
11.219
 30
0
 11
52.16
 21
11.1504
 31
0
  0
LINE
  5
D81
330
A02
100
AcDbEntity
  8
Shape
100
AcDbLine
 10
52.16
 20
11.1504
 30
0
 11
51.776
 21
11.0815
 31
0
  0
LINE
  5
D82
330
A02
100
AcDbEntity
  8
Shape
100
AcDbLine
 10
51.776
 20
11.0815
 30
0
 11
51.392
 21
11.0124
 31
0
  0
LINE
  5
D83
330
A02
100
AcDbEntity
  8
Shape
100
AcDbLine
 10
51.392
 20
11.0124
 30
0
 11
51.008
 21
10.9431
 31
0
  0
LINE
  5
D84
330
A02
100
AcDbEntity
  8
Shape
100
AcDbLine
 10
51.008
 20
10.9431
 30
0
 11
50.624
 21
10.8736
 31
0
  0
LINE
  5
D85
330
A02
100
AcDbEntity
  8
Shape
100
AcDbLine
 10
50.624
 20
10.8736
 30
0
 11
50.24
 21
10.8038
 31
0
  0
LINE
  5
D86
330
A02
100
AcDbEntity
  8
Shape
100
AcDbLine
 10
50.24
 20
10.8038
 30
0
 11
49.856
 21
10.7338
 31
0
  0
LINE
  5
D87
330
A02
100
AcDbEntity
  8
Shape
100
AcDbLine
 10
49.856
 20
10.7338
 30
0
 11
49.472
 21
10.6636
 31
0
  0
LINE
  5
D88
330
A02
100
AcDbEntity
  8
Shape
100
AcDbLine
 10
49.472
 20
10.6636
 30
0
 11
49.088
 21
10.5932
 31
0
  0
LINE
  5
D89
330
A02
100
AcDbEntity
  8
Shape
100
AcDbLine
 10
49.088
 20
10.5932
 30
0
 11
48.704
 21
10.5225
 31
0
  0
LINE
  5
D8A
330
A02
100
AcDbEntity
  8
Shape
100
AcDbLine
 10
48.704
 20
10.5225
 30
0
 11
48.32
 21
10.4516
 31
0
  0
LINE
  5
D8B
330
A02
100
AcDbEntity
  8
Shape
100
AcDbLine
 10
48.32
 20
10.4516
 30
0
 11
47.936
 21
10.3805
 31
0
  0
LINE
  5
D8C
330
A02
100
AcDbEntity
  8
Shape
100
AcDbLine
 10
47.936
 20
10.3805
 30
0
 11
47.552
 21
10.3091
 31
0
  0
LINE
  5
D8D
330
A02
100
AcDbEntity
  8
Shape
100
AcDbLine
 10
47.552
 20
10.3091
 30
0
 11
47.168
 21
10.2375
 31
0
  0
LINE
  5
D8E
330
A02
100
AcDbEntity
  8
Shape
100
AcDbLine
 10
47.168
 20
10.2375
 30
0
 11
46.784
 21
10.1657
 31
0
  0
LINE
  5
D8F
330
A02
100
AcDbEntity
  8
Shape
100
AcDbLine
 10
46.784
 20
10.1657
 30
0
 11
46.4
 21
10.0936
 31
0
  0
LINE
  5
D90
330
A02
100
AcDbEntity
  8
Shape
100
AcDbLine
 10
46.4
 20
10.0936
 30
0
 11
46.016
 21
10.0213
 31
0
  0
LINE
  5
D91
330
A02
100
AcDbEntity
  8
Shape
100
AcDbLine
 10
46.016
 20
10.0213
 30
0
 11
45.632
 21
9.94868
 31
0
  0
LINE
  5
D92
330
A02
100
AcDbEntity
  8
Shape
100
AcDbLine
 10
45.632
 20
9.94868
 30
0
 11
45.248
 21
9.87585
 31
0
  0
LINE
  5
D93
330
A02
100
AcDbEntity
  8
Shape
100
AcDbLine
 10
45.248
 20
9.87585
 30
0
 11
44.864
 21
9.80276
 31
0
  0
LINE
  5
D94
330
A02
100
AcDbEntity
  8
Shape
100
AcDbLine
 10
44.864
 20
9.80276
 30
0
 11
44.48
 21
9.72942
 31
0
  0
LINE
  5
D95
330
A02
100
AcDbEntity
  8
Shape
100
AcDbLine
 10
44.48
 20
9.72942
 30
0
 11
44.096
 21
9.65582
 31
0
  0
LINE
  5
D96
330
A02
100
AcDbEntity
  8
Shape
100
AcDbLine
 10
44.096
 20
9.65582
 30
0
 11
43.712
 21
9.58195
 31
0
  0
LINE
  5
D97
330
A02
100
AcDbEntity
  8
Shape
100
AcDbLine
 10
43.712
 20
9.58195
 30
0
 11
43.328
 21
9.50783
 31
0
  0
LINE
  5
D98
330
A02
100
AcDbEntity
  8
Shape
100
AcDbLine
 10
43.328
 20
9.50783
 30
0
 11
42.944
 21
9.43343
 31
0
  0
LINE
  5
D99
330
A02
100
AcDbEntity
  8
Shape
100
AcDbLine
 10
42.944
 20
9.43343
 30
0
 11
42.56
 21
9.35877
 31
0
  0
LINE
  5
D9A
330
A02
100
AcDbEntity
  8
Shape
100
AcDbLine
 10
42.56
 20
9.35877
 30
0
 11
42.176
 21
9.28383
 31
0
  0
LINE
  5
D9B
330
A02
100
AcDbEntity
  8
Shape
100
AcDbLine
 10
42.176
 20
9.28383
 30
0
 11
41.792
 21
9.20861
 31
0
  0
LINE
  5
D9C
330
A02
100
AcDbEntity
  8
Shape
100
AcDbLine
 10
41.792
 20
9.20861
 30
0
 11
41.408
 21
9.13311
 31
0
  0
LINE
  5
D9D
330
A02
100
AcDbEntity
  8
Shape
100
AcDbLine
 10
41.408
 20
9.13311
 30
0
 11
41.024
 21
9.05734
 31
0
  0
LINE
  5
D9E
330
A02
100
AcDbEntity
  8
Shape
100
AcDbLine
 10
41.024
 20
9.05734
 30
0
 11
40.64
 21
8.98127
 31
0
  0
LINE
  5
D9F
330
A02
100
AcDbEntity
  8
Shape
100
AcDbLine
 10
40.64
 20
8.98127
 30
0
 11
40.256
 21
8.90491
 31
0
  0
LINE
  5
DA0
330
A02
100
AcDbEntity
  8
Shape
100
AcDbLine
 10
40.256
 20
8.90491
 30
0
 11
39.872
 21
8.82826
 31
0
  0
LINE
  5
DA1
330
A02
100
AcDbEntity
  8
Shape
100
AcDbLine
 10
39.872
 20
8.82826
 30
0
 11
39.488
 21
8.75132
 31
0
  0
LINE
  5
DA2
330
A02
100
AcDbEntity
  8
Shape
100
AcDbLine
 10
39.488
 20
8.75132
 30
0
 11
39.104
 21
8.67407
 31
0
  0
LINE
  5
DA3
330
A02
100
AcDbEntity
  8
Shape
100
AcDbLine
 10
39.104
 20
8.67407
 30
0
 11
38.72
 21
8.59651
 31
0
  0
LINE
  5
DA4
330
A02
100
AcDbEntity
  8
Shape
100
AcDbLine
 10
38.72
 20
8.59651
 30
0
 11
38.336
 21
8.51865
 31
0
  0
LINE
  5
DA5
330
A02
100
AcDbEntity
  8
Shape
100
AcDbLine
 10
38.336
 20
8.51865
 30
0
 11
37.952
 21
8.44047
 31
0
  0
LINE
  5
DA6
330
A02
100
AcDbEntity
  8
Shape
100
AcDbLine
 10
37.952
 20
8.44047
 30
0
 11
37.568
 21
8.36198
 31
0
  0
LINE
  5
DA7
330
A02
100
AcDbEntity
  8
Shape
100
AcDbLine
 10
37.568
 20
8.36198
 30
0
 11
37.184
 21
8.28316
 31
0
  0
LINE
  5
DA8
330
A02
100
AcDbEntity
  8
Shape
100
AcDbLine
 10
37.184
 20
8.28316
 30
0
 11
36.8
 21
8.20402
 31
0
  0
LINE
  5
DA9
330
A02
100
AcDbEntity
  8
Shape
100
AcDbLine
 10
36.8
 20
8.20402
 30
0
 11
36.416
 21
8.12455
 31
0
  0
LINE
  5
DAA
330
A02
100
AcDbEntity
  8
Shape
100
AcDbLine
 10
36.416
 20
8.12455
 30
0
 11
36.032
 21
8.04474
 31
0
  0
LINE
  5
DAB
330
A02
100
AcDbEntity
  8
Shape
100
AcDbLine
 10
36.032
 20
8.04474
 30
0
 11
35.648
 21
7.96458
 31
0
  0
LINE
  5
DAC
330
A02
100
AcDbEntity
  8
Shape
100
AcDbLine
 10
35.648
 20
7.96458
 30
0
 11
35.264
 21
7.88409
 31
0
  0
LINE
  5
DAD
330
A02
100
AcDbEntity
  8
Shape
100
AcDbLine
 10
35.264
 20
7.88409
 30
0
 11
34.88
 21
7.80324
 31
0
  0
LINE
  5
DAE
330
A02
100
AcDbEntity
  8
Shape
100
AcDbLine
 10
34.88
 20
7.80324
 30
0
 11
34.496
 21
7.72203
 31
0
  0
LINE
  5
DAF
330
A02
100
AcDbEntity
  8
Shape
100
AcDbLine
 10
34.496
 20
7.72203
 30
0
 11
34.112
 21
7.64046
 31
0
  0
LINE
  5
DB0
330
A02
100
AcDbEntity
  8
Shape
100
AcDbLine
 10
34.112
 20
7.64046
 30
0
 11
33.728
 21
7.55853
 31
0
  0
LINE
  5
DB1
330
A02
100
AcDbEntity
  8
Shape
100
AcDbLine
 10
33.728
 20
7.55853
 30
0
 11
33.344
 21
7.47622
 31
0
  0
LINE
  5
DB2
330
A02
100
AcDbEntity
  8
Shape
100
AcDbLine
 10
33.344
 20
7.47622
 30
0
 11
32.96
 21
7.39353
 31
0
  0
LINE
  5
DB3
330
A02
100
AcDbEntity
  8
Shape
100
AcDbLine
 10
32.96
 20
7.39353
 30
0
 11
32.576
 21
7.31045
 31
0
  0
LINE
  5
DB4
330
A02
100
AcDbEntity
  8
Shape
100
AcDbLine
 10
32.576
 20
7.31045
 30
0
 11
32.192
 21
7.22698
 31
0
  0
LINE
  5
DB5
330
A02
100
AcDbEntity
  8
Shape
100
AcDbLine
 10
32.192
 20
7.22698
 30
0
 11
31.808
 21
7.14311
 31
0
  0
LINE
  5
DB6
330
A02
100
AcDbEntity
  8
Shape
100
AcDbLine
 10
31.808
 20
7.14311
 30
0
 11
31.424
 21
7.05883
 31
0
  0
LINE
  5
DB7
330
A02
100
AcDbEntity
  8
Shape
100
AcDbLine
 10
31.424
 20
7.05883
 30
0
 11
31.04
 21
6.97413
 31
0
  0
LINE
  5
DB8
330
A02
100
AcDbEntity
  8
Shape
100
AcDbLine
 10
31.04
 20
6.97413
 30
0
 11
30.656
 21
6.88902
 31
0
  0
LINE
  5
DB9
330
A02
100
AcDbEntity
  8
Shape
100
AcDbLine
 10
30.656
 20
6.88902
 30
0
 11
30.272
 21
6.80347
 31
0
  0
LINE
  5
DBA
330
A02
100
AcDbEntity
  8
Shape
100
AcDbLine
 10
30.272
 20
6.80347
 30
0
 11
29.888
 21
6.71748
 31
0
  0
LINE
  5
DBB
330
A02
100
AcDbEntity
  8
Shape
100
AcDbLine
 10
29.888
 20
6.71748
 30
0
 11
29.504
 21
6.63105
 31
0
  0
LINE
  5
DBC
330
A02
100
AcDbEntity
  8
Shape
100
AcDbLine
 10
29.504
 20
6.63105
 30
0
 11
29.12
 21
6.54416
 31
0
  0
LINE
  5
DBD
330
A02
100
AcDbEntity
  8
Shape
100
AcDbLine
 10
29.12
 20
6.54416
 30
0
 11
28.736
 21
6.4568
 31
0
  0
LINE
  5
DBE
330
A02
100
AcDbEntity
  8
Shape
100
AcDbLine
 10
28.736
 20
6.4568
 30
0
 11
28.352
 21
6.36897
 31
0
  0
LINE
  5
DBF
330
A02
100
AcDbEntity
  8
Shape
100
AcDbLine
 10
28.352
 20
6.36897
 30
0
 11
27.968
 21
6.28065
 31
0
  0
LINE
  5
DC0
330
A02
100
AcDbEntity
  8
Shape
100
AcDbLine
 10
27.968
 20
6.28065
 30
0
 11
27.584
 21
6.19184
 31
0
  0
LINE
  5
DC1
330
A02
100
AcDbEntity
  8
Shape
100
AcDbLine
 10
27.584
 20
6.19184
 30
0
 11
27.2
 21
6.10252
 31
0
  0
LINE
  5
DC2
330
A02
100
AcDbEntity
  8
Shape
100
AcDbLine
 10
27.2
 20
6.10252
 30
0
 11
26.816
 21
6.01268
 31
0
  0
LINE
  5
DC3
330
A02
100
AcDbEntity
  8
Shape
100
AcDbLine
 10
26.816
 20
6.01268
 30
0
 11
26.432
 21
5.92231
 31
0
  0
LINE
  5
DC4
330
A02
100
AcDbEntity
  8
Shape
100
AcDbLine
 10
26.432
 20
5.92231
 30
0
 11
26.048
 21
5.8314
 31
0
  0
LINE
  5
DC5
330
A02
100
AcDbEntity
  8
Shape
100
AcDbLine
 10
26.048
 20
5.8314
 30
0
 11
25.664
 21
5.73993
 31
0
  0
LINE
  5
DC6
330
A02
100
AcDbEntity
  8
Shape
100
AcDbLine
 10
25.664
 20
5.73993
 30
0
 11
25.28
 21
5.64789
 31
0
  0
LINE
  5
DC7
330
A02
100
AcDbEntity
  8
Shape
100
AcDbLine
 10
25.28
 20
5.64789
 30
0
 11
24.896
 21
5.55526
 31
0
  0
LINE
  5
DC8
330
A02
100
AcDbEntity
  8
Shape
100
AcDbLine
 10
24.896
 20
5.55526
 30
0
 11
24.512
 21
5.46204
 31
0
  0
LINE
  5
DC9
330
A02
100
AcDbEntity
  8
Shape
100
AcDbLine
 10
24.512
 20
5.46204
 30
0
 11
24.128
 21
5.3682
 31
0
  0
LINE
  5
DCA
330
A02
100
AcDbEntity
  8
Shape
100
AcDbLine
 10
24.128
 20
5.3682
 30
0
 11
23.744
 21
5.27372
 31
0
  0
LINE
  5
DCB
330
A02
100
AcDbEntity
  8
Shape
100
AcDbLine
 10
23.744
 20
5.27372
 30
0
 11
23.36
 21
5.17859
 31
0
  0
LINE
  5
DCC
330
A02
100
AcDbEntity
  8
Shape
100
AcDbLine
 10
23.36
 20
5.17859
 30
0
 11
22.976
 21
5.0828
 31
0
  0
LINE
  5
DCD
330
A02
100
AcDbEntity
  8
Shape
100
AcDbLine
 10
22.976
 20
5.0828
 30
0
 11
22.592
 21
4.98631
 31
0
  0
LINE
  5
DCE
330
A02
100
AcDbEntity
  8
Shape
100
AcDbLine
 10
22.592
 20
4.98631
 30
0
 11
22.208
 21
4.88911
 31
0
  0
LINE
  5
DCF
330
A02
100
AcDbEntity
  8
Shape
100
AcDbLine
 10
22.208
 20
4.88911
 30
0
 11
21.824
 21
4.79118
 31
0
  0
LINE
  5
DD0
330
A02
100
AcDbEntity
  8
Shape
100
AcDbLine
 10
21.824
 20
4.79118
 30
0
 11
21.44
 21
4.69249
 31
0
  0
LINE
  5
DD1
330
A02
100
AcDbEntity
  8
Shape
100
AcDbLine
 10
21.44
 20
4.69249
 30
0
 11
21.056
 21
4.59302
 31
0
  0
LINE
  5
DD2
330
A02
100
AcDbEntity
  8
Shape
100
AcDbLine
 10
21.056
 20
4.59302
 30
0
 11
20.672
 21
4.49273
 31
0
  0
LINE
  5
DD3
330
A02
100
AcDbEntity
  8
Shape
100
AcDbLine
 10
20.672
 20
4.49273
 30
0
 11
20.288
 21
4.39161
 31
0
  0
LINE
  5
DD4
330
A02
100
AcDbEntity
  8
Shape
100
AcDbLine
 10
20.288
 20
4.39161
 30
0
 11
19.904
 21
4.28961
 31
0
  0
LINE
  5
DD5
330
A02
100
AcDbEntity
  8
Shape
100
AcDbLine
 10
19.904
 20
4.28961
 30
0
 11
19.52
 21
4.18672
 31
0
  0
LINE
  5
DD6
330
A02
100
AcDbEntity
  8
Shape
100
AcDbLine
 10
19.52
 20
4.18672
 30
0
 11
19.136
 21
4.08288
 31
0
  0
LINE
  5
DD7
330
A02
100
AcDbEntity
  8
Shape
100
AcDbLine
 10
19.136
 20
4.08288
 30
0
 11
18.752
 21
3.97807
 31
0
  0
LINE
  5
DD8
330
A02
100
AcDbEntity
  8
Shape
100
AcDbLine
 10
18.752
 20
3.97807
 30
0
 11
18.368
 21
3.87224
 31
0
  0
LINE
  5
DD9
330
A02
100
AcDbEntity
  8
Shape
100
AcDbLine
 10
18.368
 20
3.87224
 30
0
 11
17.984
 21
3.76534
 31
0
  0
LINE
  5
DDA
330
A02
100
AcDbEntity
  8
Shape
100
AcDbLine
 10
17.984
 20
3.76534
 30
0
 11
17.6
 21
3.65733
 31
0
  0
LINE
  5
DDB
330
A02
100
AcDbEntity
  8
Shape
100
AcDbLine
 10
17.6
 20
3.65733
 30
0
 11
17.216
 21
3.54815
 31
0
  0
LINE
  5
DDC
330
A02
100
AcDbEntity
  8
Shape
100
AcDbLine
 10
17.216
 20
3.54815
 30
0
 11
16.832
 21
3.43775
 31
0
  0
LINE
  5
DDD
330
A02
100
AcDbEntity
  8
Shape
100
AcDbLine
 10
16.832
 20
3.43775
 30
0
 11
16.448
 21
3.32605
 31
0
  0
LINE
  5
DDE
330
A02
100
AcDbEntity
  8
Shape
100
AcDbLine
 10
16.448
 20
3.32605
 30
0
 11
16.064
 21
3.213
 31
0
  0
LINE
  5
DDF
330
A02
100
AcDbEntity
  8
Shape
100
AcDbLine
 10
16.064
 20
3.213
 30
0
 11
15.68
 21
3.09851
 31
0
  0
LINE
  5
DE0
330
A02
100
AcDbEntity
  8
Shape
100
AcDbLine
 10
15.68
 20
3.09851
 30
0
 11
15.296
 21
2.98249
 31
0
  0
LINE
  5
DE1
330
A02
100
AcDbEntity
  8
Shape
100
AcDbLine
 10
15.296
 20
2.98249
 30
0
 11
14.912
 21
2.86485
 31
0
  0
LINE
  5
DE2
330
A02
100
AcDbEntity
  8
Shape
100
AcDbLine
 10
14.912
 20
2.86485
 30
0
 11
14.528
 21
2.74547
 31
0
  0
LINE
  5
DE3
330
A02
100
AcDbEntity
  8
Shape
100
AcDbLine
 10
14.528
 20
2.74547
 30
0
 11
14.144
 21
2.62424
 31
0
  0
LINE
  5
DE4
330
A02
100
AcDbEntity
  8
Shape
100
AcDbLine
 10
14.144
 20
2.62424
 30
0
 11
13.76
 21
2.50101
 31
0
  0
LINE
  5
DE5
330
A02
100
AcDbEntity
  8
Shape
100
AcDbLine
 10
13.76
 20
2.50101
 30
0
 11
13.376
 21
2.37561
 31
0
  0
LINE
  5
DE6
330
A02
100
AcDbEntity
  8
Shape
100
AcDbLine
 10
13.376
 20
2.37561
 30
0
 11
12.992
 21
2.24786
 31
0
  0
LINE
  5
DE7
330
A02
100
AcDbEntity
  8
Shape
100
AcDbLine
 10
12.992
 20
2.24786
 30
0
 11
12.608
 21
2.11754
 31
0
  0
LINE
  5
DE8
330
A02
100
AcDbEntity
  8
Shape
100
AcDbLine
 10
12.608
 20
2.11754
 30
0
 11
12.224
 21
1.98437
 31
0
  0
LINE
  5
DE9
330
A02
100
AcDbEntity
  8
Shape
100
AcDbLine
 10
12.224
 20
1.98437
 30
0
 11
11.84
 21
1.84803
 31
0
  0
LINE
  5
DEA
330
A02
100
AcDbEntity
  8
Shape
100
AcDbLine
 10
11.84
 20
1.84803
 30
0
 11
11.456
 21
1.70814
 31
0
  0
LINE
  5
DEB
330
A02
100
AcDbEntity
  8
Shape
100
AcDbLine
 10
11.456
 20
1.70814
 30
0
 11
11.072
 21
1.56419
 31
0
  0
LINE
  5
DEC
330
A02
100
AcDbEntity
  8
Shape
100
AcDbLine
 10
11.072
 20
1.56419
 30
0
 11
10.688
 21
1.41556
 31
0
  0
LINE
  5
DED
330
A02
100
AcDbEntity
  8
Shape
100
AcDbLine
 10
10.688
 20
1.41556
 30
0
 11
10.304
 21
1.26139
 31
0
  0
LINE
  5
DEE
330
A02
100
AcDbEntity
  8
Shape
100
AcDbLine
 10
10.304
 20
1.26139
 30
0
 11
9.92
 21
1.10051
 31
0
  0
LINE
  5
DEF
330
A02
100
AcDbEntity
  8
Shape
100
AcDbLine
 10
9.92
 20
1.10051
 30
0
 11
9.536
 21
0.9312
 31
0
  0
LINE
  5
DF0
330
A02
100
AcDbEntity
  8
Shape
100
AcDbLine
 10
9.536
 20
0.9312
 30
0
 11
9.152
 21
0.750706
 31
0
  0
LINE
  5
DF1
330
A02
100
AcDbEntity
  8
Shape
100
AcDbLine
 10
9.152
 20
0.750706
 30
0
 11
8.768
 21
0.554029
 31
0
  0
LINE
  5
DF2
330
A02
100
AcDbEntity
  8
Shape
100
AcDbLine
 10
8.768
 20
0.554029
 30
0
 11
8.384
 21
0.329526
 31
0
  0
LINE
  5
DF3
330
A02
100
AcDbEntity
  8
Shape
100
AcDbLine
 10
8.384
 20
0.329526
 30
0
 11
8
 21
0
 31
0
  0
LINE
  5
DF4
330
A02
100
AcDbEntity
  8
Shape
100
AcDbLine
 10
8
 20
0
 30
0
 11
0
 21
0
 31
0
  0
ENDSEC
  0
SECTION
  2
OBJECTS
  0
DICTIONARY
  5
F000
330
0
100
AcDbDictionary
  3
ACAD_GROUP
350
F001
  0
DICTIONARY
  5
F001
330
F000
100
AcDbDictionary
  0
ENDSEC
  0
EOF