999
FreeCAD v0.19 24291 (Git)
  0
SECTION
  2
HEADER
  9
$ACADVER
  1
AC1014
  9
$ACADMAINTVER
 70
     9
  9
$DWGCODEPAGE
  3
ANSI_1252
  9
$TEXTSTYLE
  7
STANDARD
  9
$DIMSTYLE
  2
STANDARD
  9
$DIMTXSTY
  7
STANDARD
  9
$CMLSTYLE
  2
STANDARD
  9
$PEXTMAX
 10
50
 20
50
 30
50
  9
$PEXTMIN
 10
0
 20
0
 30
0
  9
$HANDSEED
  5
FFFF
  0
ENDSEC
  0
SECTION
  2
CLASSES
  0
CLASS
  1
ACDBDICTIONARYWDFLT
  2
AcDbDictionaryWithDefault
  3
ObjectDBX Classes
 90
        0
280
     0
281
     0
  0
CLASS
  1
XRECORD
  2
AcDbXrecord
  3
ObjectDBX Classes
 90
        0
280
     0
281
     0
  0
CLASS
  1
LWPOLYLINE
  2
AcDbPolyline
  3
ObjectDBX Classes
 90
        0
280
     0
281
     1
  0
ENDSEC
  0
SECTION
  2
TABLES
  0
TABLE
  2
VPORT
  5
20
330
0
100
AcDbSymbolTable
 70
     1
  0
VPORT
  5
21
330
20
100
AcDbSymbolTableRecord
100
AcDbViewportTableRecord
  2
*ACTIVE
 70
     0
  0
ENDTAB
  0
TABLE
  2
LTYPE
  5
22
330
0
100
AcDbSymbolTable
 70
     1
  0
LTYPE
  5
23
330
21
100
AcDbSymbolTableRecord
100
AcDbLinetypeTableRecord
  2
BYBLOCK
 70
     0
  3

 72
    65
 73
     0
 40
0.0
  0
LTYPE
  5
24
330
21
100
AcDbSymbolTableRecord
100
AcDbLinetypeTableRecord
  2
BYLAYER
 70
     0
  3

 72
    65
 73
     0
 40
0.0
  0
LTYPE
  5
25
330
21
100
AcDbSymbolTableRecord
100
AcDbLinetypeTableRecord
  2
CONTINUOUS
 70
     0
  3
Solid line
 72
    65
 73
     0
 40
0.0
  0
ENDTAB
  0
TABLE
  2
LAYER
  5
DF5
330
0
100
AcDbSymbolTable
 70
3
  0
LAYER
  5
DF6
330
DF5
100
AcDbSymbolTableRecord
100
AcDbLayerTableRecord
  2
0
 70
   0
 62
   7
  6
CONTINUOUS
  0
LAYER
  5
DF7
330
DF5
100
AcDbSymbolTableRecord
100
AcDbLayerTableRecord
  2
none
 70
    0
 62
    7
  6
CONTINUOUS
  0
LAYER
  5
DF8
330
DF5
100
AcDbSymbolTableRecord
100
AcDbLayerTableRecord
  2
Shape001
 70
    0
 62
    7
  6
CONTINUOUS
  0
ENDTAB
  0
TABLE
  2
STYLE
  5
70
330
0
100
AcDbSymbolTable
 70
     2
  0
STYLE
  5
71
330
70
100
AcDbSymbolTableRecord
100
AcDbTextStyleTableRecord
  2
STANDARD
 70
     0
 40
0.0
 41
1.0
 50
0.0
 71
     0
 42
2.5
  3
arial.ttf
  4

  0
STYLE
  5
72
330
70
100
AcDbSymbolTableRecord
100
AcDbTextStyleTableRecord
  2
ANNOTATIVE
 70
     0
 40
0.0
 41
1.0
 50
0.0
 71
     0
 42
2.5
  3
arial.ttf
  4

  0
ENDTAB
  0
TABLE
  2
VIEW
  5
73
330
0
100
AcDbSymbolTable
 70
     0
  0
ENDTAB
  0
TABLE
  2
UCS
  5
74
330
0
100
AcDbSymbolTable
 70
     0
  0
ENDTAB
  0
TABLE
  2
APPID
  5
75
330
0
100
AcDbSymbolTable
 70
     2
  0
APPID
  5
76
330
75
100
AcDbSymbolTableRecord
100
AcDbRegAppTableRecord
  2
ACAD
 70
     0
  0
APPID
  5
77
330
75
100
AcDbSymbolTableRecord
100
AcDbRegAppTableRecord
  2
ACADANNOTATIVE
 70
     0
  0
ENDTAB
  0
TABLE
  2
DIMSTYLE
  5
78
330
0
100
AcDbSymbolTable
 70
     2
  0
DIMSTYLE
105
79
330
78
100
AcDbSymbolTableRecord
100
AcDbDimStyleTableRecord
  2
STANDARD
 70
     0
  3

  4

  5

  6

  7

 40
0.0
 41
2.5
 42
0.625
 43
3.75
 44
1.25
 45
0.0
 46
0.0
 47
0.0
 48
0.0
140
2.5
141
2.5
142
0.0
143
0.03937007874016
144
1.0
145
0.0
146
1.0
147
0.625
 71
     0
 72
     0
 73
     0
 74
     0
 75
     0
 76
     0
 77
     1
 78
     8
170
     0
171
     3
172
     1
173
     0
174
     0
175
     0
176
     0
177
     0
178
     0
270
     2
271
     2
272
     2
273
     2
274
     3
340
71
275
     0
280
     0
281
     0
282
     0
283
     0
284
     8
285
     0
286
     0
287
     3
288
     0
  0
ENDTAB
  0
TABLE
  2
BLOCK_RECORD
  5
A01
330
0
100
AcDbSymbolTable
  70
5
  0
BLOCK_RECORD
  5
A02
330
A01
100
AcDbSymbolTableRecord
100
AcDbBlockTableRecord
  2
*MODEL_SPACE
  0
BLOCK_RECORD
  5
A03
330
A01
100
AcDbSymbolTableRecord
100
AcDbBlockTableRecord
  2
*PAPER_SPACE
  0
ENDTAB
  0
ENDSEC
  0
SECTION
  2
BLOCKS
  0
BLOCK
  5
A04
330
A02
100
AcDbEntity
  8
0
100
AcDbBlockBegin
  2
*MODEL_SPACE
 70
   0
 10
0
 20
0
 30
0
  3
*MODEL_SPACE
  1
 
  0
ENDBLK
  5
A05
330
A02
100
AcDbEntity
  8
0
100
AcDbBlockEnd
  0
BLOCK
  5
A06
330
A03
100
AcDbEntity
 67
1
  8
0
100
AcDbBlockBegin
  2
*PAPER_SPACE
 70
   0
 10
0
 20
0
 30
0
  3
*PAPER_SPACE
  1
 
  0
ENDBLK
  5
A07
330
A03
100
AcDbEntity
 67
    1
  8
0
100
AcDbBlockEnd
  0
ENDSEC
  0
SECTION
  2
ENTITIES
  0
LINE
  5
A08
330
A02
100
AcDbEntity
  8
Shape001
100
AcDbLine
 10
0
 20
0
 30
0
 11
0.4
 21
0.346773
 31
0
  0
LINE
  5
A09
330
A02
100
AcDbEntity
  8
Shape001
100
AcDbLine
 10
0.4
 20
0.346773
 30
0
 11
0.8
 21
0.583025
 31
0
  0
LINE
  5
A0A
330
A02
100
AcDbEntity
  8
Shape001
100
AcDbLine
 10
0.8
 20
0.583025
 30
0
 11
1.2
 21
0.789996
 31
0
  0
LINE
  5
A0B
330
A02
100
AcDbEntity
  8
Shape001
100
AcDbLine
 10
1.2
 20
0.789996
 30
0
 11
1.6
 21
0.979936
 31
0
  0
LINE
  5
A0C
330
A02
100
AcDbEntity
  8
Shape001
100
AcDbLine
 10
1.6
 20
0.979936
 30
0
 11
2
 21
1.15811
 31
0
  0
LINE
  5
A0D
330
A02
100
AcDbEntity
  8
Shape001
100
AcDbLine
 10
2
 20
1.15811
 30
0
 11
2.4
 21
1.32741
 31
0
  0
LINE
  5
A0E
330
A02
100
AcDbEntity
  8
Shape001
100
AcDbLine
 10
2.4
 20
1.32741
 30
0
 11
2.8
 21
1.48964
 31
0
  0
LINE
  5
A0F
330
A02
100
AcDbEntity
  8
Shape001
100
AcDbLine
 10
2.8
 20
1.48964
 30
0
 11
3.2
 21
1.64606
 31
0
  0
LINE
  5
A10
330
A02
100
AcDbEntity
  8
Shape001
100
AcDbLine
 10
3.2
 20
1.64606
 30
0
 11
3.6
 21
1.79754
 31
0
  0
LINE
  5
A11
330
A02
100
AcDbEntity
  8
Shape001
100
AcDbLine
 10
3.6
 20
1.79754
 30
0
 11
4
 21
1.94475
 31
0
  0
LINE
  5
A12
330
A02
100
AcDbEntity
  8
Shape001
100
AcDbLine
 10
4
 20
1.94475
 30
0
 11
4.4
 21
2.08822
 31
0
  0
LINE
  5
A13
330
A02
100
AcDbEntity
  8
Shape001
100
AcDbLine
 10
4.4
 20
2.08822
 30
0
 11
4.8
 21
2.22836
 31
0
  0
LINE
  5
A14
330
A02
100
AcDbEntity
  8
Shape001
100
AcDbLine
 10
4.8
 20
2.22836
 30
0
 11
5.2
 21
2.36551
 31
0
  0
LINE
  5
A15
330
A02
100
AcDbEntity
  8
Shape001
100
AcDbLine
 10
5.2
 20
2.36551
 30
0
 11
5.6
 21
2.49994
 31
0
  0
LINE
  5
A16
330
A02
100
AcDbEntity
  8
Shape001
100
AcDbLine
 10
5.6
 20
2.49994
 30
0
 11
6
 21
2.6319
 31
0
  0
LINE
  5
A17
330
A02
100
AcDbEntity
  8
Shape001
100
AcDbLine
 10
6
 20
2.6319
 30
0
 11
6.4
 21
2.76159
 31
0
  0
LINE
  5
A18
330
A02
100
AcDbEntity
  8
Shape001
100
AcDbLine
 10
6.4
 20
2.76159
 30
0
 11
6.8
 21
2.88916
 31
0
  0
LINE
  5
A19
330
A02
100
AcDbEntity
  8
Shape001
100
AcDbLine
 10
6.8
 20
2.88916
 30
0
 11
7.2
 21
3.01478
 31
0
  0
LINE
  5
A1A
330
A02
100
AcDbEntity
  8
Shape001
100
AcDbLine
 10
7.2
 20
3.01478
 30
0
 11
7.6
 21
3.13858
 31
0
  0
LINE
  5
A1B
330
A02
100
AcDbEntity
  8
Shape001
100
AcDbLine
 10
7.6
 20
3.13858
 30
0
 11
8
 21
3.26067
 31
0
  0
LINE
  5
A1C
330
A02
100
AcDbEntity
  8
Shape001
100
AcDbLine
 10
8
 20
3.26067
 30
0
 11
8.4
 21
3.38116
 31
0
  0
LINE
  5
A1D
330
A02
100
AcDbEntity
  8
Shape001
100
AcDbLine
 10
8.4
 20
3.38116
 30
0
 11
8.8
 21
3.50013
 31
0
  0
LINE
  5
A1E
330
A02
100
AcDbEntity
  8
Shape001
100
AcDbLine
 10
8.8
 20
3.50013
 30
0
 11
9.2
 21
3.61766
 31
0
  0
LINE
  5
A1F
330
A02
100
AcDbEntity
  8
Shape001
100
AcDbLine
 10
9.2
 20
3.61766
 30
0
 11
9.6
 21
3.73385
 31
0
  0
LINE
  5
A20
330
A02
100
AcDbEntity
  8
Shape001
100
AcDbLine
 10
9.6
 20
3.73385
 30
0
 11
10
 21
3.84874
 31
0
  0
LINE
  5
A21
330
A02
100
AcDbEntity
  8
Shape001
100
AcDbLine
 10
10
 20
3.84874
 30
0
 11
10.4
 21
3.9624
 31
0
  0
LINE
  5
A22
330
A02
100
AcDbEntity
  8
Shape001
100
AcDbLine
 10
10.4
 20
3.9624
 30
0
 11
10.8
 21
4.07489
 31
0
  0
LINE
  5
A23
330
A02
100
AcDbEntity
  8
Shape001
100
AcDbLine
 10
10.8
 20
4.07489
 30
0
 11
11.2
 21
4.18627
 31
0
  0
LINE
  5
A24
330
A02
100
AcDbEntity
  8
Shape001
100
AcDbLine
 10
11.2
 20
4.18627
 30
0
 11
11.6
 21
4.29657
 31
0
  0
LINE
  5
A25
330
A02
100
AcDbEntity
  8
Shape001
100
AcDbLine
 10
11.6
 20
4.29657
 30
0
 11
12
 21
4.40584
 31
0
  0
LINE
  5
A26
330
A02
100
AcDbEntity
  8
Shape001
100
AcDbLine
 10
12
 20
4.40584
 30
0
 11
12.4
 21
4.51412
 31
0
  0
LINE
  5
A27
330
A02
100
AcDbEntity
  8
Shape001
100
AcDbLine
 10
12.4
 20
4.51412
 30
0
 11
12.8
 21
4.62145
 31
0
  0
LINE
  5
A28
330
A02
100
AcDbEntity
  8
Shape001
100
AcDbLine
 10
12.8
 20
4.62145
 30
0
 11
13.2
 21
4.72786
 31
0
  0
LINE
  5
A29
330
A02
100
AcDbEntity
  8
Shape001
100
AcDbLine
 10
13.2
 20
4.72786
 30
0
 11
13.6
 21
4.8334
 31
0
  0
LINE
  5
A2A
330
A02
100
AcDbEntity
  8
Shape001
100
AcDbLine
 10
13.6
 20
4.8334
 30
0
 11
14
 21
4.93808
 31
0
  0
LINE
  5
A2B
330
A02
100
AcDbEntity
  8
Shape001
100
AcDbLine
 10
14
 20
4.93808
 30
0
 11
14.4
 21
5.04193
 31
0
  0
LINE
  5
A2C
330
A02
100
AcDbEntity
  8
Shape001
100
AcDbLine
 10
14.4
 20
5.04193
 30
0
 11
14.8
 21
5.14499
 31
0
  0
LINE
  5
A2D
330
A02
100
AcDbEntity
  8
Shape001
100
AcDbLine
 10
14.8
 20
5.14499
 30
0
 11
15.2
 21
5.24728
 31
0
  0
LINE
  5
A2E
330
A02
100
AcDbEntity
  8
Shape001
100
AcDbLine
 10
15.2
 20
5.24728
 30
0
 11
15.6
 21
5.34881
 31
0
  0
LINE
  5
A2F
330
A02
100
AcDbEntity
  8
Shape001
100
AcDbLine
 10
15.6
 20
5.34881
 30
0
 11
16
 21
5.44962
 31
0
  0
LINE
  5
A30
330
A02
100
AcDbEntity
  8
Shape001
100
AcDbLine
 10
16
 20
5.44962
 30
0
 11
16.4
 21
5.54973
 31
0
  0
LINE
  5
A31
330
A02
100
AcDbEntity
  8
Shape001
100
AcDbLine
 10
16.4
 20
5.54973
 30
0
 11
16.8
 21
5.64915
 31
0
  0
LINE
  5
A32
330
A02
100
AcDbEntity
  8
Shape001
100
AcDbLine
 10
16.8
 20
5.64915
 30
0
 11
17.2
 21
5.7479
 31
0
  0
LINE
  5
A33
330
A02
100
AcDbEntity
  8
Shape001
100
AcDbLine
 10
17.2
 20
5.7479
 30
0
 11
17.6
 21
5.84601
 31
0
  0
LINE
  5
A34
330
A02
100
AcDbEntity
  8
Shape001
100
AcDbLine
 10
17.6
 20
5.84601
 30
0
 11
18
 21
5.94348
 31
0
  0
LINE
  5
A35
330
A02
100
AcDbEntity
  8
Shape001
100
AcDbLine
 10
18
 20
5.94348
 30
0
 11
18.4
 21
6.04034
 31
0
  0
LINE
  5
A36
330
A02
100
AcDbEntity
  8
Shape001
100
AcDbLine
 10
18.4
 20
6.04034
 30
0
 11
18.8
 21
6.13659
 31
0
  0
LINE
  5
A37
330
A02
100
AcDbEntity
  8
Shape001
100
AcDbLine
 10
18.8
 20
6.13659
 30
0
 11
19.2
 21
6.23226
 31
0
  0
LINE
  5
A38
330
A02
100
AcDbEntity
  8
Shape001
100
AcDbLine
 10
19.2
 20
6.23226
 30
0
 11
19.6
 21
6.32736
 31
0
  0
LINE
  5
A39
330
A02
100
AcDbEntity
  8
Shape001
100
AcDbLine
 10
19.6
 20
6.32736
 30
0
 11
20
 21
6.4219
 31
0
  0
LINE
  5
A3A
330
A02
100
AcDbEntity
  8
Shape001
100
AcDbLine
 10
20
 20
6.4219
 30
0
 11
20.4
 21
6.5159
 31
0
  0
LINE
  5
A3B
330
A02
100
AcDbEntity
  8
Shape001
100
AcDbLine
 10
20.4
 20
6.5159
 30
0
 11
20.8
 21
6.60936
 31
0
  0
LINE
  5
A3C
330
A02
100
AcDbEntity
  8
Shape001
100
AcDbLine
 10
20.8
 20
6.60936
 30
0
 11
21.2
 21
6.7023
 31
0
  0
LINE
  5
A3D
330
A02
100
AcDbEntity
  8
Shape001
100
AcDbLine
 10
21.2
 20
6.7023
 30
0
 11
21.6
 21
6.79473
 31
0
  0
LINE
  5
A3E
330
A02
100
AcDbEntity
  8
Shape001
100
AcDbLine
 10
21.6
 20
6.79473
 30
0
 11
22
 21
6.88666
 31
0
  0
LINE
  5
A3F
330
A02
100
AcDbEntity
  8
Shape001
100
AcDbLine
 10
22
 20
6.88666
 30
0
 11
22.4
 21
6.97809
 31
0
  0
LINE
  5
A40
330
A02
100
AcDbEntity
  8
Shape001
100
AcDbLine
 10
22.4
 20
6.97809
 30
0
 11
22.8
 21
7.06905
 31
0
  0
LINE
  5
A41
330
A02
100
AcDbEntity
  8
Shape001
100
AcDbLine
 10
22.8
 20
7.06905
 30
0
 11
23.2
 21
7.15954
 31
0
  0
LINE
  5
A42
330
A02
100
AcDbEntity
  8
Shape001
100
AcDbLine
 10
23.2
 20
7.15954
 30
0
 11
23.6
 21
7.24956
 31
0
  0
LINE
  5
A43
330
A02
100
AcDbEntity
  8
Shape001
100
AcDbLine
 10
23.6
 20
7.24956
 30
0
 11
24
 21
7.33913
 31
0
  0
LINE
  5
A44
330
A02
100
AcDbEntity
  8
Shape001
100
AcDbLine
 10
24
 20
7.33913
 30
0
 11
24.4
 21
7.42826
 31
0
  0
LINE
  5
A45
330
A02
100
AcDbEntity
  8
Shape001
100
AcDbLine
 10
24.4
 20
7.42826
 30
0
 11
24.8
 21
7.51695
 31
0
  0
LINE
  5
A46
330
A02
100
AcDbEntity
  8
Shape001
100
AcDbLine
 10
24.8
 20
7.51695
 30
0
 11
25.2
 21
7.60521
 31
0
  0
LINE
  5
A47
330
A02
100
AcDbEntity
  8
Shape001
100
AcDbLine
 10
25.2
 20
7.60521
 30
0
 11
25.6
 21
7.69305
 31
0
  0
LINE
  5
A48
330
A02
100
AcDbEntity
  8
Shape001
100
AcDbLine
 10
25.6
 20
7.69305
 30
0
 11
26
 21
7.78048
 31
0
  0
LINE
  5
A49
330
A02
100
AcDbEntity
  8
Shape001
100
AcDbLine
 10
26
 20
7.78048
 30
0
 11
26.4
 21
7.8675
 31
0
  0
LINE
  5
A4A
330
A02
100
AcDbEntity
  8
Shape001
100
AcDbLine
 10
26.4
 20
7.8675
 30
0
 11
26.8
 21
7.95411
 31
0
  0
LINE
  5
A4B
330
A02
100
AcDbEntity
  8
Shape001
100
AcDbLine
 10
26.8
 20
7.95411
 30
0
 11
27.2
 21
8.04034
 31
0
  0
LINE
  5
A4C
330
A02
100
AcDbEntity
  8
Shape001
100
AcDbLine
 10
27.2
 20
8.04034
 30
0
 11
27.6
 21
8.12618
 31
0
  0
LINE
  5
A4D
330
A02
100
AcDbEntity
  8
Shape001
100
AcDbLine
 10
27.6
 20
8.12618
 30
0
 11
28
 21
8.21163
 31
0
  0
LINE
  5
A4E
330
A02
100
AcDbEntity
  8
Shape001
100
AcDbLine
 10
28
 20
8.21163
 30
0
 11
28.4
 21
8.29671
 31
0
  0
LINE
  5
A4F
330
A02
100
AcDbEntity
  8
Shape001
100
AcDbLine
 10
28.4
 20
8.29671
 30
0
 11
28.8
 21
8.38142
 31
0
  0
LINE
  5
A50
330
A02
100
AcDbEntity
  8
Shape001
100
AcDbLine
 10
28.8
 20
8.38142
 30
0
 11
29.2
 21
8.46577
 31
0
  0
LINE
  5
A51
330
A02
100
AcDbEntity
  8
Shape001
100
AcDbLine
 10
29.2
 20
8.46577
 30
0
 11
29.6
 21
8.54976
 31
0
  0
LINE
  5
A52
330
A02
100
AcDbEntity
  8
Shape001
100
AcDbLine
 10
29.6
 20
8.54976
 30
0
 11
30
 21
8.63339
 31
0
  0
LINE
  5
A53
330
A02
100
AcDbEntity
  8
Shape001
100
AcDbLine
 10
30
 20
8.63339
 30
0
 11
30.4
 21
8.71667
 31
0
  0
LINE
  5
A54
330
A02
100
AcDbEntity
  8
Shape001
100
AcDbLine
 10
30.4
 20
8.71667
 30
0
 11
30.8
 21
8.79962
 31
0
  0
LINE
  5
A55
330
A02
100
AcDbEntity
  8
Shape001
100
AcDbLine
 10
30.8
 20
8.79962
 30
0
 11
31.2
 21
8.88222
 31
0
  0
LINE
  5
A56
330
A02
100
AcDbEntity
  8
Shape001
100
AcDbLine
 10
31.2
 20
8.88222
 30
0
 11
31.6
 21
8.96449
 31
0
  0
LINE
  5
A57
330
A02
100
AcDbEntity
  8
Shape001
100
AcDbLine
 10
31.6
 20
8.96449
 30
0
 11
32
 21
9.04643
 31
0
  0
LINE
  5
A58
330
A02
100
AcDbEntity
  8
Shape001
100
AcDbLine
 10
32
 20
9.04643
 30
0
 11
32.4
 21
9.12804
 31
0
  0
LINE
  5
A59
330
A02
100
AcDbEntity
  8
Shape001
100
AcDbLine
 10
32.4
 20
9.12804
 30
0
 11
32.8
 21
9.20933
 31
0
  0
LINE
  5
A5A
330
A02
100
AcDbEntity
  8
Shape001
100
AcDbLine
 10
32.8
 20
9.20933
 30
0
 11
33.2
 21
9.2903
 31
0
  0
LINE
  5
A5B
330
A02
100
AcDbEntity
  8
Shape001
100
AcDbLine
 10
33.2
 20
9.2903
 30
0
 11
33.6
 21
9.37097
 31
0
  0
LINE
  5
A5C
330
A02
100
AcDbEntity
  8
Shape001
100
AcDbLine
 10
33.6
 20
9.37097
 30
0
 11
34
 21
9.45132
 31
0
  0
LINE
  5
A5D
330
A02
100
AcDbEntity
  8
Shape001
100
AcDbLine
 10
34
 20
9.45132
 30
0
 11
34.4
 21
9.53136
 31
0
  0
LINE
  5
A5E
330
A02
100
AcDbEntity
  8
Shape001
100
AcDbLine
 10
34.4
 20
9.53136
 30
0
 11
34.8
 21
9.61111
 31
0
  0
LINE
  5
A5F
330
A02
100
AcDbEntity
  8
Shape001
100
AcDbLine
 10
34.8
 20
9.61111
 30
0
 11
35.2
 21
9.69056
 31
0
  0
LINE
  5
A60
330
A02
100
AcDbEntity
  8
Shape001
100
AcDbLine
 10
35.2
 20
9.69056
 30
0
 11
35.6
 21
9.76971
 31
0
  0
LINE
  5
A61
330
A02
100
AcDbEntity
  8
Shape001
100
AcDbLine
 10
35.6
 20
9.76971
 30
0
 11
36
 21
9.84857
 31
0
  0
LINE
  5
A62
330
A02
100
AcDbEntity
  8
Shape001
100
AcDbLine
 10
36
 20
9.84857
 30
0
 11
36.4
 21
9.92714
 31
0
  0
LINE
  5
A63
330
A02
100
AcDbEntity
  8
Shape001
100
AcDbLine
 10
36.4
 20
9.92714
 30
0
 11
36.8
 21
10.0054
 31
0
  0
LINE
  5
A64
330
A02
100
AcDbEntity
  8
Shape001
100
AcDbLine
 10
36.8
 20
10.0054
 30
0
 11
37.2
 21
10.0834
 31
0
  0
LINE
  5
A65
330
A02
100
AcDbEntity
  8
Shape001
100
AcDbLine
 10
37.2
 20
10.0834
 30
0
 11
37.6
 21
10.1612
 31
0
  0
LINE
  5
A66
330
A02
100
AcDbEntity
  8
Shape001
100
AcDbLine
 10
37.6
 20
10.1612
 30
0
 11
38
 21
10.2386
 31
0
  0
LINE
  5
A67
330
A02
100
AcDbEntity
  8
Shape001
100
AcDbLine
 10
38
 20
10.2386
 30
0
 11
38.4
 21
10.3158
 31
0
  0
LINE
  5
A68
330
A02
100
AcDbEntity
  8
Shape001
100
AcDbLine
 10
38.4
 20
10.3158
 30
0
 11
38.8
 21
10.3927
 31
0
  0
LINE
  5
A69
330
A02
100
AcDbEntity
  8
Shape001
100
AcDbLine
 10
38.8
 20
10.3927
 30
0
 11
39.2
 21
10.4694
 31
0
  0
LINE
  5
A6A
330
A02
100
AcDbEntity
  8
Shape001
100
AcDbLine
 10
39.2
 20
10.4694
 30
0
 11
39.6
 21
10.5457
 31
0
  0
LINE
  5
A6B
330
A02
100
AcDbEntity
  8
Shape001
100
AcDbLine
 10
39.6
 20
10.5457
 30
0
 11
40
 21
10.6219
 31
0
  0
LINE
  5
A6C
330
A02
100
AcDbEntity
  8
Shape001
100
AcDbLine
 10
40
 20
10.6219
 30
0
 11
40.4
 21
10.6977
 31
0
  0
LINE
  5
A6D
330
A02
100
AcDbEntity
  8
Shape001
100
AcDbLine
 10
40.4
 20
10.6977
 30
0
 11
40.8
 21
10.7733
 31
0
  0
LINE
  5
A6E
330
A02
100
AcDbEntity
  8
Shape001
100
AcDbLine
 10
40.8
 20
10.7733
 30
0
 11
41.2
 21
10.8487
 31
0
  0
LINE
  5
A6F
330
A02
100
AcDbEntity
  8
Shape001
100
AcDbLine
 10
41.2
 20
10.8487
 30
0
 11
41.6
 21
10.9238
 31
0
  0
LINE
  5
A70
330
A02
100
AcDbEntity
  8
Shape001
100
AcDbLine
 10
41.6
 20
10.9238
 30
0
 11
42
 21
10.9986
 31
0
  0
LINE
  5
A71
330
A02
100
AcDbEntity
  8
Shape001
100
AcDbLine
 10
42
 20
10.9986
 30
0
 11
42.4
 21
11.0732
 31
0
  0
LINE
  5
A72
330
A02
100
AcDbEntity
  8
Shape001
100
AcDbLine
 10
42.4
 20
11.0732
 30
0
 11
42.8
 21
11.1476
 31
0
  0
LINE
  5
A73
330
A02
100
AcDbEntity
  8
Shape001
100
AcDbLine
 10
42.8
 20
11.1476
 30
0
 11
43.2
 21
11.2217
 31
0
  0
LINE
  5
A74
330
A02
100
AcDbEntity
  8
Shape001
100
AcDbLine
 10
43.2
 20
11.2217
 30
0
 11
43.6
 21
11.2956
 31
0
  0
LINE
  5
A75
330
A02
100
AcDbEntity
  8
Shape001
100
AcDbLine
 10
43.6
 20
11.2956
 30
0
 11
44
 21
11.3692
 31
0
  0
LINE
  5
A76
330
A02
100
AcDbEntity
  8
Shape001
100
AcDbLine
 10
44
 20
11.3692
 30
0
 11
44.4
 21
11.4426
 31
0
  0
LINE
  5
A77
330
A02
100
AcDbEntity
  8
Shape001
100
AcDbLine
 10
44.4
 20
11.4426
 30
0
 11
44.8
 21
11.5158
 31
0
  0
LINE
  5
A78
330
A02
100
AcDbEntity
  8
Shape001
100
AcDbLine
 10
44.8
 20
11.5158
 30
0
 11
45.2
 21
11.5888
 31
0
  0
LINE
  5
A79
330
A02
100
AcDbEntity
  8
Shape001
100
AcDbLine
 10
45.2
 20
11.5888
 30
0
 11
45.6
 21
11.6615
 31
0
  0
LINE
  5
A7A
330
A02
100
AcDbEntity
  8
Shape001
100
AcDbLine
 10
45.6
 20
11.6615
 30
0
 11
46
 21
11.7339
 31
0
  0
LINE
  5
A7B
330
A02
100
AcDbEntity
  8
Shape001
100
AcDbLine
 10
46
 20
11.7339
 30
0
 11
46.4
 21
11.8062
 31
0
  0
LINE
  5
A7C
330
A02
100
AcDbEntity
  8
Shape001
100
AcDbLine
 10
46.4
 20
11.8062
 30
0
 11
46.8
 21
11.8782
 31
0
  0
LINE
  5
A7D
330
A02
100
AcDbEntity
  8
Shape001
100
AcDbLine
 10
46.8
 20
11.8782
 30
0
 11
47.2
 21
11.9501
 31
0
  0
LINE
  5
A7E
330
A02
100
AcDbEntity
  8
Shape001
100
AcDbLine
 10
47.2
 20
11.9501
 30
0
 11
47.6
 21
12.0216
 31
0
  0
LINE
  5
A7F
330
A02
100
AcDbEntity
  8
Shape001
100
AcDbLine
 10
47.6
 20
12.0216
 30
0
 11
48
 21
12.093
 31
0
  0
LINE
  5
A80
330
A02
100
AcDbEntity
  8
Shape001
100
AcDbLine
 10
48
 20
12.093
 30
0
 11
48.4
 21
12.1642
 31
0
  0
LINE
  5
A81
330
A02
100
AcDbEntity
  8
Shape001
100
AcDbLine
 10
48.4
 20
12.1642
 30
0
 11
48.8
 21
12.2351
 31
0
  0
LINE
  5
A82
330
A02
100
AcDbEntity
  8
Shape001
100
AcDbLine
 10
48.8
 20
12.2351
 30
0
 11
49.2
 21
12.3058
 31
0
  0
LINE
  5
A83
330
A02
100
AcDbEntity
  8
Shape001
100
AcDbLine
 10
49.2
 20
12.3058
 30
0
 11
49.6
 21
12.3764
 31
0
  0
LINE
  5
A84
330
A02
100
AcDbEntity
  8
Shape001
100
AcDbLine
 10
49.6
 20
12.3764
 30
0
 11
50
 21
12.4467
 31
0
  0
LINE
  5
A85
330
A02
100
AcDbEntity
  8
Shape001
100
AcDbLine
 10
50
 20
12.4467
 30
0
 11
50.4
 21
12.5168
 31
0
  0
LINE
  5
A86
330
A02
100
AcDbEntity
  8
Shape001
100
AcDbLine
 10
50.4
 20
12.5168
 30
0
 11
50.8
 21
12.5867
 31
0
  0
LINE
  5
A87
330
A02
100
AcDbEntity
  8
Shape001
100
AcDbLine
 10
50.8
 20
12.5867
 30
0
 11
51.2
 21
12.6563
 31
0
  0
LINE
  5
A88
330
A02
100
AcDbEntity
  8
Shape001
100
AcDbLine
 10
51.2
 20
12.6563
 30
0
 11
51.6
 21
12.7258
 31
0
  0
LINE
  5
A89
330
A02
100
AcDbEntity
  8
Shape001
100
AcDbLine
 10
51.6
 20
12.7258
 30
0
 11
52
 21
12.7951
 31
0
  0
LINE
  5
A8A
330
A02
100
AcDbEntity
  8
Shape001
100
AcDbLine
 10
52
 20
12.7951
 30
0
 11
52.4
 21
12.8642
 31
0
  0
LINE
  5
A8B
330
A02
100
AcDbEntity
  8
Shape001
100
AcDbLine
 10
52.4
 20
12.8642
 30
0
 11
52.8
 21
12.933
 31
0
  0
LINE
  5
A8C
330
A02
100
AcDbEntity
  8
Shape001
100
AcDbLine
 10
52.8
 20
12.933
 30
0
 11
53.2
 21
13.0017
 31
0
  0
LINE
  5
A8D
330
A02
100
AcDbEntity
  8
Shape001
100
AcDbLine
 10
53.2
 20
13.0017
 30
0
 11
53.6
 21
13.0702
 31
0
  0
LINE
  5
A8E
330
A02
100
AcDbEntity
  8
Shape001
100
AcDbLine
 10
53.6
 20
13.0702
 30
0
 11
54
 21
13.1385
 31
0
  0
LINE
  5
A8F
330
A02
100
AcDbEntity
  8
Shape001
100
AcDbLine
 10
54
 20
13.1385
 30
0
 11
54.4
 21
13.2066
 31
0
  0
LINE
  5
A90
330
A02
100
AcDbEntity
  8
Shape001
100
AcDbLine
 10
54.4
 20
13.2066
 30
0
 11
54.8
 21
13.2745
 31
0
  0
LINE
  5
A91
330
A02
100
AcDbEntity
  8
Shape001
100
AcDbLine
 10
54.8
 20
13.2745
 30
0
 11
55.2
 21
13.3422
 31
0
  0
LINE
  5
A92
330
A02
100
AcDbEntity
  8
Shape001
100
AcDbLine
 10
55.2
 20
13.3422
 30
0
 11
55.6
 21
13.4097
 31
0
  0
LINE
  5
A93
330
A02
100
AcDbEntity
  8
Shape001
100
AcDbLine
 10
55.6
 20
13.4097
 30
0
 11
56
 21
13.477
 31
0
  0
LINE
  5
A94
330
A02
100
AcDbEntity
  8
Shape001
100
AcDbLine
 10
56
 20
13.477
 30
0
 11
56.4
 21
13.5441
 31
0
  0
LINE
  5
A95
330
A02
100
AcDbEntity
  8
Shape001
100
AcDbLine
 10
56.4
 20
13.5441
 30
0
 11
56.8
 21
13.6111
 31
0
  0
LINE
  5
A96
330
A02
100
AcDbEntity
  8
Shape001
100
AcDbLine
 10
56.8
 20
13.6111
 30
0
 11
57.2
 21
13.6778
 31
0
  0
LINE
  5
A97
330
A02
100
AcDbEntity
  8
Shape001
100
AcDbLine
 10
57.2
 20
13.6778
 30
0
 11
57.6
 21
13.7444
 31
0
  0
LINE
  5
A98
330
A02
100
AcDbEntity
  8
Shape001
100
AcDbLine
 10
57.6
 20
13.7444
 30
0
 11
58
 21
13.8108
 31
0
  0
LINE
  5
A99
330
A02
100
AcDbEntity
  8
Shape001
100
AcDbLine
 10
58
 20
13.8108
 30
0
 11
58.4
 21
13.877
 31
0
  0
LINE
  5
A9A
330
A02
100
AcDbEntity
  8
Shape001
100
AcDbLine
 10
58.4
 20
13.877
 30
0
 11
58.8
 21
13.943
 31
0
  0
LINE
  5
A9B
330
A02
100
AcDbEntity
  8
Shape001
100
AcDbLine
 10
58.8
 20
13.943
 30
0
 11
59.2
 21
14.0089
 31
0
  0
LINE
  5
A9C
330
A02
100
AcDbEntity
  8
Shape001
100
AcDbLine
 10
59.2
 20
14.0089
 30
0
 11
59.6
 21
14.0746
 31
0
  0
LINE
  5
A9D
330
A02
100
AcDbEntity
  8
Shape001
100
AcDbLine
 10
59.6
 20
14.0746
 30
0
 11
60
 21
14.14
 31
0
  0
LINE
  5
A9E
330
A02
100
AcDbEntity
  8
Shape001
100
AcDbLine
 10
60
 20
14.14
 30
0
 11
60.4
 21
14.2053
 31
0
  0
LINE
  5
A9F
330
A02
100
AcDbEntity
  8
Shape001
100
AcDbLine
 10
60.4
 20
14.2053
 30
0
 11
60.8
 21
14.2705
 31
0
  0
LINE
  5
AA0
330
A02
100
AcDbEntity
  8
Shape001
100
AcDbLine
 10
60.8
 20
14.2705
 30
0
 11
61.2
 21
14.3354
 31
0
  0
LINE
  5
AA1
330
A02
100
AcDbEntity
  8
Shape001
100
AcDbLine
 10
61.2
 20
14.3354
 30
0
 11
61.6
 21
14.4002
 31
0
  0
LINE
  5
AA2
330
A02
100
AcDbEntity
  8
Shape001
100
AcDbLine
 10
61.6
 20
14.4002
 30
0
 11
62
 21
14.4648
 31
0
  0
LINE
  5
AA3
330
A02
100
AcDbEntity
  8
Shape001
100
AcDbLine
 10
62
 20
14.4648
 30
0
 11
62.4
 21
14.5293
 31
0
  0
LINE
  5
AA4
330
A02
100
AcDbEntity
  8
Shape001
100
AcDbLine
 10
62.4
 20
14.5293
 30
0
 11
62.8
 21
14.5935
 31
0
  0
LINE
  5
AA5
330
A02
100
AcDbEntity
  8
Shape001
100
AcDbLine
 10
62.8
 20
14.5935
 30
0
 11
63.2
 21
14.6576
 31
0
  0
LINE
  5
AA6
330
A02
100
AcDbEntity
  8
Shape001
100
AcDbLine
 10
63.2
 20
14.6576
 30
0
 11
63.6
 21
14.7215
 31
0
  0
LINE
  5
AA7
330
A02
100
AcDbEntity
  8
Shape001
100
AcDbLine
 10
63.6
 20
14.7215
 30
0
 11
64
 21
14.7853
 31
0
  0
LINE
  5
AA8
330
A02
100
AcDbEntity
  8
Shape001
100
AcDbLine
 10
64
 20
14.7853
 30
0
 11
64.4
 21
14.8488
 31
0
  0
LINE
  5
AA9
330
A02
100
AcDbEntity
  8
Shape001
100
AcDbLine
 10
64.4
 20
14.8488
 30
0
 11
64.8
 21
14.9123
 31
0
  0
LINE
  5
AAA
330
A02
100
AcDbEntity
  8
Shape001
100
AcDbLine
 10
64.8
 20
14.9123
 30
0
 11
65.2
 21
14.9755
 31
0
  0
LINE
  5
AAB
330
A02
100
AcDbEntity
  8
Shape001
100
AcDbLine
 10
65.2
 20
14.9755
 30
0
 11
65.6
 21
15.0386
 31
0
  0
LINE
  5
AAC
330
A02
100
AcDbEntity
  8
Shape001
100
AcDbLine
 10
65.6
 20
15.0386
 30
0
 11
66
 21
15.1015
 31
0
  0
LINE
  5
AAD
330
A02
100
AcDbEntity
  8
Shape001
100
AcDbLine
 10
66
 20
15.1015
 30
0
 11
66.4
 21
15.1642
 31
0
  0
LINE
  5
AAE
330
A02
100
AcDbEntity
  8
Shape001
100
AcDbLine
 10
66.4
 20
15.1642
 30
0
 11
66.8
 21
15.2268
 31
0
  0
LINE
  5
AAF
330
A02
100
AcDbEntity
  8
Shape001
100
AcDbLine
 10
66.8
 20
15.2268
 30
0
 11
67.2
 21
15.2893
 31
0
  0
LINE
  5
AB0
330
A02
100
AcDbEntity
  8
Shape001
100
AcDbLine
 10
67.2
 20
15.2893
 30
0
 11
67.6
 21
15.3515
 31
0
  0
LINE
  5
AB1
330
A02
100
AcDbEntity
  8
Shape001
100
AcDbLine
 10
67.6
 20
15.3515
 30
0
 11
68
 21
15.4136
 31
0
  0
LINE
  5
AB2
330
A02
100
AcDbEntity
  8
Shape001
100
AcDbLine
 10
68
 20
15.4136
 30
0
 11
68.4
 21
15.4755
 31
0
  0
LINE
  5
AB3
330
A02
100
AcDbEntity
  8
Shape001
100
AcDbLine
 10
68.4
 20
15.4755
 30
0
 11
68.8
 21
15.5373
 31
0
  0
LINE
  5
AB4
330
A02
100
AcDbEntity
  8
Shape001
100
AcDbLine
 10
68.8
 20
15.5373
 30
0
 11
69.2
 21
15.5989
 31
0
  0
LINE
  5
AB5
330
A02
100
AcDbEntity
  8
Shape001
100
AcDbLine
 10
69.2
 20
15.5989
 30
0
 11
69.6
 21
15.6604
 31
0
  0
LINE
  5
AB6
330
A02
100
AcDbEntity
  8
Shape001
100
AcDbLine
 10
69.6
 20
15.6604
 30
0
 11
70
 21
15.7217
 31
0
  0
LINE
  5
AB7
330
A02
100
AcDbEntity
  8
Shape001
100
AcDbLine
 10
70
 20
15.7217
 30
0
 11
70.4
 21
15.7828
 31
0
  0
LINE
  5
AB8
330
A02
100
AcDbEntity
  8
Shape001
100
AcDbLine
 10
70.4
 20
15.7828
 30
0
 11
70.8
 21
15.8438
 31
0
  0
LINE
  5
AB9
330
A02
100
AcDbEntity
  8
Shape001
100
AcDbLine
 10
70.8
 20
15.8438
 30
0
 11
71.2
 21
15.9046
 31
0
  0
LINE
  5
ABA
330
A02
100
AcDbEntity
  8
Shape001
100
AcDbLine
 10
71.2
 20
15.9046
 30
0
 11
71.6
 21
15.9653
 31
0
  0
LINE
  5
ABB
330
A02
100
AcDbEntity
  8
Shape001
100
AcDbLine
 10
71.6
 20
15.9653
 30
0
 11
72
 21
16.0258
 31
0
  0
LINE
  5
ABC
330
A02
100
AcDbEntity
  8
Shape001
100
AcDbLine
 10
72
 20
16.0258
 30
0
 11
72.4
 21
16.0862
 31
0
  0
LINE
  5
ABD
330
A02
100
AcDbEntity
  8
Shape001
100
AcDbLine
 10
72.4
 20
16.0862
 30
0
 11
72.8
 21
16.1464
 31
0
  0
LINE
  5
ABE
330
A02
100
AcDbEntity
  8
Shape001
100
AcDbLine
 10
72.8
 20
16.1464
 30
0
 11
73.2
 21
16.2065
 31
0
  0
LINE
  5
ABF
330
A02
100
AcDbEntity
  8
Shape001
100
AcDbLine
 10
73.2
 20
16.2065
 30
0
 11
73.6
 21
16.2664
 31
0
  0
LINE
  5
AC0
330
A02
100
AcDbEntity
  8
Shape001
100
AcDbLine
 10
73.6
 20
16.2664
 30
0
 11
74
 21
16.3261
 31
0
  0
LINE
  5
AC1
330
A02
100
AcDbEntity
  8
Shape001
100
AcDbLine
 10
74
 20
16.3261
 30
0
 11
74.4
 21
16.3857
 31
0
  0
LINE
  5
AC2
330
A02
100
AcDbEntity
  8
Shape001
100
AcDbLine
 10
74.4
 20
16.3857
 30
0
 11
74.8
 21
16.4452
 31
0
  0
LINE
  5
AC3
330
A02
100
AcDbEntity
  8
Shape001
100
AcDbLine
 10
74.8
 20
16.4452
 30
0
 11
75.2
 21
16.5044
 31
0
  0
LINE
  5
AC4
330
A02
100
AcDbEntity
  8
Shape001
100
AcDbLine
 10
75.2
 20
16.5044
 30
0
 11
75.6
 21
16.5636
 31
0
  0
LINE
  5
AC5
330
A02
100
AcDbEntity
  8
Shape001
100
AcDbLine
 10
75.6
 20
16.5636
 30
0
 11
76
 21
16.6226
 31
0
  0
LINE
  5
AC6
330
A02
100
AcDbEntity
  8
Shape001
100
AcDbLine
 10
76
 20
16.6226
 30
0
 11
76.4
 21
16.6814
 31
0
  0
LINE
  5
AC7
330
A02
100
AcDbEntity
  8
Shape001
100
AcDbLine
 10
76.4
 20
16.6814
 30
0
 11
76.8
 21
16.7401
 31
0
  0
LINE
  5
AC8
330
A02
100
AcDbEntity
  8
Shape001
100
AcDbLine
 10
76.8
 20
16.7401
 30
0
 11
77.2
 21
16.7987
 31
0
  0
LINE
  5
AC9
330
A02
100
AcDbEntity
  8
Shape001
100
AcDbLine
 10
77.2
 20
16.7987
 30
0
 11
77.6
 21
16.8571
 31
0
  0
LINE
  5
ACA
330
A02
100
AcDbEntity
  8
Shape001
100
AcDbLine
 10
77.6
 20
16.8571
 30
0
 11
78
 21
16.9154
 31
0
  0
LINE
  5
ACB
330
A02
100
AcDbEntity
  8
Shape001
100
AcDbLine
 10
78
 20
16.9154
 30
0
 11
78.4
 21
16.9735
 31
0
  0
LINE
  5
ACC
330
A02
100
AcDbEntity
  8
Shape001
100
AcDbLine
 10
78.4
 20
16.9735
 30
0
 11
78.8
 21
17.0314
 31
0
  0
LINE
  5
ACD
330
A02
100
AcDbEntity
  8
Shape001
100
AcDbLine
 10
78.8
 20
17.0314
 30
0
 11
79.2
 21
17.0893
 31
0
  0
LINE
  5
ACE
330
A02
100
AcDbEntity
  8
Shape001
100
AcDbLine
 10
79.2
 20
17.0893
 30
0
 11
79.6
 21
17.1469
 31
0
  0
LINE
  5
ACF
330
A02
100
AcDbEntity
  8
Shape001
100
AcDbLine
 10
79.6
 20
17.1469
 30
0
 11
80
 21
17.2045
 31
0
  0
LINE
  5
AD0
330
A02
100
AcDbEntity
  8
Shape001
100
AcDbLine
 10
80
 20
17.2045
 30
0
 11
80.4
 21
17.2619
 31
0
  0
LINE
  5
AD1
330
A02
100
AcDbEntity
  8
Shape001
100
AcDbLine
 10
80.4
 20
17.2619
 30
0
 11
80.8
 21
17.3191
 31
0
  0
LINE
  5
AD2
330
A02
100
AcDbEntity
  8
Shape001
100
AcDbLine
 10
80.8
 20
17.3191
 30
0
 11
81.2
 21
17.3762
 31
0
  0
LINE
  5
AD3
330
A02
100
AcDbEntity
  8
Shape001
100
AcDbLine
 10
81.2
 20
17.3762
 30
0
 11
81.6
 21
17.4332
 31
0
  0
LINE
  5
AD4
330
A02
100
AcDbEntity
  8
Shape001
100
AcDbLine
 10
81.6
 20
17.4332
 30
0
 11
82
 21
17.49
 31
0
  0
LINE
  5
AD5
330
A02
100
AcDbEntity
  8
Shape001
100
AcDbLine
 10
82
 20
17.49
 30
0
 11
82.4
 21
17.5466
 31
0
  0
LINE
  5
AD6
330
A02
100
AcDbEntity
  8
Shape001
100
AcDbLine
 10
82.4
 20
17.5466
 30
0
 11
82.8
 21
17.6032
 31
0
  0
LINE
  5
AD7
330
A02
100
AcDbEntity
  8
Shape001
100
AcDbLine
 10
82.8
 20
17.6032
 30
0
 11
83.2
 21
17.6596
 31
0
  0
LINE
  5
AD8
330
A02
100
AcDbEntity
  8
Shape001
100
AcDbLine
 10
83.2
 20
17.6596
 30
0
 11
83.6
 21
17.7158
 31
0
  0
LINE
  5
AD9
330
A02
100
AcDbEntity
  8
Shape001
100
AcDbLine
 10
83.6
 20
17.7158
 30
0
 11
84
 21
17.7719
 31
0
  0
LINE
  5
ADA
330
A02
100
AcDbEntity
  8
Shape001
100
AcDbLine
 10
84
 20
17.7719
 30
0
 11
84.4
 21
17.8279
 31
0
  0
LINE
  5
ADB
330
A02
100
AcDbEntity
  8
Shape001
100
AcDbLine
 10
84.4
 20
17.8279
 30
0
 11
84.8
 21
17.8837
 31
0
  0
LINE
  5
ADC
330
A02
100
AcDbEntity
  8
Shape001
100
AcDbLine
 10
84.8
 20
17.8837
 30
0
 11
85.2
 21
17.9394
 31
0
  0
LINE
  5
ADD
330
A02
100
AcDbEntity
  8
Shape001
100
AcDbLine
 10
85.2
 20
17.9394
 30
0
 11
85.6
 21
17.995
 31
0
  0
LINE
  5
ADE
330
A02
100
AcDbEntity
  8
Shape001
100
AcDbLine
 10
85.6
 20
17.995
 30
0
 11
86
 21
18.0504
 31
0
  0
LINE
  5
ADF
330
A02
100
AcDbEntity
  8
Shape001
100
AcDbLine
 10
86
 20
18.0504
 30
0
 11
86.4
 21
18.1057
 31
0
  0
LINE
  5
AE0
330
A02
100
AcDbEntity
  8
Shape001
100
AcDbLine
 10
86.4
 20
18.1057
 30
0
 11
86.8
 21
18.1608
 31
0
  0
LINE
  5
AE1
330
A02
100
AcDbEntity
  8
Shape001
100
AcDbLine
 10
86.8
 20
18.1608
 30
0
 11
87.2
 21
18.2158
 31
0
  0
LINE
  5
AE2
330
A02
100
AcDbEntity
  8
Shape001
100
AcDbLine
 10
87.2
 20
18.2158
 30
0
 11
87.6
 21
18.2707
 31
0
  0
LINE
  5
AE3
330
A02
100
AcDbEntity
  8
Shape001
100
AcDbLine
 10
87.6
 20
18.2707
 30
0
 11
88
 21
18.3254
 31
0
  0
LINE
  5
AE4
330
A02
100
AcDbEntity
  8
Shape001
100
AcDbLine
 10
88
 20
18.3254
 30
0
 11
88.4
 21
18.38
 31
0
  0
LINE
  5
AE5
330
A02
100
AcDbEntity
  8
Shape001
100
AcDbLine
 10
88.4
 20
18.38
 30
0
 11
88.8
 21
18.4344
 31
0
  0
LINE
  5
AE6
330
A02
100
AcDbEntity
  8
Shape001
100
AcDbLine
 10
88.8
 20
18.4344
 30
0
 11
89.2
 21
18.4888
 31
0
  0
LINE
  5
AE7
330
A02
100
AcDbEntity
  8
Shape001
100
AcDbLine
 10
89.2
 20
18.4888
 30
0
 11
89.6
 21
18.5429
 31
0
  0
LINE
  5
AE8
330
A02
100
AcDbEntity
  8
Shape001
100
AcDbLine
 10
89.6
 20
18.5429
 30
0
 11
90
 21
18.597
 31
0
  0
LINE
  5
AE9
330
A02
100
AcDbEntity
  8
Shape001
100
AcDbLine
 10
90
 20
18.597
 30
0
 11
90.4
 21
18.6509
 31
0
  0
LINE
  5
AEA
330
A02
100
AcDbEntity
  8
Shape001
100
AcDbLine
 10
90.4
 20
18.6509
 30
0
 11
90.8
 21
18.7047
 31
0
  0
LINE
  5
AEB
330
A02
100
AcDbEntity
  8
Shape001
100
AcDbLine
 10
90.8
 20
18.7047
 30
0
 11
91.2
 21
18.7583
 31
0
  0
LINE
  5
AEC
330
A02
100
AcDbEntity
  8
Shape001
100
AcDbLine
 10
91.2
 20
18.7583
 30
0
 11
91.6
 21
18.8118
 31
0
  0
LINE
  5
AED
330
A02
100
AcDbEntity
  8
Shape001
100
AcDbLine
 10
91.6
 20
18.8118
 30
0
 11
92
 21
18.8652
 31
0
  0
LINE
  5
AEE
330
A02
100
AcDbEntity
  8
Shape001
100
AcDbLine
 10
92
 20
18.8652
 30
0
 11
92.4
 21
18.9185
 31
0
  0
LINE
  5
AEF
330
A02
100
AcDbEntity
  8
Shape001
100
AcDbLine
 10
92.4
 20
18.9185
 30
0
 11
92.8
 21
18.9716
 31
0
  0
LINE
  5
AF0
330
A02
100
AcDbEntity
  8
Shape001
100
AcDbLine
 10
92.8
 20
18.9716
 30
0
 11
93.2
 21
19.0246
 31
0
  0
LINE
  5
AF1
330
A02
100
AcDbEntity
  8
Shape001
100
AcDbLine
 10
93.2
 20
19.0246
 30
0
 11
93.6
 21
19.0774
 31
0
  0
LINE
  5
AF2
330
A02
100
AcDbEntity
  8
Shape001
100
AcDbLine
 10
93.6
 20
19.0774
 30
0
 11
94
 21
19.1301
 31
0
  0
LINE
  5
AF3
330
A02
100
AcDbEntity
  8
Shape001
100
AcDbLine
 10
94
 20
19.1301
 30
0
 11
94.4
 21
19.1827
 31
0
  0
LINE
  5
AF4
330
A02
100
AcDbEntity
  8
Shape001
100
AcDbLine
 10
94.4
 20
19.1827
 30
0
 11
94.8
 21
19.2351
 31
0
  0
LINE
  5
AF5
330
A02
100
AcDbEntity
  8
Shape001
100
AcDbLine
 10
94.8
 20
19.2351
 30
0
 11
95.2
 21
19.2875
 31
0
  0
LINE
  5
AF6
330
A02
100
AcDbEntity
  8
Shape001
100
AcDbLine
 10
95.2
 20
19.2875
 30
0
 11
95.6
 21
19.3396
 31
0
  0
LINE
  5
AF7
330
A02
100
AcDbEntity
  8
Shape001
100
AcDbLine
 10
95.6
 20
19.3396
 30
0
 11
96
 21
19.3917
 31
0
  0
LINE
  5
AF8
330
A02
100
AcDbEntity
  8
Shape001
100
AcDbLine
 10
96
 20
19.3917
 30
0
 11
96.4
 21
19.4436
 31
0
  0
LINE
  5
AF9
330
A02
100
AcDbEntity
  8
Shape001
100
AcDbLine
 10
96.4
 20
19.4436
 30
0
 11
96.8
 21
19.4954
 31
0
  0
LINE
  5
AFA
330
A02
100
AcDbEntity
  8
Shape001
100
AcDbLine
 10
96.8
 20
19.4954
 30
0
 11
97.2
 21
19.5471
 31
0
  0
LINE
  5
AFB
330
A02
100
AcDbEntity
  8
Shape001
100
AcDbLine
 10
97.2
 20
19.5471
 30
0
 11
97.6
 21
19.5986
 31
0
  0
LINE
  5
AFC
330
A02
100
AcDbEntity
  8
Shape001
100
AcDbLine
 10
97.6
 20
19.5986
 30
0
 11
98
 21
19.65
 31
0
  0
LINE
  5
AFD
330
A02
100
AcDbEntity
  8
Shape001
100
AcDbLine
 10
98
 20
19.65
 30
0
 11
98.4
 21
19.7013
 31
0
  0
LINE
  5
AFE
330
A02
100
AcDbEntity
  8
Shape001
100
AcDbLine
 10
98.4
 20
19.7013
 30
0
 11
98.8
 21
19.7524
 31
0
  0
LINE
  5
AFF
330
A02
100
AcDbEntity
  8
Shape001
100
AcDbLine
 10
98.8
 20
19.7524
 30
0
 11
99.2
 21
19.8034
 31
0
  0
LINE
  5
B00
330
A02
100
AcDbEntity
  8
Shape001
100
AcDbLine
 10
99.2
 20
19.8034
 30
0
 11
99.6
 21
19.8543
 31
0
  0
LINE
  5
B01
330
A02
100
AcDbEntity
  8
Shape001
100
AcDbLine
 10
99.6
 20
19.8543
 30
0
 11
100
 21
19.9051
 31
0
  0
LINE
  5
B02
330
A02
100
AcDbEntity
  8
Shape001
100
AcDbLine
 10
100
 20
19.9051
 30
0
 11
100.4
 21
19.9557
 31
0
  0
LINE
  5
B03
330
A02
100
AcDbEntity
  8
Shape001
100
AcDbLine
 10
100.4
 20
19.9557
 30
0
 11
100.8
 21
20.0062
 31
0
  0
LINE
  5
B04
330
A02
100
AcDbEntity
  8
Shape001
100
AcDbLine
 10
100.8
 20
20.0062
 30
0
 11
101.2
 21
20.0565
 31
0
  0
LINE
  5
B05
330
A02
100
AcDbEntity
  8
Shape001
100
AcDbLine
 10
101.2
 20
20.0565
 30
0
 11
101.6
 21
20.1068
 31
0
  0
LINE
  5
B06
330
A02
100
AcDbEntity
  8
Shape001
100
AcDbLine
 10
101.6
 20
20.1068
 30
0
 11
102
 21
20.1569
 31
0
  0
LINE
  5
B07
330
A02
100
AcDbEntity
  8
Shape001
100
AcDbLine
 10
102
 20
20.1569
 30
0
 11
102.4
 21
20.2069
 31
0
  0
LINE
  5
B08
330
A02
100
AcDbEntity
  8
Shape001
100
AcDbLine
 10
102.4
 20
20.2069
 30
0
 11
102.8
 21
20.2567
 31
0
  0
LINE
  5
B09
330
A02
100
AcDbEntity
  8
Shape001
100
AcDbLine
 10
102.8
 20
20.2567
 30
0
 11
103.2
 21
20.3064
 31
0
  0
LINE
  5
B0A
330
A02
100
AcDbEntity
  8
Shape001
100
AcDbLine
 10
103.2
 20
20.3064
 30
0
 11
103.6
 21
20.356
 31
0
  0
LINE
  5
B0B
330
A02
100
AcDbEntity
  8
Shape001
100
AcDbLine
 10
103.6
 20
20.356
 30
0
 11
104
 21
20.4055
 31
0
  0
LINE
  5
B0C
330
A02
100
AcDbEntity
  8
Shape001
100
AcDbLine
 10
104
 20
20.4055
 30
0
 11
104.4
 21
20.4548
 31
0
  0
LINE
  5
B0D
330
A02
100
AcDbEntity
  8
Shape001
100
AcDbLine
 10
104.4
 20
20.4548
 30
0
 11
104.8
 21
20.5041
 31
0
  0
LINE
  5
B0E
330
A02
100
AcDbEntity
  8
Shape001
100
AcDbLine
 10
104.8
 20
20.5041
 30
0
 11
105.2
 21
20.5531
 31
0
  0
LINE
  5
B0F
330
A02
100
AcDbEntity
  8
Shape001
100
AcDbLine
 10
105.2
 20
20.5531
 30
0
 11
105.6
 21
20.6021
 31
0
  0
LINE
  5
B10
330
A02
100
AcDbEntity
  8
Shape001
100
AcDbLine
 10
105.6
 20
20.6021
 30
0
 11
106
 21
20.6509
 31
0
  0
LINE
  5
B11
330
A02
100
AcDbEntity
  8
Shape001
100
AcDbLine
 10
106
 20
20.6509
 30
0
 11
106.4
 21
20.6996
 31
0
  0
LINE
  5
B12
330
A02
100
AcDbEntity
  8
Shape001
100
AcDbLine
 10
106.4
 20
20.6996
 30
0
 11
106.8
 21
20.7482
 31
0
  0
LINE
  5
B13
330
A02
100
AcDbEntity
  8
Shape001
100
AcDbLine
 10
106.8
 20
20.7482
 30
0
 11
107.2
 21
20.7967
 31
0
  0
LINE
  5
B14
330
A02
100
AcDbEntity
  8
Shape001
100
AcDbLine
 10
107.2
 20
20.7967
 30
0
 11
107.6
 21
20.845
 31
0
  0
LINE
  5
B15
330
A02
100
AcDbEntity
  8
Shape001
100
AcDbLine
 10
107.6
 20
20.845
 30
0
 11
108
 21
20.8932
 31
0
  0
LINE
  5
B16
330
A02
100
AcDbEntity
  8
Shape001
100
AcDbLine
 10
108
 20
20.8932
 30
0
 11
108.4
 21
20.9413
 31
0
  0
LINE
  5
B17
330
A02
100
AcDbEntity
  8
Shape001
100
AcDbLine
 10
108.4
 20
20.9413
 30
0
 11
108.8
 21
20.9892
 31
0
  0
LINE
  5
B18
330
A02
100
AcDbEntity
  8
Shape001
100
AcDbLine
 10
108.8
 20
20.9892
 30
0
 11
109.2
 21
21.037
 31
0
  0
LINE
  5
B19
330
A02
100
AcDbEntity
  8
Shape001
100
AcDbLine
 10
109.2
 20
21.037
 30
0
 11
109.6
 21
21.0847
 31
0
  0
LINE
  5
B1A
330
A02
100
AcDbEntity
  8
Shape001
100
AcDbLine
 10
109.6
 20
21.0847
 30
0
 11
110
 21
21.1323
 31
0
  0
LINE
  5
B1B
330
A02
100
AcDbEntity
  8
Shape001
100
AcDbLine
 10
110
 20
21.1323
 30
0
 11
110.4
 21
21.1797
 31
0
  0
LINE
  5
B1C
330
A02
100
AcDbEntity
  8
Shape001
100
AcDbLine
 10
110.4
 20
21.1797
 30
0
 11
110.8
 21
21.2271
 31
0
  0
LINE
  5
B1D
330
A02
100
AcDbEntity
  8
Shape001
100
AcDbLine
 10
110.8
 20
21.2271
 30
0
 11
111.2
 21
21.2743
 31
0
  0
LINE
  5
B1E
330
A02
100
AcDbEntity
  8
Shape001
100
AcDbLine
 10
111.2
 20
21.2743
 30
0
 11
111.6
 21
21.3213
 31
0
  0
LINE
  5
B1F
330
A02
100
AcDbEntity
  8
Shape001
100
AcDbLine
 10
111.6
 20
21.3213
 30
0
 11
112
 21
21.3683
 31
0
  0
LINE
  5
B20
330
A02
100
AcDbEntity
  8
Shape001
100
AcDbLine
 10
112
 20
21.3683
 30
0
 11
112.4
 21
21.4151
 31
0
  0
LINE
  5
B21
330
A02
100
AcDbEntity
  8
Shape001
100
AcDbLine
 10
112.4
 20
21.4151
 30
0
 11
112.8
 21
21.4618
 31
0
  0
LINE
  5
B22
330
A02
100
AcDbEntity
  8
Shape001
100
AcDbLine
 10
112.8
 20
21.4618
 30
0
 11
113.2
 21
21.5083
 31
0
  0
LINE
  5
B23
330
A02
100
AcDbEntity
  8
Shape001
100
AcDbLine
 10
113.2
 20
21.5083
 30
0
 11
113.6
 21
21.5548
 31
0
  0
LINE
  5
B24
330
A02
100
AcDbEntity
  8
Shape001
100
AcDbLine
 10
113.6
 20
21.5548
 30
0
 11
114
 21
21.6011
 31
0
  0
LINE
  5
B25
330
A02
100
AcDbEntity
  8
Shape001
100
AcDbLine
 10
114
 20
21.6011
 30
0
 11
114.4
 21
21.6472
 31
0
  0
LINE
  5
B26
330
A02
100
AcDbEntity
  8
Shape001
100
AcDbLine
 10
114.4
 20
21.6472
 30
0
 11
114.8
 21
21.6933
 31
0
  0
LINE
  5
B27
330
A02
100
AcDbEntity
  8
Shape001
100
AcDbLine
 10
114.8
 20
21.6933
 30
0
 11
115.2
 21
21.7392
 31
0
  0
LINE
  5
B28
330
A02
100
AcDbEntity
  8
Shape001
100
AcDbLine
 10
115.2
 20
21.7392
 30
0
 11
115.6
 21
21.7851
 31
0
  0
LINE
  5
B29
330
A02
100
AcDbEntity
  8
Shape001
100
AcDbLine
 10
115.6
 20
21.7851
 30
0
 11
116
 21
21.8307
 31
0
  0
LINE
  5
B2A
330
A02
100
AcDbEntity
  8
Shape001
100
AcDbLine
 10
116
 20
21.8307
 30
0
 11
116.4
 21
21.8763
 31
0
  0
LINE
  5
B2B
330
A02
100
AcDbEntity
  8
Shape001
100
AcDbLine
 10
116.4
 20
21.8763
 30
0
 11
116.8
 21
21.9217
 31
0
  0
LINE
  5
B2C
330
A02
100
AcDbEntity
  8
Shape001
100
AcDbLine
 10
116.8
 20
21.9217
 30
0
 11
117.2
 21
21.967
 31
0
  0
LINE
  5
B2D
330
A02
100
AcDbEntity
  8
Shape001
100
AcDbLine
 10
117.2
 20
21.967
 30
0
 11
117.6
 21
22.0122
 31
0
  0
LINE
  5
B2E
330
A02
100
AcDbEntity
  8
Shape001
100
AcDbLine
 10
117.6
 20
22.0122
 30
0
 11
118
 21
22.0573
 31
0
  0
LINE
  5
B2F
330
A02
100
AcDbEntity
  8
Shape001
100
AcDbLine
 10
118
 20
22.0573
 30
0
 11
118.4
 21
22.1022
 31
0
  0
LINE
  5
B30
330
A02
100
AcDbEntity
  8
Shape001
100
AcDbLine
 10
118.4
 20
22.1022
 30
0
 11
118.8
 21
22.147
 31
0
  0
LINE
  5
B31
330
A02
100
AcDbEntity
  8
Shape001
100
AcDbLine
 10
118.8
 20
22.147
 30
0
 11
119.2
 21
22.1917
 31
0
  0
LINE
  5
B32
330
A02
100
AcDbEntity
  8
Shape001
100
AcDbLine
 10
119.2
 20
22.1917
 30
0
 11
119.6
 21
22.2363
 31
0
  0
LINE
  5
B33
330
A02
100
AcDbEntity
  8
Shape001
100
AcDbLine
 10
119.6
 20
22.2363
 30
0
 11
120
 21
22.2807
 31
0
  0
LINE
  5
B34
330
A02
100
AcDbEntity
  8
Shape001
100
AcDbLine
 10
120
 20
22.2807
 30
0
 11
120.4
 21
22.325
 31
0
  0
LINE
  5
B35
330
A02
100
AcDbEntity
  8
Shape001
100
AcDbLine
 10
120.4
 20
22.325
 30
0
 11
120.8
 21
22.3692
 31
0
  0
LINE
  5
B36
330
A02
100
AcDbEntity
  8
Shape001
100
AcDbLine
 10
120.8
 20
22.3692
 30
0
 11
121.2
 21
22.4132
 31
0
  0
LINE
  5
B37
330
A02
100
AcDbEntity
  8
Shape001
100
AcDbLine
 10
121.2
 20
22.4132
 30
0
 11
121.6
 21
22.4572
 31
0
  0
LINE
  5
B38
330
A02
100
AcDbEntity
  8
Shape001
100
AcDbLine
 10
121.6
 20
22.4572
 30
0
 11
122
 21
22.501
 31
0
  0
LINE
  5
B39
330
A02
100
AcDbEntity
  8
Shape001
100
AcDbLine
 10
122
 20
22.501
 30
0
 11
122.4
 21
22.5446
 31
0
  0
LINE
  5
B3A
330
A02
100
AcDbEntity
  8
Shape001
100
AcDbLine
 10
122.4
 20
22.5446
 30
0
 11
122.8
 21
22.5882
 31
0
  0
LINE
  5
B3B
330
A02
100
AcDbEntity
  8
Shape001
100
AcDbLine
 10
122.8
 20
22.5882
 30
0
 11
123.2
 21
22.6316
 31
0
  0
LINE
  5
B3C
330
A02
100
AcDbEntity
  8
Shape001
100
AcDbLine
 10
123.2
 20
22.6316
 30
0
 11
123.6
 21
22.6749
 31
0
  0
LINE
  5
B3D
330
A02
100
AcDbEntity
  8
Shape001
100
AcDbLine
 10
123.6
 20
22.6749
 30
0
 11
124
 21
22.7181
 31
0
  0
LINE
  5
B3E
330
A02
100
AcDbEntity
  8
Shape001
100
AcDbLine
 10
124
 20
22.7181
 30
0
 11
124.4
 21
22.7611
 31
0
  0
LINE
  5
B3F
330
A02
100
AcDbEntity
  8
Shape001
100
AcDbLine
 10
124.4
 20
22.7611
 30
0
 11
124.8
 21
22.8041
 31
0
  0
LINE
  5
B40
330
A02
100
AcDbEntity
  8
Shape001
100
AcDbLine
 10
124.8
 20
22.8041
 30
0
 11
125.2
 21
22.8469
 31
0
  0
LINE
  5
B41
330
A02
100
AcDbEntity
  8
Shape001
100
AcDbLine
 10
125.2
 20
22.8469
 30
0
 11
125.6
 21
22.8895
 31
0
  0
LINE
  5
B42
330
A02
100
AcDbEntity
  8
Shape001
100
AcDbLine
 10
125.6
 20
22.8895
 30
0
 11
126
 21
22.9321
 31
0
  0
LINE
  5
B43
330
A02
100
AcDbEntity
  8
Shape001
100
AcDbLine
 10
126
 20
22.9321
 30
0
 11
126.4
 21
22.9745
 31
0
  0
LINE
  5
B44
330
A02
100
AcDbEntity
  8
Shape001
100
AcDbLine
 10
126.4
 20
22.9745
 30
0
 11
126.8
 21
23.0168
 31
0
  0
LINE
  5
B45
330
A02
100
AcDbEntity
  8
Shape001
100
AcDbLine
 10
126.8
 20
23.0168
 30
0
 11
127.2
 21
23.059
 31
0
  0
LINE
  5
B46
330
A02
100
AcDbEntity
  8
Shape001
100
AcDbLine
 10
127.2
 20
23.059
 30
0
 11
127.6
 21
23.101
 31
0
  0
LINE
  5
B47
330
A02
100
AcDbEntity
  8
Shape001
100
AcDbLine
 10
127.6
 20
23.101
 30
0
 11
128
 21
23.1429
 31
0
  0
LINE
  5
B48
330
A02
100
AcDbEntity
  8
Shape001
100
AcDbLine
 10
128
 20
23.1429
 30
0
 11
128.4
 21
23.1847
 31
0
  0
LINE
  5
B49
330
A02
100
AcDbEntity
  8
Shape001
100
AcDbLine
 10
128.4
 20
23.1847
 30
0
 11
128.8
 21
23.2264
 31
0
  0
LINE
  5
B4A
330
A02
100
AcDbEntity
  8
Shape001
100
AcDbLine
 10
128.8
 20
23.2264
 30
0
 11
129.2
 21
23.2679
 31
0
  0
LINE
  5
B4B
330
A02
100
AcDbEntity
  8
Shape001
100
AcDbLine
 10
129.2
 20
23.2679
 30
0
 11
129.6
 21
23.3093
 31
0
  0
LINE
  5
B4C
330
A02
100
AcDbEntity
  8
Shape001
100
AcDbLine
 10
129.6
 20
23.3093
 30
0
 11
130
 21
23.3506
 31
0
  0
LINE
  5
B4D
330
A02
100
AcDbEntity
  8
Shape001
100
AcDbLine
 10
130
 20
23.3506
 30
0
 11
130.4
 21
23.3918
 31
0
  0
LINE
  5
B4E
330
A02
100
AcDbEntity
  8
Shape001
100
AcDbLine
 10
130.4
 20
23.3918
 30
0
 11
130.8
 21
23.4328
 31
0
  0
LINE
  5
B4F
330
A02
100
AcDbEntity
  8
Shape001
100
AcDbLine
 10
130.8
 20
23.4328
 30
0
 11
131.2
 21
23.4737
 31
0
  0
LINE
  5
B50
330
A02
100
AcDbEntity
  8
Shape001
100
AcDbLine
 10
131.2
 20
23.4737
 30
0
 11
131.6
 21
23.5145
 31
0
  0
LINE
  5
B51
330
A02
100
AcDbEntity
  8
Shape001
100
AcDbLine
 10
131.6
 20
23.5145
 30
0
 11
132
 21
23.5551
 31
0
  0
LINE
  5
B52
330
A02
100
AcDbEntity
  8
Shape001
100
AcDbLine
 10
132
 20
23.5551
 30
0
 11
132.4
 21
23.5956
 31
0
  0
LINE
  5
B53
330
A02
100
AcDbEntity
  8
Shape001
100
AcDbLine
 10
132.4
 20
23.5956
 30
0
 11
132.8
 21
23.636
 31
0
  0
LINE
  5
B54
330
A02
100
AcDbEntity
  8
Shape001
100
AcDbLine
 10
132.8
 20
23.636
 30
0
 11
133.2
 21
23.6763
 31
0
  0
LINE
  5
B55
330
A02
100
AcDbEntity
  8
Shape001
100
AcDbLine
 10
133.2
 20
23.6763
 30
0
 11
133.6
 21
23.7164
 31
0
  0
LINE
  5
B56
330
A02
100
AcDbEntity
  8
Shape001
100
AcDbLine
 10
133.6
 20
23.7164
 30
0
 11
134
 21
23.7564
 31
0
  0
LINE
  5
B57
330
A02
100
AcDbEntity
  8
Shape001
100
AcDbLine
 10
134
 20
23.7564
 30
0
 11
134.4
 21
23.7963
 31
0
  0
LINE
  5
B58
330
A02
100
AcDbEntity
  8
Shape001
100
AcDbLine
 10
134.4
 20
23.7963
 30
0
 11
134.8
 21
23.836
 31
0
  0
LINE
  5
B59
330
A02
100
AcDbEntity
  8
Shape001
100
AcDbLine
 10
134.8
 20
23.836
 30
0
 11
135.2
 21
23.8757
 31
0
  0
LINE
  5
B5A
330
A02
100
AcDbEntity
  8
Shape001
100
AcDbLine
 10
135.2
 20
23.8757
 30
0
 11
135.6
 21
23.9151
 31
0
  0
LINE
  5
B5B
330
A02
100
AcDbEntity
  8
Shape001
100
AcDbLine
 10
135.6
 20
23.9151
 30
0
 11
136
 21
23.9545
 31
0
  0
LINE
  5
B5C
330
A02
100
AcDbEntity
  8
Shape001
100
AcDbLine
 10
136
 20
23.9545
 30
0
 11
136.4
 21
23.9937
 31
0
  0
LINE
  5
B5D
330
A02
100
AcDbEntity
  8
Shape001
100
AcDbLine
 10
136.4
 20
23.9937
 30
0
 11
136.8
 21
24.0328
 31
0
  0
LINE
  5
B5E
330
A02
100
AcDbEntity
  8
Shape001
100
AcDbLine
 10
136.8
 20
24.0328
 30
0
 11
137.2
 21
24.0718
 31
0
  0
LINE
  5
B5F
330
A02
100
AcDbEntity
  8
Shape001
100
AcDbLine
 10
137.2
 20
24.0718
 30
0
 11
137.6
 21
24.1106
 31
0
  0
LINE
  5
B60
330
A02
100
AcDbEntity
  8
Shape001
100
AcDbLine
 10
137.6
 20
24.1106
 30
0
 11
138
 21
24.1494
 31
0
  0
LINE
  5
B61
330
A02
100
AcDbEntity
  8
Shape001
100
AcDbLine
 10
138
 20
24.1494
 30
0
 11
138.4
 21
24.1879
 31
0
  0
LINE
  5
B62
330
A02
100
AcDbEntity
  8
Shape001
100
AcDbLine
 10
138.4
 20
24.1879
 30
0
 11
138.8
 21
24.2264
 31
0
  0
LINE
  5
B63
330
A02
100
AcDbEntity
  8
Shape001
100
AcDbLine
 10
138.8
 20
24.2264
 30
0
 11
139.2
 21
24.2647
 31
0
  0
LINE
  5
B64
330
A02
100
AcDbEntity
  8
Shape001
100
AcDbLine
 10
139.2
 20
24.2647
 30
0
 11
139.6
 21
24.3029
 31
0
  0
LINE
  5
B65
330
A02
100
AcDbEntity
  8
Shape001
100
AcDbLine
 10
139.6
 20
24.3029
 30
0
 11
140
 21
24.3409
 31
0
  0
LINE
  5
B66
330
A02
100
AcDbEntity
  8
Shape001
100
AcDbLine
 10
140
 20
24.3409
 30
0
 11
140.4
 21
24.3789
 31
0
  0
LINE
  5
B67
330
A02
100
AcDbEntity
  8
Shape001
100
AcDbLine
 10
140.4
 20
24.3789
 30
0
 11
140.8
 21
24.4167
 31
0
  0
LINE
  5
B68
330
A02
100
AcDbEntity
  8
Shape001
100
AcDbLine
 10
140.8
 20
24.4167
 30
0
 11
141.2
 21
24.4543
 31
0
  0
LINE
  5
B69
330
A02
100
AcDbEntity
  8
Shape001
100
AcDbLine
 10
141.2
 20
24.4543
 30
0
 11
141.6
 21
24.4919
 31
0
  0
LINE
  5
B6A
330
A02
100
AcDbEntity
  8
Shape001
100
AcDbLine
 10
141.6
 20
24.4919
 30
0
 11
142
 21
24.5292
 31
0
  0
LINE
  5
B6B
330
A02
100
AcDbEntity
  8
Shape001
100
AcDbLine
 10
142
 20
24.5292
 30
0
 11
142.4
 21
24.5665
 31
0
  0
LINE
  5
B6C
330
A02
100
AcDbEntity
  8
Shape001
100
AcDbLine
 10
142.4
 20
24.5665
 30
0
 11
142.8
 21
24.6036
 31
0
  0
LINE
  5
B6D
330
A02
100
AcDbEntity
  8
Shape001
100
AcDbLine
 10
142.8
 20
24.6036
 30
0
 11
143.2
 21
24.6406
 31
0
  0
LINE
  5
B6E
330
A02
100
AcDbEntity
  8
Shape001
100
AcDbLine
 10
143.2
 20
24.6406
 30
0
 11
143.6
 21
24.6775
 31
0
  0
LINE
  5
B6F
330
A02
100
AcDbEntity
  8
Shape001
100
AcDbLine
 10
143.6
 20
24.6775
 30
0
 11
144
 21
24.7142
 31
0
  0
LINE
  5
B70
330
A02
100
AcDbEntity
  8
Shape001
100
AcDbLine
 10
144
 20
24.7142
 30
0
 11
144.4
 21
24.7508
 31
0
  0
LINE
  5
B71
330
A02
100
AcDbEntity
  8
Shape001
100
AcDbLine
 10
144.4
 20
24.7508
 30
0
 11
144.8
 21
24.7873
 31
0
  0
LINE
  5
B72
330
A02
100
AcDbEntity
  8
Shape001
100
AcDbLine
 10
144.8
 20
24.7873
 30
0
 11
145.2
 21
24.8236
 31
0
  0
LINE
  5
B73
330
A02
100
AcDbEntity
  8
Shape001
100
AcDbLine
 10
145.2
 20
24.8236
 30
0
 11
145.6
 21
24.8598
 31
0
  0
LINE
  5
B74
330
A02
100
AcDbEntity
  8
Shape001
100
AcDbLine
 10
145.6
 20
24.8598
 30
0
 11
146
 21
24.8958
 31
0
  0
LINE
  5
B75
330
A02
100
AcDbEntity
  8
Shape001
100
AcDbLine
 10
146
 20
24.8958
 30
0
 11
146.4
 21
24.9318
 31
0
  0
LINE
  5
B76
330
A02
100
AcDbEntity
  8
Shape001
100
AcDbLine
 10
146.4
 20
24.9318
 30
0
 11
146.8
 21
24.9675
 31
0
  0
LINE
  5
B77
330
A02
100
AcDbEntity
  8
Shape001
100
AcDbLine
 10
146.8
 20
24.9675
 30
0
 11
147.2
 21
25.0032
 31
0
  0
LINE
  5
B78
330
A02
100
AcDbEntity
  8
Shape001
100
AcDbLine
 10
147.2
 20
25.0032
 30
0
 11
147.6
 21
25.0387
 31
0
  0
LINE
  5
B79
330
A02
100
AcDbEntity
  8
Shape001
100
AcDbLine
 10
147.6
 20
25.0387
 30
0
 11
148
 21
25.0741
 31
0
  0
LINE
  5
B7A
330
A02
100
AcDbEntity
  8
Shape001
100
AcDbLine
 10
148
 20
25.0741
 30
0
 11
148.4
 21
25.1093
 31
0
  0
LINE
  5
B7B
330
A02
100
AcDbEntity
  8
Shape001
100
AcDbLine
 10
148.4
 20
25.1093
 30
0
 11
148.8
 21
25.1444
 31
0
  0
LINE
  5
B7C
330
A02
100
AcDbEntity
  8
Shape001
100
AcDbLine
 10
148.8
 20
25.1444
 30
0
 11
149.2
 21
25.1793
 31
0
  0
LINE
  5
B7D
330
A02
100
AcDbEntity
  8
Shape001
100
AcDbLine
 10
149.2
 20
25.1793
 30
0
 11
149.6
 21
25.2141
 31
0
  0
LINE
  5
B7E
330
A02
100
AcDbEntity
  8
Shape001
100
AcDbLine
 10
149.6
 20
25.2141
 30
0
 11
150
 21
25.2488
 31
0
  0
LINE
  5
B7F
330
A02
100
AcDbEntity
  8
Shape001
100
AcDbLine
 10
150
 20
25.2488
 30
0
 11
150.4
 21
25.2834
 31
0
  0
LINE
  5
B80
330
A02
100
AcDbEntity
  8
Shape001
100
AcDbLine
 10
150.4
 20
25.2834
 30
0
 11
150.8
 21
25.3178
 31
0
  0
LINE
  5
B81
330
A02
100
AcDbEntity
  8
Shape001
100
AcDbLine
 10
150.8
 20
25.3178
 30
0
 11
151.2
 21
25.352
 31
0
  0
LINE
  5
B82
330
A02
100
AcDbEntity
  8
Shape001
100
AcDbLine
 10
151.2
 20
25.352
 30
0
 11
151.6
 21
25.3861
 31
0
  0
LINE
  5
B83
330
A02
100
AcDbEntity
  8
Shape001
100
AcDbLine
 10
151.6
 20
25.3861
 30
0
 11
152
 21
25.4201
 31
0
  0
LINE
  5
B84
330
A02
100
AcDbEntity
  8
Shape001
100
AcDbLine
 10
152
 20
25.4201
 30
0
 11
152.4
 21
25.4539
 31
0
  0
LINE
  5
B85
330
A02
100
AcDbEntity
  8
Shape001
100
AcDbLine
 10
152.4
 20
25.4539
 30
0
 11
152.8
 21
25.4876
 31
0
  0
LINE
  5
B86
330
A02
100
AcDbEntity
  8
Shape001
100
AcDbLine
 10
152.8
 20
25.4876
 30
0
 11
153.2
 21
25.5212
 31
0
  0
LINE
  5
B87
330
A02
100
AcDbEntity
  8
Shape001
100
AcDbLine
 10
153.2
 20
25.5212
 30
0
 11
153.6
 21
25.5546
 31
0
  0
LINE
  5
B88
330
A02
100
AcDbEntity
  8
Shape001
100
AcDbLine
 10
153.6
 20
25.5546
 30
0
 11
154
 21
25.5878
 31
0
  0
LINE
  5
B89
330
A02
100
AcDbEntity
  8
Shape001
100
AcDbLine
 10
154
 20
25.5878
 30
0
 11
154.4
 21
25.6209
 31
0
  0
LINE
  5
B8A
330
A02
100
AcDbEntity
  8
Shape001
100
AcDbLine
 10
154.4
 20
25.6209
 30
0
 11
154.8
 21
25.6539
 31
0
  0
LINE
  5
B8B
330
A02
100
AcDbEntity
  8
Shape001
100
AcDbLine
 10
154.8
 20
25.6539
 30
0
 11
155.2
 21
25.6867
 31
0
  0
LINE
  5
B8C
330
A02
100
AcDbEntity
  8
Shape001
100
AcDbLine
 10
155.2
 20
25.6867
 30
0
 11
155.6
 21
25.7194
 31
0
  0
LINE
  5
B8D
330
A02
100
AcDbEntity
  8
Shape001
100
AcDbLine
 10
155.6
 20
25.7194
 30
0
 11
156
 21
25.752
 31
0
  0
LINE
  5
B8E
330
A02
100
AcDbEntity
  8
Shape001
100
AcDbLine
 10
156
 20
25.752
 30
0
 11
156.4
 21
25.7843
 31
0
  0
LINE
  5
B8F
330
A02
100
AcDbEntity
  8
Shape001
100
AcDbLine
 10
156.4
 20
25.7843
 30
0
 11
156.8
 21
25.8166
 31
0
  0
LINE
  5
B90
330
A02
100
AcDbEntity
  8
Shape001
100
AcDbLine
 10
156.8
 20
25.8166
 30
0
 11
157.2
 21
25.8487
 31
0
  0
LINE
  5
B91
330
A02
100
AcDbEntity
  8
Shape001
100
AcDbLine
 10
157.2
 20
25.8487
 30
0
 11
157.6
 21
25.8806
 31
0
  0
LINE
  5
B92
330
A02
100
AcDbEntity
  8
Shape001
100
AcDbLine
 10
157.6
 20
25.8806
 30
0
 11
158
 21
25.9124
 31
0
  0
LINE
  5
B93
330
A02
100
AcDbEntity
  8
Shape001
100
AcDbLine
 10
158
 20
25.9124
 30
0
 11
158.4
 21
25.944
 31
0
  0
LINE
  5
B94
330
A02
100
AcDbEntity
  8
Shape001
100
AcDbLine
 10
158.4
 20
25.944
 30
0
 11
158.8
 21
25.9755
 31
0
  0
LINE
  5
B95
330
A02
100
AcDbEntity
  8
Shape001
100
AcDbLine
 10
158.8
 20
25.9755
 30
0
 11
159.2
 21
26.0069
 31
0
  0
LINE
  5
B96
330
A02
100
AcDbEntity
  8
Shape001
100
AcDbLine
 10
159.2
 20
26.0069
 30
0
 11
159.6
 21
26.0381
 31
0
  0
LINE
  5
B97
330
A02
100
AcDbEntity
  8
Shape001
100
AcDbLine
 10
159.6
 20
26.0381
 30
0
 11
160
 21
26.0691
 31
0
  0
LINE
  5
B98
330
A02
100
AcDbEntity
  8
Shape001
100
AcDbLine
 10
160
 20
26.0691
 30
0
 11
160.4
 21
26.1
 31
0
  0
LINE
  5
B99
330
A02
100
AcDbEntity
  8
Shape001
100
AcDbLine
 10
160.4
 20
26.1
 30
0
 11
160.8
 21
26.1307
 31
0
  0
LINE
  5
B9A
330
A02
100
AcDbEntity
  8
Shape001
100
AcDbLine
 10
160.8
 20
26.1307
 30
0
 11
161.2
 21
26.1613
 31
0
  0
LINE
  5
B9B
330
A02
100
AcDbEntity
  8
Shape001
100
AcDbLine
 10
161.2
 20
26.1613
 30
0
 11
161.6
 21
26.1917
 31
0
  0
LINE
  5
B9C
330
A02
100
AcDbEntity
  8
Shape001
100
AcDbLine
 10
161.6
 20
26.1917
 30
0
 11
162
 21
26.222
 31
0
  0
LINE
  5
B9D
330
A02
100
AcDbEntity
  8
Shape001
100
AcDbLine
 10
162
 20
26.222
 30
0
 11
162.4
 21
26.2521
 31
0
  0
LINE
  5
B9E
330
A02
100
AcDbEntity
  8
Shape001
100
AcDbLine
 10
162.4
 20
26.2521
 30
0
 11
162.8
 21
26.2821
 31
0
  0
LINE
  5
B9F
330
A02
100
AcDbEntity
  8
Shape001
100
AcDbLine
 10
162.8
 20
26.2821
 30
0
 11
163.2
 21
26.3119
 31
0
  0
LINE
  5
BA0
330
A02
100
AcDbEntity
  8
Shape001
100
AcDbLine
 10
163.2
 20
26.3119
 30
0
 11
163.6
 21
26.3415
 31
0
  0
LINE
  5
BA1
330
A02
100
AcDbEntity
  8
Shape001
100
AcDbLine
 10
163.6
 20
26.3415
 30
0
 11
164
 21
26.371
 31
0
  0
LINE
  5
BA2
330
A02
100
AcDbEntity
  8
Shape001
100
AcDbLine
 10
164
 20
26.371
 30
0
 11
164.4
 21
26.4003
 31
0
  0
LINE
  5
BA3
330
A02
100
AcDbEntity
  8
Shape001
100
AcDbLine
 10
164.4
 20
26.4003
 30
0
 11
164.8
 21
26.4294
 31
0
  0
LINE
  5
BA4
330
A02
100
AcDbEntity
  8
Shape001
100
AcDbLine
 10
164.8
 20
26.4294
 30
0
 11
165.2
 21
26.4584
 31
0
  0
LINE
  5
BA5
330
A02
100
AcDbEntity
  8
Shape001
100
AcDbLine
 10
165.2
 20
26.4584
 30
0
 11
165.6
 21
26.4873
 31
0
  0
LINE
  5
BA6
330
A02
100
AcDbEntity
  8
Shape001
100
AcDbLine
 10
165.6
 20
26.4873
 30
0
 11
166
 21
26.5159
 31
0
  0
LINE
  5
BA7
330
A02
100
AcDbEntity
  8
Shape001
100
AcDbLine
 10
166
 20
26.5159
 30
0
 11
166.4
 21
26.5444
 31
0
  0
LINE
  5
BA8
330
A02
100
AcDbEntity
  8
Shape001
100
AcDbLine
 10
166.4
 20
26.5444
 30
0
 11
166.8
 21
26.5728
 31
0
  0
LINE
  5
BA9
330
A02
100
AcDbEntity
  8
Shape001
100
AcDbLine
 10
166.8
 20
26.5728
 30
0
 11
167.2
 21
26.601
 31
0
  0
LINE
  5
BAA
330
A02
100
AcDbEntity
  8
Shape001
100
AcDbLine
 10
167.2
 20
26.601
 30
0
 11
167.6
 21
26.629
 31
0
  0
LINE
  5
BAB
330
A02
100
AcDbEntity
  8
Shape001
100
AcDbLine
 10
167.6
 20
26.629
 30
0
 11
168
 21
26.6568
 31
0
  0
LINE
  5
BAC
330
A02
100
AcDbEntity
  8
Shape001
100
AcDbLine
 10
168
 20
26.6568
 30
0
 11
168.4
 21
26.6845
 31
0
  0
LINE
  5
BAD
330
A02
100
AcDbEntity
  8
Shape001
100
AcDbLine
 10
168.4
 20
26.6845
 30
0
 11
168.8
 21
26.712
 31
0
  0
LINE
  5
BAE
330
A02
100
AcDbEntity
  8
Shape001
100
AcDbLine
 10
168.8
 20
26.712
 30
0
 11
169.2
 21
26.7393
 31
0
  0
LINE
  5
BAF
330
A02
100
AcDbEntity
  8
Shape001
100
AcDbLine
 10
169.2
 20
26.7393
 30
0
 11
169.6
 21
26.7664
 31
0
  0
LINE
  5
BB0
330
A02
100
AcDbEntity
  8
Shape001
100
AcDbLine
 10
169.6
 20
26.7664
 30
0
 11
170
 21
26.7934
 31
0
  0
LINE
  5
BB1
330
A02
100
AcDbEntity
  8
Shape001
100
AcDbLine
 10
170
 20
26.7934
 30
0
 11
170.4
 21
26.8202
 31
0
  0
LINE
  5
BB2
330
A02
100
AcDbEntity
  8
Shape001
100
AcDbLine
 10
170.4
 20
26.8202
 30
0
 11
170.8
 21
26.8468
 31
0
  0
LINE
  5
BB3
330
A02
100
AcDbEntity
  8
Shape001
100
AcDbLine
 10
170.8
 20
26.8468
 30
0
 11
171.2
 21
26.8733
 31
0
  0
LINE
  5
BB4
330
A02
100
AcDbEntity
  8
Shape001
100
AcDbLine
 10
171.2
 20
26.8733
 30
0
 11
171.6
 21
26.8996
 31
0
  0
LINE
  5
BB5
330
A02
100
AcDbEntity
  8
Shape001
100
AcDbLine
 10
171.6
 20
26.8996
 30
0
 11
172
 21
26.9257
 31
0
  0
LINE
  5
BB6
330
A02
100
AcDbEntity
  8
Shape001
100
AcDbLine
 10
172
 20
26.9257
 30
0
 11
172.4
 21
26.9516
 31
0
  0
LINE
  5
BB7
330
A02
100
AcDbEntity
  8
Shape001
100
AcDbLine
 10
172.4
 20
26.9516
 30
0
 11
172.8
 21
26.9773
 31
0
  0
LINE
  5
BB8
330
A02
100
AcDbEntity
  8
Shape001
100
AcDbLine
 10
172.8
 20
26.9773
 30
0
 11
173.2
 21
27.0029
 31
0
  0
LINE
  5
BB9
330
A02
100
AcDbEntity
  8
Shape001
100
AcDbLine
 10
173.2
 20
27.0029
 30
0
 11
173.6
 21
27.0282
 31
0
  0
LINE
  5
BBA
330
A02
100
AcDbEntity
  8
Shape001
100
AcDbLine
 10
173.6
 20
27.0282
 30
0
 11
174
 21
27.0534
 31
0
  0
LINE
  5
BBB
330
A02
100
AcDbEntity
  8
Shape001
100
AcDbLine
 10
174
 20
27.0534
 30
0
 11
174.4
 21
27.0784
 31
0
  0
LINE
  5
BBC
330
A02
100
AcDbEntity
  8
Shape001
100
AcDbLine
 10
174.4
 20
27.0784
 30
0
 11
174.8
 21
27.1032
 31
0
  0
LINE
  5
BBD
330
A02
100
AcDbEntity
  8
Shape001
100
AcDbLine
 10
174.8
 20
27.1032
 30
0
 11
175.2
 21
27.1278
 31
0
  0
LINE
  5
BBE
330
A02
100
AcDbEntity
  8
Shape001
100
AcDbLine
 10
175.2
 20
27.1278
 30
0
 11
175.6
 21
27.1522
 31
0
  0
LINE
  5
BBF
330
A02
100
AcDbEntity
  8
Shape001
100
AcDbLine
 10
175.6
 20
27.1522
 30
0
 11
176
 21
27.1765
 31
0
  0
LINE
  5
BC0
330
A02
100
AcDbEntity
  8
Shape001
100
AcDbLine
 10
176
 20
27.1765
 30
0
 11
176.4
 21
27.2005
 31
0
  0
LINE
  5
BC1
330
A02
100
AcDbEntity
  8
Shape001
100
AcDbLine
 10
176.4
 20
27.2005
 30
0
 11
176.8
 21
27.2243
 31
0
  0
LINE
  5
BC2
330
A02
100
AcDbEntity
  8
Shape001
100
AcDbLine
 10
176.8
 20
27.2243
 30
0
 11
177.2
 21
27.248
 31
0
  0
LINE
  5
BC3
330
A02
100
AcDbEntity
  8
Shape001
100
AcDbLine
 10
177.2
 20
27.248
 30
0
 11
177.6
 21
27.2714
 31
0
  0
LINE
  5
BC4
330
A02
100
AcDbEntity
  8
Shape001
100
AcDbLine
 10
177.6
 20
27.2714
 30
0
 11
178
 21
27.2946
 31
0
  0
LINE
  5
BC5
330
A02
100
AcDbEntity
  8
Shape001
100
AcDbLine
 10
178
 20
27.2946
 30
0
 11
178.4
 21
27.3177
 31
0
  0
LINE
  5
BC6
330
A02
100
AcDbEntity
  8
Shape001
100
AcDbLine
 10
178.4
 20
27.3177
 30
0
 11
178.8
 21
27.3405
 31
0
  0
LINE
  5
BC7
330
A02
100
AcDbEntity
  8
Shape001
100
AcDbLine
 10
178.8
 20
27.3405
 30
0
 11
179.2
 21
27.3631
 31
0
  0
LINE
  5
BC8
330
A02
100
AcDbEntity
  8
Shape001
100
AcDbLine
 10
179.2
 20
27.3631
 30
0
 11
179.6
 21
27.3855
 31
0
  0
LINE
  5
BC9
330
A02
100
AcDbEntity
  8
Shape001
100
AcDbLine
 10
179.6
 20
27.3855
 30
0
 11
180
 21
27.4077
 31
0
  0
LINE
  5
BCA
330
A02
100
AcDbEntity
  8
Shape001
100
AcDbLine
 10
180
 20
27.4077
 30
0
 11
180.4
 21
27.4297
 31
0
  0
LINE
  5
BCB
330
A02
100
AcDbEntity
  8
Shape001
100
AcDbLine
 10
180.4
 20
27.4297
 30
0
 11
180.8
 21
27.4514
 31
0
  0
LINE
  5
BCC
330
A02
100
AcDbEntity
  8
Shape001
100
AcDbLine
 10
180.8
 20
27.4514
 30
0
 11
181.2
 21
27.473
 31
0
  0
LINE
  5
BCD
330
A02
100
AcDbEntity
  8
Shape001
100
AcDbLine
 10
181.2
 20
27.473
 30
0
 11
181.6
 21
27.4943
 31
0
  0
LINE
  5
BCE
330
A02
100
AcDbEntity
  8
Shape001
100
AcDbLine
 10
181.6
 20
27.4943
 30
0
 11
182
 21
27.5154
 31
0
  0
LINE
  5
BCF
330
A02
100
AcDbEntity
  8
Shape001
100
AcDbLine
 10
182
 20
27.5154
 30
0
 11
182.4
 21
27.5363
 31
0
  0
LINE
  5
BD0
330
A02
100
AcDbEntity
  8
Shape001
100
AcDbLine
 10
182.4
 20
27.5363
 30
0
 11
182.8
 21
27.5569
 31
0
  0
LINE
  5
BD1
330
A02
100
AcDbEntity
  8
Shape001
100
AcDbLine
 10
182.8
 20
27.5569
 30
0
 11
183.2
 21
27.5773
 31
0
  0
LINE
  5
BD2
330
A02
100
AcDbEntity
  8
Shape001
100
AcDbLine
 10
183.2
 20
27.5773
 30
0
 11
183.6
 21
27.5975
 31
0
  0
LINE
  5
BD3
330
A02
100
AcDbEntity
  8
Shape001
100
AcDbLine
 10
183.6
 20
27.5975
 30
0
 11
184
 21
27.6175
 31
0
  0
LINE
  5
BD4
330
A02
100
AcDbEntity
  8
Shape001
100
AcDbLine
 10
184
 20
27.6175
 30
0
 11
184.4
 21
27.6372
 31
0
  0
LINE
  5
BD5
330
A02
100
AcDbEntity
  8
Shape001
100
AcDbLine
 10
184.4
 20
27.6372
 30
0
 11
184.8
 21
27.6566
 31
0
  0
LINE
  5
BD6
330
A02
100
AcDbEntity
  8
Shape001
100
AcDbLine
 10
184.8
 20
27.6566
 30
0
 11
185.2
 21
27.6758
 31
0
  0
LINE
  5
BD7
330
A02
100
AcDbEntity
  8
Shape001
100
AcDbLine
 10
185.2
 20
27.6758
 30
0
 11
185.6
 21
27.6948
 31
0
  0
LINE
  5
BD8
330
A02
100
AcDbEntity
  8
Shape001
100
AcDbLine
 10
185.6
 20
27.6948
 30
0
 11
186
 21
27.7135
 31
0
  0
LINE
  5
BD9
330
A02
100
AcDbEntity
  8
Shape001
100
AcDbLine
 10
186
 20
27.7135
 30
0
 11
186.4
 21
27.7319
 31
0
  0
LINE
  5
BDA
330
A02
100
AcDbEntity
  8
Shape001
100
AcDbLine
 10
186.4
 20
27.7319
 30
0
 11
186.8
 21
27.7501
 31
0
  0
LINE
  5
BDB
330
A02
100
AcDbEntity
  8
Shape001
100
AcDbLine
 10
186.8
 20
27.7501
 30
0
 11
187.2
 21
27.7681
 31
0
  0
LINE
  5
BDC
330
A02
100
AcDbEntity
  8
Shape001
100
AcDbLine
 10
187.2
 20
27.7681
 30
0
 11
187.6
 21
27.7857
 31
0
  0
LINE
  5
BDD
330
A02
100
AcDbEntity
  8
Shape001
100
AcDbLine
 10
187.6
 20
27.7857
 30
0
 11
188
 21
27.8031
 31
0
  0
LINE
  5
BDE
330
A02
100
AcDbEntity
  8
Shape001
100
AcDbLine
 10
188
 20
27.8031
 30
0
 11
188.4
 21
27.8202
 31
0
  0
LINE
  5
BDF
330
A02
100
AcDbEntity
  8
Shape001
100
AcDbLine
 10
188.4
 20
27.8202
 30
0
 11
188.8
 21
27.837
 31
0
  0
LINE
  5
BE0
330
A02
100
AcDbEntity
  8
Shape001
100
AcDbLine
 10
188.8
 20
27.837
 30
0
 11
189.2
 21
27.8535
 31
0
  0
LINE
  5
BE1
330
A02
100
AcDbEntity
  8
Shape001
100
AcDbLine
 10
189.2
 20
27.8535
 30
0
 11
189.6
 21
27.8697
 31
0
  0
LINE
  5
BE2
330
A02
100
AcDbEntity
  8
Shape001
100
AcDbLine
 10
189.6
 20
27.8697
 30
0
 11
190
 21
27.8857
 31
0
  0
LINE
  5
BE3
330
A02
100
AcDbEntity
  8
Shape001
100
AcDbLine
 10
190
 20
27.8857
 30
0
 11
190.4
 21
27.9013
 31
0
  0
LINE
  5
BE4
330
A02
100
AcDbEntity
  8
Shape001
100
AcDbLine
 10
190.4
 20
27.9013
 30
0
 11
190.8
 21
27.9166
 31
0
  0
LINE
  5
BE5
330
A02
100
AcDbEntity
  8
Shape001
100
AcDbLine
 10
190.8
 20
27.9166
 30
0
 11
191.2
 21
27.9316
 31
0
  0
LINE
  5
BE6
330
A02
100
AcDbEntity
  8
Shape001
100
AcDbLine
 10
191.2
 20
27.9316
 30
0
 11
191.6
 21
27.9462
 31
0
  0
LINE
  5
BE7
330
A02
100
AcDbEntity
  8
Shape001
100
AcDbLine
 10
191.6
 20
27.9462
 30
0
 11
192
 21
27.9605
 31
0
  0
LINE
  5
BE8
330
A02
100
AcDbEntity
  8
Shape001
100
AcDbLine
 10
192
 20
27.9605
 30
0
 11
192.4
 21
27.9745
 31
0
  0
LINE
  5
BE9
330
A02
100
AcDbEntity
  8
Shape001
100
AcDbLine
 10
192.4
 20
27.9745
 30
0
 11
192.8
 21
27.9881
 31
0
  0
LINE
  5
BEA
330
A02
100
AcDbEntity
  8
Shape001
100
AcDbLine
 10
192.8
 20
27.9881
 30
0
 11
193.2
 21
28.0013
 31
0
  0
LINE
  5
BEB
330
A02
100
AcDbEntity
  8
Shape001
100
AcDbLine
 10
193.2
 20
28.0013
 30
0
 11
193.6
 21
28.0142
 31
0
  0
LINE
  5
BEC
330
A02
100
AcDbEntity
  8
Shape001
100
AcDbLine
 10
193.6
 20
28.0142
 30
0
 11
194
 21
28.0267
 31
0
  0
LINE
  5
BED
330
A02
100
AcDbEntity
  8
Shape001
100
AcDbLine
 10
194
 20
28.0267
 30
0
 11
194.4
 21
28.0388
 31
0
  0
LINE
  5
BEE
330
A02
100
AcDbEntity
  8
Shape001
100
AcDbLine
 10
194.4
 20
28.0388
 30
0
 11
194.8
 21
28.0504
 31
0
  0
LINE
  5
BEF
330
A02
100
AcDbEntity
  8
Shape001
100
AcDbLine
 10
194.8
 20
28.0504
 30
0
 11
195.2
 21
28.0617
 31
0
  0
LINE
  5
BF0
330
A02
100
AcDbEntity
  8
Shape001
100
AcDbLine
 10
195.2
 20
28.0617
 30
0
 11
195.6
 21
28.0724
 31
0
  0
LINE
  5
BF1
330
A02
100
AcDbEntity
  8
Shape001
100
AcDbLine
 10
195.6
 20
28.0724
 30
0
 11
196
 21
28.0827
 31
0
  0
LINE
  5
BF2
330
A02
100
AcDbEntity
  8
Shape001
100
AcDbLine
 10
196
 20
28.0827
 30
0
 11
196.4
 21
28.0925
 31
0
  0
LINE
  5
BF3
330
A02
100
AcDbEntity
  8
Shape001
100
AcDbLine
 10
196.4
 20
28.0925
 30
0
 11
196.8
 21
28.1018
 31
0
  0
LINE
  5
BF4
330
A02
100
AcDbEntity
  8
Shape001
100
AcDbLine
 10
196.8
 20
28.1018
 30
0
 11
197.2
 21
28.1106
 31
0
  0
LINE
  5
BF5
330
A02
100
AcDbEntity
  8
Shape001
100
AcDbLine
 10
197.2
 20
28.1106
 30
0
 11
197.6
 21
28.1187
 31
0
  0
LINE
  5
BF6
330
A02
100
AcDbEntity
  8
Shape001
100
AcDbLine
 10
197.6
 20
28.1187
 30
0
 11
198
 21
28.1262
 31
0
  0
LINE
  5
BF7
330
A02
100
AcDbEntity
  8
Shape001
100
AcDbLine
 10
198
 20
28.1262
 30
0
 11
198.4
 21
28.1329
 31
0
  0
LINE
  5
BF8
330
A02
100
AcDbEntity
  8
Shape001
100
AcDbLine
 10
198.4
 20
28.1329
 30
0
 11
198.8
 21
28.1389
 31
0
  0
LINE
  5
BF9
330
A02
100
AcDbEntity
  8
Shape001
100
AcDbLine
 10
198.8
 20
28.1389
 30
0
 11
199.2
 21
28.144
 31
0
  0
LINE
  5
BFA
330
A02
100
AcDbEntity
  8
Shape001
100
AcDbLine
 10
199.2
 20
28.144
 30
0
 11
199.6
 21
28.1479
 31
0
  0
LINE
  5
BFB
330
A02
100
AcDbEntity
  8
Shape001
100
AcDbLine
 10
199.6
 20
28.1479
 30
0
 11
200
 21
28.15
 31
0
  0
LINE
  5
BFC
330
A02
100
AcDbEntity
  8
Shape001
100
AcDbLine
 10
200
 20
28.15
 30
0
 11
200
 21
27.6
 31
0
  0
LINE
  5
BFD
330
A02
100
AcDbEntity
  8
Shape001
100
AcDbLine
 10
200
 20
27.6
 30
0
 11
270
 21
27.6
 31
0
  0
LINE
  5
BFE
330
A02
100
AcDbEntity
  8
Shape001
100
AcDbLine
 10
270
 20
27.6
 30
0
 11
270
 21
25.6
 31
0
  0
LINE
  5
BFF
330
A02
100
AcDbEntity
  8
Shape001
100
AcDbLine
 10
270
 20
25.6
 30
0
 11
200
 21
25.6
 31
0
  0
LINE
  5
C00
330
A02
100
AcDbEntity
  8
Shape001
100
AcDbLine
 10
200
 20
25.6
 30
0
 11
199.616
 21
25.6
 31
0
  0
LINE
  5
C01
330
A02
100
AcDbEntity
  8
Shape001
100
AcDbLine
 10
199.616
 20
25.6
 30
0
 11
199.232
 21
25.6
 31
0
  0
LINE
  5
C02
330
A02
100
AcDbEntity
  8
Shape001
100
AcDbLine
 10
199.232
 20
25.6
 30
0
 11
198.848
 21
25.6
 31
0
  0
LINE
  5
C03
330
A02
100
AcDbEntity
  8
Shape001
100
AcDbLine
 10
198.848
 20
25.6
 30
0
 11
198.464
 21
25.6
 31
0
  0
LINE
  5
C04
330
A02
100
AcDbEntity
  8
Shape001
100
AcDbLine
 10
198.464
 20
25.6
 30
0
 11
198.08
 21
25.6
 31
0
  0
LINE
  5
C05
330
A02
100
AcDbEntity
  8
Shape001
100
AcDbLine
 10
198.08
 20
25.6
 30
0
 11
197.696
 21
25.6
 31
0
  0
LINE
  5
C06
330
A02
100
AcDbEntity
  8
Shape001
100
AcDbLine
 10
197.696
 20
25.6
 30
0
 11
197.312
 21
25.6
 31
0
  0
LINE
  5
C07
330
A02
100
AcDbEntity
  8
Shape001
100
AcDbLine
 10
197.312
 20
25.6
 30
0
 11
196.928
 21
25.6
 31
0
  0
LINE
  5
C08
330
A02
100
AcDbEntity
  8
Shape001
100
AcDbLine
 10
196.928
 20
25.6
 30
0
 11
196.544
 21
25.6
 31
0
  0
LINE
  5
C09
330
A02
100
AcDbEntity
  8
Shape001
100
AcDbLine
 10
196.544
 20
25.6
 30
0
 11
196.16
 21
25.6
 31
0
  0
LINE
  5
C0A
330
A02
100
AcDbEntity
  8
Shape001
100
AcDbLine
 10
196.16
 20
25.6
 30
0
 11
195.776
 21
25.6
 31
0
  0
LINE
  5
C0B
330
A02
100
AcDbEntity
  8
Shape001
100
AcDbLine
 10
195.776
 20
25.6
 30
0
 11
195.392
 21
25.6
 31
0
  0
LINE
  5
C0C
330
A02
100
AcDbEntity
  8
Shape001
100
AcDbLine
 10
195.392
 20
25.6
 30
0
 11
195.008
 21
25.6
 31
0
  0
LINE
  5
C0D
330
A02
100
AcDbEntity
  8
Shape001
100
AcDbLine
 10
195.008
 20
25.6
 30
0
 11
194.624
 21
25.6
 31
0
  0
LINE
  5
C0E
330
A02
100
AcDbEntity
  8
Shape001
100
AcDbLine
 10
194.624
 20
25.6
 30
0
 11
194.24
 21
25.6
 31
0
  0
LINE
  5
C0F
330
A02
100
AcDbEntity
  8
Shape001
100
AcDbLine
 10
194.24
 20
25.6
 30
0
 11
193.856
 21
25.6
 31
0
  0
LINE
  5
C10
330
A02
100
AcDbEntity
  8
Shape001
100
AcDbLine
 10
193.856
 20
25.6
 30
0
 11
193.472
 21
25.6
 31
0
  0
LINE
  5
C11
330
A02
100
AcDbEntity
  8
Shape001
100
AcDbLine
 10
193.472
 20
25.6
 30
0
 11
193.088
 21
25.6
 31
0
  0
LINE
  5
C12
330
A02
100
AcDbEntity
  8
Shape001
100
AcDbLine
 10
193.088
 20
25.6
 30
0
 11
192.704
 21
25.6
 31
0
  0
LINE
  5
C13
330
A02
100
AcDbEntity
  8
Shape001
100
AcDbLine
 10
192.704
 20
25.6
 30
0
 11
192.32
 21
25.6
 31
0
  0
LINE
  5
C14
330
A02
100
AcDbEntity
  8
Shape001
100
AcDbLine
 10
192.32
 20
25.6
 30
0
 11
191.936
 21
25.6
 31
0
  0
LINE
  5
C15
330
A02
100
AcDbEntity
  8
Shape001
100
AcDbLine
 10
191.936
 20
25.6
 30
0
 11
191.552
 21
25.6
 31
0
  0
LINE
  5
C16
330
A02
100
AcDbEntity
  8
Shape001
100
AcDbLine
 10
191.552
 20
25.6
 30
0
 11
191.168
 21
25.6
 31
0
  0
LINE
  5
C17
330
A02
100
AcDbEntity
  8
Shape001
100
AcDbLine
 10
191.168
 20
25.6
 30
0
 11
190.784
 21
25.6
 31
0
  0
LINE
  5
C18
330
A02
100
AcDbEntity
  8
Shape001
100
AcDbLine
 10
190.784
 20
25.6
 30
0
 11
190.4
 21
25.6
 31
0
  0
LINE
  5
C19
330
A02
100
AcDbEntity
  8
Shape001
100
AcDbLine
 10
190.4
 20
25.6
 30
0
 11
190.016
 21
25.6
 31
0
  0
LINE
  5
C1A
330
A02
100
AcDbEntity
  8
Shape001
100
AcDbLine
 10
190.016
 20
25.6
 30
0
 11
189.632
 21
25.6
 31
0
  0
LINE
  5
C1B
330
A02
100
AcDbEntity
  8
Shape001
100
AcDbLine
 10
189.632
 20
25.6
 30
0
 11
189.248
 21
25.6
 31
0
  0
LINE
  5
C1C
330
A02
100
AcDbEntity
  8
Shape001
100
AcDbLine
 10
189.248
 20
25.6
 30
0
 11
188.864
 21
25.6
 31
0
  0
LINE
  5
C1D
330
A02
100
AcDbEntity
  8
Shape001
100
AcDbLine
 10
188.864
 20
25.6
 30
0
 11
188.48
 21
25.6
 31
0
  0
LINE
  5
C1E
330
A02
100
AcDbEntity
  8
Shape001
100
AcDbLine
 10
188.48
 20
25.6
 30
0
 11
188.096
 21
25.6
 31
0
  0
LINE
  5
C1F
330
A02
100
AcDbEntity
  8
Shape001
100
AcDbLine
 10
188.096
 20
25.6
 30
0
 11
187.712
 21
25.6
 31
0
  0
LINE
  5
C20
330
A02
100
AcDbEntity
  8
Shape001
100
AcDbLine
 10
187.712
 20
25.6
 30
0
 11
187.328
 21
25.6
 31
0
  0
LINE
  5
C21
330
A02
100
AcDbEntity
  8
Shape001
100
AcDbLine
 10
187.328
 20
25.6
 30
0
 11
186.944
 21
25.6
 31
0
  0
LINE
  5
C22
330
A02
100
AcDbEntity
  8
Shape001
100
AcDbLine
 10
186.944
 20
25.6
 30
0
 11
186.56
 21
25.6
 31
0
  0
LINE
  5
C23
330
A02
100
AcDbEntity
  8
Shape001
100
AcDbLine
 10
186.56
 20
25.6
 30
0
 11
186.176
 21
25.6
 31
0
  0
LINE
  5
C24
330
A02
100
AcDbEntity
  8
Shape001
100
AcDbLine
 10
186.176
 20
25.6
 30
0
 11
185.792
 21
25.6
 31
0
  0
LINE
  5
C25
330
A02
100
AcDbEntity
  8
Shape001
100
AcDbLine
 10
185.792
 20
25.6
 30
0
 11
185.408
 21
25.6
 31
0
  0
LINE
  5
C26
330
A02
100
AcDbEntity
  8
Shape001
100
AcDbLine
 10
185.408
 20
25.6
 30
0
 11
185.024
 21
25.6
 31
0
  0
LINE
  5
C27
330
A02
100
AcDbEntity
  8
Shape001
100
AcDbLine
 10
185.024
 20
25.6
 30
0
 11
184.64
 21
25.6
 31
0
  0
LINE
  5
C28
330
A02
100
AcDbEntity
  8
Shape001
100
AcDbLine
 10
184.64
 20
25.6
 30
0
 11
184.256
 21
25.6
 31
0
  0
LINE
  5
C29
330
A02
100
AcDbEntity
  8
Shape001
100
AcDbLine
 10
184.256
 20
25.6
 30
0
 11
183.872
 21
25.6
 31
0
  0
LINE
  5
C2A
330
A02
100
AcDbEntity
  8
Shape001
100
AcDbLine
 10
183.872
 20
25.6
 30
0
 11
183.488
 21
25.5991
 31
0
  0
LINE
  5
C2B
330
A02
100
AcDbEntity
  8
Shape001
100
AcDbLine
 10
183.488
 20
25.5991
 30
0
 11
183.104
 21
25.5799
 31
0
  0
LINE
  5
C2C
330
A02
100
AcDbEntity
  8
Shape001
100
AcDbLine
 10
183.104
 20
25.5799
 30
0
 11
182.72
 21
25.5605
 31
0
  0
LINE
  5
C2D
330
A02
100
AcDbEntity
  8
Shape001
100
AcDbLine
 10
182.72
 20
25.5605
 30
0
 11
182.336
 21
25.5409
 31
0
  0
LINE
  5
C2E
330
A02
100
AcDbEntity
  8
Shape001
100
AcDbLine
 10
182.336
 20
25.5409
 30
0
 11
181.952
 21
25.5211
 31
0
  0
LINE
  5
C2F
330
A02
100
AcDbEntity
  8
Shape001
100
AcDbLine
 10
181.952
 20
25.5211
 30
0
 11
181.568
 21
25.5011
 31
0
  0
LINE
  5
C30
330
A02
100
AcDbEntity
  8
Shape001
100
AcDbLine
 10
181.568
 20
25.5011
 30
0
 11
181.184
 21
25.4809
 31
0
  0
LINE
  5
C31
330
A02
100
AcDbEntity
  8
Shape001
100
AcDbLine
 10
181.184
 20
25.4809
 30
0
 11
180.8
 21
25.4604
 31
0
  0
LINE
  5
C32
330
A02
100
AcDbEntity
  8
Shape001
100
AcDbLine
 10
180.8
 20
25.4604
 30
0
 11
180.416
 21
25.4398
 31
0
  0
LINE
  5
C33
330
A02
100
AcDbEntity
  8
Shape001
100
AcDbLine
 10
180.416
 20
25.4398
 30
0
 11
180.032
 21
25.419
 31
0
  0
LINE
  5
C34
330
A02
100
AcDbEntity
  8
Shape001
100
AcDbLine
 10
180.032
 20
25.419
 30
0
 11
179.648
 21
25.398
 31
0
  0
LINE
  5
C35
330
A02
100
AcDbEntity
  8
Shape001
100
AcDbLine
 10
179.648
 20
25.398
 30
0
 11
179.264
 21
25.3768
 31
0
  0
LINE
  5
C36
330
A02
100
AcDbEntity
  8
Shape001
100
AcDbLine
 10
179.264
 20
25.3768
 30
0
 11
178.88
 21
25.3554
 31
0
  0
LINE
  5
C37
330
A02
100
AcDbEntity
  8
Shape001
100
AcDbLine
 10
178.88
 20
25.3554
 30
0
 11
178.496
 21
25.3338
 31
0
  0
LINE
  5
C38
330
A02
100
AcDbEntity
  8
Shape001
100
AcDbLine
 10
178.496
 20
25.3338
 30
0
 11
178.112
 21
25.312
 31
0
  0
LINE
  5
C39
330
A02
100
AcDbEntity
  8
Shape001
100
AcDbLine
 10
178.112
 20
25.312
 30
0
 11
177.728
 21
25.2901
 31
0
  0
LINE
  5
C3A
330
A02
100
AcDbEntity
  8
Shape001
100
AcDbLine
 10
177.728
 20
25.2901
 30
0
 11
177.344
 21
25.2679
 31
0
  0
LINE
  5
C3B
330
A02
100
AcDbEntity
  8
Shape001
100
AcDbLine
 10
177.344
 20
25.2679
 30
0
 11
176.96
 21
25.2456
 31
0
  0
LINE
  5
C3C
330
A02
100
AcDbEntity
  8
Shape001
100
AcDbLine
 10
176.96
 20
25.2456
 30
0
 11
176.576
 21
25.2231
 31
0
  0
LINE
  5
C3D
330
A02
100
AcDbEntity
  8
Shape001
100
AcDbLine
 10
176.576
 20
25.2231
 30
0
 11
176.192
 21
25.2004
 31
0
  0
LINE
  5
C3E
330
A02
100
AcDbEntity
  8
Shape001
100
AcDbLine
 10
176.192
 20
25.2004
 30
0
 11
175.808
 21
25.1776
 31
0
  0
LINE
  5
C3F
330
A02
100
AcDbEntity
  8
Shape001
100
AcDbLine
 10
175.808
 20
25.1776
 30
0
 11
175.424
 21
25.1545
 31
0
  0
LINE
  5
C40
330
A02
100
AcDbEntity
  8
Shape001
100
AcDbLine
 10
175.424
 20
25.1545
 30
0
 11
175.04
 21
25.1313
 31
0
  0
LINE
  5
C41
330
A02
100
AcDbEntity
  8
Shape001
100
AcDbLine
 10
175.04
 20
25.1313
 30
0
 11
174.656
 21
25.1079
 31
0
  0
LINE
  5
C42
330
A02
100
AcDbEntity
  8
Shape001
100
AcDbLine
 10
174.656
 20
25.1079
 30
0
 11
174.272
 21
25.0844
 31
0
  0
LINE
  5
C43
330
A02
100
AcDbEntity
  8
Shape001
100
AcDbLine
 10
174.272
 20
25.0844
 30
0
 11
173.888
 21
25.0606
 31
0
  0
LINE
  5
C44
330
A02
100
AcDbEntity
  8
Shape001
100
AcDbLine
 10
173.888
 20
25.0606
 30
0
 11
173.504
 21
25.0367
 31
0
  0
LINE
  5
C45
330
A02
100
AcDbEntity
  8
Shape001
100
AcDbLine
 10
173.504
 20
25.0367
 30
0
 11
173.12
 21
25.0127
 31
0
  0
LINE
  5
C46
330
A02
100
AcDbEntity
  8
Shape001
100
AcDbLine
 10
173.12
 20
25.0127
 30
0
 11
172.736
 21
24.9884
 31
0
  0
LINE
  5
C47
330
A02
100
AcDbEntity
  8
Shape001
100
AcDbLine
 10
172.736
 20
24.9884
 30
0
 11
172.352
 21
24.964
 31
0
  0
LINE
  5
C48
330
A02
100
AcDbEntity
  8
Shape001
100
AcDbLine
 10
172.352
 20
24.964
 30
0
 11
171.968
 21
24.9394
 31
0
  0
LINE
  5
C49
330
A02
100
AcDbEntity
  8
Shape001
100
AcDbLine
 10
171.968
 20
24.9394
 30
0
 11
171.584
 21
24.9147
 31
0
  0
LINE
  5
C4A
330
A02
100
AcDbEntity
  8
Shape001
100
AcDbLine
 10
171.584
 20
24.9147
 30
0
 11
171.2
 21
24.8898
 31
0
  0
LINE
  5
C4B
330
A02
100
AcDbEntity
  8
Shape001
100
AcDbLine
 10
171.2
 20
24.8898
 30
0
 11
170.816
 21
24.8647
 31
0
  0
LINE
  5
C4C
330
A02
100
AcDbEntity
  8
Shape001
100
AcDbLine
 10
170.816
 20
24.8647
 30
0
 11
170.432
 21
24.8395
 31
0
  0
LINE
  5
C4D
330
A02
100
AcDbEntity
  8
Shape001
100
AcDbLine
 10
170.432
 20
24.8395
 30
0
 11
170.048
 21
24.8141
 31
0
  0
LINE
  5
C4E
330
A02
100
AcDbEntity
  8
Shape001
100
AcDbLine
 10
170.048
 20
24.8141
 30
0
 11
169.664
 21
24.7886
 31
0
  0
LINE
  5
C4F
330
A02
100
AcDbEntity
  8
Shape001
100
AcDbLine
 10
169.664
 20
24.7886
 30
0
 11
169.28
 21
24.7629
 31
0
  0
LINE
  5
C50
330
A02
100
AcDbEntity
  8
Shape001
100
AcDbLine
 10
169.28
 20
24.7629
 30
0
 11
168.896
 21
24.737
 31
0
  0
LINE
  5
C51
330
A02
100
AcDbEntity
  8
Shape001
100
AcDbLine
 10
168.896
 20
24.737
 30
0
 11
168.512
 21
24.711
 31
0
  0
LINE
  5
C52
330
A02
100
AcDbEntity
  8
Shape001
100
AcDbLine
 10
168.512
 20
24.711
 30
0
 11
168.128
 21
24.6848
 31
0
  0
LINE
  5
C53
330
A02
100
AcDbEntity
  8
Shape001
100
AcDbLine
 10
168.128
 20
24.6848
 30
0
 11
167.744
 21
24.6585
 31
0
  0
LINE
  5
C54
330
A02
100
AcDbEntity
  8
Shape001
100
AcDbLine
 10
167.744
 20
24.6585
 30
0
 11
167.36
 21
24.632
 31
0
  0
LINE
  5
C55
330
A02
100
AcDbEntity
  8
Shape001
100
AcDbLine
 10
167.36
 20
24.632
 30
0
 11
166.976
 21
24.6054
 31
0
  0
LINE
  5
C56
330
A02
100
AcDbEntity
  8
Shape001
100
AcDbLine
 10
166.976
 20
24.6054
 30
0
 11
166.592
 21
24.5786
 31
0
  0
LINE
  5
C57
330
A02
100
AcDbEntity
  8
Shape001
100
AcDbLine
 10
166.592
 20
24.5786
 30
0
 11
166.208
 21
24.5517
 31
0
  0
LINE
  5
C58
330
A02
100
AcDbEntity
  8
Shape001
100
AcDbLine
 10
166.208
 20
24.5517
 30
0
 11
165.824
 21
24.5246
 31
0
  0
LINE
  5
C59
330
A02
100
AcDbEntity
  8
Shape001
100
AcDbLine
 10
165.824
 20
24.5246
 30
0
 11
165.44
 21
24.4974
 31
0
  0
LINE
  5
C5A
330
A02
100
AcDbEntity
  8
Shape001
100
AcDbLine
 10
165.44
 20
24.4974
 30
0
 11
165.056
 21
24.47
 31
0
  0
LINE
  5
C5B
330
A02
100
AcDbEntity
  8
Shape001
100
AcDbLine
 10
165.056
 20
24.47
 30
0
 11
164.672
 21
24.4425
 31
0
  0
LINE
  5
C5C
330
A02
100
AcDbEntity
  8
Shape001
100
AcDbLine
 10
164.672
 20
24.4425
 30
0
 11
164.288
 21
24.4148
 31
0
  0
LINE
  5
C5D
330
A02
100
AcDbEntity
  8
Shape001
100
AcDbLine
 10
164.288
 20
24.4148
 30
0
 11
163.904
 21
24.3869
 31
0
  0
LINE
  5
C5E
330
A02
100
AcDbEntity
  8
Shape001
100
AcDbLine
 10
163.904
 20
24.3869
 30
0
 11
163.52
 21
24.359
 31
0
  0
LINE
  5
C5F
330
A02
100
AcDbEntity
  8
Shape001
100
AcDbLine
 10
163.52
 20
24.359
 30
0
 11
163.136
 21
24.3309
 31
0
  0
LINE
  5
C60
330
A02
100
AcDbEntity
  8
Shape001
100
AcDbLine
 10
163.136
 20
24.3309
 30
0
 11
162.752
 21
24.3026
 31
0
  0
LINE
  5
C61
330
A02
100
AcDbEntity
  8
Shape001
100
AcDbLine
 10
162.752
 20
24.3026
 30
0
 11
162.368
 21
24.2742
 31
0
  0
LINE
  5
C62
330
A02
100
AcDbEntity
  8
Shape001
100
AcDbLine
 10
162.368
 20
24.2742
 30
0
 11
161.984
 21
24.2456
 31
0
  0
LINE
  5
C63
330
A02
100
AcDbEntity
  8
Shape001
100
AcDbLine
 10
161.984
 20
24.2456
 30
0
 11
161.6
 21
24.217
 31
0
  0
LINE
  5
C64
330
A02
100
AcDbEntity
  8
Shape001
100
AcDbLine
 10
161.6
 20
24.217
 30
0
 11
161.216
 21
24.1881
 31
0
  0
LINE
  5
C65
330
A02
100
AcDbEntity
  8
Shape001
100
AcDbLine
 10
161.216
 20
24.1881
 30
0
 11
160.832
 21
24.1591
 31
0
  0
LINE
  5
C66
330
A02
100
AcDbEntity
  8
Shape001
100
AcDbLine
 10
160.832
 20
24.1591
 30
0
 11
160.448
 21
24.13
 31
0
  0
LINE
  5
C67
330
A02
100
AcDbEntity
  8
Shape001
100
AcDbLine
 10
160.448
 20
24.13
 30
0
 11
160.064
 21
24.1008
 31
0
  0
LINE
  5
C68
330
A02
100
AcDbEntity
  8
Shape001
100
AcDbLine
 10
160.064
 20
24.1008
 30
0
 11
159.68
 21
24.0714
 31
0
  0
LINE
  5
C69
330
A02
100
AcDbEntity
  8
Shape001
100
AcDbLine
 10
159.68
 20
24.0714
 30
0
 11
159.296
 21
24.0418
 31
0
  0
LINE
  5
C6A
330
A02
100
AcDbEntity
  8
Shape001
100
AcDbLine
 10
159.296
 20
24.0418
 30
0
 11
158.912
 21
24.0122
 31
0
  0
LINE
  5
C6B
330
A02
100
AcDbEntity
  8
Shape001
100
AcDbLine
 10
158.912
 20
24.0122
 30
0
 11
158.528
 21
23.9824
 31
0
  0
LINE
  5
C6C
330
A02
100
AcDbEntity
  8
Shape001
100
AcDbLine
 10
158.528
 20
23.9824
 30
0
 11
158.144
 21
23.9524
 31
0
  0
LINE
  5
C6D
330
A02
100
AcDbEntity
  8
Shape001
100
AcDbLine
 10
158.144
 20
23.9524
 30
0
 11
157.76
 21
23.9223
 31
0
  0
LINE
  5
C6E
330
A02
100
AcDbEntity
  8
Shape001
100
AcDbLine
 10
157.76
 20
23.9223
 30
0
 11
157.376
 21
23.8921
 31
0
  0
LINE
  5
C6F
330
A02
100
AcDbEntity
  8
Shape001
100
AcDbLine
 10
157.376
 20
23.8921
 30
0
 11
156.992
 21
23.8617
 31
0
  0
LINE
  5
C70
330
A02
100
AcDbEntity
  8
Shape001
100
AcDbLine
 10
156.992
 20
23.8617
 30
0
 11
156.608
 21
23.8313
 31
0
  0
LINE
  5
C71
330
A02
100
AcDbEntity
  8
Shape001
100
AcDbLine
 10
156.608
 20
23.8313
 30
0
 11
156.224
 21
23.8006
 31
0
  0
LINE
  5
C72
330
A02
100
AcDbEntity
  8
Shape001
100
AcDbLine
 10
156.224
 20
23.8006
 30
0
 11
155.84
 21
23.7699
 31
0
  0
LINE
  5
C73
330
A02
100
AcDbEntity
  8
Shape001
100
AcDbLine
 10
155.84
 20
23.7699
 30
0
 11
155.456
 21
23.739
 31
0
  0
LINE
  5
C74
330
A02
100
AcDbEntity
  8
Shape001
100
AcDbLine
 10
155.456
 20
23.739
 30
0
 11
155.072
 21
23.7079
 31
0
  0
LINE
  5
C75
330
A02
100
AcDbEntity
  8
Shape001
100
AcDbLine
 10
155.072
 20
23.7079
 30
0
 11
154.688
 21
23.6768
 31
0
  0
LINE
  5
C76
330
A02
100
AcDbEntity
  8
Shape001
100
AcDbLine
 10
154.688
 20
23.6768
 30
0
 11
154.304
 21
23.6455
 31
0
  0
LINE
  5
C77
330
A02
100
AcDbEntity
  8
Shape001
100
AcDbLine
 10
154.304
 20
23.6455
 30
0
 11
153.92
 21
23.6141
 31
0
  0
LINE
  5
C78
330
A02
100
AcDbEntity
  8
Shape001
100
AcDbLine
 10
153.92
 20
23.6141
 30
0
 11
153.536
 21
23.5825
 31
0
  0
LINE
  5
C79
330
A02
100
AcDbEntity
  8
Shape001
100
AcDbLine
 10
153.536
 20
23.5825
 30
0
 11
153.152
 21
23.5508
 31
0
  0
LINE
  5
C7A
330
A02
100
AcDbEntity
  8
Shape001
100
AcDbLine
 10
153.152
 20
23.5508
 30
0
 11
152.768
 21
23.519
 31
0
  0
LINE
  5
C7B
330
A02
100
AcDbEntity
  8
Shape001
100
AcDbLine
 10
152.768
 20
23.519
 30
0
 11
152.384
 21
23.487
 31
0
  0
LINE
  5
C7C
330
A02
100
AcDbEntity
  8
Shape001
100
AcDbLine
 10
152.384
 20
23.487
 30
0
 11
152
 21
23.4549
 31
0
  0
LINE
  5
C7D
330
A02
100
AcDbEntity
  8
Shape001
100
AcDbLine
 10
152
 20
23.4549
 30
0
 11
151.616
 21
23.4227
 31
0
  0
LINE
  5
C7E
330
A02
100
AcDbEntity
  8
Shape001
100
AcDbLine
 10
151.616
 20
23.4227
 30
0
 11
151.232
 21
23.3904
 31
0
  0
LINE
  5
C7F
330
A02
100
AcDbEntity
  8
Shape001
100
AcDbLine
 10
151.232
 20
23.3904
 30
0
 11
150.848
 21
23.3579
 31
0
  0
LINE
  5
C80
330
A02
100
AcDbEntity
  8
Shape001
100
AcDbLine
 10
150.848
 20
23.3579
 30
0
 11
150.464
 21
23.3253
 31
0
  0
LINE
  5
C81
330
A02
100
AcDbEntity
  8
Shape001
100
AcDbLine
 10
150.464
 20
23.3253
 30
0
 11
150.08
 21
23.2926
 31
0
  0
LINE
  5
C82
330
A02
100
AcDbEntity
  8
Shape001
100
AcDbLine
 10
150.08
 20
23.2926
 30
0
 11
149.696
 21
23.2597
 31
0
  0
LINE
  5
C83
330
A02
100
AcDbEntity
  8
Shape001
100
AcDbLine
 10
149.696
 20
23.2597
 30
0
 11
149.312
 21
23.2268
 31
0
  0
LINE
  5
C84
330
A02
100
AcDbEntity
  8
Shape001
100
AcDbLine
 10
149.312
 20
23.2268
 30
0
 11
148.928
 21
23.1936
 31
0
  0
LINE
  5
C85
330
A02
100
AcDbEntity
  8
Shape001
100
AcDbLine
 10
148.928
 20
23.1936
 30
0
 11
148.544
 21
23.1604
 31
0
  0
LINE
  5
C86
330
A02
100
AcDbEntity
  8
Shape001
100
AcDbLine
 10
148.544
 20
23.1604
 30
0
 11
148.16
 21
23.127
 31
0
  0
LINE
  5
C87
330
A02
100
AcDbEntity
  8
Shape001
100
AcDbLine
 10
148.16
 20
23.127
 30
0
 11
147.776
 21
23.0935
 31
0
  0
LINE
  5
C88
330
A02
100
AcDbEntity
  8
Shape001
100
AcDbLine
 10
147.776
 20
23.0935
 30
0
 11
147.392
 21
23.0599
 31
0
  0
LINE
  5
C89
330
A02
100
AcDbEntity
  8
Shape001
100
AcDbLine
 10
147.392
 20
23.0599
 30
0
 11
147.008
 21
23.0262
 31
0
  0
LINE
  5
C8A
330
A02
100
AcDbEntity
  8
Shape001
100
AcDbLine
 10
147.008
 20
23.0262
 30
0
 11
146.624
 21
22.9923
 31
0
  0
LINE
  5
C8B
330
A02
100
AcDbEntity
  8
Shape001
100
AcDbLine
 10
146.624
 20
22.9923
 30
0
 11
146.24
 21
22.9583
 31
0
  0
LINE
  5
C8C
330
A02
100
AcDbEntity
  8
Shape001
100
AcDbLine
 10
146.24
 20
22.9583
 30
0
 11
145.856
 21
22.9242
 31
0
  0
LINE
  5
C8D
330
A02
100
AcDbEntity
  8
Shape001
100
AcDbLine
 10
145.856
 20
22.9242
 30
0
 11
145.472
 21
22.89
 31
0
  0
LINE
  5
C8E
330
A02
100
AcDbEntity
  8
Shape001
100
AcDbLine
 10
145.472
 20
22.89
 30
0
 11
145.088
 21
22.8556
 31
0
  0
LINE
  5
C8F
330
A02
100
AcDbEntity
  8
Shape001
100
AcDbLine
 10
145.088
 20
22.8556
 30
0
 11
144.704
 21
22.8211
 31
0
  0
LINE
  5
C90
330
A02
100
AcDbEntity
  8
Shape001
100
AcDbLine
 10
144.704
 20
22.8211
 30
0
 11
144.32
 21
22.7865
 31
0
  0
LINE
  5
C91
330
A02
100
AcDbEntity
  8
Shape001
100
AcDbLine
 10
144.32
 20
22.7865
 30
0
 11
143.936
 21
22.7518
 31
0
  0
LINE
  5
C92
330
A02
100
AcDbEntity
  8
Shape001
100
AcDbLine
 10
143.936
 20
22.7518
 30
0
 11
143.552
 21
22.7169
 31
0
  0
LINE
  5
C93
330
A02
100
AcDbEntity
  8
Shape001
100
AcDbLine
 10
143.552
 20
22.7169
 30
0
 11
143.168
 21
22.6819
 31
0
  0
LINE
  5
C94
330
A02
100
AcDbEntity
  8
Shape001
100
AcDbLine
 10
143.168
 20
22.6819
 30
0
 11
142.784
 21
22.6468
 31
0
  0
LINE
  5
C95
330
A02
100
AcDbEntity
  8
Shape001
100
AcDbLine
 10
142.784
 20
22.6468
 30
0
 11
142.4
 21
22.6116
 31
0
  0
LINE
  5
C96
330
A02
100
AcDbEntity
  8
Shape001
100
AcDbLine
 10
142.4
 20
22.6116
 30
0
 11
142.016
 21
22.5762
 31
0
  0
LINE
  5
C97
330
A02
100
AcDbEntity
  8
Shape001
100
AcDbLine
 10
142.016
 20
22.5762
 30
0
 11
141.632
 21
22.5407
 31
0
  0
LINE
  5
C98
330
A02
100
AcDbEntity
  8
Shape001
100
AcDbLine
 10
141.632
 20
22.5407
 30
0
 11
141.248
 21
22.5052
 31
0
  0
LINE
  5
C99
330
A02
100
AcDbEntity
  8
Shape001
100
AcDbLine
 10
141.248
 20
22.5052
 30
0
 11
140.864
 21
22.4694
 31
0
  0
LINE
  5
C9A
330
A02
100
AcDbEntity
  8
Shape001
100
AcDbLine
 10
140.864
 20
22.4694
 30
0
 11
140.48
 21
22.4336
 31
0
  0
LINE
  5
C9B
330
A02
100
AcDbEntity
  8
Shape001
100
AcDbLine
 10
140.48
 20
22.4336
 30
0
 11
140.096
 21
22.3976
 31
0
  0
LINE
  5
C9C
330
A02
100
AcDbEntity
  8
Shape001
100
AcDbLine
 10
140.096
 20
22.3976
 30
0
 11
139.712
 21
22.3616
 31
0
  0
LINE
  5
C9D
330
A02
100
AcDbEntity
  8
Shape001
100
AcDbLine
 10
139.712
 20
22.3616
 30
0
 11
139.328
 21
22.3254
 31
0
  0
LINE
  5
C9E
330
A02
100
AcDbEntity
  8
Shape001
100
AcDbLine
 10
139.328
 20
22.3254
 30
0
 11
138.944
 21
22.289
 31
0
  0
LINE
  5
C9F
330
A02
100
AcDbEntity
  8
Shape001
100
AcDbLine
 10
138.944
 20
22.289
 30
0
 11
138.56
 21
22.2526
 31
0
  0
LINE
  5
CA0
330
A02
100
AcDbEntity
  8
Shape001
100
AcDbLine
 10
138.56
 20
22.2526
 30
0
 11
138.176
 21
22.216
 31
0
  0
LINE
  5
CA1
330
A02
100
AcDbEntity
  8
Shape001
100
AcDbLine
 10
138.176
 20
22.216
 30
0
 11
137.792
 21
22.1793
 31
0
  0
LINE
  5
CA2
330
A02
100
AcDbEntity
  8
Shape001
100
AcDbLine
 10
137.792
 20
22.1793
 30
0
 11
137.408
 21
22.1425
 31
0
  0
LINE
  5
CA3
330
A02
100
AcDbEntity
  8
Shape001
100
AcDbLine
 10
137.408
 20
22.1425
 30
0
 11
137.024
 21
22.1056
 31
0
  0
LINE
  5
CA4
330
A02
100
AcDbEntity
  8
Shape001
100
AcDbLine
 10
137.024
 20
22.1056
 30
0
 11
136.64
 21
22.0686
 31
0
  0
LINE
  5
CA5
330
A02
100
AcDbEntity
  8
Shape001
100
AcDbLine
 10
136.64
 20
22.0686
 30
0
 11
136.256
 21
22.0314
 31
0
  0
LINE
  5
CA6
330
A02
100
AcDbEntity
  8
Shape001
100
AcDbLine
 10
136.256
 20
22.0314
 30
0
 11
135.872
 21
21.9941
 31
0
  0
LINE
  5
CA7
330
A02
100
AcDbEntity
  8
Shape001
100
AcDbLine
 10
135.872
 20
21.9941
 30
0
 11
135.488
 21
21.9567
 31
0
  0
LINE
  5
CA8
330
A02
100
AcDbEntity
  8
Shape001
100
AcDbLine
 10
135.488
 20
21.9567
 30
0
 11
135.104
 21
21.9192
 31
0
  0
LINE
  5
CA9
330
A02
100
AcDbEntity
  8
Shape001
100
AcDbLine
 10
135.104
 20
21.9192
 30
0
 11
134.72
 21
21.8816
 31
0
  0
LINE
  5
CAA
330
A02
100
AcDbEntity
  8
Shape001
100
AcDbLine
 10
134.72
 20
21.8816
 30
0
 11
134.336
 21
21.8438
 31
0
  0
LINE
  5
CAB
330
A02
100
AcDbEntity
  8
Shape001
100
AcDbLine
 10
134.336
 20
21.8438
 30
0
 11
133.952
 21
21.8059
 31
0
  0
LINE
  5
CAC
330
A02
100
AcDbEntity
  8
Shape001
100
AcDbLine
 10
133.952
 20
21.8059
 30
0
 11
133.568
 21
21.7679
 31
0
  0
LINE
  5
CAD
330
A02
100
AcDbEntity
  8
Shape001
100
AcDbLine
 10
133.568
 20
21.7679
 30
0
 11
133.184
 21
21.7298
 31
0
  0
LINE
  5
CAE
330
A02
100
AcDbEntity
  8
Shape001
100
AcDbLine
 10
133.184
 20
21.7298
 30
0
 11
132.8
 21
21.6916
 31
0
  0
LINE
  5
CAF
330
A02
100
AcDbEntity
  8
Shape001
100
AcDbLine
 10
132.8
 20
21.6916
 30
0
 11
132.416
 21
21.6532
 31
0
  0
LINE
  5
CB0
330
A02
100
AcDbEntity
  8
Shape001
100
AcDbLine
 10
132.416
 20
21.6532
 30
0
 11
132.032
 21
21.6148
 31
0
  0
LINE
  5
CB1
330
A02
100
AcDbEntity
  8
Shape001
100
AcDbLine
 10
132.032
 20
21.6148
 30
0
 11
131.648
 21
21.5762
 31
0
  0
LINE
  5
CB2
330
A02
100
AcDbEntity
  8
Shape001
100
AcDbLine
 10
131.648
 20
21.5762
 30
0
 11
131.264
 21
21.5375
 31
0
  0
LINE
  5
CB3
330
A02
100
AcDbEntity
  8
Shape001
100
AcDbLine
 10
131.264
 20
21.5375
 30
0
 11
130.88
 21
21.4987
 31
0
  0
LINE
  5
CB4
330
A02
100
AcDbEntity
  8
Shape001
100
AcDbLine
 10
130.88
 20
21.4987
 30
0
 11
130.496
 21
21.4597
 31
0
  0
LINE
  5
CB5
330
A02
100
AcDbEntity
  8
Shape001
100
AcDbLine
 10
130.496
 20
21.4597
 30
0
 11
130.112
 21
21.4207
 31
0
  0
LINE
  5
CB6
330
A02
100
AcDbEntity
  8
Shape001
100
AcDbLine
 10
130.112
 20
21.4207
 30
0
 11
129.728
 21
21.3815
 31
0
  0
LINE
  5
CB7
330
A02
100
AcDbEntity
  8
Shape001
100
AcDbLine
 10
129.728
 20
21.3815
 30
0
 11
129.344
 21
21.3422
 31
0
  0
LINE
  5
CB8
330
A02
100
AcDbEntity
  8
Shape001
100
AcDbLine
 10
129.344
 20
21.3422
 30
0
 11
128.96
 21
21.3028
 31
0
  0
LINE
  5
CB9
330
A02
100
AcDbEntity
  8
Shape001
100
AcDbLine
 10
128.96
 20
21.3028
 30
0
 11
128.576
 21
21.2633
 31
0
  0
LINE
  5
CBA
330
A02
100
AcDbEntity
  8
Shape001
100
AcDbLine
 10
128.576
 20
21.2633
 30
0
 11
128.192
 21
21.2236
 31
0
  0
LINE
  5
CBB
330
A02
100
AcDbEntity
  8
Shape001
100
AcDbLine
 10
128.192
 20
21.2236
 30
0
 11
127.808
 21
21.1839
 31
0
  0
LINE
  5
CBC
330
A02
100
AcDbEntity
  8
Shape001
100
AcDbLine
 10
127.808
 20
21.1839
 30
0
 11
127.424
 21
21.144
 31
0
  0
LINE
  5
CBD
330
A02
100
AcDbEntity
  8
Shape001
100
AcDbLine
 10
127.424
 20
21.144
 30
0
 11
127.04
 21
21.104
 31
0
  0
LINE
  5
CBE
330
A02
100
AcDbEntity
  8
Shape001
100
AcDbLine
 10
127.04
 20
21.104
 30
0
 11
126.656
 21
21.0639
 31
0
  0
LINE
  5
CBF
330
A02
100
AcDbEntity
  8
Shape001
100
AcDbLine
 10
126.656
 20
21.0639
 30
0
 11
126.272
 21
21.0237
 31
0
  0
LINE
  5
CC0
330
A02
100
AcDbEntity
  8
Shape001
100
AcDbLine
 10
126.272
 20
21.0237
 30
0
 11
125.888
 21
20.9833
 31
0
  0
LINE
  5
CC1
330
A02
100
AcDbEntity
  8
Shape001
100
AcDbLine
 10
125.888
 20
20.9833
 30
0
 11
125.504
 21
20.9429
 31
0
  0
LINE
  5
CC2
330
A02
100
AcDbEntity
  8
Shape001
100
AcDbLine
 10
125.504
 20
20.9429
 30
0
 11
125.12
 21
20.9023
 31
0
  0
LINE
  5
CC3
330
A02
100
AcDbEntity
  8
Shape001
100
AcDbLine
 10
125.12
 20
20.9023
 30
0
 11
124.736
 21
20.8616
 31
0
  0
LINE
  5
CC4
330
A02
100
AcDbEntity
  8
Shape001
100
AcDbLine
 10
124.736
 20
20.8616
 30
0
 11
124.352
 21
20.8208
 31
0
  0
LINE
  5
CC5
330
A02
100
AcDbEntity
  8
Shape001
100
AcDbLine
 10
124.352
 20
20.8208
 30
0
 11
123.968
 21
20.7799
 31
0
  0
LINE
  5
CC6
330
A02
100
AcDbEntity
  8
Shape001
100
AcDbLine
 10
123.968
 20
20.7799
 30
0
 11
123.584
 21
20.7388
 31
0
  0
LINE
  5
CC7
330
A02
100
AcDbEntity
  8
Shape001
100
AcDbLine
 10
123.584
 20
20.7388
 30
0
 11
123.2
 21
20.6977
 31
0
  0
LINE
  5
CC8
330
A02
100
AcDbEntity
  8
Shape001
100
AcDbLine
 10
123.2
 20
20.6977
 30
0
 11
122.816
 21
20.6564
 31
0
  0
LINE
  5
CC9
330
A02
100
AcDbEntity
  8
Shape001
100
AcDbLine
 10
122.816
 20
20.6564
 30
0
 11
122.432
 21
20.615
 31
0
  0
LINE
  5
CCA
330
A02
100
AcDbEntity
  8
Shape001
100
AcDbLine
 10
122.432
 20
20.615
 30
0
 11
122.048
 21
20.5735
 31
0
  0
LINE
  5
CCB
330
A02
100
AcDbEntity
  8
Shape001
100
AcDbLine
 10
122.048
 20
20.5735
 30
0
 11
121.664
 21
20.5319
 31
0
  0
LINE
  5
CCC
330
A02
100
AcDbEntity
  8
Shape001
100
AcDbLine
 10
121.664
 20
20.5319
 30
0
 11
121.28
 21
20.4902
 31
0
  0
LINE
  5
CCD
330
A02
100
AcDbEntity
  8
Shape001
100
AcDbLine
 10
121.28
 20
20.4902
 30
0
 11
120.896
 21
20.4483
 31
0
  0
LINE
  5
CCE
330
A02
100
AcDbEntity
  8
Shape001
100
AcDbLine
 10
120.896
 20
20.4483
 30
0
 11
120.512
 21
20.4063
 31
0
  0
LINE
  5
CCF
330
A02
100
AcDbEntity
  8
Shape001
100
AcDbLine
 10
120.512
 20
20.4063
 30
0
 11
120.128
 21
20.3642
 31
0
  0
LINE
  5
CD0
330
A02
100
AcDbEntity
  8
Shape001
100
AcDbLine
 10
120.128
 20
20.3642
 30
0
 11
119.744
 21
20.322
 31
0
  0
LINE
  5
CD1
330
A02
100
AcDbEntity
  8
Shape001
100
AcDbLine
 10
119.744
 20
20.322
 30
0
 11
119.36
 21
20.2797
 31
0
  0
LINE
  5
CD2
330
A02
100
AcDbEntity
  8
Shape001
100
AcDbLine
 10
119.36
 20
20.2797
 30
0
 11
118.976
 21
20.2373
 31
0
  0
LINE
  5
CD3
330
A02
100
AcDbEntity
  8
Shape001
100
AcDbLine
 10
118.976
 20
20.2373
 30
0
 11
118.592
 21
20.1947
 31
0
  0
LINE
  5
CD4
330
A02
100
AcDbEntity
  8
Shape001
100
AcDbLine
 10
118.592
 20
20.1947
 30
0
 11
118.208
 21
20.152
 31
0
  0
LINE
  5
CD5
330
A02
100
AcDbEntity
  8
Shape001
100
AcDbLine
 10
118.208
 20
20.152
 30
0
 11
117.824
 21
20.1093
 31
0
  0
LINE
  5
CD6
330
A02
100
AcDbEntity
  8
Shape001
100
AcDbLine
 10
117.824
 20
20.1093
 30
0
 11
117.44
 21
20.0664
 31
0
  0
LINE
  5
CD7
330
A02
100
AcDbEntity
  8
Shape001
100
AcDbLine
 10
117.44
 20
20.0664
 30
0
 11
117.056
 21
20.0233
 31
0
  0
LINE
  5
CD8
330
A02
100
AcDbEntity
  8
Shape001
100
AcDbLine
 10
117.056
 20
20.0233
 30
0
 11
116.672
 21
19.9802
 31
0
  0
LINE
  5
CD9
330
A02
100
AcDbEntity
  8
Shape001
100
AcDbLine
 10
116.672
 20
19.9802
 30
0
 11
116.288
 21
19.9369
 31
0
  0
LINE
  5
CDA
330
A02
100
AcDbEntity
  8
Shape001
100
AcDbLine
 10
116.288
 20
19.9369
 30
0
 11
115.904
 21
19.8936
 31
0
  0
LINE
  5
CDB
330
A02
100
AcDbEntity
  8
Shape001
100
AcDbLine
 10
115.904
 20
19.8936
 30
0
 11
115.52
 21
19.8501
 31
0
  0
LINE
  5
CDC
330
A02
100
AcDbEntity
  8
Shape001
100
AcDbLine
 10
115.52
 20
19.8501
 30
0
 11
115.136
 21
19.8065
 31
0
  0
LINE
  5
CDD
330
A02
100
AcDbEntity
  8
Shape001
100
AcDbLine
 10
115.136
 20
19.8065
 30
0
 11
114.752
 21
19.7628
 31
0
  0
LINE
  5
CDE
330
A02
100
AcDbEntity
  8
Shape001
100
AcDbLine
 10
114.752
 20
19.7628
 30
0
 11
114.368
 21
19.7189
 31
0
  0
LINE
  5
CDF
330
A02
100
AcDbEntity
  8
Shape001
100
AcDbLine
 10
114.368
 20
19.7189
 30
0
 11
113.984
 21
19.675
 31
0
  0
LINE
  5
CE0
330
A02
100
AcDbEntity
  8
Shape001
100
AcDbLine
 10
113.984
 20
19.675
 30
0
 11
113.6
 21
19.6309
 31
0
  0
LINE
  5
CE1
330
A02
100
AcDbEntity
  8
Shape001
100
AcDbLine
 10
113.6
 20
19.6309
 30
0
 11
113.216
 21
19.5867
 31
0
  0
LINE
  5
CE2
330
A02
100
AcDbEntity
  8
Shape001
100
AcDbLine
 10
113.216
 20
19.5867
 30
0
 11
112.832
 21
19.5424
 31
0
  0
LINE
  5
CE3
330
A02
100
AcDbEntity
  8
Shape001
100
AcDbLine
 10
112.832
 20
19.5424
 30
0
 11
112.448
 21
19.498
 31
0
  0
LINE
  5
CE4
330
A02
100
AcDbEntity
  8
Shape001
100
AcDbLine
 10
112.448
 20
19.498
 30
0
 11
112.064
 21
19.4534
 31
0
  0
LINE
  5
CE5
330
A02
100
AcDbEntity
  8
Shape001
100
AcDbLine
 10
112.064
 20
19.4534
 30
0
 11
111.68
 21
19.4088
 31
0
  0
LINE
  5
CE6
330
A02
100
AcDbEntity
  8
Shape001
100
AcDbLine
 10
111.68
 20
19.4088
 30
0
 11
111.296
 21
19.364
 31
0
  0
LINE
  5
CE7
330
A02
100
AcDbEntity
  8
Shape001
100
AcDbLine
 10
111.296
 20
19.364
 30
0
 11
110.912
 21
19.3191
 31
0
  0
LINE
  5
CE8
330
A02
100
AcDbEntity
  8
Shape001
100
AcDbLine
 10
110.912
 20
19.3191
 30
0
 11
110.528
 21
19.2741
 31
0
  0
LINE
  5
CE9
330
A02
100
AcDbEntity
  8
Shape001
100
AcDbLine
 10
110.528
 20
19.2741
 30
0
 11
110.144
 21
19.229
 31
0
  0
LINE
  5
CEA
330
A02
100
AcDbEntity
  8
Shape001
100
AcDbLine
 10
110.144
 20
19.229
 30
0
 11
109.76
 21
19.1837
 31
0
  0
LINE
  5
CEB
330
A02
100
AcDbEntity
  8
Shape001
100
AcDbLine
 10
109.76
 20
19.1837
 30
0
 11
109.376
 21
19.1384
 31
0
  0
LINE
  5
CEC
330
A02
100
AcDbEntity
  8
Shape001
100
AcDbLine
 10
109.376
 20
19.1384
 30
0
 11
108.992
 21
19.0929
 31
0
  0
LINE
  5
CED
330
A02
100
AcDbEntity
  8
Shape001
100
AcDbLine
 10
108.992
 20
19.0929
 30
0
 11
108.608
 21
19.0473
 31
0
  0
LINE
  5
CEE
330
A02
100
AcDbEntity
  8
Shape001
100
AcDbLine
 10
108.608
 20
19.0473
 30
0
 11
108.224
 21
19.0016
 31
0
  0
LINE
  5
CEF
330
A02
100
AcDbEntity
  8
Shape001
100
AcDbLine
 10
108.224
 20
19.0016
 30
0
 11
107.84
 21
18.9557
 31
0
  0
LINE
  5
CF0
330
A02
100
AcDbEntity
  8
Shape001
100
AcDbLine
 10
107.84
 20
18.9557
 30
0
 11
107.456
 21
18.9098
 31
0
  0
LINE
  5
CF1
330
A02
100
AcDbEntity
  8
Shape001
100
AcDbLine
 10
107.456
 20
18.9098
 30
0
 11
107.072
 21
18.8637
 31
0
  0
LINE
  5
CF2
330
A02
100
AcDbEntity
  8
Shape001
100
AcDbLine
 10
107.072
 20
18.8637
 30
0
 11
106.688
 21
18.8175
 31
0
  0
LINE
  5
CF3
330
A02
100
AcDbEntity
  8
Shape001
100
AcDbLine
 10
106.688
 20
18.8175
 30
0
 11
106.304
 21
18.7712
 31
0
  0
LINE
  5
CF4
330
A02
100
AcDbEntity
  8
Shape001
100
AcDbLine
 10
106.304
 20
18.7712
 30
0
 11
105.92
 21
18.7248
 31
0
  0
LINE
  5
CF5
330
A02
100
AcDbEntity
  8
Shape001
100
AcDbLine
 10
105.92
 20
18.7248
 30
0
 11
105.536
 21
18.6782
 31
0
  0
LINE
  5
CF6
330
A02
100
AcDbEntity
  8
Shape001
100
AcDbLine
 10
105.536
 20
18.6782
 30
0
 11
105.152
 21
18.6316
 31
0
  0
LINE
  5
CF7
330
A02
100
AcDbEntity
  8
Shape001
100
AcDbLine
 10
105.152
 20
18.6316
 30
0
 11
104.768
 21
18.5848
 31
0
  0
LINE
  5
CF8
330
A02
100
AcDbEntity
  8
Shape001
100
AcDbLine
 10
104.768
 20
18.5848
 30
0
 11
104.384
 21
18.5379
 31
0
  0
LINE
  5
CF9
330
A02
100
AcDbEntity
  8
Shape001
100
AcDbLine
 10
104.384
 20
18.5379
 30
0
 11
104
 21
18.4908
 31
0
  0
LINE
  5
CFA
330
A02
100
AcDbEntity
  8
Shape001
100
AcDbLine
 10
104
 20
18.4908
 30
0
 11
103.616
 21
18.4437
 31
0
  0
LINE
  5
CFB
330
A02
100
AcDbEntity
  8
Shape001
100
AcDbLine
 10
103.616
 20
18.4437
 30
0
 11
103.232
 21
18.3964
 31
0
  0
LINE
  5
CFC
330
A02
100
AcDbEntity
  8
Shape001
100
AcDbLine
 10
103.232
 20
18.3964
 30
0
 11
102.848
 21
18.349
 31
0
  0
LINE
  5
CFD
330
A02
100
AcDbEntity
  8
Shape001
100
AcDbLine
 10
102.848
 20
18.349
 30
0
 11
102.464
 21
18.3015
 31
0
  0
LINE
  5
CFE
330
A02
100
AcDbEntity
  8
Shape001
100
AcDbLine
 10
102.464
 20
18.3015
 30
0
 11
102.08
 21
18.2539
 31
0
  0
LINE
  5
CFF
330
A02
100
AcDbEntity
  8
Shape001
100
AcDbLine
 10
102.08
 20
18.2539
 30
0
 11
101.696
 21
18.2062
 31
0
  0
LINE
  5
D00
330
A02
100
AcDbEntity
  8
Shape001
100
AcDbLine
 10
101.696
 20
18.2062
 30
0
 11
101.312
 21
18.1583
 31
0
  0
LINE
  5
D01
330
A02
100
AcDbEntity
  8
Shape001
100
AcDbLine
 10
101.312
 20
18.1583
 30
0
 11
100.928
 21
18.1103
 31
0
  0
LINE
  5
D02
330
A02
100
AcDbEntity
  8
Shape001
100
AcDbLine
 10
100.928
 20
18.1103
 30
0
 11
100.544
 21
18.0622
 31
0
  0
LINE
  5
D03
330
A02
100
AcDbEntity
  8
Shape001
100
AcDbLine
 10
100.544
 20
18.0622
 30
0
 11
100.16
 21
18.014
 31
0
  0
LINE
  5
D04
330
A02
100
AcDbEntity
  8
Shape001
100
AcDbLine
 10
100.16
 20
18.014
 30
0
 11
99.776
 21
17.9656
 31
0
  0
LINE
  5
D05
330
A02
100
AcDbEntity
  8
Shape001
100
AcDbLine
 10
99.776
 20
17.9656
 30
0
 11
99.392
 21
17.9171
 31
0
  0
LINE
  5
D06
330
A02
100
AcDbEntity
  8
Shape001
100
AcDbLine
 10
99.392
 20
17.9171
 30
0
 11
99.008
 21
17.8685
 31
0
  0
LINE
  5
D07
330
A02
100
AcDbEntity
  8
Shape001
100
AcDbLine
 10
99.008
 20
17.8685
 30
0
 11
98.624
 21
17.8198
 31
0
  0
LINE
  5
D08
330
A02
100
AcDbEntity
  8
Shape001
100
AcDbLine
 10
98.624
 20
17.8198
 30
0
 11
98.24
 21
17.771
 31
0
  0
LINE
  5
D09
330
A02
100
AcDbEntity
  8
Shape001
100
AcDbLine
 10
98.24
 20
17.771
 30
0
 11
97.856
 21
17.722
 31
0
  0
LINE
  5
D0A
330
A02
100
AcDbEntity
  8
Shape001
100
AcDbLine
 10
97.856
 20
17.722
 30
0
 11
97.472
 21
17.6729
 31
0
  0
LINE
  5
D0B
330
A02
100
AcDbEntity
  8
Shape001
100
AcDbLine
 10
97.472
 20
17.6729
 30
0
 11
97.088
 21
17.6237
 31
0
  0
LINE
  5
D0C
330
A02
100
AcDbEntity
  8
Shape001
100
AcDbLine
 10
97.088
 20
17.6237
 30
0
 11
96.704
 21
17.5743
 31
0
  0
LINE
  5
D0D
330
A02
100
AcDbEntity
  8
Shape001
100
AcDbLine
 10
96.704
 20
17.5743
 30
0
 11
96.32
 21
17.5249
 31
0
  0
LINE
  5
D0E
330
A02
100
AcDbEntity
  8
Shape001
100
AcDbLine
 10
96.32
 20
17.5249
 30
0
 11
95.936
 21
17.4753
 31
0
  0
LINE
  5
D0F
330
A02
100
AcDbEntity
  8
Shape001
100
AcDbLine
 10
95.936
 20
17.4753
 30
0
 11
95.552
 21
17.4256
 31
0
  0
LINE
  5
D10
330
A02
100
AcDbEntity
  8
Shape001
100
AcDbLine
 10
95.552
 20
17.4256
 30
0
 11
95.168
 21
17.3758
 31
0
  0
LINE
  5
D11
330
A02
100
AcDbEntity
  8
Shape001
100
AcDbLine
 10
95.168
 20
17.3758
 30
0
 11
94.784
 21
17.3258
 31
0
  0
LINE
  5
D12
330
A02
100
AcDbEntity
  8
Shape001
100
AcDbLine
 10
94.784
 20
17.3258
 30
0
 11
94.4
 21
17.2757
 31
0
  0
LINE
  5
D13
330
A02
100
AcDbEntity
  8
Shape001
100
AcDbLine
 10
94.4
 20
17.2757
 30
0
 11
94.016
 21
17.2255
 31
0
  0
LINE
  5
D14
330
A02
100
AcDbEntity
  8
Shape001
100
AcDbLine
 10
94.016
 20
17.2255
 30
0
 11
93.632
 21
17.1752
 31
0
  0
LINE
  5
D15
330
A02
100
AcDbEntity
  8
Shape001
100
AcDbLine
 10
93.632
 20
17.1752
 30
0
 11
93.248
 21
17.1247
 31
0
  0
LINE
  5
D16
330
A02
100
AcDbEntity
  8
Shape001
100
AcDbLine
 10
93.248
 20
17.1247
 30
0
 11
92.864
 21
17.0741
 31
0
  0
LINE
  5
D17
330
A02
100
AcDbEntity
  8
Shape001
100
AcDbLine
 10
92.864
 20
17.0741
 30
0
 11
92.48
 21
17.0234
 31
0
  0
LINE
  5
D18
330
A02
100
AcDbEntity
  8
Shape001
100
AcDbLine
 10
92.48
 20
17.0234
 30
0
 11
92.096
 21
16.9726
 31
0
  0
LINE
  5
D19
330
A02
100
AcDbEntity
  8
Shape001
100
AcDbLine
 10
92.096
 20
16.9726
 30
0
 11
91.712
 21
16.9216
 31
0
  0
LINE
  5
D1A
330
A02
100
AcDbEntity
  8
Shape001
100
AcDbLine
 10
91.712
 20
16.9216
 30
0
 11
91.328
 21
16.8705
 31
0
  0
LINE
  5
D1B
330
A02
100
AcDbEntity
  8
Shape001
100
AcDbLine
 10
91.328
 20
16.8705
 30
0
 11
90.944
 21
16.8193
 31
0
  0
LINE
  5
D1C
330
A02
100
AcDbEntity
  8
Shape001
100
AcDbLine
 10
90.944
 20
16.8193
 30
0
 11
90.56
 21
16.7679
 31
0
  0
LINE
  5
D1D
330
A02
100
AcDbEntity
  8
Shape001
100
AcDbLine
 10
90.56
 20
16.7679
 30
0
 11
90.176
 21
16.7165
 31
0
  0
LINE
  5
D1E
330
A02
100
AcDbEntity
  8
Shape001
100
AcDbLine
 10
90.176
 20
16.7165
 30
0
 11
89.792
 21
16.6649
 31
0
  0
LINE
  5
D1F
330
A02
100
AcDbEntity
  8
Shape001
100
AcDbLine
 10
89.792
 20
16.6649
 30
0
 11
89.408
 21
16.6131
 31
0
  0
LINE
  5
D20
330
A02
100
AcDbEntity
  8
Shape001
100
AcDbLine
 10
89.408
 20
16.6131
 30
0
 11
89.024
 21
16.5613
 31
0
  0
LINE
  5
D21
330
A02
100
AcDbEntity
  8
Shape001
100
AcDbLine
 10
89.024
 20
16.5613
 30
0
 11
88.64
 21
16.5093
 31
0
  0
LINE
  5
D22
330
A02
100
AcDbEntity
  8
Shape001
100
AcDbLine
 10
88.64
 20
16.5093
 30
0
 11
88.256
 21
16.4571
 31
0
  0
LINE
  5
D23
330
A02
100
AcDbEntity
  8
Shape001
100
AcDbLine
 10
88.256
 20
16.4571
 30
0
 11
87.872
 21
16.4049
 31
0
  0
LINE
  5
D24
330
A02
100
AcDbEntity
  8
Shape001
100
AcDbLine
 10
87.872
 20
16.4049
 30
0
 11
87.488
 21
16.3525
 31
0
  0
LINE
  5
D25
330
A02
100
AcDbEntity
  8
Shape001
100
AcDbLine
 10
87.488
 20
16.3525
 30
0
 11
87.104
 21
16.3
 31
0
  0
LINE
  5
D26
330
A02
100
AcDbEntity
  8
Shape001
100
AcDbLine
 10
87.104
 20
16.3
 30
0
 11
86.72
 21
16.2473
 31
0
  0
LINE
  5
D27
330
A02
100
AcDbEntity
  8
Shape001
100
AcDbLine
 10
86.72
 20
16.2473
 30
0
 11
86.336
 21
16.1946
 31
0
  0
LINE
  5
D28
330
A02
100
AcDbEntity
  8
Shape001
100
AcDbLine
 10
86.336
 20
16.1946
 30
0
 11
85.952
 21
16.1417
 31
0
  0
LINE
  5
D29
330
A02
100
AcDbEntity
  8
Shape001
100
AcDbLine
 10
85.952
 20
16.1417
 30
0
 11
85.568
 21
16.0886
 31
0
  0
LINE
  5
D2A
330
A02
100
AcDbEntity
  8
Shape001
100
AcDbLine
 10
85.568
 20
16.0886
 30
0
 11
85.184
 21
16.0354
 31
0
  0
LINE
  5
D2B
330
A02
100
AcDbEntity
  8
Shape001
100
AcDbLine
 10
85.184
 20
16.0354
 30
0
 11
84.8
 21
15.9821
 31
0
  0
LINE
  5
D2C
330
A02
100
AcDbEntity
  8
Shape001
100
AcDbLine
 10
84.8
 20
15.9821
 30
0
 11
84.416
 21
15.9287
 31
0
  0
LINE
  5
D2D
330
A02
100
AcDbEntity
  8
Shape001
100
AcDbLine
 10
84.416
 20
15.9287
 30
0
 11
84.032
 21
15.8751
 31
0
  0
LINE
  5
D2E
330
A02
100
AcDbEntity
  8
Shape001
100
AcDbLine
 10
84.032
 20
15.8751
 30
0
 11
83.648
 21
15.8214
 31
0
  0
LINE
  5
D2F
330
A02
100
AcDbEntity
  8
Shape001
100
AcDbLine
 10
83.648
 20
15.8214
 30
0
 11
83.264
 21
15.7675
 31
0
  0
LINE
  5
D30
330
A02
100
AcDbEntity
  8
Shape001
100
AcDbLine
 10
83.264
 20
15.7675
 30
0
 11
82.88
 21
15.7136
 31
0
  0
LINE
  5
D31
330
A02
100
AcDbEntity
  8
Shape001
100
AcDbLine
 10
82.88
 20
15.7136
 30
0
 11
82.496
 21
15.6594
 31
0
  0
LINE
  5
D32
330
A02
100
AcDbEntity
  8
Shape001
100
AcDbLine
 10
82.496
 20
15.6594
 30
0
 11
82.112
 21
15.6052
 31
0
  0
LINE
  5
D33
330
A02
100
AcDbEntity
  8
Shape001
100
AcDbLine
 10
82.112
 20
15.6052
 30
0
 11
81.728
 21
15.5508
 31
0
  0
LINE
  5
D34
330
A02
100
AcDbEntity
  8
Shape001
100
AcDbLine
 10
81.728
 20
15.5508
 30
0
 11
81.344
 21
15.4963
 31
0
  0
LINE
  5
D35
330
A02
100
AcDbEntity
  8
Shape001
100
AcDbLine
 10
81.344
 20
15.4963
 30
0
 11
80.96
 21
15.4416
 31
0
  0
LINE
  5
D36
330
A02
100
AcDbEntity
  8
Shape001
100
AcDbLine
 10
80.96
 20
15.4416
 30
0
 11
80.576
 21
15.3868
 31
0
  0
LINE
  5
D37
330
A02
100
AcDbEntity
  8
Shape001
100
AcDbLine
 10
80.576
 20
15.3868
 30
0
 11
80.192
 21
15.3318
 31
0
  0
LINE
  5
D38
330
A02
100
AcDbEntity
  8
Shape001
100
AcDbLine
 10
80.192
 20
15.3318
 30
0
 11
79.808
 21
15.2768
 31
0
  0
LINE
  5
D39
330
A02
100
AcDbEntity
  8
Shape001
100
AcDbLine
 10
79.808
 20
15.2768
 30
0
 11
79.424
 21
15.2215
 31
0
  0
LINE
  5
D3A
330
A02
100
AcDbEntity
  8
Shape001
100
AcDbLine
 10
79.424
 20
15.2215
 30
0
 11
79.04
 21
15.1662
 31
0
  0
LINE
  5
D3B
330
A02
100
AcDbEntity
  8
Shape001
100
AcDbLine
 10
79.04
 20
15.1662
 30
0
 11
78.656
 21
15.1107
 31
0
  0
LINE
  5
D3C
330
A02
100
AcDbEntity
  8
Shape001
100
AcDbLine
 10
78.656
 20
15.1107
 30
0
 11
78.272
 21
15.055
 31
0
  0
LINE
  5
D3D
330
A02
100
AcDbEntity
  8
Shape001
100
AcDbLine
 10
78.272
 20
15.055
 30
0
 11
77.888
 21
14.9992
 31
0
  0
LINE
  5
D3E
330
A02
100
AcDbEntity
  8
Shape001
100
AcDbLine
 10
77.888
 20
14.9992
 30
0
 11
77.504
 21
14.9433
 31
0
  0
LINE
  5
D3F
330
A02
100
AcDbEntity
  8
Shape001
100
AcDbLine
 10
77.504
 20
14.9433
 30
0
 11
77.12
 21
14.8872
 31
0
  0
LINE
  5
D40
330
A02
100
AcDbEntity
  8
Shape001
100
AcDbLine
 10
77.12
 20
14.8872
 30
0
 11
76.736
 21
14.831
 31
0
  0
LINE
  5
D41
330
A02
100
AcDbEntity
  8
Shape001
100
AcDbLine
 10
76.736
 20
14.831
 30
0
 11
76.352
 21
14.7746
 31
0
  0
LINE
  5
D42
330
A02
100
AcDbEntity
  8
Shape001
100
AcDbLine
 10
76.352
 20
14.7746
 30
0
 11
75.968
 21
14.7181
 31
0
  0
LINE
  5
D43
330
A02
100
AcDbEntity
  8
Shape001
100
AcDbLine
 10
75.968
 20
14.7181
 30
0
 11
75.584
 21
14.6615
 31
0
  0
LINE
  5
D44
330
A02
100
AcDbEntity
  8
Shape001
100
AcDbLine
 10
75.584
 20
14.6615
 30
0
 11
75.2
 21
14.6047
 31
0
  0
LINE
  5
D45
330
A02
100
AcDbEntity
  8
Shape001
100
AcDbLine
 10
75.2
 20
14.6047
 30
0
 11
74.816
 21
14.5478
 31
0
  0
LINE
  5
D46
330
A02
100
AcDbEntity
  8
Shape001
100
AcDbLine
 10
74.816
 20
14.5478
 30
0
 11
74.432
 21
14.4907
 31
0
  0
LINE
  5
D47
330
A02
100
AcDbEntity
  8
Shape001
100
AcDbLine
 10
74.432
 20
14.4907
 30
0
 11
74.048
 21
14.4334
 31
0
  0
LINE
  5
D48
330
A02
100
AcDbEntity
  8
Shape001
100
AcDbLine
 10
74.048
 20
14.4334
 30
0
 11
73.664
 21
14.376
 31
0
  0
LINE
  5
D49
330
A02
100
AcDbEntity
  8
Shape001
100
AcDbLine
 10
73.664
 20
14.376
 30
0
 11
73.28
 21
14.3185
 31
0
  0
LINE
  5
D4A
330
A02
100
AcDbEntity
  8
Shape001
100
AcDbLine
 10
73.28
 20
14.3185
 30
0
 11
72.896
 21
14.2608
 31
0
  0
LINE
  5
D4B
330
A02
100
AcDbEntity
  8
Shape001
100
AcDbLine
 10
72.896
 20
14.2608
 30
0
 11
72.512
 21
14.203
 31
0
  0
LINE
  5
D4C
330
A02
100
AcDbEntity
  8
Shape001
100
AcDbLine
 10
72.512
 20
14.203
 30
0
 11
72.128
 21
14.145
 31
0
  0
LINE
  5
D4D
330
A02
100
AcDbEntity
  8
Shape001
100
AcDbLine
 10
72.128
 20
14.145
 30
0
 11
71.744
 21
14.0869
 31
0
  0
LINE
  5
D4E
330
A02
100
AcDbEntity
  8
Shape001
100
AcDbLine
 10
71.744
 20
14.0869
 30
0
 11
71.36
 21
14.0286
 31
0
  0
LINE
  5
D4F
330
A02
100
AcDbEntity
  8
Shape001
100
AcDbLine
 10
71.36
 20
14.0286
 30
0
 11
70.976
 21
13.9701
 31
0
  0
LINE
  5
D50
330
A02
100
AcDbEntity
  8
Shape001
100
AcDbLine
 10
70.976
 20
13.9701
 30
0
 11
70.592
 21
13.9115
 31
0
  0
LINE
  5
D51
330
A02
100
AcDbEntity
  8
Shape001
100
AcDbLine
 10
70.592
 20
13.9115
 30
0
 11
70.208
 21
13.8528
 31
0
  0
LINE
  5
D52
330
A02
100
AcDbEntity
  8
Shape001
100
AcDbLine
 10
70.208
 20
13.8528
 30
0
 11
69.824
 21
13.7939
 31
0
  0
LINE
  5
D53
330
A02
100
AcDbEntity
  8
Shape001
100
AcDbLine
 10
69.824
 20
13.7939
 30
0
 11
69.44
 21
13.7348
 31
0
  0
LINE
  5
D54
330
A02
100
AcDbEntity
  8
Shape001
100
AcDbLine
 10
69.44
 20
13.7348
 30
0
 11
69.056
 21
13.6756
 31
0
  0
LINE
  5
D55
330
A02
100
AcDbEntity
  8
Shape001
100
AcDbLine
 10
69.056
 20
13.6756
 30
0
 11
68.672
 21
13.6162
 31
0
  0
LINE
  5
D56
330
A02
100
AcDbEntity
  8
Shape001
100
AcDbLine
 10
68.672
 20
13.6162
 30
0
 11
68.288
 21
13.5567
 31
0
  0
LINE
  5
D57
330
A02
100
AcDbEntity
  8
Shape001
100
AcDbLine
 10
68.288
 20
13.5567
 30
0
 11
67.904
 21
13.497
 31
0
  0
LINE
  5
D58
330
A02
100
AcDbEntity
  8
Shape001
100
AcDbLine
 10
67.904
 20
13.497
 30
0
 11
67.52
 21
13.4371
 31
0
  0
LINE
  5
D59
330
A02
100
AcDbEntity
  8
Shape001
100
AcDbLine
 10
67.52
 20
13.4371
 30
0
 11
67.136
 21
13.3771
 31
0
  0
LINE
  5
D5A
330
A02
100
AcDbEntity
  8
Shape001
100
AcDbLine
 10
67.136
 20
13.3771
 30
0
 11
66.752
 21
13.3169
 31
0
  0
LINE
  5
D5B
330
A02
100
AcDbEntity
  8
Shape001
100
AcDbLine
 10
66.752
 20
13.3169
 30
0
 11
66.368
 21
13.2566
 31
0
  0
LINE
  5
D5C
330
A02
100
AcDbEntity
  8
Shape001
100
AcDbLine
 10
66.368
 20
13.2566
 30
0
 11
65.984
 21
13.1961
 31
0
  0
LINE
  5
D5D
330
A02
100
AcDbEntity
  8
Shape001
100
AcDbLine
 10
65.984
 20
13.1961
 30
0
 11
65.6
 21
13.1354
 31
0
  0
LINE
  5
D5E
330
A02
100
AcDbEntity
  8
Shape001
100
AcDbLine
 10
65.6
 20
13.1354
 30
0
 11
65.216
 21
13.0746
 31
0
  0
LINE
  5
D5F
330
A02
100
AcDbEntity
  8
Shape001
100
AcDbLine
 10
65.216
 20
13.0746
 30
0
 11
64.832
 21
13.0136
 31
0
  0
LINE
  5
D60
330
A02
100
AcDbEntity
  8
Shape001
100
AcDbLine
 10
64.832
 20
13.0136
 30
0
 11
64.448
 21
12.9524
 31
0
  0
LINE
  5
D61
330
A02
100
AcDbEntity
  8
Shape001
100
AcDbLine
 10
64.448
 20
12.9524
 30
0
 11
64.064
 21
12.8911
 31
0
  0
LINE
  5
D62
330
A02
100
AcDbEntity
  8
Shape001
100
AcDbLine
 10
64.064
 20
12.8911
 30
0
 11
63.68
 21
12.8296
 31
0
  0
LINE
  5
D63
330
A02
100
AcDbEntity
  8
Shape001
100
AcDbLine
 10
63.68
 20
12.8296
 30
0
 11
63.296
 21
12.7679
 31
0
  0
LINE
  5
D64
330
A02
100
AcDbEntity
  8
Shape001
100
AcDbLine
 10
63.296
 20
12.7679
 30
0
 11
62.912
 21
12.7061
 31
0
  0
LINE
  5
D65
330
A02
100
AcDbEntity
  8
Shape001
100
AcDbLine
 10
62.912
 20
12.7061
 30
0
 11
62.528
 21
12.644
 31
0
  0
LINE
  5
D66
330
A02
100
AcDbEntity
  8
Shape001
100
AcDbLine
 10
62.528
 20
12.644
 30
0
 11
62.144
 21
12.5819
 31
0
  0
LINE
  5
D67
330
A02
100
AcDbEntity
  8
Shape001
100
AcDbLine
 10
62.144
 20
12.5819
 30
0
 11
61.76
 21
12.5195
 31
0
  0
LINE
  5
D68
330
A02
100
AcDbEntity
  8
Shape001
100
AcDbLine
 10
61.76
 20
12.5195
 30
0
 11
61.376
 21
12.457
 31
0
  0
LINE
  5
D69
330
A02
100
AcDbEntity
  8
Shape001
100
AcDbLine
 10
61.376
 20
12.457
 30
0
 11
60.992
 21
12.3942
 31
0
  0
LINE
  5
D6A
330
A02
100
AcDbEntity
  8
Shape001
100
AcDbLine
 10
60.992
 20
12.3942
 30
0
 11
60.608
 21
12.3313
 31
0
  0
LINE
  5
D6B
330
A02
100
AcDbEntity
  8
Shape001
100
AcDbLine
 10
60.608
 20
12.3313
 30
0
 11
60.224
 21
12.2683
 31
0
  0
LINE
  5
D6C
330
A02
100
AcDbEntity
  8
Shape001
100
AcDbLine
 10
60.224
 20
12.2683
 30
0
 11
59.84
 21
12.205
 31
0
  0
LINE
  5
D6D
330
A02
100
AcDbEntity
  8
Shape001
100
AcDbLine
 10
59.84
 20
12.205
 30
0
 11
59.456
 21
12.1416
 31
0
  0
LINE
  5
D6E
330
A02
100
AcDbEntity
  8
Shape001
100
AcDbLine
 10
59.456
 20
12.1416
 30
0
 11
59.072
 21
12.078
 31
0
  0
LINE
  5
D6F
330
A02
100
AcDbEntity
  8
Shape001
100
AcDbLine
 10
59.072
 20
12.078
 30
0
 11
58.688
 21
12.0142
 31
0
  0
LINE
  5
D70
330
A02
100
AcDbEntity
  8
Shape001
100
AcDbLine
 10
58.688
 20
12.0142
 30
0
 11
58.304
 21
11.9502
 31
0
  0
LINE
  5
D71
330
A02
100
AcDbEntity
  8
Shape001
100
AcDbLine
 10
58.304
 20
11.9502
 30
0
 11
57.92
 21
11.886
 31
0
  0
LINE
  5
D72
330
A02
100
AcDbEntity
  8
Shape001
100
AcDbLine
 10
57.92
 20
11.886
 30
0
 11
57.536
 21
11.8217
 31
0
  0
LINE
  5
D73
330
A02
100
AcDbEntity
  8
Shape001
100
AcDbLine
 10
57.536
 20
11.8217
 30
0
 11
57.152
 21
11.7571
 31
0
  0
LINE
  5
D74
330
A02
100
AcDbEntity
  8
Shape001
100
AcDbLine
 10
57.152
 20
11.7571
 30
0
 11
56.768
 21
11.6924
 31
0
  0
LINE
  5
D75
330
A02
100
AcDbEntity
  8
Shape001
100
AcDbLine
 10
56.768
 20
11.6924
 30
0
 11
56.384
 21
11.6275
 31
0
  0
LINE
  5
D76
330
A02
100
AcDbEntity
  8
Shape001
100
AcDbLine
 10
56.384
 20
11.6275
 30
0
 11
56
 21
11.5624
 31
0
  0
LINE
  5
D77
330
A02
100
AcDbEntity
  8
Shape001
100
AcDbLine
 10
56
 20
11.5624
 30
0
 11
55.616
 21
11.497
 31
0
  0
LINE
  5
D78
330
A02
100
AcDbEntity
  8
Shape001
100
AcDbLine
 10
55.616
 20
11.497
 30
0
 11
55.232
 21
11.4315
 31
0
  0
LINE
  5
D79
330
A02
100
AcDbEntity
  8
Shape001
100
AcDbLine
 10
55.232
 20
11.4315
 30
0
 11
54.848
 21
11.3658
 31
0
  0
LINE
  5
D7A
330
A02
100
AcDbEntity
  8
Shape001
100
AcDbLine
 10
54.848
 20
11.3658
 30
0
 11
54.464
 21
11.2999
 31
0
  0
LINE
  5
D7B
330
A02
100
AcDbEntity
  8
Shape001
100
AcDbLine
 10
54.464
 20
11.2999
 30
0
 11
54.08
 21
11.2338
 31
0
  0
LINE
  5
D7C
330
A02
100
AcDbEntity
  8
Shape001
100
AcDbLine
 10
54.08
 20
11.2338
 30
0
 11
53.696
 21
11.1675
 31
0
  0
LINE
  5
D7D
330
A02
100
AcDbEntity
  8
Shape001
100
AcDbLine
 10
53.696
 20
11.1675
 30
0
 11
53.312
 21
11.101
 31
0
  0
LINE
  5
D7E
330
A02
100
AcDbEntity
  8
Shape001
100
AcDbLine
 10
53.312
 20
11.101
 30
0
 11
52.928
 21
11.0343
 31
0
  0
LINE
  5
D7F
330
A02
100
AcDbEntity
  8
Shape001
100
AcDbLine
 10
52.928
 20
11.0343
 30
0
 11
52.544
 21
10.9674
 31
0
  0
LINE
  5
D80
330
A02
100
AcDbEntity
  8
Shape001
100
AcDbLine
 10
52.544
 20
10.9674
 30
0
 11
52.16
 21
10.9003
 31
0
  0
LINE
  5
D81
330
A02
100
AcDbEntity
  8
Shape001
100
AcDbLine
 10
52.16
 20
10.9003
 30
0
 11
51.776
 21
10.8329
 31
0
  0
LINE
  5
D82
330
A02
100
AcDbEntity
  8
Shape001
100
AcDbLine
 10
51.776
 20
10.8329
 30
0
 11
51.392
 21
10.7654
 31
0
  0
LINE
  5
D83
330
A02
100
AcDbEntity
  8
Shape001
100
AcDbLine
 10
51.392
 20
10.7654
 30
0
 11
51.008
 21
10.6976
 31
0
  0
LINE
  5
D84
330
A02
100
AcDbEntity
  8
Shape001
100
AcDbLine
 10
51.008
 20
10.6976
 30
0
 11
50.624
 21
10.6297
 31
0
  0
LINE
  5
D85
330
A02
100
AcDbEntity
  8
Shape001
100
AcDbLine
 10
50.624
 20
10.6297
 30
0
 11
50.24
 21
10.5615
 31
0
  0
LINE
  5
D86
330
A02
100
AcDbEntity
  8
Shape001
100
AcDbLine
 10
50.24
 20
10.5615
 30
0
 11
49.856
 21
10.4931
 31
0
  0
LINE
  5
D87
330
A02
100
AcDbEntity
  8
Shape001
100
AcDbLine
 10
49.856
 20
10.4931
 30
0
 11
49.472
 21
10.4244
 31
0
  0
LINE
  5
D88
330
A02
100
AcDbEntity
  8
Shape001
100
AcDbLine
 10
49.472
 20
10.4244
 30
0
 11
49.088
 21
10.3556
 31
0
  0
LINE
  5
D89
330
A02
100
AcDbEntity
  8
Shape001
100
AcDbLine
 10
49.088
 20
10.3556
 30
0
 11
48.704
 21
10.2865
 31
0
  0
LINE
  5
D8A
330
A02
100
AcDbEntity
  8
Shape001
100
AcDbLine
 10
48.704
 20
10.2865
 30
0
 11
48.32
 21
10.2172
 31
0
  0
LINE
  5
D8B
330
A02
100
AcDbEntity
  8
Shape001
100
AcDbLine
 10
48.32
 20
10.2172
 30
0
 11
47.936
 21
10.1477
 31
0
  0
LINE
  5
D8C
330
A02
100
AcDbEntity
  8
Shape001
100
AcDbLine
 10
47.936
 20
10.1477
 30
0
 11
47.552
 21
10.0779
 31
0
  0
LINE
  5
D8D
330
A02
100
AcDbEntity
  8
Shape001
100
AcDbLine
 10
47.552
 20
10.0779
 30
0
 11
47.168
 21
10.0079
 31
0
  0
LINE
  5
D8E
330
A02
100
AcDbEntity
  8
Shape001
100
AcDbLine
 10
47.168
 20
10.0079
 30
0
 11
46.784
 21
9.93767
 31
0
  0
LINE
  5
D8F
330
A02
100
AcDbEntity
  8
Shape001
100
AcDbLine
 10
46.784
 20
9.93767
 30
0
 11
46.4
 21
9.8672
 31
0
  0
LINE
  5
D90
330
A02
100
AcDbEntity
  8
Shape001
100
AcDbLine
 10
46.4
 20
9.8672
 30
0
 11
46.016
 21
9.79649
 31
0
  0
LINE
  5
D91
330
A02
100
AcDbEntity
  8
Shape001
100
AcDbLine
 10
46.016
 20
9.79649
 30
0
 11
45.632
 21
9.72553
 31
0
  0
LINE
  5
D92
330
A02
100
AcDbEntity
  8
Shape001
100
AcDbLine
 10
45.632
 20
9.72553
 30
0
 11
45.248
 21
9.65433
 31
0
  0
LINE
  5
D93
330
A02
100
AcDbEntity
  8
Shape001
100
AcDbLine
 10
45.248
 20
9.65433
 30
0
 11
44.864
 21
9.58289
 31
0
  0
LINE
  5
D94
330
A02
100
AcDbEntity
  8
Shape001
100
AcDbLine
 10
44.864
 20
9.58289
 30
0
 11
44.48
 21
9.51119
 31
0
  0
LINE
  5
D95
330
A02
100
AcDbEntity
  8
Shape001
100
AcDbLine
 10
44.48
 20
9.51119
 30
0
 11
44.096
 21
9.43924
 31
0
  0
LINE
  5
D96
330
A02
100
AcDbEntity
  8
Shape001
100
AcDbLine
 10
44.096
 20
9.43924
 30
0
 11
43.712
 21
9.36703
 31
0
  0
LINE
  5
D97
330
A02
100
AcDbEntity
  8
Shape001
100
AcDbLine
 10
43.712
 20
9.36703
 30
0
 11
43.328
 21
9.29457
 31
0
  0
LINE
  5
D98
330
A02
100
AcDbEntity
  8
Shape001
100
AcDbLine
 10
43.328
 20
9.29457
 30
0
 11
42.944
 21
9.22184
 31
0
  0
LINE
  5
D99
330
A02
100
AcDbEntity
  8
Shape001
100
AcDbLine
 10
42.944
 20
9.22184
 30
0
 11
42.56
 21
9.14885
 31
0
  0
LINE
  5
D9A
330
A02
100
AcDbEntity
  8
Shape001
100
AcDbLine
 10
42.56
 20
9.14885
 30
0
 11
42.176
 21
9.07559
 31
0
  0
LINE
  5
D9B
330
A02
100
AcDbEntity
  8
Shape001
100
AcDbLine
 10
42.176
 20
9.07559
 30
0
 11
41.792
 21
9.00206
 31
0
  0
LINE
  5
D9C
330
A02
100
AcDbEntity
  8
Shape001
100
AcDbLine
 10
41.792
 20
9.00206
 30
0
 11
41.408
 21
8.92826
 31
0
  0
LINE
  5
D9D
330
A02
100
AcDbEntity
  8
Shape001
100
AcDbLine
 10
41.408
 20
8.92826
 30
0
 11
41.024
 21
8.85418
 31
0
  0
LINE
  5
D9E
330
A02
100
AcDbEntity
  8
Shape001
100
AcDbLine
 10
41.024
 20
8.85418
 30
0
 11
40.64
 21
8.77982
 31
0
  0
LINE
  5
D9F
330
A02
100
AcDbEntity
  8
Shape001
100
AcDbLine
 10
40.64
 20
8.77982
 30
0
 11
40.256
 21
8.70518
 31
0
  0
LINE
  5
DA0
330
A02
100
AcDbEntity
  8
Shape001
100
AcDbLine
 10
40.256
 20
8.70518
 30
0
 11
39.872
 21
8.63025
 31
0
  0
LINE
  5
DA1
330
A02
100
AcDbEntity
  8
Shape001
100
AcDbLine
 10
39.872
 20
8.63025
 30
0
 11
39.488
 21
8.55503
 31
0
  0
LINE
  5
DA2
330
A02
100
AcDbEntity
  8
Shape001
100
AcDbLine
 10
39.488
 20
8.55503
 30
0
 11
39.104
 21
8.47951
 31
0
  0
LINE
  5
DA3
330
A02
100
AcDbEntity
  8
Shape001
100
AcDbLine
 10
39.104
 20
8.47951
 30
0
 11
38.72
 21
8.4037
 31
0
  0
LINE
  5
DA4
330
A02
100
AcDbEntity
  8
Shape001
100
AcDbLine
 10
38.72
 20
8.4037
 30
0
 11
38.336
 21
8.32758
 31
0
  0
LINE
  5
DA5
330
A02
100
AcDbEntity
  8
Shape001
100
AcDbLine
 10
38.336
 20
8.32758
 30
0
 11
37.952
 21
8.25116
 31
0
  0
LINE
  5
DA6
330
A02
100
AcDbEntity
  8
Shape001
100
AcDbLine
 10
37.952
 20
8.25116
 30
0
 11
37.568
 21
8.17442
 31
0
  0
LINE
  5
DA7
330
A02
100
AcDbEntity
  8
Shape001
100
AcDbLine
 10
37.568
 20
8.17442
 30
0
 11
37.184
 21
8.09737
 31
0
  0
LINE
  5
DA8
330
A02
100
AcDbEntity
  8
Shape001
100
AcDbLine
 10
37.184
 20
8.09737
 30
0
 11
36.8
 21
8.02001
 31
0
  0
LINE
  5
DA9
330
A02
100
AcDbEntity
  8
Shape001
100
AcDbLine
 10
36.8
 20
8.02001
 30
0
 11
36.416
 21
7.94231
 31
0
  0
LINE
  5
DAA
330
A02
100
AcDbEntity
  8
Shape001
100
AcDbLine
 10
36.416
 20
7.94231
 30
0
 11
36.032
 21
7.86429
 31
0
  0
LINE
  5
DAB
330
A02
100
AcDbEntity
  8
Shape001
100
AcDbLine
 10
36.032
 20
7.86429
 30
0
 11
35.648
 21
7.78594
 31
0
  0
LINE
  5
DAC
330
A02
100
AcDbEntity
  8
Shape001
100
AcDbLine
 10
35.648
 20
7.78594
 30
0
 11
35.264
 21
7.70725
 31
0
  0
LINE
  5
DAD
330
A02
100
AcDbEntity
  8
Shape001
100
AcDbLine
 10
35.264
 20
7.70725
 30
0
 11
34.88
 21
7.62821
 31
0
  0
LINE
  5
DAE
330
A02
100
AcDbEntity
  8
Shape001
100
AcDbLine
 10
34.88
 20
7.62821
 30
0
 11
34.496
 21
7.54883
 31
0
  0
LINE
  5
DAF
330
A02
100
AcDbEntity
  8
Shape001
100
AcDbLine
 10
34.496
 20
7.54883
 30
0
 11
34.112
 21
7.46909
 31
0
  0
LINE
  5
DB0
330
A02
100
AcDbEntity
  8
Shape001
100
AcDbLine
 10
34.112
 20
7.46909
 30
0
 11
33.728
 21
7.38899
 31
0
  0
LINE
  5
DB1
330
A02
100
AcDbEntity
  8
Shape001
100
AcDbLine
 10
33.728
 20
7.38899
 30
0
 11
33.344
 21
7.30853
 31
0
  0
LINE
  5
DB2
330
A02
100
AcDbEntity
  8
Shape001
100
AcDbLine
 10
33.344
 20
7.30853
 30
0
 11
32.96
 21
7.22769
 31
0
  0
LINE
  5
DB3
330
A02
100
AcDbEntity
  8
Shape001
100
AcDbLine
 10
32.96
 20
7.22769
 30
0
 11
32.576
 21
7.14648
 31
0
  0
LINE
  5
DB4
330
A02
100
AcDbEntity
  8
Shape001
100
AcDbLine
 10
32.576
 20
7.14648
 30
0
 11
32.192
 21
7.06488
 31
0
  0
LINE
  5
DB5
330
A02
100
AcDbEntity
  8
Shape001
100
AcDbLine
 10
32.192
 20
7.06488
 30
0
 11
31.808
 21
6.98289
 31
0
  0
LINE
  5
DB6
330
A02
100
AcDbEntity
  8
Shape001
100
AcDbLine
 10
31.808
 20
6.98289
 30
0
 11
31.424
 21
6.9005
 31
0
  0
LINE
  5
DB7
330
A02
100
AcDbEntity
  8
Shape001
100
AcDbLine
 10
31.424
 20
6.9005
 30
0
 11
31.04
 21
6.8177
 31
0
  0
LINE
  5
DB8
330
A02
100
AcDbEntity
  8
Shape001
100
AcDbLine
 10
31.04
 20
6.8177
 30
0
 11
30.656
 21
6.7345
 31
0
  0
LINE
  5
DB9
330
A02
100
AcDbEntity
  8
Shape001
100
AcDbLine
 10
30.656
 20
6.7345
 30
0
 11
30.272
 21
6.65087
 31
0
  0
LINE
  5
DBA
330
A02
100
AcDbEntity
  8
Shape001
100
AcDbLine
 10
30.272
 20
6.65087
 30
0
 11
29.888
 21
6.56681
 31
0
  0
LINE
  5
DBB
330
A02
100
AcDbEntity
  8
Shape001
100
AcDbLine
 10
29.888
 20
6.56681
 30
0
 11
29.504
 21
6.48231
 31
0
  0
LINE
  5
DBC
330
A02
100
AcDbEntity
  8
Shape001
100
AcDbLine
 10
29.504
 20
6.48231
 30
0
 11
29.12
 21
6.39737
 31
0
  0
LINE
  5
DBD
330
A02
100
AcDbEntity
  8
Shape001
100
AcDbLine
 10
29.12
 20
6.39737
 30
0
 11
28.736
 21
6.31198
 31
0
  0
LINE
  5
DBE
330
A02
100
AcDbEntity
  8
Shape001
100
AcDbLine
 10
28.736
 20
6.31198
 30
0
 11
28.352
 21
6.22611
 31
0
  0
LINE
  5
DBF
330
A02
100
AcDbEntity
  8
Shape001
100
AcDbLine
 10
28.352
 20
6.22611
 30
0
 11
27.968
 21
6.13978
 31
0
  0
LINE
  5
DC0
330
A02
100
AcDbEntity
  8
Shape001
100
AcDbLine
 10
27.968
 20
6.13978
 30
0
 11
27.584
 21
6.05296
 31
0
  0
LINE
  5
DC1
330
A02
100
AcDbEntity
  8
Shape001
100
AcDbLine
 10
27.584
 20
6.05296
 30
0
 11
27.2
 21
5.96564
 31
0
  0
LINE
  5
DC2
330
A02
100
AcDbEntity
  8
Shape001
100
AcDbLine
 10
27.2
 20
5.96564
 30
0
 11
26.816
 21
5.87782
 31
0
  0
LINE
  5
DC3
330
A02
100
AcDbEntity
  8
Shape001
100
AcDbLine
 10
26.816
 20
5.87782
 30
0
 11
26.432
 21
5.78947
 31
0
  0
LINE
  5
DC4
330
A02
100
AcDbEntity
  8
Shape001
100
AcDbLine
 10
26.432
 20
5.78947
 30
0
 11
26.048
 21
5.7006
 31
0
  0
LINE
  5
DC5
330
A02
100
AcDbEntity
  8
Shape001
100
AcDbLine
 10
26.048
 20
5.7006
 30
0
 11
25.664
 21
5.61118
 31
0
  0
LINE
  5
DC6
330
A02
100
AcDbEntity
  8
Shape001
100
AcDbLine
 10
25.664
 20
5.61118
 30
0
 11
25.28
 21
5.52121
 31
0
  0
LINE
  5
DC7
330
A02
100
AcDbEntity
  8
Shape001
100
AcDbLine
 10
25.28
 20
5.52121
 30
0
 11
24.896
 21
5.43066
 31
0
  0
LINE
  5
DC8
330
A02
100
AcDbEntity
  8
Shape001
100
AcDbLine
 10
24.896
 20
5.43066
 30
0
 11
24.512
 21
5.33952
 31
0
  0
LINE
  5
DC9
330
A02
100
AcDbEntity
  8
Shape001
100
AcDbLine
 10
24.512
 20
5.33952
 30
0
 11
24.128
 21
5.24779
 31
0
  0
LINE
  5
DCA
330
A02
100
AcDbEntity
  8
Shape001
100
AcDbLine
 10
24.128
 20
5.24779
 30
0
 11
23.744
 21
5.15543
 31
0
  0
LINE
  5
DCB
330
A02
100
AcDbEntity
  8
Shape001
100
AcDbLine
 10
23.744
 20
5.15543
 30
0
 11
23.36
 21
5.06244
 31
0
  0
LINE
  5
DCC
330
A02
100
AcDbEntity
  8
Shape001
100
AcDbLine
 10
23.36
 20
5.06244
 30
0
 11
22.976
 21
4.96879
 31
0
  0
LINE
  5
DCD
330
A02
100
AcDbEntity
  8
Shape001
100
AcDbLine
 10
22.976
 20
4.96879
 30
0
 11
22.592
 21
4.87447
 31
0
  0
LINE
  5
DCE
330
A02
100
AcDbEntity
  8
Shape001
100
AcDbLine
 10
22.592
 20
4.87447
 30
0
 11
22.208
 21
4.77945
 31
0
  0
LINE
  5
DCF
330
A02
100
AcDbEntity
  8
Shape001
100
AcDbLine
 10
22.208
 20
4.77945
 30
0
 11
21.824
 21
4.68371
 31
0
  0
LINE
  5
DD0
330
A02
100
AcDbEntity
  8
Shape001
100
AcDbLine
 10
21.824
 20
4.68371
 30
0
 11
21.44
 21
4.58724
 31
0
  0
LINE
  5
DD1
330
A02
100
AcDbEntity
  8
Shape001
100
AcDbLine
 10
21.44
 20
4.58724
 30
0
 11
21.056
 21
4.48999
 31
0
  0
LINE
  5
DD2
330
A02
100
AcDbEntity
  8
Shape001
100
AcDbLine
 10
21.056
 20
4.48999
 30
0
 11
20.672
 21
4.39196
 31
0
  0
LINE
  5
DD3
330
A02
100
AcDbEntity
  8
Shape001
100
AcDbLine
 10
20.672
 20
4.39196
 30
0
 11
20.288
 21
4.2931
 31
0
  0
LINE
  5
DD4
330
A02
100
AcDbEntity
  8
Shape001
100
AcDbLine
 10
20.288
 20
4.2931
 30
0
 11
19.904
 21
4.1934
 31
0
  0
LINE
  5
DD5
330
A02
100
AcDbEntity
  8
Shape001
100
AcDbLine
 10
19.904
 20
4.1934
 30
0
 11
19.52
 21
4.09281
 31
0
  0
LINE
  5
DD6
330
A02
100
AcDbEntity
  8
Shape001
100
AcDbLine
 10
19.52
 20
4.09281
 30
0
 11
19.136
 21
3.9913
 31
0
  0
LINE
  5
DD7
330
A02
100
AcDbEntity
  8
Shape001
100
AcDbLine
 10
19.136
 20
3.9913
 30
0
 11
18.752
 21
3.88884
 31
0
  0
LINE
  5
DD8
330
A02
100
AcDbEntity
  8
Shape001
100
AcDbLine
 10
18.752
 20
3.88884
 30
0
 11
18.368
 21
3.78538
 31
0
  0
LINE
  5
DD9
330
A02
100
AcDbEntity
  8
Shape001
100
AcDbLine
 10
18.368
 20
3.78538
 30
0
 11
17.984
 21
3.68088
 31
0
  0
LINE
  5
DDA
330
A02
100
AcDbEntity
  8
Shape001
100
AcDbLine
 10
17.984
 20
3.68088
 30
0
 11
17.6
 21
3.57529
 31
0
  0
LINE
  5
DDB
330
A02
100
AcDbEntity
  8
Shape001
100
AcDbLine
 10
17.6
 20
3.57529
 30
0
 11
17.216
 21
3.46856
 31
0
  0
LINE
  5
DDC
330
A02
100
AcDbEntity
  8
Shape001
100
AcDbLine
 10
17.216
 20
3.46856
 30
0
 11
16.832
 21
3.36064
 31
0
  0
LINE
  5
DDD
330
A02
100
AcDbEntity
  8
Shape001
100
AcDbLine
 10
16.832
 20
3.36064
 30
0
 11
16.448
 21
3.25145
 31
0
  0
LINE
  5
DDE
330
A02
100
AcDbEntity
  8
Shape001
100
AcDbLine
 10
16.448
 20
3.25145
 30
0
 11
16.064
 21
3.14093
 31
0
  0
LINE
  5
DDF
330
A02
100
AcDbEntity
  8
Shape001
100
AcDbLine
 10
16.064
 20
3.14093
 30
0
 11
15.68
 21
3.02901
 31
0
  0
LINE
  5
DE0
330
A02
100
AcDbEntity
  8
Shape001
100
AcDbLine
 10
15.68
 20
3.02901
 30
0
 11
15.296
 21
2.91559
 31
0
  0
LINE
  5
DE1
330
A02
100
AcDbEntity
  8
Shape001
100
AcDbLine
 10
15.296
 20
2.91559
 30
0
 11
14.912
 21
2.80059
 31
0
  0
LINE
  5
DE2
330
A02
100
AcDbEntity
  8
Shape001
100
AcDbLine
 10
14.912
 20
2.80059
 30
0
 11
14.528
 21
2.68389
 31
0
  0
LINE
  5
DE3
330
A02
100
AcDbEntity
  8
Shape001
100
AcDbLine
 10
14.528
 20
2.68389
 30
0
 11
14.144
 21
2.56538
 31
0
  0
LINE
  5
DE4
330
A02
100
AcDbEntity
  8
Shape001
100
AcDbLine
 10
14.144
 20
2.56538
 30
0
 11
13.76
 21
2.44491
 31
0
  0
LINE
  5
DE5
330
A02
100
AcDbEntity
  8
Shape001
100
AcDbLine
 10
13.76
 20
2.44491
 30
0
 11
13.376
 21
2.32233
 31
0
  0
LINE
  5
DE6
330
A02
100
AcDbEntity
  8
Shape001
100
AcDbLine
 10
13.376
 20
2.32233
 30
0
 11
12.992
 21
2.19744
 31
0
  0
LINE
  5
DE7
330
A02
100
AcDbEntity
  8
Shape001
100
AcDbLine
 10
12.992
 20
2.19744
 30
0
 11
12.608
 21
2.07004
 31
0
  0
LINE
  5
DE8
330
A02
100
AcDbEntity
  8
Shape001
100
AcDbLine
 10
12.608
 20
2.07004
 30
0
 11
12.224
 21
1.93986
 31
0
  0
LINE
  5
DE9
330
A02
100
AcDbEntity
  8
Shape001
100
AcDbLine
 10
12.224
 20
1.93986
 30
0
 11
11.84
 21
1.80658
 31
0
  0
LINE
  5
DEA
330
A02
100
AcDbEntity
  8
Shape001
100
AcDbLine
 10
11.84
 20
1.80658
 30
0
 11
11.456
 21
1.66982
 31
0
  0
LINE
  5
DEB
330
A02
100
AcDbEntity
  8
Shape001
100
AcDbLine
 10
11.456
 20
1.66982
 30
0
 11
11.072
 21
1.52911
 31
0
  0
LINE
  5
DEC
330
A02
100
AcDbEntity
  8
Shape001
100
AcDbLine
 10
11.072
 20
1.52911
 30
0
 11
10.688
 21
1.38381
 31
0
  0
LINE
  5
DED
330
A02
100
AcDbEntity
  8
Shape001
100
AcDbLine
 10
10.688
 20
1.38381
 30
0
 11
10.304
 21
1.2331
 31
0
  0
LINE
  5
DEE
330
A02
100
AcDbEntity
  8
Shape001
100
AcDbLine
 10
10.304
 20
1.2331
 30
0
 11
9.92
 21
1.07583
 31
0
  0
LINE
  5
DEF
330
A02
100
AcDbEntity
  8
Shape001
100
AcDbLine
 10
9.92
 20
1.07583
 30
0
 11
9.536
 21
0.910314
 31
0
  0
LINE
  5
DF0
330
A02
100
AcDbEntity
  8
Shape001
100
AcDbLine
 10
9.536
 20
0.910314
 30
0
 11
9.152
 21
0.733868
 31
0
  0
LINE
  5
DF1
330
A02
100
AcDbEntity
  8
Shape001
100
AcDbLine
 10
9.152
 20
0.733868
 30
0
 11
8.768
 21
0.541602
 31
0
  0
LINE
  5
DF2
330
A02
100
AcDbEntity
  8
Shape001
100
AcDbLine
 10
8.768
 20
0.541602
 30
0
 11
8.384
 21
0.322135
 31
0
  0
LINE
  5
DF3
330
A02
100
AcDbEntity
  8
Shape001
100
AcDbLine
 10
8.384
 20
0.322135
 30
0
 11
8
 21
0
 31
0
  0
LINE
  5
DF4
330
A02
100
AcDbEntity
  8
Shape001
100
AcDbLine
 10
8
 20
0
 30
0
 11
0
 21
0
 31
0
  0
ENDSEC
  0
SECTION
  2
OBJECTS
  0
DICTIONARY
  5
F000
330
0
100
AcDbDictionary
  3
ACAD_GROUP
350
F001
  0
DICTIONARY
  5
F001
330
F000
100
AcDbDictionary
  0
ENDSEC
  0
EOF